<?xml version="1.0" encoding="UTF-8" standalone="no"?>
<!-- Created with Inkscape (http://www.inkscape.org/) -->

<svg
   sodipodi:docname="printical.fi new design.svg"
   xml:space="preserve"
   inkscape:version="1.3.2 (091e20e, 2023-11-25, custom)"
   id="svg5"
   version="1.1"
   viewBox="0 0 36.829437 46.629128"
   height="176.23608"
   width="139.19788"
   inkscape:export-filename="tausta.png"
   inkscape:export-xdpi="96"
   inkscape:export-ydpi="96"
   xmlns:inkscape="http://www.inkscape.org/namespaces/inkscape"
   xmlns:sodipodi="http://sodipodi.sourceforge.net/DTD/sodipodi-0.dtd"
   xmlns="http://www.w3.org/2000/svg"
   xmlns:svg="http://www.w3.org/2000/svg"><sodipodi:namedview
     id="namedview7"
     pagecolor="#262626"
     bordercolor="#ffffff"
     borderopacity="1"
     inkscape:pageshadow="0"
     inkscape:pageopacity="0"
     inkscape:pagecheckerboard="false"
     inkscape:document-units="px"
     showgrid="false"
     units="px"
     inkscape:snap-page="true"
     inkscape:showpageshadow="false"
     inkscape:deskcolor="#262626"
     borderlayer="true"
     inkscape:zoom="0.35355339"
     inkscape:cx="712.76364"
     inkscape:cy="3211.679"
     inkscape:window-width="1920"
     inkscape:window-height="1057"
     inkscape:window-x="-8"
     inkscape:window-y="-8"
     inkscape:window-maximized="1"
     inkscape:current-layer="layer6"
     showguides="false"><inkscape:grid
       id="grid274"
       units="px"
       originx="-354.60553"
       originy="-890.68097"
       spacingx="5.08"
       spacingy="2.8575"
       empcolor="#004ebc"
       empopacity="0.30196078"
       color="#e56900"
       opacity="0.14901961"
       empspacing="10"
       dotted="false"
       gridanglex="30"
       gridanglez="30"
       visible="false" /><sodipodi:guide
       position="-100.60552,2033.6811"
       orientation="1,0"
       id="guide2"
       inkscape:locked="false" /><sodipodi:guide
       position="-303.80552,2088.7144"
       orientation="0,-1"
       id="guide16"
       inkscape:locked="false" /><sodipodi:guide
       position="-354.60552,1853.7644"
       orientation="0,-1"
       id="guide84"
       inkscape:locked="false" /><sodipodi:guide
       position="-280.25761,1904.5644"
       orientation="0,-1"
       id="guide139"
       inkscape:locked="false" /><sodipodi:guide
       position="-316.50553,2027.2782"
       orientation="1,0"
       id="guide161"
       inkscape:locked="false" /><sodipodi:guide
       position="115.29451,2027.3311"
       orientation="1,0"
       id="guide162"
       inkscape:locked="false" /><sodipodi:guide
       position="-354.60549,2101.5797"
       orientation="0,-1"
       id="guide200"
       inkscape:locked="false" /><sodipodi:guide
       position="-72.691974,2107.9406"
       orientation="0,-1"
       id="guide52"
       inkscape:locked="false" /><sodipodi:guide
       position="-498.14871,2080.7769"
       orientation="1,0"
       id="guide133"
       inkscape:locked="false" /><sodipodi:guide
       position="-717.22369,2051.5593"
       orientation="0,-1"
       id="guide134"
       inkscape:locked="false" /><sodipodi:guide
       position="-286.38922,1837.536"
       orientation="1,0"
       id="guide173"
       inkscape:locked="false" /><sodipodi:guide
       position="85.178176,1837.536"
       orientation="1,0"
       id="guide174"
       inkscape:locked="false" /></sodipodi:namedview><defs
     id="defs2" /><g
     inkscape:label="Layer 1"
     inkscape:groupmode="layer"
     id="layer1"
     style="display:inline"
     transform="translate(-354.60552,-890.68098)"><g
       id="g173"
       transform="translate(7.4668699,4.2333332)"><path
         style="fill:#020d1b;fill-opacity:1;stroke-width:0.999998"
         d="m 349.27718,932.91237 c -0.2299,-0.11533 -0.41668,-0.40658 -0.59875,-0.93364 -0.24584,-0.71168 -0.29413,-0.76599 -0.68098,-0.76599 -0.52017,0 -0.85878,-0.35845 -0.85878,-0.90909 0,-0.54263 0.88679,-4.54202 1.09696,-4.94721 0.0883,-0.17025 0.3287,-0.34315 0.53422,-0.38426 l 0.37368,-0.0747 v -10.03066 -10.03061 l 0.91255,-0.91256 0.91256,-0.91255 h 10.93913 10.93915 l 0.91255,0.91255 0.91254,0.91256 v 4.01639 c 0,3.39179 -0.031,4.04204 -0.19878,4.18137 -0.10932,0.0907 -0.28976,0.13006 -0.40097,0.0874 -0.17422,-0.0668 -0.20218,-0.62881 -0.20218,-4.0631 v -3.98552 l -0.63947,-0.62984 -0.63947,-0.62986 h -10.69299 -10.69298 l -0.62986,0.63948 -0.62984,0.63945 v 9.91944 9.91945 h 0.80194 0.80193 v -9.47995 -9.47995 l 0.35479,-0.27905 c 0.34325,-0.27001 0.47663,-0.27791 4.10994,-0.2436 l 3.75519,0.0355 v 0.33413 0.33414 l -2.84022,0.0361 -2.84021,0.0361 v 0.91672 c 0,0.89485 0.01,0.92074 0.40551,1.0847 0.47377,0.19623 0.93107,0.72935 0.93107,1.08541 0,0.22783 0.12378,0.24928 1.43852,0.24928 1.35993,0 1.44577,-0.0163 1.57048,-0.29836 0.24894,-0.56292 0.63497,-0.63331 3.47336,-0.63331 2.83839,0 3.22444,0.0704 3.47337,0.63331 0.12894,0.2916 0.18273,0.29836 2.3724,0.29836 h 2.24047 v -0.45811 c 0,-0.54893 0.4976,-1.01213 1.08729,-1.01213 h 0.38295 v -0.93399 -0.93402 l -5.11239,-0.035 -5.11238,-0.035 v -0.33415 -0.33413 l 5.15922,-0.035 c 5.0532,-0.0342 5.16649,-0.0292 5.51335,0.24361 l 0.35414,0.27856 v 9.47995 9.47994 h 0.80194 0.80195 v -5.19833 c 0,-4.45197 0.0283,-5.20915 0.19661,-5.27377 0.10814,-0.0415 0.28859,0.0166 0.40097,0.1289 0.17617,0.17616 0.20435,0.90148 0.20435,5.25708 v 5.05271 l 0.37368,0.0747 c 0.20552,0.0411 0.44592,0.21401 0.53422,0.38426 0.21509,0.41467 1.09695,4.41055 1.09695,4.97043 0,0.52101 -0.341,0.88586 -0.82797,0.88586 -0.29245,0 -0.3789,0.1091 -0.6282,0.79285 -0.25258,0.69273 -0.34935,0.81274 -0.76625,0.95032 -0.26243,0.0867 -0.87019,0.13246 -1.35057,0.10182 -1.00843,-0.0643 -1.2794,-0.28848 -1.52445,-1.26162 l -0.14691,-0.58342 h -9.45587 -9.45588 l -0.28798,0.78981 c -0.23784,0.65233 -0.36078,0.81522 -0.70614,0.93561 -0.56217,0.19598 -1.83649,0.18138 -2.24946,-0.0258 z m 2.19985,-1.06344 c 0.10018,-0.23819 0.15385,-0.47877 0.11933,-0.53462 -0.0345,-0.0558 -0.57699,-0.1016 -1.20547,-0.1016 h -1.14267 l 0.092,0.36681 c 0.15127,0.60267 0.31641,0.70244 1.16264,0.70244 0.76651,0 0.79791,-0.014 0.97412,-0.43305 z m 22.989,0 c 0.10018,-0.23819 0.15385,-0.47877 0.11933,-0.53462 -0.0345,-0.0558 -0.57698,-0.1016 -1.20546,-0.1016 h -1.14269 l 0.0921,0.36681 c 0.15127,0.60267 0.31642,0.70244 1.16265,0.70244 0.7665,0 0.7979,-0.014 0.97411,-0.43305 z m 1.45829,-1.40994 c 0.0551,-0.089 -0.70807,-3.75772 -0.93028,-4.47229 -0.0686,-0.22066 -0.80953,-0.23392 -13.09273,-0.23392 h -13.02 l -0.0747,0.30075 c -0.43204,1.73886 -0.96896,4.31875 -0.91651,4.40363 0.0859,0.13908 27.94828,0.1409 28.03424,9e-4 z m -19.90623,-1.00532 c -0.0376,-0.0979 -0.051,-0.77516 -0.0298,-1.50504 l 0.0386,-1.32706 h 5.88091 5.88092 v 1.47023 1.47023 l -5.85116,0.0348 c -4.77345,0.0284 -5.86373,8.9e-4 -5.91945,-0.14318 z m 11.03547,-1.29505 v -0.80194 h -5.14579 -5.14579 v 0.80194 0.80194 h 5.14579 5.14579 z m -15.7818,0.81222 c -0.4759,-0.47589 -0.52316,-1.1424 -0.11759,-1.65799 0.55922,-0.71093 1.77975,-0.54104 2.12645,0.29601 0.53465,1.29074 -1.02361,2.34723 -2.00886,1.36198 z m 1.30548,-0.6299 c 0.12154,-0.3167 -0.13798,-0.65012 -0.50599,-0.65012 -0.32725,0 -0.47928,0.30508 -0.33691,0.6761 0.1016,0.26477 0.73887,0.24513 0.8429,-0.0259 z m 17.09219,0.009 c -0.10928,-0.10927 -0.16351,-0.29035 -0.12052,-0.40236 0.11554,-0.3011 0.63763,-0.17858 0.68608,0.16099 0.0509,0.35702 -0.3001,0.50683 -0.56556,0.24137 z m 1.82823,0.12151 c -0.0919,-0.0371 -0.16706,-0.21277 -0.16706,-0.39043 0,-0.25158 0.0707,-0.323 0.31983,-0.323 0.39574,0 0.54011,0.32386 0.26638,0.59759 -0.11239,0.11239 -0.21509,0.1996 -0.22821,0.19381 -0.0132,-0.005 -0.0991,-0.0409 -0.19094,-0.078 z m 1.71227,-0.0401 c -0.24001,-0.14834 -0.11821,-0.59451 0.17786,-0.65152 0.27773,-0.0534 0.49267,0.19661 0.39276,0.45696 -0.0872,0.22729 -0.36462,0.32187 -0.57062,0.19456 z m -19.8932,-5.45155 0.0371,-1.97145 h 0.33414 0.33415 l 0.0371,1.97145 0.0371,1.97144 h 0.93203 0.93202 v -0.45718 c 0,-0.3944 -0.0526,-0.46872 -0.3825,-0.5412 -0.4534,-0.0995 -0.68677,-0.53456 -0.68677,-1.28009 0,-0.87202 0.30741,-1.06296 1.7112,-1.06296 h 1.17658 l -0.008,-0.72407 c -0.0118,-1.21649 0.67189,-1.67948 2.48263,-1.681 0.94559,-9e-4 1.10212,-0.0884 1.25637,-0.70293 0.0756,-0.30141 0.0182,-0.4355 -0.3234,-0.75458 -0.28622,-0.26735 -0.4154,-0.51272 -0.4154,-0.78901 0,-0.31658 -0.0984,-0.45907 -0.46778,-0.67698 -0.44817,-0.26441 -0.48704,-0.34946 -0.52667,-1.15245 -0.007,-0.15583 -0.12279,-0.28347 -0.27785,-0.30823 -0.58952,-0.0941 -1.0069,-0.34293 -1.08289,-0.64563 -0.0777,-0.30957 -0.11474,-0.31722 -1.53534,-0.31722 -1.34728,0 -1.45574,0.0192 -1.45574,0.25705 0,0.35467 -0.59744,1.03275 -0.99866,1.13344 l -0.33115,0.0832 -0.0367,2.1034 -0.0367,2.1034 h -0.33415 -0.33414 l -0.0367,-2.10509 -0.0369,-2.1051 h -0.4644 -0.46441 v 4.81164 4.81166 h 0.46423 0.46421 z m 4.38084,1.50363 c 0,-0.44552 -0.0222,-0.46779 -0.46779,-0.46779 -0.44553,0 -0.4678,0.0223 -0.4678,0.46779 0,0.44553 0.0222,0.46781 0.4678,0.46781 0.44552,0 0.46779,-0.0223 0.46779,-0.46781 z m 7.61845,0 v -0.46779 h -3.40825 -3.40826 v 0.46779 0.46781 h 3.40826 3.40825 z m 1.73754,0 c 0,-0.44552 -0.0223,-0.46779 -0.46779,-0.46779 -0.44553,0 -0.46779,0.0223 -0.46779,0.46779 0,0.44553 0.0223,0.46781 0.46779,0.46781 0.44552,0 0.46779,-0.0223 0.46779,-0.46781 z m 4.41069,-4.34385 v -4.81165 h -0.42576 c -0.58162,0 -1.04448,-0.45456 -1.04448,-1.02572 v -0.4445 h -2.25766 -2.25769 l -0.0796,0.31722 c -0.076,0.3027 -0.49336,0.55156 -1.08287,0.64563 -0.15508,0.0248 -0.27017,0.1524 -0.27787,0.30823 -0.0397,0.80299 -0.0785,0.88804 -0.52666,1.15245 -0.36933,0.21791 -0.46779,0.3604 -0.46779,0.67698 0,0.27318 -0.1278,0.52035 -0.40097,0.77554 -0.30574,0.28561 -0.40098,0.49198 -0.40098,0.86892 0,0.38402 -0.10149,0.59582 -0.45443,0.94881 -0.44448,0.44448 -0.47895,0.45444 -1.57414,0.45444 -1.29592,0 -1.71382,0.19233 -1.71382,0.78881 0,0.72222 0.26097,0.80449 2.67986,0.84504 l 2.19862,0.0369 v 0.33414 0.33414 l -3.84264,0.0355 -3.84264,0.0355 v 0.39892 0.39894 h 6.21505 6.21505 v -0.39687 -0.39685 l -1.6373,-0.0375 -1.6373,-0.0375 v -0.33415 -0.33415 l 1.76711,-0.0373 c 1.62493,-0.0342 1.78892,-0.0154 2.03826,0.23391 0.54874,0.54872 0.27303,1.92834 -0.41557,2.07958 -0.32999,0.0725 -0.38252,0.14679 -0.38252,0.54119 v 0.45718 h 1.80438 1.80437 z m -9.08868,-3.41295 c 0,-0.28741 -0.0598,-0.32944 -0.4678,-0.32944 -0.40736,0 -0.4678,0.0423 -0.4678,0.3275 0,0.18012 0.10367,0.38554 0.23044,0.45647 0.32994,0.18463 0.70516,-0.0572 0.70516,-0.45453 z m 0.9356,-1.53236 v -0.40096 h -1.4034 -1.4034 v 0.40096 0.40098 h 1.4034 1.4034 z m -8.72658,-1.06926 c 0.11406,-0.22605 0.1686,-1.00422 0.1686,-2.40582 0,-2.71243 -0.008,-2.72749 -1.36955,-2.779 l -1.03234,-0.039 v 0.40659 c 0,0.38892 0.0248,0.40669 0.56804,0.40865 0.91644,0.004 0.91445,-8.9e-4 0.8727,2.07994 l -0.0374,1.86089 -0.70171,0.0403 c -0.68102,0.0392 -0.70169,0.0522 -0.70169,0.44001 v 0.39959 l 1.03234,-0.039 c 0.94855,-0.0359 1.04605,-0.0661 1.20095,-0.37319 z m 16.87966,-2.40582 v -2.8068 h -0.33415 -0.33414 v 2.8068 2.80681 h 0.33414 0.33415 z m -6.74968,0 v -2.20534 h -2.8068 -2.80681 l -0.0371,2.06606 c -0.0204,1.13634 -0.006,2.14501 0.0301,2.24148 0.0532,0.13863 0.64969,0.16783 2.84385,0.13928 l 2.77653,-0.0362 z m -4.4441,1.24805 c -0.11612,-0.0468 -0.16706,-0.43083 -0.16706,-1.25919 v -1.19177 h 1.80436 1.80437 v 1.18861 c 0,0.96057 -0.0406,1.20419 -0.21141,1.26975 -0.25075,0.0963 -2.98901,0.0899 -3.23026,-0.008 z m 2.70656,-1.24805 v -0.4678 h -1.06926 c -1.01704,0 -1.07139,0.0152 -1.11324,0.31045 -0.0901,0.63632 0.0302,0.70617 1.14463,0.66421 l 1.03787,-0.039 z m -4.63612,0.90218 -0.0418,-0.43437 -1.43682,-0.038 -1.4368,-0.038 v 0.47231 0.47232 h 1.47868 1.4787 z m 11.6531,-0.0366 v -0.47104 l -2.23875,0.0366 -2.23875,0.0366 -0.0418,0.43438 -0.0418,0.43439 h 2.28065 2.28063 z m -16.97443,-0.86554 c 0,-1.19401 -0.002,-1.20293 -0.33415,-1.20293 -0.33166,0 -0.33413,0.009 -0.33413,1.20293 0,1.19399 0.002,1.20291 0.33413,1.20291 0.33167,0 0.33415,-0.009 0.33415,-1.20291 z m 5.34628,-0.86877 v -0.4678 h -1.47022 -1.47023 v 0.4678 0.4678 h 1.47023 1.47022 z m 11.62815,0 v -0.4678 h -2.27216 -2.27217 v 0.4678 0.4678 h 2.27217 2.27216 z m -16.70712,-3.67557 v -0.9356 h -0.46779 -0.4678 v 0.9356 0.9356 h 0.4678 0.46779 z"
         id="path172" /><path
         style="fill:#020d1b;fill-opacity:1;stroke:#020d1b;stroke-width:0.132292;stroke-dasharray:none;stroke-opacity:1"
         d="m 383.82473,893.13888 c -0.26495,-1.66924 -1.01135,-3.11751 -2.23979,-4.34594 -1.56141,-1.56142 -3.29503,-2.27913 -5.50519,-2.27913 -2.21016,0 -3.94377,0.71771 -5.50519,2.27913 -1.56141,1.56142 -2.27912,3.29504 -2.27912,5.50519 0,2.2087 0.71691,3.94121 2.27912,5.50773 0.75461,0.7567 1.11555,1.01789 2.0089,1.45371 0.59895,0.2922 1.39851,0.59549 1.7768,0.67397 0.88505,0.1836 2.55992,0.18281 3.43898,-0.002 0.83939,-0.17611 2.32999,-0.87554 3.06643,-1.43884 l 0.5445,-0.41648 v 2.08827 c 0,1.75804 -0.0292,2.12049 -0.18439,2.29202 -0.11215,0.12393 -0.70173,0.32407 -1.50474,0.5108 -1.63939,0.38123 -2.00742,0.64555 -2.02498,1.4543 -0.009,0.43652 0.0469,0.58876 0.32524,0.87939 0.18517,0.19331 0.4026,0.35148 0.48316,0.35148 0.21536,0 0.41344,0.43944 0.33641,0.74634 -0.0548,0.21846 -0.33017,0.3686 -1.52863,0.83353 -1.18478,0.45962 -1.4687,0.61355 -1.49845,0.81238 -0.0202,0.13528 0.037,0.27359 0.12754,0.30835 0.0903,0.0347 0.85029,-0.21159 1.68878,-0.54724 1.41402,-0.56601 1.54096,-0.64187 1.75086,-1.04635 0.32369,-0.62374 0.13887,-1.20522 -0.52429,-1.64942 -0.58713,-0.39329 -0.70403,-0.83757 -0.29059,-1.1044 0.14566,-0.094 0.75491,-0.2842 1.35385,-0.42266 2.11991,-0.49005 2.06339,-0.39183 2.06339,-3.58634 v -2.50971 l 0.3871,-0.53121 c 1.16752,-1.6022 1.75215,-3.94073 1.4543,-5.81724 z m -0.74477,2.71817 c -0.67961,3.20611 -3.67324,5.60164 -7.00021,5.60164 -3.94858,0 -7.16055,-3.21196 -7.16055,-7.16056 0,-3.17925 1.98131,-5.82979 5.15449,-6.89548 0.88736,-0.29801 3.12477,-0.29801 4.01213,0 2.07628,0.6973 3.56235,1.97243 4.47129,3.83662 0.65867,1.35089 0.85249,3.06268 0.52285,4.61778 z m -1.01065,-1.93165 c -0.37475,-0.34981 -0.80184,-0.42303 -1.21656,-0.20858 -0.68633,0.35493 -0.80343,1.12954 -0.25382,1.67914 0.37451,0.37451 0.76169,0.42588 1.26157,0.16737 0.37795,-0.19544 0.46673,-0.37959 0.46673,-0.96801 0,-0.29731 -0.0792,-0.50314 -0.25792,-0.66992 z m -0.41593,0.98458 c -0.0535,0.0843 -0.22031,0.13592 -0.37081,0.11464 -0.21867,-0.0309 -0.27361,-0.10742 -0.27361,-0.38102 0,-0.38043 0.29046,-0.52277 0.57866,-0.28358 0.1879,0.15594 0.20815,0.32532 0.0657,0.54996 z m -0.88387,-4.78715 c -0.24711,-0.29366 -0.37971,-0.35268 -0.79224,-0.35268 -0.41651,0 -0.54458,0.0584 -0.80362,0.36621 -0.86494,1.02792 0.60566,2.31398 1.55755,1.36209 0.42717,-0.42717 0.44028,-0.89789 0.0382,-1.37562 z m -0.60446,1.01443 c -0.27434,0.14682 -0.63047,-0.0944 -0.57281,-0.38802 0.0631,-0.3212 0.3858,-0.48093 0.60468,-0.29927 0.24522,0.20351 0.22927,0.54754 -0.0319,0.68729 z m 0.0537,6.46555 c -0.36714,-0.42682 -1.06637,-0.44726 -1.49592,-0.0437 -0.44333,0.41649 -0.41522,1.14384 0.0597,1.54343 0.45075,0.37927 0.90726,0.37927 1.358,0 0.45676,-0.38434 0.49,-1.02105 0.0783,-1.4997 z m -0.4363,0.97113 c -0.19142,0.19142 -0.49388,0.17164 -0.67284,-0.044 -0.29659,-0.35736 0.27825,-0.80517 0.64395,-0.50167 0.20242,0.16799 0.21268,0.36189 0.0289,0.54568 z m -1.075,-5.56889 c -0.51999,-1.04348 -1.46031,-1.62501 -2.62764,-1.62501 -1.65663,0 -2.92313,1.26431 -2.92313,2.91809 0,1.65523 1.26309,2.91458 2.92929,2.92062 2.17054,0.008 3.58901,-2.27212 2.62148,-4.2137 z m -0.65564,2.43144 c -0.37098,0.67157 -1.17072,1.12973 -1.972,1.12973 -1.44898,0 -2.60186,-1.42275 -2.24045,-2.76492 0.40557,-1.50618 2.01258,-2.23485 3.31931,-1.50507 1.17468,0.65603 1.54541,1.95949 0.89314,3.14026 z m -0.99504,-7.06994 c -0.28165,-0.35807 -0.74998,-0.4566 -1.22562,-0.25786 -0.71392,0.29829 -0.85169,1.20935 -0.25838,1.70858 0.50604,0.42582 1.16973,0.36137 1.56376,-0.15182 0.2176,-0.28342 0.17515,-0.97485 -0.0798,-1.2989 z m -0.52638,0.99396 c -0.18183,0.18182 -0.51556,0.10227 -0.67876,-0.16177 -0.10817,-0.17503 0.157,-0.57492 0.38124,-0.57492 0.4362,0 0.60823,0.42598 0.29752,0.73669 z m -0.0688,9.62198 c -0.21505,-0.44412 -0.99354,-0.64104 -1.48802,-0.3764 -0.30439,0.1629 -0.5506,0.76937 -0.47433,1.16836 0.0832,0.43521 0.54458,0.77198 1.05153,0.76752 0.8203,-0.007 1.28073,-0.79555 0.91082,-1.55948 z m -0.80203,0.91429 c -0.13805,0.0865 -0.24133,0.0779 -0.37256,-0.0309 -0.25313,-0.21007 -0.22646,-0.54903 0.055,-0.6997 0.47763,-0.25561 0.78023,0.44073 0.31752,0.73069 z m -2.43568,-10.06987 c -0.58303,-0.58301 -1.45091,-0.45431 -1.74911,0.25939 -0.34193,0.81837 0.30776,1.62923 1.17503,1.46654 0.79156,-0.14851 1.131,-1.169 0.57408,-1.72593 z m -0.59862,1.05408 c -0.24712,0.0948 -0.55759,-0.10881 -0.55759,-0.36573 0,-0.25693 0.31047,-0.46057 0.55759,-0.36574 0.24523,0.0941 0.24523,0.63737 0,0.73147 z m 0.61375,6.2157 c -0.41061,-0.5348 -1.10987,-0.58501 -1.58137,-0.11351 -0.69222,0.69222 -0.26644,1.78042 0.69662,1.78042 0.38599,0 0.53792,-0.064 0.75728,-0.31903 0.30308,-0.35236 0.36765,-1.03505 0.12747,-1.34788 z m -0.56377,0.90408 c -0.34749,0.34748 -0.97002,-0.12525 -0.6588,-0.50025 0.24114,-0.29055 0.79634,-0.1256 0.79634,0.23659 0,0.0693 -0.0619,0.188 -0.13754,0.26366 z m -1.01375,-4.37071 c -0.73835,-0.93867 -2.21455,-0.0855 -1.81839,1.05089 0.3769,1.08118 2.05263,0.76866 2.05263,-0.38282 0,-0.20366 -0.10541,-0.5043 -0.23424,-0.66807 z m -0.64109,1.0338 c -0.24712,0.0948 -0.55758,-0.1088 -0.55758,-0.36573 0,-0.25692 0.31046,-0.46057 0.55758,-0.36574 0.24522,0.0941 0.24522,0.63738 0,0.73147 z"
         id="path173" /></g></g></svg>
