<?xml version="1.0" encoding="UTF-8" standalone="no"?>
<!-- Created with Inkscape (http://www.inkscape.org/) -->

<svg
   sodipodi:docname="printical.fi new design.svg"
   xml:space="preserve"
   inkscape:version="1.3.2 (091e20e, 2023-11-25, custom)"
   id="svg5"
   version="1.1"
   viewBox="0 0 59.377721 32.514454"
   height="122.88928"
   width="224.41974"
   inkscape:export-filename="tausta.png"
   inkscape:export-xdpi="96"
   inkscape:export-ydpi="96"
   xmlns:inkscape="http://www.inkscape.org/namespaces/inkscape"
   xmlns:sodipodi="http://sodipodi.sourceforge.net/DTD/sodipodi-0.dtd"
   xmlns="http://www.w3.org/2000/svg"
   xmlns:svg="http://www.w3.org/2000/svg"><sodipodi:namedview
     id="namedview7"
     pagecolor="#262626"
     bordercolor="#ffffff"
     borderopacity="1"
     inkscape:pageshadow="0"
     inkscape:pageopacity="0"
     inkscape:pagecheckerboard="false"
     inkscape:document-units="px"
     showgrid="false"
     units="px"
     inkscape:snap-page="true"
     inkscape:showpageshadow="false"
     inkscape:deskcolor="#262626"
     borderlayer="true"
     inkscape:zoom="0.50000001"
     inkscape:cx="-1477"
     inkscape:cy="310.99999"
     inkscape:window-width="1920"
     inkscape:window-height="1057"
     inkscape:window-x="-8"
     inkscape:window-y="-8"
     inkscape:window-maximized="1"
     inkscape:current-layer="layer6"
     showguides="false"><inkscape:grid
       id="grid274"
       units="px"
       originx="240.83154"
       originy="-74.494674"
       spacingx="5.08"
       spacingy="2.8575"
       empcolor="#004ebc"
       empopacity="0.30196078"
       color="#e56900"
       opacity="0.14901961"
       empspacing="10"
       dotted="false"
       gridanglex="30"
       gridanglez="30"
       visible="false" /><sodipodi:guide
       position="494.83154,1217.4948"
       orientation="1,0"
       id="guide2"
       inkscape:locked="false" /><sodipodi:guide
       position="698.03154,1272.5281"
       orientation="1,0"
       id="guide14"
       inkscape:locked="false" /><sodipodi:guide
       position="291.63154,1272.5281"
       orientation="1,0"
       id="guide15"
       inkscape:locked="false" /><sodipodi:guide
       position="291.63154,1272.5281"
       orientation="0,-1"
       id="guide16"
       inkscape:locked="false" /><sodipodi:guide
       position="240.83154,1037.5781"
       orientation="0,-1"
       id="guide84"
       inkscape:locked="false" /><sodipodi:guide
       position="393.29768,1180.5192"
       orientation="1,0"
       id="guide136"
       inkscape:locked="false" /><sodipodi:guide
       position="596.36538,1180.5192"
       orientation="1,0"
       id="guide137"
       inkscape:locked="false" /><sodipodi:guide
       position="315.17945,1088.3781"
       orientation="0,-1"
       id="guide139"
       inkscape:locked="false" /><sodipodi:guide
       position="278.93153,1211.0919"
       orientation="1,0"
       id="guide161"
       inkscape:locked="false" /><sodipodi:guide
       position="710.73157,1211.1448"
       orientation="1,0"
       id="guide162"
       inkscape:locked="false" /><sodipodi:guide
       position="240.83157,1285.3934"
       orientation="0,-1"
       id="guide200"
       inkscape:locked="false" /><sodipodi:guide
       position="729.78151,1088.3781"
       orientation="1,0"
       id="guide6"
       inkscape:locked="false" /><sodipodi:guide
       position="259.88151,1088.3781"
       orientation="1,0"
       id="guide7"
       inkscape:locked="false" /><sodipodi:guide
       position="522.74509,1291.7543"
       orientation="0,-1"
       id="guide52"
       inkscape:locked="false" /><sodipodi:guide
       position="97.288349,1264.5906"
       orientation="1,0"
       id="guide133"
       inkscape:locked="false" /><sodipodi:guide
       position="-121.78663,1235.373"
       orientation="0,-1"
       id="guide134"
       inkscape:locked="false" /></sodipodi:namedview><defs
     id="defs2" /><g
     inkscape:groupmode="layer"
     id="layer6"
     inkscape:label="Layer 6"
     transform="translate(240.83154,-74.494676)"><g
       id="g169"
       transform="translate(-13.607905)"
       inkscape:export-filename="ABOUT US.png"
       inkscape:export-xdpi="96"
       inkscape:export-ydpi="96"><path
         id="path137"
         style="fill:#020d1b;fill-opacity:1;stroke-width:0.600001;paint-order:fill markers stroke"
         d="m -196.6307,74.494675 a 1.199302,1.199302 0 0 1 0.29404,0.763261 v 2.638599 h 3.59978 a 1.1994219,1.1994219 0 0 1 1.19889,1.19941 v 3.837491 a 1.1994219,1.1994219 0 0 1 -0.3514,0.84801 l -4.7966,4.796607 a 1.1994219,1.1994219 0 0 1 -1.69758,0 l -3.94911,-3.949113 -0.58963,0.591695 -0.59221,0.591695 6.82853,6.828524 a 1.1994219,1.1994219 0 0 1 0.34933,0.847493 v 2.876827 a 1.199302,1.199302 0 0 1 -0.27647,0.736389 11.356053,11.356053 0 0 0 10.4345,-11.290266 11.356053,11.356053 0 0 0 -10.45207,-11.316622 z m -1.82573,0.02687 a 11.356053,11.356053 0 0 0 -10.4345,11.28975 11.356053,11.356053 0 0 0 10.43295,11.290266 1.199302,1.199302 0 0 1 -0.27699,-0.736389 v -2.380733 l -7.3241,-7.324101 a 1.1994219,1.1994219 0 0 1 0,-1.69757 l 1.43919,-1.437122 1.43971,-1.439705 a 1.1994219,1.1994219 0 0 1 1.69499,0 l 3.95118,3.949113 3.59771,-3.597713 v -2.142505 h -7.43521 a 1.199302,1.199302 0 0 1 -1.20147,-1.198893 1.199302,1.199302 0 0 1 1.20147,-1.19941 h 2.6386 v -2.638599 a 1.199302,1.199302 0 0 1 0.27647,-0.736389 z m 8.59637,10.09189 a 1.199302,1.199302 0 0 1 0.84957,0.349333 1.199302,1.199302 0 0 1 0,1.69757 l -4.79868,4.796607 a 1.199302,1.199302 0 0 1 -1.6955,0 1.199302,1.199302 0 0 1 0,-1.694987 l 4.79712,-4.79919 a 1.199302,1.199302 0 0 1 0.84749,-0.349333 z" /><text
         xml:space="preserve"
         style="font-style:normal;font-variant:normal;font-weight:normal;font-stretch:normal;font-size:7.37153px;line-height:1.2;font-family:Rubik;-inkscape-font-specification:Rubik;text-align:end;letter-spacing:1.10573px;text-anchor:end;fill:#020d1b;fill-opacity:1;stroke:none;stroke-width:0.264583;stroke-linejoin:bevel;stroke-dasharray:none;stroke-opacity:1;paint-order:fill markers stroke"
         x="-197.74487"
         y="106.93542"
         id="text142"
         inkscape:export-filename=".\yhteystiedot.png"
         inkscape:export-xdpi="96"
         inkscape:export-ydpi="96"><tspan
           sodipodi:role="line"
           id="tspan142"
           style="font-style:normal;font-variant:normal;font-weight:normal;font-stretch:normal;font-size:7.37153px;font-family:Rubik;-inkscape-font-specification:Rubik;text-align:center;letter-spacing:1.10573px;text-anchor:middle;fill:#020d1b;fill-opacity:1;stroke-width:0.264583"
           x="-197.192"
           y="106.93542">PRINTICAL OY</tspan></text></g></g></svg>
