<?xml version="1.0" encoding="UTF-8" standalone="no"?>
<!-- Created with Inkscape (http://www.inkscape.org/) -->

<svg
   sodipodi:docname="printical.fi new design.svg"
   xml:space="preserve"
   inkscape:version="1.3.2 (091e20e, 2023-11-25, custom)"
   id="svg5"
   version="1.1"
   viewBox="0 0 63.66475 34.343638"
   height="129.80273"
   width="240.62268"
   inkscape:export-filename="tausta.png"
   inkscape:export-xdpi="96"
   inkscape:export-ydpi="96"
   xmlns:inkscape="http://www.inkscape.org/namespaces/inkscape"
   xmlns:sodipodi="http://sodipodi.sourceforge.net/DTD/sodipodi-0.dtd"
   xmlns="http://www.w3.org/2000/svg"
   xmlns:svg="http://www.w3.org/2000/svg"><sodipodi:namedview
     id="namedview7"
     pagecolor="#262626"
     bordercolor="#ffffff"
     borderopacity="1"
     inkscape:pageshadow="0"
     inkscape:pageopacity="0"
     inkscape:pagecheckerboard="false"
     inkscape:document-units="px"
     showgrid="false"
     units="px"
     inkscape:snap-page="true"
     inkscape:showpageshadow="false"
     inkscape:deskcolor="#262626"
     borderlayer="true"
     inkscape:zoom="0.5"
     inkscape:cx="1166"
     inkscape:cy="3455"
     inkscape:window-width="1920"
     inkscape:window-height="1057"
     inkscape:window-x="-8"
     inkscape:window-y="-8"
     inkscape:window-maximized="1"
     inkscape:current-layer="layer2"
     showguides="false"><inkscape:grid
       id="grid274"
       units="px"
       originx="-357.84592"
       originy="-802.41723"
       spacingx="5.08"
       spacingy="2.8575"
       empcolor="#004ebc"
       empopacity="0.30196078"
       color="#e56900"
       opacity="0.14901961"
       empspacing="10"
       dotted="false"
       gridanglex="30"
       gridanglez="30"
       visible="false" /><sodipodi:guide
       position="-103.84591,1945.4173"
       orientation="1,0"
       id="guide2"
       inkscape:locked="false" /><sodipodi:guide
       position="-307.04591,2000.4506"
       orientation="0,-1"
       id="guide16"
       inkscape:locked="false" /><sodipodi:guide
       position="-357.84591,1765.5006"
       orientation="0,-1"
       id="guide84"
       inkscape:locked="false" /><sodipodi:guide
       position="-283.498,1816.3006"
       orientation="0,-1"
       id="guide139"
       inkscape:locked="false" /><sodipodi:guide
       position="-319.74592,1939.0144"
       orientation="1,0"
       id="guide161"
       inkscape:locked="false" /><sodipodi:guide
       position="112.05412,1939.0673"
       orientation="1,0"
       id="guide162"
       inkscape:locked="false" /><sodipodi:guide
       position="-357.84588,2013.3159"
       orientation="0,-1"
       id="guide200"
       inkscape:locked="false" /><sodipodi:guide
       position="-75.932361,2019.6768"
       orientation="0,-1"
       id="guide52"
       inkscape:locked="false" /><sodipodi:guide
       position="-501.3891,1992.5131"
       orientation="1,0"
       id="guide133"
       inkscape:locked="false" /><sodipodi:guide
       position="-720.46408,1963.2955"
       orientation="0,-1"
       id="guide134"
       inkscape:locked="false" /><sodipodi:guide
       position="-289.62961,1749.2723"
       orientation="1,0"
       id="guide173"
       inkscape:locked="false" /><sodipodi:guide
       position="81.937789,1749.2723"
       orientation="1,0"
       id="guide174"
       inkscape:locked="false" /></sodipodi:namedview><defs
     id="defs2" /><g
     inkscape:label="Layer 1"
     inkscape:groupmode="layer"
     id="layer1"
     style="display:inline"
     transform="translate(-357.84591,-802.41725)"><g
       id="g236"
       transform="translate(-0.45179337,7.9485605)"><path
         style="fill:#020d1b;fill-opacity:1;stroke-width:0.999999"
         d="m 370.07808,822.53183 c 1.38306,-0.37938 1.95332,-0.64802 1.95332,-0.92019 0,-0.12176 -0.0398,-0.2459 -0.0886,-0.27601 -0.0488,-0.0301 -0.60959,0.12727 -1.24647,0.34967 -1.10768,0.38682 -1.22288,0.40454 -2.65372,0.40827 -1.92036,0.006 -2.44183,-0.21821 -2.57165,-1.10085 -0.0288,-0.19623 0.0894,-0.23779 1.16793,-0.41024 2.77974,-0.44445 4.50133,-1.23449 8.93799,-4.1016 4.37333,-2.82619 4.41114,-2.84736 4.86301,-2.72259 0.47392,0.13089 2.45951,0.0482 3.01824,-0.12565 0.2213,-0.0689 0.5828,-0.24763 0.80329,-0.39727 l 0.40094,-0.27208 -0.002,0.52296 c -0.0121,2.25301 -1.74556,4.33878 -4.247,5.10885 -0.53415,0.16444 -1.06022,0.2344 -1.77276,0.23576 -1.50496,0.002 -2.35645,0.22555 -4.08334,1.06799 -0.83541,0.40753 -1.54378,0.80573 -1.57416,0.8849 -0.0303,0.0792 0.0188,0.21791 0.1091,0.30836 0.14537,0.14537 0.34708,0.075 1.74036,-0.60733 1.69434,-0.82973 2.28612,-0.99107 3.63539,-0.99107 3.39748,0 6.19574,-2.14142 6.7406,-5.15838 0.11759,-0.65091 0.17013,-2.38938 0.12712,-4.20407 -0.0878,-3.70267 -2.5416,-7.1699 -5.97028,-8.43576 -0.75312,-0.27806 -0.81997,-0.28572 -0.99187,-0.11384 -0.1614,0.1614 -0.16415,0.20279 -0.0221,0.33277 0.0893,0.0816 0.41151,0.23724 0.71622,0.34572 1.89004,0.67296 3.72715,2.33816 4.70863,4.26802 0.67677,1.33074 1.10399,3.45359 0.94732,4.70738 -0.14078,1.12684 -0.86947,1.76441 -2.19964,1.92453 -1.71197,0.20611 -3.12537,-0.18826 -4.8103,-1.34218 -1.52452,-1.04406 -1.97362,-1.06432 -4.24132,-0.19126 -1.94993,0.75071 -2.22995,0.81389 -3.60094,0.81261 -1.00247,-8.4e-4 -1.33678,-0.0463 -1.88357,-0.25559 -0.98116,-0.3755 -1.97436,-0.98834 -3.15776,-1.94846 -1.24995,-1.0141 -1.80967,-1.28817 -2.70996,-1.32701 -0.8584,-0.037 -0.80056,-0.0216 -0.88228,-0.23462 -0.11272,-0.29386 0.2421,-1.1864 0.67093,-1.68738 0.64587,-0.75455 0.88766,-0.83639 2.65617,-0.89908 l 1.56302,-0.0555 1.37314,-0.68169 c 1.56968,-0.77927 2.00639,-0.93814 3.29933,-1.20037 1.1547,-0.23417 1.67384,-0.45429 2.69733,-1.14368 1.22178,-0.82294 1.4936,-0.93936 2.63375,-1.12794 0.91447,-0.15127 1.05257,-0.20275 1.05257,-0.39238 0,-0.18866 -0.0886,-0.22285 -0.65286,-0.25198 -0.96462,-0.0498 -1.95378,0.2933 -3.18384,1.1043 -1.13891,0.75091 -1.69535,0.99764 -2.70039,1.19739 -1.19659,0.23781 -2.05731,0.54843 -3.46578,1.25073 l -1.38706,0.69162 h -1.50693 c -1.43674,0 -1.52757,0.0135 -1.95072,0.28898 -1.86093,1.21175 -2.39076,3.75515 -0.78225,3.75515 0.27459,0 0.28437,0.0236 0.28672,0.6925 0.002,0.82754 0.26068,1.46305 0.76588,1.88814 0.37965,0.31946 0.76449,0.38497 0.98229,0.16716 0.0732,-0.0732 0.1329,-0.39396 0.1329,-0.71298 0,-0.319 0.0506,-0.71305 0.11238,-0.87566 l 0.11237,-0.29565 0.41389,0.37372 c 0.22764,0.20554 0.51362,0.44753 0.63548,0.53772 0.1805,0.13358 0.2229,0.29759 0.22861,0.88422 0.008,0.81368 0.21042,1.29726 0.74939,1.78953 0.35388,0.32322 0.88215,0.422 1.02456,0.19157 0.0421,-0.0682 0.0825,-0.41309 0.0896,-0.76636 0.007,-0.35327 0.0422,-0.67145 0.0777,-0.70707 0.0355,-0.0355 0.39144,0.0159 0.79071,0.11438 l 0.72596,0.17915 0.074,0.55725 c 0.0958,0.72301 0.41053,1.32797 0.87475,1.68205 0.68359,0.5214 1.05571,0.29186 1.0473,-0.64601 -0.005,-0.43262 0.0679,-0.73075 0.25837,-1.07158 0.24225,-0.43367 0.3252,-0.48892 1.0165,-0.67691 0.41402,-0.1126 1.32553,-0.42865 2.02559,-0.70236 1.85349,-0.72467 2.01687,-0.70455 3.74919,0.46173 0.49053,0.33023 1.00496,0.62882 1.14322,0.66353 0.13824,0.0347 0.25134,0.0982 0.25134,0.14135 0,0.0431 -0.63035,0.47017 -1.4008,0.94917 -1.34907,0.83872 -1.41147,0.8649 -1.68967,0.70888 -0.15888,-0.0892 -0.48285,-0.42191 -0.71993,-0.73958 -0.48072,-0.64409 -0.82337,-0.74603 -1.11383,-0.33133 -0.24518,0.35003 -0.22218,1.46175 0.0423,2.04422 l 0.20989,0.46231 -0.41972,0.27776 -0.41973,0.27776 -0.38901,-0.26435 c -0.21396,-0.14538 -0.57361,-0.51581 -0.79923,-0.82315 -0.42643,-0.58091 -0.69206,-0.68546 -0.98847,-0.38907 -0.35837,0.35838 -0.36527,1.68919 -0.0121,2.229 0.23955,0.36559 0.21698,0.41284 -0.3223,0.67485 l -0.48782,0.237 -0.39324,-0.29803 c -0.21628,-0.1639 -0.57243,-0.53485 -0.79144,-0.82431 -0.23357,-0.3087 -0.48666,-0.52629 -0.61216,-0.52629 -0.51577,0 -0.80755,1.13588 -0.51119,1.99004 0.0944,0.27184 0.16124,0.50121 0.1487,0.5097 -0.0121,0.008 -0.23803,0.0684 -0.5011,0.1329 -0.45123,0.1109 -0.4996,0.0988 -0.85443,-0.21275 -0.20687,-0.18163 -0.48025,-0.49869 -0.60749,-0.70457 -0.55746,-0.90201 -1.21752,-0.4715 -1.21752,0.79415 0,0.33433 -0.0679,0.54997 -0.2216,0.70365 -0.43334,0.43334 -0.18597,1.54638 0.44327,1.99443 0.84418,0.60112 2.92582,0.72287 4.58368,0.26811 z m -4.13707,-2.89963 0.002,-0.41548 0.27508,0.3127 c 0.29724,0.3379 0.27391,0.51828 -0.067,0.51828 -0.17528,0 -0.21441,-0.077 -0.21156,-0.4155 z m 2.99889,-0.70902 c -0.13961,-0.4005 -0.16089,-0.87479 -0.0385,-0.85941 0.0456,0.006 0.27601,0.22951 0.51178,0.49727 l 0.42867,0.48685 -0.26247,0.10514 c -0.42394,0.16971 -0.51109,0.1384 -0.63943,-0.2298 z m 3.04873,-1.46829 c -0.0985,-0.20725 -0.17883,-0.5384 -0.17883,-0.73584 v -0.35903 l 0.54272,0.48657 c 0.29849,0.26761 0.5477,0.51149 0.5538,0.54194 0.0102,0.0568 -0.54132,0.41481 -0.66839,0.43307 -0.0388,0.006 -0.15096,-0.15945 -0.2493,-0.36671 z m 2.76936,-1.84136 c -0.098,-0.245 -0.17823,-0.58089 -0.17823,-0.74643 0,-0.29546 0.009,-0.29127 0.52629,0.22802 l 0.5263,0.52903 -0.27699,0.21494 c -0.15236,0.11826 -0.30899,0.21605 -0.34807,0.21741 -0.039,10e-4 -0.15127,-0.19799 -0.2493,-0.44297 z m -5.15426,-1.47312 c -0.12726,-0.263 -0.23148,-0.61201 -0.23148,-0.77559 0,-0.27452 0.0351,-0.29741 0.45611,-0.29741 0.44111,0 0.45374,0.009 0.3843,0.3047 -0.0395,0.16757 -0.10163,0.51659 -0.13812,0.77558 -0.0366,0.25899 -0.10525,0.47089 -0.15283,0.47089 -0.0475,0 -0.19066,-0.21518 -0.31798,-0.47817 z m -3.50746,-1.01339 c -0.18606,-0.28397 -0.35502,-1.1676 -0.22326,-1.1676 0.0415,0 0.22663,0.0781 0.41136,0.17369 0.22264,0.11518 0.31417,0.23024 0.2715,0.34146 -0.0354,0.0922 -0.0644,0.3382 -0.0644,0.54651 0,0.44627 -0.14648,0.48555 -0.3952,0.10592 z m -3.39064,-1.91549 c -0.2384,-0.40972 -0.34087,-0.93338 -0.25194,-1.28765 0.0807,-0.3216 0.22695,-0.35688 0.66063,-0.15927 0.22459,0.10231 0.27265,0.18317 0.21408,0.36009 -0.0415,0.12552 -0.13035,0.48991 -0.19741,0.80985 -0.067,0.31992 -0.15029,0.58168 -0.18498,0.58168 -0.0347,0 -0.14286,-0.13711 -0.24038,-0.3047 z m 19.40841,-1.16539 c 0.15236,-0.0755 0.38707,-0.35524 0.5216,-0.6217 0.54294,-1.07537 0.43256,-2.21395 -0.32455,-3.34775 -1.44085,-2.15768 -2.92976,-1.57592 -2.71802,1.06197 0.0964,1.20057 0.89852,2.55824 1.7124,2.89829 0.43441,0.18151 0.46018,0.18181 0.80857,0.009 z m -0.90251,-0.90973 c -0.61977,-0.61979 -0.91482,-1.31851 -0.96011,-2.27371 -0.0436,-0.92042 0.0956,-1.44038 0.38555,-1.44038 0.34113,0 1.31896,1.12993 1.53146,1.76969 0.21989,0.66209 0.17819,1.44057 -0.10672,1.9915 -0.2247,0.43451 -0.37702,0.42606 -0.85019,-0.0471 z m -14.49844,0.13984 c 0.36481,-0.18956 0.7085,-0.89472 0.6159,-1.26366 -0.039,-0.15543 -0.19128,-0.40294 -0.33838,-0.55003 -0.37546,-0.37546 -1.40292,-0.38286 -1.9508,-0.0142 -0.52922,0.35624 -0.73531,0.81032 -0.53127,1.17051 0.31762,0.56068 1.63466,0.9533 2.20455,0.6572 z m -1.21654,-0.70821 c -0.51974,-0.20794 -0.54423,-0.28554 -0.16796,-0.53208 0.45964,-0.30118 0.86176,-0.3314 1.16305,-0.0874 0.2386,0.1932 0.254,0.25039 0.13674,0.50773 -0.15667,0.34385 -0.47362,0.37514 -1.13183,0.11181 z m 10.35738,-0.53075 c 0.98244,-0.3107 1.60412,-0.83033 2.04396,-1.70846 0.59979,-1.19747 0.31364,-2.25387 -0.76282,-2.81621 -0.70345,-0.36748 -1.22082,-0.3879 -2.04223,-0.0806 -1.06794,0.39957 -1.80589,1.48359 -2.00391,2.94373 -0.11034,0.81317 0.1227,1.31637 0.73878,1.59602 0.54414,0.24696 1.36821,0.27361 2.02622,0.0655 z m -1.88171,-0.74973 c -0.28709,-0.22583 -0.30085,-0.27637 -0.23396,-0.85869 0.0902,-0.78492 0.53422,-1.70549 0.99061,-2.05361 1.10927,-0.84608 2.62025,-0.5008 2.80557,0.64109 0.0851,0.52471 -0.38638,1.51376 -0.91328,1.91564 -0.81876,0.62451 -2.09009,0.79516 -2.64894,0.35557 z"
         id="path196" /><path
         id="path202"
         style="opacity:1;fill:none;stroke:#020d1b;stroke-width:0.79375;stroke-linecap:round;stroke-linejoin:round;paint-order:fill markers stroke"
         transform="rotate(-45)"
         d="m -315.60056,851.59755 c -0.88398,-0.376 -1.72187,-0.83456 -2.5039,-1.36424 -0.78202,-0.52968 -1.50816,-1.13048 -2.16864,-1.79096 -1.33732,-1.33733 -2.41957,-2.92973 -3.16748,-4.69798 -0.7479,-1.76826 -1.16148,-3.71235 -1.16148,-5.75304 0,-8.16276 6.61722,-14.77998 14.77998,-14.77998 8.16276,0 14.77998,6.61722 14.77998,14.77998 0,8.16276 -6.61722,14.77998 -14.77998,14.77998 -1.02913,0 -2.03176,-0.10544 -2.9981,-0.30488"
         sodipodi:nodetypes="csssssssc" /><path
         style="opacity:1;fill:#020d1b;fill-opacity:1;stroke:#020d1b;stroke-width:0.79375;stroke-linecap:round;stroke-linejoin:round;stroke-dasharray:none;stroke-opacity:1;paint-order:fill markers stroke"
         d="m 364.32739,802.48202 1.30638,1.30637 2.61275,2.61276 2.61275,2.61275 2.61276,2.61276 2.61276,2.61275 2.61275,2.61275 2.61275,2.61276 2.61276,2.61275"
         id="path236"
         sodipodi:nodetypes="ccccccccc" /></g></g><g
     inkscape:groupmode="layer"
     id="layer6"
     inkscape:label="Layer 6"
     transform="translate(-357.84591,-802.41725)"><g
       id="g260"
       transform="translate(-1.8520833)"><path
         id="path253"
         d="m 416.86907,805.09593 c -0.28567,-0.01 -0.60543,0.0284 -0.95898,0.11304 -1.75373,0.42049 -4.21232,2.08164 -7.30432,4.97401 l -0.95191,0.89065 a 0.10162478,0.10162478 0 0 1 -0.13903,0 l -0.32043,-0.31809 c -0.62223,-0.61235 -1.4809,-0.92238 -2.61308,-0.93307 -0.39375,-0.003 -0.63279,0.0188 -0.74457,0.066 -0.0559,0.0235 -0.0789,0.0464 -0.0966,0.0801 -0.0177,0.0336 -0.0283,0.0854 -0.0283,0.16258 0,0.1784 0.0663,0.28002 0.28747,0.40763 0.0772,0.0445 0.107,0.11557 0.1343,0.19792 0.0273,0.0824 0.0444,0.18012 0.0542,0.28745 0.0196,0.2147 0.008,0.4661 -0.0448,0.68331 -0.0568,0.22981 -0.21544,0.54511 -0.377,0.80819 -0.0807,0.13155 -0.16257,0.24912 -0.23561,0.33459 -0.0365,0.0427 -0.0692,0.0765 -0.10604,0.10358 -0.0184,0.0136 -0.0381,0.0268 -0.0636,0.0353 -0.0255,0.008 -0.0621,0.0131 -0.0989,-0.002 -0.45468,-0.1923 -0.87516,-0.27784 -1.50327,-0.30396 -0.42586,-0.0178 -0.70809,-0.0128 -0.89302,0.0213 -0.18492,0.0341 -0.26468,0.0878 -0.33458,0.18143 -0.0781,0.10463 -0.0877,0.16932 -0.0542,0.24506 0.0335,0.0757 0.13229,0.17288 0.31337,0.2686 0.20764,0.10978 0.36244,0.24027 0.45711,0.40527 0.0947,0.165 0.12528,0.35924 0.10604,0.58199 -0.0232,0.26874 -0.13393,0.50616 -0.51365,1.14984 -0.9151,1.55119 -1.80294,3.5025 -2.401,5.2756 -1.27891,3.79174 -1.46337,7.00092 -0.55137,8.99609 l 0.2215,0.48537 a 0.10162478,0.10162478 0 0 1 -0.01,0.10136 l -0.65032,0.90951 c -0.34744,0.48578 -0.53533,0.77248 -0.59849,0.94014 -0.0316,0.0839 -0.0316,0.13076 -0.0213,0.16728 0.0109,0.0366 0.0364,0.0738 0.0919,0.12488 0.021,0.0195 0.17945,0.14019 0.38643,0.29217 0.20698,0.15199 0.47293,0.34578 0.74928,0.54194 0.48212,0.34245 0.76092,0.53179 0.93307,0.61968 0.086,0.0439 0.14246,0.0617 0.18378,0.066 0.0414,0.005 0.0724,-0.001 0.11786,-0.0188 -0.0325,0.0124 -0.0143,0.007 -0.002,-0.005 0.0121,-0.0121 0.0283,-0.0298 0.0495,-0.0542 0.0426,-0.0489 0.10008,-0.11919 0.16729,-0.205 0.13438,-0.1717 0.3088,-0.40585 0.48774,-0.65739 l 0.65266,-0.91894 a 0.10162478,0.10162478 0 0 1 0.10368,-0.0401 l 0.22385,0.0472 c 0.1646,0.0334 0.53719,0.0456 0.92836,0.0329 0.39116,-0.0126 0.80817,-0.0478 1.07914,-0.0989 2.29673,-0.43347 5.08713,-1.95842 7.82269,-4.28599 0.78926,-0.67156 2.51232,-2.39382 3.1597,-3.15735 0.13554,-0.15984 0.27908,-0.31356 0.40057,-0.43589 0.0606,-0.0612 0.11496,-0.11594 0.16257,-0.15787 0.0476,-0.042 0.0832,-0.0703 0.12488,-0.0919 0.12976,-0.067 0.33856,-0.0989 0.52308,-0.0989 0.13901,0 0.24249,0.007 0.34402,0.0494 0.10146,0.0426 0.18924,0.11232 0.31808,0.22384 0.16252,0.14065 0.29376,0.20392 0.38642,0.2097 0.0927,0.006 0.16316,-0.0304 0.24741,-0.14373 0.0297,-0.0398 0.0481,-0.0645 0.0566,-0.0825 0.008,-0.018 0.0124,-0.0285 0.0121,-0.0589 -0.001,-0.0608 -0.033,-0.19149 -0.0989,-0.44769 -0.15821,-0.61513 -0.53106,-1.3972 -0.8129,-1.72475 l -0.2262,-0.26389 a 0.10162478,0.10162478 0 0 1 -0.002,-0.12724 l 0.25917,-0.33694 c 0.47056,-0.60992 0.91133,-0.9153 1.49385,-1.02261 0.10241,-0.0188 0.18438,-0.0277 0.2639,-0.007 0.0795,0.0207 0.14281,0.0691 0.20971,0.13195 0.11497,0.10797 0.26614,0.12903 0.38878,0.0895 0.12264,-0.0395 0.20734,-0.12894 0.20734,-0.26391 0,-0.16127 -0.0941,-0.50195 -0.24033,-0.85766 -0.1462,-0.35572 -0.34372,-0.73665 -0.53722,-1.01789 -0.25666,-0.37306 -0.73782,-0.78457 -1.16869,-0.99668 l -0.39349,-0.19322 a 0.10162478,0.10162478 0 0 1 -0.0472,-0.13666 l 0.20499,-0.40762 c 0.71882,-1.43101 1.75437,-4.02828 2.1536,-5.40755 0.44123,-1.52425 0.54534,-2.17058 0.54429,-3.32699 -4.2e-4,-0.45743 -0.006,-0.72944 -0.0235,-0.91894 -0.0179,-0.1895 -0.0455,-0.29529 -0.10135,-0.44532 -0.21777,-0.58444 -0.54346,-0.96329 -0.98491,-1.16399 -0.22072,-0.10041 -0.47304,-0.15788 -0.7587,-0.16729 z m 0.0588,0.67152 c 0.16849,0.0183 0.32035,0.0628 0.45711,0.13197 0.42579,0.21496 0.65883,0.70918 0.71629,1.41137 0.0575,0.70218 -0.0539,1.6254 -0.32986,2.74972 -0.21347,0.86941 -0.60804,2.12158 -0.95193,3.01126 l -0.19557,0.50424 a 0.10162478,0.10162478 0 0 1 -0.14607,0.0494 l -0.21441,-0.12723 c -0.0875,-0.0516 -0.13649,-0.0713 -0.16731,-0.0754 -0.0308,-0.003 -0.058,0.002 -0.12723,0.0307 -0.17312,0.0716 -0.25592,0.24632 -0.20263,0.38642 0.006,0.0149 0.0405,0.0707 0.0872,0.12487 0.0467,0.0542 0.10616,0.11027 0.1626,0.15552 l 0.22619,0.18143 a 0.10162478,0.10162478 0 0 1 0.0282,0.12016 l -0.28982,0.65974 h 0.002 c -0.08,0.18256 -0.15858,0.35246 -0.21913,0.47831 -0.0303,0.063 -0.0569,0.11437 -0.0776,0.15316 -0.0109,0.0195 -0.0174,0.0358 -0.0259,0.0494 -0.005,0.007 -0.008,0.0141 -0.0141,0.0213 -0.002,0.003 -0.007,0.007 -0.0121,0.0121 -0.002,0.002 -0.003,0.003 -0.007,0.007 -0.003,0.003 -0.0138,0.0121 -0.0141,0.0121 -7e-4,4.2e-4 -0.0344,0.0139 -0.0353,0.0142 -0.001,2e-4 -0.0168,0.002 -0.0235,0.002 -0.0137,4e-5 -0.0244,-0.002 -0.033,-0.005 -0.017,-0.003 -0.0302,-0.008 -0.0448,-0.0141 -0.0293,-0.0121 -0.0609,-0.0287 -0.0989,-0.0495 -0.0762,-0.0415 -0.17249,-0.0996 -0.27332,-0.16729 -0.20592,-0.13843 -0.33578,-0.20324 -0.40999,-0.21208 -0.0742,-0.008 -0.11714,0.0134 -0.21206,0.10834 -0.066,0.0661 -0.10304,0.12295 -0.11774,0.16729 -0.0148,0.0444 -0.0138,0.0783 0.01,0.12959 0.0464,0.10252 0.20923,0.25868 0.51131,0.46653 l 0.34636,0.23799 a 0.10162478,0.10162478 0 0 1 0.0353,0.12959 l -0.33693,0.67625 c -0.11883,0.2369 -0.21135,0.40465 -0.28511,0.51601 -0.0369,0.0557 -0.0684,0.0971 -0.10368,0.12958 -0.0176,0.0163 -0.0372,0.0315 -0.0636,0.0424 -0.0263,0.0109 -0.0635,0.0159 -0.0989,0.002 -0.0311,-0.0121 -0.0511,-0.024 -0.0849,-0.0448 -0.0336,-0.0207 -0.0752,-0.0485 -0.12251,-0.0801 -0.0946,-0.0634 -0.21122,-0.14461 -0.32988,-0.23092 -0.22911,-0.16663 -0.39234,-0.2548 -0.49952,-0.27803 -0.10712,-0.0233 -0.16002,-0.005 -0.24269,0.0777 -0.047,0.047 -0.0823,0.13339 -0.0895,0.21913 -0.007,0.0858 0.0152,0.16813 0.0495,0.2097 0.005,0.005 0.0777,0.0708 0.16728,0.14138 0.0896,0.0706 0.20222,0.15554 0.31574,0.23799 0.11352,0.0824 0.22913,0.16304 0.32044,0.22384 0.0456,0.0304 0.085,0.0548 0.11545,0.0731 0.0306,0.0182 0.0591,0.0312 0.0495,0.0283 0.025,0.007 0.0481,0.0268 0.0613,0.0472 0.013,0.0204 0.0195,0.0391 0.0213,0.0542 0.003,0.0302 -10e-4,0.0524 -0.007,0.0754 -0.0109,0.0461 -0.03,0.0968 -0.0588,0.16258 -0.0577,0.1317 -0.15238,0.31634 -0.28511,0.55371 -0.19007,0.33997 -0.31884,0.55264 -0.41233,0.66682 -0.0234,0.0286 -0.0431,0.0513 -0.0682,0.0707 -0.0252,0.0195 -0.0613,0.0433 -0.11787,0.0329 -0.0566,-0.0109 -0.0888,-0.0621 -0.0989,-0.0943 -0.007,-0.0222 -0.006,-0.0426 -0.007,-0.0636 -2.7e-4,-4e-4 -0.002,-0.002 -0.002,-0.002 -0.003,-0.005 -0.01,-0.0135 -0.0213,-0.0259 -0.0255,-0.0272 -0.0674,-0.0653 -0.11786,-0.10846 -0.10061,-0.0861 -0.23864,-0.19292 -0.3817,-0.29688 -0.14308,-0.104 -0.2908,-0.20458 -0.40999,-0.27804 -0.0596,-0.0367 -0.11388,-0.0677 -0.15315,-0.0872 -0.0393,-0.0195 -0.0758,-0.0235 -0.0495,-0.0235 -0.0646,0 -0.15011,0.043 -0.21676,0.11544 -0.0668,0.0725 -0.11075,0.17011 -0.11075,0.24976 0,0.0899 -0.002,0.10506 0.0566,0.17201 0.0593,0.067 0.19353,0.17092 0.44062,0.35342 0.39967,0.29517 0.57341,0.38098 0.68095,0.38171 0.0691,6.2e-4 0.12118,0.005 0.16965,0.0235 0.0242,0.01 0.0505,0.0223 0.073,0.0542 0.0225,0.0318 0.0285,0.0887 0.0141,0.12252 -0.0287,0.0678 -0.0741,0.0824 -0.12253,0.10358 -0.0485,0.0214 -0.10785,0.0373 -0.18142,0.0518 -0.041,0.008 -0.1788,0.0463 -0.35109,0.0989 -0.17228,0.0526 -0.38364,0.12148 -0.59141,0.19087 -0.36798,0.12288 -0.55771,0.18743 -0.69509,0.20969 -0.13738,0.0223 -0.23549,-0.0168 -0.3228,-0.0682 -0.0784,-0.0465 -0.22773,-0.0895 -0.27096,-0.0895 -0.0515,0 -0.13801,0.0431 -0.205,0.11304 -0.067,0.0699 -0.11075,0.16202 -0.11075,0.22149 0,0.0467 -0.0134,0.10506 -0.0472,0.15314 -0.0337,0.048 -0.0811,0.0869 -0.14845,0.13196 -0.13445,0.0902 -0.35638,0.20584 -0.74693,0.40056 -0.43176,0.21527 -0.65002,0.32302 -0.78697,0.36758 -0.0686,0.0223 -0.12826,0.039 -0.19321,0.002 -0.0325,-0.0183 -0.0547,-0.0492 -0.066,-0.0731 -0.0109,-0.0239 -0.0165,-0.045 -0.0213,-0.0636 0.002,0.0109 -0.006,-0.0129 -0.0307,-0.0424 -0.0249,-0.0295 -0.063,-0.0696 -0.11074,-0.11303 -0.0955,-0.087 -0.23203,-0.19413 -0.3935,-0.30867 -0.30124,-0.21369 -0.49964,-0.32265 -0.61732,-0.344 -0.0589,-0.0109 -0.0941,-0.003 -0.13196,0.0165 -0.0379,0.0196 -0.0795,0.0583 -0.12724,0.12253 -0.0444,0.0597 -0.0663,0.10604 -0.073,0.14372 -0.006,0.0378 -0.002,0.0692 0.0235,0.11786 0.0518,0.097 0.20396,0.24328 0.48302,0.44768 a 0.10162478,0.10162478 0 0 1 0.002,0 l 0.49717,0.36523 a 0.10162478,0.10162478 0 0 1 -0.01,0.16964 l -0.20736,0.12252 c -0.11171,0.0666 -0.4232,0.26027 -0.69037,0.42649 l -0.48774,0.30159 a 0.10162478,0.10162478 0 0 1 -0.10834,-0.002 l -0.27804,-0.17672 c -0.16545,-0.10496 -0.25492,-0.14748 -0.29452,-0.1508 -0.0198,-10e-4 -0.0319,0.002 -0.0589,0.0165 -0.027,0.0136 -0.0643,0.0399 -0.11545,0.0801 -0.15232,0.11992 -0.17027,0.34162 -0.0329,0.48775 a 0.10162478,0.10162478 0 0 1 0.002,0.002 l 0.12015,0.12959 a 0.10162478,0.10162478 0 0 1 -0.0141,0.14844 l -0.67153,0.50895 c -0.36675,0.2778 -0.91374,0.71974 -1.20875,0.97783 -0.20662,0.18078 -0.35732,0.31667 -0.46889,0.41235 -0.11158,0.0956 -0.18015,0.15094 -0.23326,0.18379 -0.0132,0.008 -0.0247,0.0149 -0.0423,0.0213 -0.008,0.003 -0.0184,0.006 -0.033,0.007 -0.007,5.6e-4 -0.025,1.2e-4 -0.0259,0 -9.5e-4,-1.4e-4 -0.0299,-0.01 -0.0307,-0.01 -7.8e-4,-3.6e-4 -0.03,-0.0206 -0.0307,-0.0213 -5.9e-4,-5.7e-4 -0.0208,-0.0275 -0.0213,-0.0283 -4.1e-4,-7.8e-4 -0.007,-0.0181 -0.01,-0.0259 -0.002,-0.007 -0.002,-0.0151 -0.002,-0.0213 -10e-4,-0.0243 10e-4,-0.0362 0.005,-0.0494 0.0143,-0.0533 0.0397,-0.10326 0.0707,-0.17437 0.26416,-0.6049 0.64477,-1.59178 0.85532,-2.22427 0.0965,-0.29002 0.15717,-0.46163 0.21206,-0.57021 0.0274,-0.0543 0.0523,-0.0949 0.0966,-0.12724 0.0444,-0.0323 0.11774,-0.0368 0.16022,-0.0188 0.11015,0.0466 0.18391,0.0628 0.24034,0.0588 0.0565,-0.003 0.104,-0.0247 0.17436,-0.0801 0.12554,-0.0988 0.155,-0.18275 0.12724,-0.28746 -0.0277,-0.10474 -0.13669,-0.24188 -0.3393,-0.37465 l -0.14845,-0.0966 a 0.10162478,0.10162478 0 0 1 -0.0424,-0.10845 l 0.1461,-0.63147 c 0.0803,-0.34682 0.16499,-0.70521 0.19085,-0.80583 l 0.0447,-0.17672 a 0.10162478,0.10162478 0 0 1 0.15787,-0.0566 l 0.47596,0.34871 c 0.27079,0.19786 0.45791,0.29664 0.57491,0.31338 0.0585,0.008 0.0997,8.7e-4 0.14138,-0.0213 0.0418,-0.0221 0.0854,-0.0637 0.13431,-0.1296 0.0441,-0.0595 0.0657,-0.10421 0.0707,-0.14137 0.005,-0.0371 -0.001,-0.0724 -0.0329,-0.12488 -0.0635,-0.10506 -0.24069,-0.26173 -0.55372,-0.48303 -0.14776,-0.10442 -0.29387,-0.19874 -0.40998,-0.26624 -0.058,-0.0337 -0.10906,-0.0603 -0.14609,-0.0779 -0.037,-0.0173 -0.075,-0.0213 -0.0448,-0.0213 -0.0506,0 -0.0986,-0.0122 -0.13902,-0.0401 -0.0404,-0.0278 -0.0764,-0.0792 -0.0754,-0.14136 2.9e-4,-0.0177 6e-4,-0.0209 0.002,-0.0377 0.001,-0.0166 0.003,-0.0389 0.007,-0.066 0.006,-0.054 0.0152,-0.12772 0.0259,-0.21442 0.0214,-0.17339 0.0511,-0.40014 0.0801,-0.62677 0.029,-0.22662 0.0592,-0.45399 0.0825,-0.6291 0.0121,-0.0876 0.0206,-0.16156 0.0283,-0.21678 0.007,-0.0552 0.0109,-0.0798 0.0165,-0.10604 a 0.10162478,0.10162478 0 0 1 0,-0.002 c 1.2e-4,-5.2e-4 0.0232,-0.0442 0.0235,-0.0448 4.4e-4,-5e-4 0.0171,-0.0171 0.0235,-0.0213 0.0129,-0.008 0.0207,-0.01 0.0283,-0.0121 0.0151,-0.005 0.0277,-0.007 0.0401,-0.01 0.0247,-0.003 0.0508,-0.005 0.0801,-0.005 0.0206,0 0.092,-0.0346 0.1461,-0.10135 0.0541,-0.0668 0.0895,-0.15716 0.0895,-0.21207 0,-0.0509 -0.0571,-0.18471 -0.15081,-0.28274 l -0.17907,-0.18614 a 0.10162478,0.10162478 0 0 1 -0.0283,-0.0682 l -0.0121,-0.98491 c -0.007,-0.53735 -0.008,-0.8524 0,-1.00847 0.002,-0.0389 0.003,-0.0677 0.01,-0.0943 0.002,-0.0132 0.003,-0.0247 0.0165,-0.0472 0.003,-0.006 0.0136,-0.0206 0.0141,-0.0213 5.1e-4,-5.8e-4 0.03,-0.0208 0.0307,-0.0213 5.5e-4,-2.9e-4 0.0466,-0.0141 0.0472,-0.0141 5.5e-4,-10e-6 0.0466,0.0121 0.0472,0.0121 5.7e-4,2.7e-4 0.0276,0.0159 0.0282,0.0165 6e-4,5.6e-4 0.0109,0.0121 0.0141,0.0165 0.007,0.01 0.0109,0.0169 0.0141,0.0235 0.006,0.0132 0.0109,0.0252 0.0141,0.0377 0.007,0.0249 0.0134,0.0533 0.0213,0.0895 0.018,0.0839 0.12896,0.21963 0.46181,0.47361 0.12518,0.0955 0.25599,0.18862 0.36522,0.26154 0.10929,0.0729 0.20867,0.1287 0.22384,0.13429 0.25543,0.0948 0.5275,-0.16149 0.43119,-0.39112 -0.003,-0.01 -0.0732,-0.1 -0.17201,-0.18851 -0.0988,-0.0884 -0.22862,-0.19022 -0.3605,-0.28509 -0.13188,-0.0948 -0.26722,-0.18406 -0.37936,-0.24741 -0.0561,-0.0317 -0.10464,-0.0567 -0.14373,-0.073 -0.0392,-0.0164 -0.0715,-0.0213 -0.0682,-0.0213 -0.047,0 -0.0907,-0.003 -0.12958,-0.0141 -0.0195,-0.005 -0.0374,-0.0121 -0.0589,-0.0259 -0.0109,-0.007 -0.0213,-0.0171 -0.0329,-0.0329 -0.006,-0.008 -0.0122,-0.0165 -0.0165,-0.0282 -0.005,-0.0121 -0.007,-0.0387 -0.007,-0.0401 0,-3.5e-4 0.002,-0.0231 0.002,-0.0235 1.1e-4,-4.5e-4 0.003,-0.0109 0.005,-0.0141 0.002,-0.007 0.005,-0.0123 0.007,-0.0165 0.005,-0.008 0.007,-0.0145 0.0121,-0.0213 0.008,-0.0135 0.0217,-0.0294 0.0353,-0.0472 0.0272,-0.0353 0.0645,-0.0816 0.11075,-0.13666 0.0926,-0.11026 0.21886,-0.25523 0.35813,-0.40998 0.13859,-0.15396 0.2685,-0.29943 0.36758,-0.40999 0.099,-0.1105 0.17362,-0.19418 0.17672,-0.19792 7.1e-4,-8.5e-4 0.0413,-0.0302 0.0424,-0.0307 0.001,-5e-4 0.0235,-0.006 0.0329,-0.007 0.0189,-10e-4 0.0312,4e-5 0.0424,0.002 0.0222,0.005 0.041,0.0126 0.0613,0.0213 0.0407,0.0173 0.0885,0.0422 0.14608,0.0754 0.11508,0.0663 0.26506,0.16311 0.42413,0.27569 0.1552,0.10991 0.31261,0.2092 0.43825,0.28039 0.0628,0.0355 0.1163,0.064 0.15788,0.0825 0.0415,0.0184 0.0792,0.0235 0.0612,0.0235 0.14964,0 0.28982,-0.15397 0.28982,-0.36051 0,-0.0912 -9.4e-4,-0.11339 -0.0423,-0.16493 -0.0415,-0.0515 -0.14048,-0.12978 -0.32517,-0.26153 -0.18631,-0.13293 -0.32634,-0.2238 -0.42648,-0.3016 -0.10009,-0.0779 -0.1751,-0.14569 -0.18849,-0.25213 -0.0134,-0.1064 0.0475,-0.19249 0.12723,-0.28274 0.0798,-0.0903 0.1926,-0.19692 0.34165,-0.35108 l 0.52545,-0.54428 a 0.10162478,0.10162478 0 0 1 0.12959,-0.0141 l 0.42412,0.28983 c 0.23106,0.15776 0.39674,0.24023 0.50658,0.25919 0.10991,0.0189 0.16445,-0.003 0.24505,-0.0895 0.0543,-0.0583 0.0841,-0.10773 0.0943,-0.14845 0.01,-0.0407 0.007,-0.0775 -0.0188,-0.13194 -0.0515,-0.1087 -0.2105,-0.27132 -0.49481,-0.48774 l -0.21207,-0.16257 a 0.10162478,0.10162478 0 0 1 -0.007,-0.15317 l 0.48538,-0.45475 c 0.13417,-0.12582 0.26463,-0.24658 0.36994,-0.3393 0.0526,-0.0463 0.10008,-0.0852 0.13666,-0.11545 0.0366,-0.0303 0.0553,-0.0489 0.0849,-0.066 0.0666,-0.0388 0.142,-0.0302 0.2097,-0.007 0.0677,0.0232 0.13864,0.0644 0.21913,0.12017 0.12736,0.0881 0.22208,0.12601 0.29218,0.13195 0.0701,0.006 0.12335,-0.0123 0.19792,-0.0754 0.0971,-0.0823 0.13276,-0.15302 0.13431,-0.22619 10e-4,-0.0732 -0.0333,-0.16599 -0.1296,-0.27568 l -0.1885,-0.21442 a 0.10162478,0.10162478 0 0 1 0.0121,-0.14609 l 0.69273,-0.55607 c 1.42313,-1.14521 2.66772,-1.96547 3.68985,-2.44105 0.76662,-0.35669 1.41253,-0.52611 1.91798,-0.47125 z m -1.23231,1.50329 c -0.035,6.2e-4 -0.0656,0.0123 -0.11545,0.0329 -0.18198,0.0754 -0.25315,0.24148 -0.18143,0.41234 -0.001,-0.002 0.0171,0.0283 0.0472,0.0613 0.03,0.033 0.0706,0.0731 0.12015,0.11774 0.0992,0.0894 0.23056,0.19482 0.36522,0.28983 0.35082,0.24753 0.55127,0.33458 0.63853,0.33458 0.10664,0 0.17765,-0.0344 0.22385,-0.0872 0.0462,-0.0527 0.0719,-0.13124 0.0612,-0.24271 -0.007,-0.0748 -0.0164,-0.10773 -0.0707,-0.17199 -0.0543,-0.0643 -0.15916,-0.15325 -0.3393,-0.28983 -0.31573,-0.23937 -0.50109,-0.36901 -0.61733,-0.42176 -0.0582,-0.0265 -0.097,-0.036 -0.13196,-0.0353 z m -2.44576,1.20639 c -0.14366,0 -0.3047,0.16328 -0.30395,0.31336 6.4e-4,0.1145 -6.8e-4,0.13525 0.066,0.20972 0.0668,0.0744 0.21769,0.19043 0.50896,0.3982 0.14054,0.1002 0.28374,0.19149 0.3982,0.25683 0.0572,0.0327 0.10616,0.0585 0.14373,0.0754 0.0376,0.0169 0.073,0.0213 0.0518,0.0213 0.23757,0 0.40445,-0.35604 0.25211,-0.53957 -0.0644,-0.0775 -0.33092,-0.28187 -0.58434,-0.44533 -0.12671,-0.0818 -0.252,-0.15622 -0.35343,-0.2097 -0.0507,-0.0268 -0.0958,-0.0499 -0.1296,-0.0636 -0.0337,-0.0136 -0.0609,-0.0165 -0.0495,-0.0165 z m 2.04285,1.50798 c -0.0559,0.0197 -0.16714,0.11256 -0.19792,0.16729 -0.0669,0.11908 -0.0758,0.17058 -0.0165,0.27097 0.0593,0.10041 0.21528,0.24231 0.48774,0.44296 0.29179,0.21489 0.49165,0.3289 0.61733,0.3558 0.0628,0.0134 0.10443,0.007 0.14373,-0.01 0.0394,-0.017 0.0793,-0.0504 0.12489,-0.10834 0.0583,-0.0741 0.0914,-0.13162 0.10135,-0.17435 0.01,-0.0428 0.006,-0.074 -0.0259,-0.12724 -0.0628,-0.10664 -0.26038,-0.272 -0.62677,-0.52308 -0.2337,-0.16021 -0.37257,-0.24908 -0.45475,-0.2851 -0.0822,-0.0361 -0.0932,-0.0306 -0.15315,-0.01 z m -3.50372,0.43826 c -0.0622,0.0207 -0.17651,0.11449 -0.20498,0.16494 -0.0661,0.11714 -0.0741,0.16817 -0.0141,0.2686 0.06,0.10041 0.21375,0.24251 0.48538,0.44062 0.35837,0.26131 0.55943,0.35578 0.65268,0.35814 0.14759,0.003 0.2497,-0.065 0.3016,-0.15786 0.0518,-0.093 0.0562,-0.21022 -0.0259,-0.32751 -1.3e-4,-1.9e-4 -0.0265,-0.0278 -0.0613,-0.0589 -0.0346,-0.031 -0.0801,-0.0702 -0.1343,-0.11303 -0.10845,-0.0858 -0.24679,-0.18766 -0.38878,-0.28511 -0.23313,-0.15998 -0.36931,-0.24794 -0.45004,-0.28275 -0.0807,-0.0348 -0.0926,-0.0295 -0.16023,-0.007 z m -6.76001,0.066 c 0.12222,-1.7e-4 0.30838,0.0475 0.52308,0.11075 0.21469,0.0633 0.44093,0.14259 0.59377,0.21442 0.15993,0.0751 0.36688,0.23283 0.54428,0.39113 0.0887,0.0791 0.16811,0.15885 0.22856,0.22856 0.0303,0.0349 0.0553,0.0671 0.0754,0.0989 0.02,0.0318 0.0401,0.0585 0.0401,0.11305 0,5e-4 -10e-4,0.0157 -0.002,0.0213 -10e-4,0.006 -10e-4,0.0109 -0.002,0.0141 -0.002,0.007 -0.005,0.0121 -0.007,0.0165 -0.005,0.01 -0.01,0.018 -0.0141,0.0259 -0.01,0.0158 -0.023,0.0326 -0.0377,0.0518 -0.0296,0.0385 -0.0704,0.0862 -0.12016,0.14373 -0.0998,0.11484 -0.23631,0.26493 -0.38642,0.42176 -0.29661,0.30991 -0.78564,0.84334 -1.08386,1.18048 -0.29948,0.33853 -0.56706,0.6391 -0.59141,0.6668 -0.0249,0.0284 -0.0702,0.047 -0.10604,0.0448 -0.0359,-0.002 -0.0617,-0.0161 -0.0825,-0.0307 -0.0416,-0.0292 -0.0689,-0.0681 -0.0942,-0.11544 -0.0271,-0.0506 -0.15832,-0.22645 -0.27097,-0.35109 l -0.21442,-0.23562 a 0.10162478,0.10162478 0 0 1 -0.01,-0.12252 l 0.28274,-0.44062 c 0.46205,-0.72093 0.53009,-0.93125 0.53486,-1.6847 10e-4,-0.27736 0.005,-0.44385 0.0213,-0.55372 0.008,-0.0549 0.0189,-0.0971 0.0472,-0.13901 0.0282,-0.042 0.0888,-0.0706 0.13195,-0.0707 z m 8.97016,1.43496 c -0.2411,0 -0.40584,0.23079 -0.32516,0.44296 -0.003,-0.01 0.0144,0.0214 0.0448,0.0542 0.0305,0.0329 0.0729,0.0743 0.12488,0.12015 0.104,0.0915 0.24401,0.20058 0.38877,0.30159 0.14518,0.10125 0.29246,0.19342 0.40999,0.25919 0.0587,0.0329 0.10991,0.0584 0.14844,0.0754 0.0385,0.017 0.0731,0.0213 0.0518,0.0213 0.10495,0 0.2051,-0.0808 0.2592,-0.19557 0.0541,-0.11473 0.0526,-0.24506 -0.0142,-0.32988 -0.0184,-0.0235 -0.10083,-0.0989 -0.205,-0.17908 -0.10421,-0.0801 -0.23446,-0.17273 -0.36285,-0.25917 -0.12839,-0.0863 -0.25446,-0.1679 -0.35579,-0.22621 -0.0507,-0.0292 -0.0948,-0.0533 -0.12724,-0.0682 -0.0324,-0.0151 -0.0653,-0.0165 -0.0377,-0.0165 z m -3.44717,0.45003 c -0.2462,-0.0657 -0.47645,0.18729 -0.38641,0.42413 -0.003,-0.01 0.0142,0.0213 0.0448,0.0542 0.0304,0.0329 0.0729,0.0743 0.12488,0.12016 0.104,0.0915 0.244,0.20059 0.38878,0.3016 0.14522,0.10135 0.29051,0.1934 0.40763,0.25918 0.0585,0.0329 0.11026,0.0584 0.14845,0.0754 0.0382,0.017 0.074,0.0213 0.0518,0.0213 0.0979,0 0.16874,-0.0332 0.21913,-0.0872 0.0505,-0.0541 0.0825,-0.13363 0.0825,-0.2427 0,-0.1105 0.001,-0.13142 -0.0495,-0.1932 -0.0509,-0.0618 -0.17527,-0.15895 -0.41705,-0.33694 -0.13778,-0.10146 -0.27814,-0.19779 -0.3935,-0.27096 -0.0577,-0.0365 -0.10845,-0.0675 -0.14843,-0.0895 -0.0401,-0.0221 -0.0742,-0.0356 -0.0731,-0.0353 z m -8.60259,0.97312 c 0.0355,-0.003 0.14688,0.0242 0.10845,0.0121 0.059,0.008 0.13952,0.0189 0.22856,0.0329 0.47757,0.0755 1.07019,0.37851 1.36896,0.70922 0.14029,0.15529 0.3269,0.45305 0.43827,0.68803 l 0.1932,0.40762 a 0.10162478,0.10162478 0 0 1 0.01,0.0424 l -0.007,1.16869 c -0.007,1.30134 -0.0791,2.14625 -0.3063,3.52492 -0.49227,2.98761 -1.64878,6.17035 -3.14557,8.65444 -0.15982,0.26523 -0.38262,0.59717 -0.57256,0.86472 -0.0949,0.1338 -0.18166,0.25123 -0.24976,0.33695 -0.0341,0.0429 -0.0621,0.0793 -0.0872,0.10604 -0.0126,0.0132 -0.0244,0.0244 -0.0377,0.0353 -0.007,0.005 -0.0129,0.0109 -0.0235,0.0165 -0.005,0.002 -0.0124,0.006 -0.0213,0.01 -0.005,10e-4 -0.0136,0.002 -0.0142,0.002 -4.9e-4,1e-4 -0.0207,0.002 -0.0213,0.002 -4.3e-4,0 -0.0372,-0.007 -0.0377,-0.007 -4.3e-4,-1.6e-4 -0.0278,-0.0162 -0.0283,-0.0165 -4.1e-4,-3.3e-4 -0.0162,-0.0161 -0.0165,-0.0165 -3.8e-4,-4.8e-4 -0.007,-0.01 -0.01,-0.0141 -0.01,-0.0175 -0.0141,-0.0298 -0.0165,-0.0401 -0.005,-0.0206 -0.006,-0.0369 -0.007,-0.0589 -0.002,-0.044 -10e-4,-0.10093 0,-0.172 0.003,-0.14203 0.0139,-0.3377 0.0307,-0.56079 0.0336,-0.44615 0.0888,-1.00241 0.15081,-1.44671 0.25449,-1.82362 0.71092,-3.65536 1.70827,-6.8802 0.24919,-0.80573 0.45411,-1.5173 0.59612,-2.06641 0.14202,-0.54911 0.21913,-0.95053 0.21913,-1.06973 0,-0.14143 -0.0368,-0.24695 -0.0919,-0.31337 -0.0551,-0.0664 -0.12856,-0.10136 -0.23563,-0.10136 -0.1894,0 -0.32986,0.14535 -0.32986,0.35345 0,0.0827 -0.0203,0.19834 -0.0566,0.3652 -0.0363,0.16689 -0.0889,0.37962 -0.15787,0.63619 -0.1379,0.51315 -0.33955,1.19814 -0.59141,2.01223 -1.0334,3.3402 -1.47982,5.1724 -1.75068,7.16764 -0.0532,0.39173 -0.11798,1.08247 -0.14137,1.52684 -0.0206,0.39099 -0.0303,0.58535 -0.0542,0.69509 -0.006,0.0274 -0.008,0.0517 -0.0307,0.0825 -0.0109,0.0153 -0.0304,0.0345 -0.0588,0.0448 -0.0286,0.01 -0.0618,0.006 -0.0825,-0.002 -0.0415,-0.0165 -0.0524,-0.0371 -0.066,-0.0542 -0.0137,-0.017 -0.0252,-0.0327 -0.0377,-0.0518 -0.34004,-0.52054 -0.59751,-1.48045 -0.68567,-2.48582 -0.26971,-3.07659 1.13258,-7.80979 3.45895,-11.74581 0.11907,-0.20155 0.2337,-0.40859 0.32281,-0.57963 0.0892,-0.17103 0.15339,-0.31829 0.16257,-0.35107 0.0769,-0.27492 0.0601,-0.82249 -0.0307,-1.07445 -0.0245,-0.0678 -0.045,-0.13082 -0.0613,-0.17671 -0.008,-0.023 -0.0164,-0.043 -0.0213,-0.0566 -0.002,-0.007 -0.003,-0.0121 -0.005,-0.0165 -7.3e-4,-0.002 -10e-4,-0.002 -0.002,-0.005 -3.4e-4,-10e-4 5.4e-4,-0.002 0,-0.005 -4.4e-4,-10e-4 -0.003,-0.008 -0.005,-0.0121 0,0 0.10136,-0.0165 0.10136,-0.0165 5e-5,-10e-6 -0.0213,-0.0989 -0.0213,-0.0989 2.7e-4,-6e-5 0.0175,-0.002 0.0213,-0.002 z m 10.61954,0.53016 c -0.0988,0 -0.17199,0.036 -0.2215,0.0919 -0.0494,0.056 -0.0772,0.1348 -0.0682,0.24033 0.007,0.0884 0.013,0.11823 0.0754,0.1885 0.0624,0.0704 0.1901,0.17072 0.41942,0.34165 0.37883,0.28236 0.55334,0.36758 0.65266,0.36758 0.1542,0 0.25434,-0.0857 0.2969,-0.19792 0.0426,-0.11232 0.0255,-0.24631 -0.0895,-0.35344 -0.13743,-0.12804 -0.38402,-0.30369 -0.60791,-0.44297 -0.11196,-0.0696 -0.21818,-0.13192 -0.30395,-0.17436 -0.0858,-0.0424 -0.16533,-0.0613 -0.15315,-0.0613 z m -3.50137,0.42412 c -0.0806,-0.0121 -0.1298,0.0109 -0.24033,0.10833 -0.0487,0.0427 -0.0678,0.0966 -0.0566,0.23092 0.007,0.0857 0.0163,0.11835 0.0682,0.18142 0.0522,0.0631 0.15547,0.15259 0.34164,0.29454 0.11678,0.0891 0.24481,0.17899 0.35343,0.25212 0.10858,0.0731 0.20275,0.13151 0.23563,0.14608 0.14926,0.0661 0.2973,0.0242 0.39113,-0.0612 0.0938,-0.0855 0.13254,-0.2024 0.0636,-0.33223 -0.0401,-0.0754 -0.0525,-0.0989 -0.14373,-0.17436 -0.0912,-0.0755 -0.25751,-0.19124 -0.57493,-0.40999 -0.22023,-0.15176 -0.35768,-0.22375 -0.43826,-0.23563 z m 2.10647,1.50091 c 6.1e-4,0 -0.0415,0.0109 -0.0825,0.0329 -0.0411,0.0225 -0.0867,0.0535 -0.12015,0.0872 -0.0652,0.0652 -0.1,0.11932 -0.11305,0.16022 -0.013,0.0409 -0.0127,0.0736 0.0141,0.12725 0.0536,0.10736 0.23518,0.27704 0.56786,0.52072 0.26931,0.19728 0.44883,0.30036 0.56077,0.32752 0.11196,0.0272 0.15921,0.007 0.2592,-0.0872 0.0796,-0.0748 0.10917,-0.15065 0.10604,-0.2262 -0.003,-0.0755 -0.0395,-0.15844 -0.12959,-0.24268 -0.13254,-0.12391 -0.3829,-0.30657 -0.61027,-0.4524 -0.11364,-0.0729 -0.22278,-0.13862 -0.30867,-0.18378 -0.043,-0.0225 -0.0808,-0.0384 -0.10833,-0.0494 -0.0275,-0.0109 -0.0493,-0.0142 -0.0353,-0.0142 z m -3.50843,0.43119 c 6e-4,0 -0.0415,0.0109 -0.0825,0.033 -0.041,0.0225 -0.0867,0.0535 -0.12016,0.0872 -0.0653,0.0653 -0.10009,0.11955 -0.11305,0.16022 -0.013,0.0406 -0.0127,0.0715 0.0142,0.12489 0.0536,0.10677 0.23512,0.277 0.56785,0.52073 0.26816,0.19643 0.45425,0.30195 0.57493,0.33223 0.12067,0.0303 0.17454,0.0121 0.26389,-0.0778 0.0692,-0.0694 0.0953,-0.14876 0.0895,-0.23092 -0.006,-0.0822 -0.0461,-0.16949 -0.13196,-0.24976 -0.13253,-0.12391 -0.38289,-0.30656 -0.61026,-0.45239 -0.11364,-0.0729 -0.22277,-0.13863 -0.30867,-0.18379 -0.043,-0.0225 -0.0808,-0.0384 -0.10833,-0.0494 -0.0275,-0.0109 -0.0492,-0.0141 -0.0353,-0.0141 z m 7.86039,1.46322 c 0.0549,-0.006 0.25583,0.0783 0.17201,0.0494 0.0794,0.032 0.18331,0.0772 0.29452,0.13194 0.46433,0.22859 0.86533,0.6329 1.14277,1.14278 l 0.16966,0.31338 a 0.10162478,0.10162478 0 0 1 -0.0682,0.14844 l -0.30867,0.066 c -0.65381,0.14021 -1.27281,0.56101 -1.79074,1.2323 -0.0724,0.0938 -0.14164,0.18004 -0.19793,0.2427 -0.0281,0.0313 -0.0535,0.0552 -0.0754,0.0754 -0.0109,0.01 -0.02,0.0195 -0.0329,0.0282 -0.006,0.005 -0.0144,0.01 -0.0259,0.0141 -0.006,0.002 -0.0203,0.007 -0.0213,0.007 -8.8e-4,1.8e-4 -0.0394,0.002 -0.04,0.002 -0.11147,-0.0187 -0.30376,-0.0902 -0.48775,-0.16257 -0.0919,-0.0362 -0.17662,-0.0728 -0.24269,-0.10358 -0.033,-0.0155 -0.0618,-0.0287 -0.0849,-0.0424 -0.0121,-0.007 -0.0209,-0.0136 -0.0329,-0.0235 -0.006,-0.005 -0.0129,-0.0109 -0.0213,-0.0213 -0.003,-0.005 -0.0137,-0.0205 -0.0141,-0.0213 -3.3e-4,-7e-4 -0.01,-0.0419 -0.01,-0.0424 -10e-6,-4e-4 0.001,-0.0186 0.002,-0.0235 9.5e-4,-0.005 0.001,-0.008 0.002,-0.0121 0.001,-0.006 0.003,-0.01 0.005,-0.0141 0.003,-0.008 0.007,-0.0159 0.0121,-0.0259 0.01,-0.02 0.022,-0.0464 0.0377,-0.0778 0.0315,-0.0626 0.0766,-0.1483 0.13195,-0.25212 0.11075,-0.20762 0.26153,-0.48662 0.42883,-0.78698 0.33369,-0.59907 0.68322,-1.24395 0.77284,-1.42317 0.0471,-0.0938 0.094,-0.183 0.12959,-0.24976 0.0179,-0.0334 0.0327,-0.0611 0.0448,-0.0825 0.006,-0.0109 0.0121,-0.0205 0.0165,-0.0282 0.002,-0.003 0.005,-0.006 0.007,-0.01 0.002,-0.003 0.0109,-0.0157 0.0121,-0.0165 3.8e-4,-4.3e-4 0.044,-0.0279 0.0447,-0.0282 7.3e-4,-2.4e-4 0.0212,-0.006 0.0283,-0.007 z m -5.74214,0.0754 c -0.22335,0 -0.38295,0.26001 -0.28039,0.44533 -0.003,-0.006 0.013,0.0203 0.0401,0.0472 0.027,0.0269 0.0666,0.0608 0.11075,0.0989 0.0881,0.0764 0.2016,0.16826 0.32045,0.25918 0.11883,0.091 0.24232,0.18138 0.34636,0.25213 0.104,0.0707 0.1965,0.12352 0.22384,0.13429 0.15905,0.0627 0.28627,-0.0162 0.3605,-0.14843 0.0742,-0.13231 0.0768,-0.29938 -0.0542,-0.41707 -0.17836,-0.16013 -0.41553,-0.33204 -0.62676,-0.46181 -0.10558,-0.0648 -0.20484,-0.11847 -0.2851,-0.1555 -0.0802,-0.037 -0.14878,-0.0542 -0.15552,-0.0542 z m -3.6121,0.43355 c -0.0354,0.01 -0.0628,0.0317 -0.0943,0.0682 -0.06,0.0698 -0.0926,0.12794 -0.10357,0.17672 -0.0109,0.0488 -0.006,0.091 0.0235,0.15079 0.0603,0.11968 0.24123,0.29264 0.56549,0.52309 0.14129,0.1004 0.28388,0.1915 0.39821,0.25683 0.0572,0.0327 0.10869,0.0586 0.14608,0.0754 0.0373,0.0168 0.0706,0.0213 0.0494,0.0213 0.14803,0 0.31102,-0.1649 0.31102,-0.31811 10e-6,-0.11411 -0.003,-0.14946 -0.0778,-0.23326 -0.0738,-0.0837 -0.23122,-0.20528 -0.51837,-0.40762 -0.25049,-0.17653 -0.43468,-0.27588 -0.55842,-0.30631 -0.0619,-0.0152 -0.10592,-0.0169 -0.14137,-0.007 z m 2.22663,1.47499 c -0.0249,0 -0.12283,0.0473 -0.19555,0.12489 -0.0728,0.0777 -0.12015,0.1818 -0.12015,0.21913 0,0.087 0.008,0.1237 0.0849,0.2097 0.0765,0.086 0.22629,0.20654 0.48774,0.39821 0.18477,0.13548 0.30946,0.21845 0.3982,0.26153 0.0888,0.0431 0.13748,0.0497 0.20734,0.0448 0.20616,-0.0144 0.36071,-0.21418 0.32045,-0.37464 0.003,0.0143 -0.008,-0.0157 -0.0377,-0.0494 -0.0291,-0.0338 -0.0731,-0.0773 -0.12487,-0.12487 -0.10347,-0.0951 -0.24089,-0.20837 -0.38407,-0.31574 -0.14319,-0.10737 -0.29086,-0.20915 -0.41234,-0.28275 -0.0607,-0.0368 -0.11618,-0.0656 -0.15788,-0.0848 -0.0418,-0.0191 -0.0762,-0.0259 -0.066,-0.0259 z m 4.71954,1.83787 c 0.12169,-0.007 0.24084,-0.003 0.37228,0.007 0.55921,0.0432 0.98175,0.22018 1.36662,0.57492 0.12944,0.11931 0.28865,0.31878 0.42176,0.50896 0.0666,0.095 0.12566,0.18767 0.16964,0.26624 0.022,0.0394 0.0404,0.0753 0.0542,0.10846 0.0138,0.033 0.0259,0.0601 0.0259,0.10357 0,5.3e-4 -0.0139,0.0536 -0.0141,0.0542 -3.2e-4,5.3e-4 -0.023,0.0254 -0.0235,0.0259 -6.2e-4,5.3e-4 -0.0121,0.008 -0.0165,0.0121 -0.005,0.002 -0.01,0.005 -0.0141,0.007 -0.0157,0.007 -0.0251,0.008 -0.0377,0.0121 -0.0253,0.006 -0.0543,0.0125 -0.0895,0.0165 -0.0705,0.008 -0.16546,0.0134 -0.26861,0.0165 -0.30495,0.0109 -0.51709,0.0599 -0.75163,0.20736 -0.23455,0.14747 -0.49244,0.39904 -0.85532,0.81289 -1.67521,1.91051 -3.38201,3.4664 -5.17192,4.71246 -1.84505,1.28442 -3.81282,2.21422 -5.30388,2.49525 a 0.10162478,0.10162478 0 0 1 -0.007,-0.002 c -0.25887,0.0485 -0.57911,0.0928 -0.85767,0.11786 -0.1404,0.0126 -0.26824,0.0205 -0.37463,0.0235 -0.10549,0.002 -0.18358,0.002 -0.24741,-0.0121 h -0.002 c -0.0303,-0.007 -0.24491,-0.0372 -0.44062,-0.0588 -0.10315,-0.0109 -0.18923,-0.0265 -0.25448,-0.0448 -0.0326,-0.01 -0.0596,-0.0163 -0.0895,-0.0353 -0.007,-0.005 -0.0147,-0.0123 -0.0235,-0.0213 -0.005,-0.005 -0.01,-0.01 -0.0141,-0.0165 -0.005,-0.006 -0.0138,-0.0226 -0.0141,-0.0235 -3.5e-4,-9.1e-4 -0.007,-0.0345 -0.007,-0.0353 -5e-5,-8.7e-4 0.005,-0.0368 0.005,-0.0377 2.6e-4,-8.7e-4 0.0159,-0.0298 0.0165,-0.0307 6e-4,-8.5e-4 0.0109,-0.0136 0.0165,-0.0188 0.0336,-0.0303 0.0502,-0.0315 0.0825,-0.0472 0.0324,-0.0155 0.0724,-0.0339 0.12016,-0.0542 0.0955,-0.0406 0.21795,-0.0893 0.34635,-0.13666 0.69111,-0.25511 2.2032,-0.99525 3.12202,-1.52919 1.22876,-0.71404 2.36165,-1.46861 4.50275,-3.00184 0.52915,-0.37894 1.05957,-0.75257 1.48677,-1.04852 0.42722,-0.29595 0.7454,-0.51109 0.87416,-0.5867 0.23572,-0.13841 0.49861,-0.30063 0.56315,-0.34637 0.20137,-0.14288 0.056,-0.52543 -0.2097,-0.52543 -0.0937,0 -0.35242,0.10029 -0.787,0.36756 -0.43457,0.26735 -1.05602,0.69393 -1.93682,1.3242 -3.19913,2.28922 -4.50809,3.13122 -6.16623,3.96082 -0.35876,0.17949 -0.8666,0.41085 -1.30065,0.5985 -0.21702,0.0938 -0.41562,0.17591 -0.56786,0.23561 -0.0762,0.0299 -0.1401,0.0535 -0.19085,0.0707 -0.0253,0.008 -0.0466,0.0161 -0.066,0.0213 -0.0195,0.005 -0.0327,0.01 -0.0612,0.01 -5e-4,0 -0.0326,-0.005 -0.0329,-0.005 -3.8e-4,-1.2e-4 -0.0373,-0.0209 -0.0377,-0.0213 -2.8e-4,-2.4e-4 -0.0234,-0.0326 -0.0235,-0.0329 -1.6e-4,-3.7e-4 -0.01,-0.0301 -0.01,-0.0307 -7e-5,-5e-4 -0.002,-0.0206 -0.002,-0.0213 3e-5,-6.1e-4 0.001,-0.0123 0.002,-0.0165 0.001,-0.008 0.002,-0.0134 0.005,-0.0188 0.007,-0.0217 0.0157,-0.0345 0.0259,-0.0518 0.0205,-0.0347 0.0505,-0.0797 0.0895,-0.1343 0.0783,-0.10931 0.19369,-0.25867 0.32987,-0.4312 0.27234,-0.34504 0.63012,-0.77614 0.94012,-1.12862 2.59702,-2.95283 6.17693,-5.40228 9.91502,-6.78594 0.68068,-0.25197 1.05338,-0.35941 1.41845,-0.37936 z m -14.56385,9.47675 c 0.0509,-0.002 0.23846,0.14475 0.14845,0.0848 0.0603,0.0475 0.13958,0.11509 0.22382,0.19087 0.15653,0.14073 0.44893,0.34762 0.62677,0.44296 l 0.34636,0.1838 a 0.10162478,0.10162478 0 0 1 0.0353,0.14843 l -0.37229,0.52073 c -0.10241,0.14361 -0.20004,0.27905 -0.27568,0.38171 -0.0379,0.0514 -0.0696,0.0949 -0.0943,0.12724 -0.0247,0.0322 -0.0326,0.0448 -0.0566,0.0682 -7.4e-4,7.2e-4 -0.0436,0.0256 -0.0447,0.0259 -0.001,3.6e-4 -0.0218,0.005 -0.0307,0.005 -0.0175,2.9e-4 -0.0297,-0.002 -0.0401,-0.005 -0.0207,-0.005 -0.0369,-0.0122 -0.0566,-0.0213 -0.0394,-0.018 -0.0878,-0.0444 -0.14373,-0.0778 -0.11171,-0.0666 -0.25563,-0.16211 -0.40998,-0.27332 -0.15217,-0.10966 -0.30125,-0.215 -0.41706,-0.29688 -0.11581,-0.0819 -0.20907,-0.14628 -0.21676,-0.15079 -0.047,-0.0276 -0.0642,-0.0861 -0.0636,-0.12253 5.2e-4,-0.0364 0.008,-0.0659 0.0213,-0.0989 0.0247,-0.0662 0.0662,-0.14504 0.12725,-0.24504 0.12212,-0.20003 0.32233,-0.48077 0.59847,-0.84825 1.6e-4,-2e-4 0.0257,-0.0234 0.0259,-0.0235 2.2e-4,-1.3e-4 0.028,-0.014 0.0282,-0.0141 5.6e-4,-1.5e-4 0.0393,-0.002 0.0401,-0.002 z"
         style="display:inline;fill:#020d1b;fill-opacity:1;stroke-width:1" /><path
         id="path257"
         style="display:inline;opacity:1;fill:none;fill-opacity:1;stroke:#020d1b;stroke-width:0.661463;stroke-linecap:round;stroke-linejoin:round;stroke-dasharray:none;stroke-opacity:1;paint-order:fill markers stroke"
         d="m 407.25991,802.74333 a 2.5428867,2.5428864 0 0 1 -2.54289,2.54289 2.5428867,2.5428864 0 0 1 2.54289,2.5429 2.5428867,2.5428864 0 0 1 2.54289,-2.5429 2.5428867,2.5428864 0 0 1 -2.54289,-2.54289 z" /><path
         id="path258"
         style="display:inline;opacity:1;fill:none;fill-opacity:1;stroke:#020d1b;stroke-width:0.661461;stroke-linecap:round;stroke-linejoin:round;stroke-dasharray:none;stroke-opacity:1;paint-order:fill markers stroke"
         d="m 420.79238,813.43873 a 2.2442568,2.2442566 0 0 1 -2.24426,2.24426 2.2442568,2.2442566 0 0 1 2.24426,2.24426 2.2442568,2.2442566 0 0 1 2.24426,-2.24426 2.2442568,2.2442566 0 0 1 -2.24426,-2.24426 z" /><path
         id="path259"
         style="display:inline;opacity:1;fill:none;fill-opacity:1;stroke:#020d1b;stroke-width:0.661461;stroke-linecap:round;stroke-linejoin:round;stroke-dasharray:none;stroke-opacity:1;paint-order:fill markers stroke"
         d="m 397.40415,813.42946 a 1.9182287,1.9182285 0 0 1 -1.91823,1.91823 1.9182287,1.9182285 0 0 1 1.91823,1.91823 1.9182287,1.9182285 0 0 1 1.91823,-1.91823 1.9182287,1.9182285 0 0 1 -1.91823,-1.91823 z" /><path
         id="path260"
         style="display:inline;opacity:1;fill:none;fill-opacity:1;stroke:#020d1b;stroke-width:0.661461;stroke-linecap:round;stroke-linejoin:round;stroke-dasharray:none;stroke-opacity:1;paint-order:fill markers stroke"
         d="m 408.35578,831.79524 a 2.3198051,2.3198052 0 0 1 -2.31982,2.3198 2.3198051,2.3198052 0 0 1 2.31982,2.3198 2.3198051,2.3198052 0 0 1 2.3198,-2.3198 2.3198051,2.3198052 0 0 1 -2.3198,-2.3198 z" /><path
         id="rect257"
         style="display:inline;opacity:1;fill:none;fill-opacity:1;stroke:#020d1b;stroke-width:0.661459;stroke-linecap:round;stroke-linejoin:round;stroke-dasharray:none;stroke-opacity:1;paint-order:fill markers stroke"
         d="m 414.36295,827.79725 a 1.5459984,1.545998 0 0 1 -1.546,1.546 1.5459984,1.545998 0 0 1 1.546,1.54599 1.5459984,1.545998 0 0 1 1.546,-1.54599 1.5459984,1.545998 0 0 1 -1.546,-1.546 z" /></g></g></svg>
