<?xml version="1.0" encoding="UTF-8" standalone="no"?>
<!-- Created with Inkscape (http://www.inkscape.org/) -->

<svg
   sodipodi:docname="printical.fi new design.svg"
   xml:space="preserve"
   inkscape:version="1.3.2 (091e20e, 2023-11-25, custom)"
   id="svg5"
   version="1.1"
   viewBox="0 0 30.46366 40.342271"
   height="152.47473"
   width="115.13824"
   inkscape:export-filename="tausta.png"
   inkscape:export-xdpi="96"
   inkscape:export-ydpi="96"
   xmlns:inkscape="http://www.inkscape.org/namespaces/inkscape"
   xmlns:sodipodi="http://sodipodi.sourceforge.net/DTD/sodipodi-0.dtd"
   xmlns="http://www.w3.org/2000/svg"
   xmlns:svg="http://www.w3.org/2000/svg"><sodipodi:namedview
     id="namedview7"
     pagecolor="#262626"
     bordercolor="#ffffff"
     borderopacity="1"
     inkscape:pageshadow="0"
     inkscape:pageopacity="0"
     inkscape:pagecheckerboard="false"
     inkscape:document-units="px"
     showgrid="false"
     units="px"
     inkscape:snap-page="true"
     inkscape:showpageshadow="false"
     inkscape:deskcolor="#262626"
     borderlayer="true"
     inkscape:zoom="0.5"
     inkscape:cx="1684"
     inkscape:cy="2011"
     inkscape:window-width="1920"
     inkscape:window-height="1057"
     inkscape:window-x="-8"
     inkscape:window-y="-8"
     inkscape:window-maximized="1"
     inkscape:current-layer="layer6"
     showguides="false"><inkscape:grid
       id="grid274"
       units="px"
       originx="-238.76817"
       originy="-242.79244"
       spacingx="5.08"
       spacingy="2.8575"
       empcolor="#004ebc"
       empopacity="0.30196078"
       color="#e56900"
       opacity="0.14901961"
       empspacing="10"
       dotted="false"
       gridanglex="30"
       gridanglez="30"
       visible="false" /><sodipodi:guide
       position="15.231846,1385.7925"
       orientation="1,0"
       id="guide2"
       inkscape:locked="false" /><sodipodi:guide
       position="-187.96815,1440.8258"
       orientation="0,-1"
       id="guide16"
       inkscape:locked="false" /><sodipodi:guide
       position="-238.76815,1205.8758"
       orientation="0,-1"
       id="guide84"
       inkscape:locked="false" /><sodipodi:guide
       position="-164.42024,1256.6758"
       orientation="0,-1"
       id="guide139"
       inkscape:locked="false" /><sodipodi:guide
       position="-200.66816,1379.3896"
       orientation="1,0"
       id="guide161"
       inkscape:locked="false" /><sodipodi:guide
       position="231.13188,1379.4425"
       orientation="1,0"
       id="guide162"
       inkscape:locked="false" /><sodipodi:guide
       position="-238.76812,1453.6911"
       orientation="0,-1"
       id="guide200"
       inkscape:locked="false" /><sodipodi:guide
       position="43.145396,1460.052"
       orientation="0,-1"
       id="guide52"
       inkscape:locked="false" /><sodipodi:guide
       position="-382.31134,1432.8883"
       orientation="1,0"
       id="guide133"
       inkscape:locked="false" /><sodipodi:guide
       position="-601.38632,1403.6707"
       orientation="0,-1"
       id="guide134"
       inkscape:locked="false" /><sodipodi:guide
       position="-170.55185,1189.6475"
       orientation="1,0"
       id="guide173"
       inkscape:locked="false" /><sodipodi:guide
       position="201.01555,1189.6475"
       orientation="1,0"
       id="guide174"
       inkscape:locked="false" /></sodipodi:namedview><defs
     id="defs2" /><g
     inkscape:groupmode="layer"
     id="layer5"
     inkscape:label="Layer 5"
     transform="translate(-238.76815,-242.79244)"><g
       id="g15"
       transform="matrix(1.1513827,0,0,1.1513827,238.76823,242.79252)"
       style="fill:#020d1b;fill-opacity:1;stroke-width:0.868521"><g
         inkscape:label="Layer 1"
         id="layer1-3"
         transform="translate(-269.8523,-176.83886)"
         style="fill:#020d1b;fill-opacity:1;stroke-width:0.868521"><rect
           style="display:none;fill:#020d1b;fill-opacity:1;stroke:none;stroke-width:0.459593;stroke-linecap:square;stroke-linejoin:round"
           id="rect1-0"
           width="605.3667"
           height="376.41336"
           x="-48.683334"
           y="-116.528"
           sodipodi:insensitive="true" /></g><g
         id="layer6-9"
         inkscape:label="Layer 6"
         transform="translate(-269.8523,-176.83886)"
         style="fill:#020d1b;fill-opacity:1;stroke-width:0.868521"><g
           id="g166"
           style="fill:#020d1b;fill-opacity:1;stroke-width:0.868521"
           transform="translate(0,44.726055)"
           inkscape:export-filename="PRINTICAL Kuvat\Logot\SVG\printicallogo_s.svg"
           inkscape:export-xdpi="96"
           inkscape:export-ydpi="96"><path
             style="color:#000000;fill:#020d1b;fill-opacity:1;stroke-width:0.868521;stroke-linecap:round;stroke-linejoin:round;-inkscape-stroke:none;paint-order:fill markers stroke"
             d="m 294.52205,147.84397 a 1.7876713,1.7876713 0 0 0 -1.26367,0.52374 l -7.15124,7.15125 a 1.7876713,1.7876713 0 0 0 0,2.52731 1.7876713,1.7876713 0 0 0 2.52843,0 l 7.15125,-7.15012 a 1.7876713,1.7876713 0 0 0 0,-2.52844 1.7876713,1.7876713 0 0 0 -1.26477,-0.52374 z"
             id="path164" /><path
             style="color:#000000;fill:#020d1b;fill-opacity:1;stroke-width:0.868521;stroke-linecap:round;stroke-linejoin:round;-inkscape-stroke:none;paint-order:fill markers stroke"
             d="m 283.0815,132.11274 a 1.7876713,1.7876713 0 0 0 -1.78738,1.78739 v 3.93372 h -3.93373 a 1.7876713,1.7876713 0 0 0 -1.7871,1.78711 1.7876713,1.7876713 0 0 0 1.7871,1.78739 h 11.08413 v 3.1924 l -5.36302,5.36301 -5.88675,-5.88647 a 1.78785,1.78785 0 0 0 -2.52843,0 l -2.14521,2.14521 -2.14521,2.14521 a 1.78785,1.78785 0 0 0 0,2.52844 l 10.9171,10.91709 v 3.55021 a 1.7876713,1.7876713 0 0 0 1.7885,1.78738 1.7876713,1.7876713 0 0 0 1.78711,-1.78738 v -4.29042 a 1.78785,1.78785 0 0 0 -0.52344,-1.26367 l -10.17718,-10.17688 0.88156,-0.88154 0.88043,-0.88155 5.88674,5.88647 a 1.78785,1.78785 0 0 0 2.52845,0 l 7.15124,-7.15012 a 1.78785,1.78785 0 0 0 0.52262,-1.26366 v -5.72112 a 1.78785,1.78785 0 0 0 -1.7874,-1.78711 h -5.36302 v -3.93372 a 1.7876713,1.7876713 0 0 0 -1.78711,-1.78739 z"
             id="path165" /></g></g></g></g></svg>
