<?xml version="1.0" encoding="UTF-8" standalone="no"?>
<!-- Created with Inkscape (http://www.inkscape.org/) -->

<svg
   width="239.00183"
   height="32.564468"
   viewBox="0 0 63.2359 8.6160159"
   version="1.1"
   id="svg5"
   inkscape:version="1.2.2 (732a01da63, 2022-12-09)"
   sodipodi:docname="printical2.0.svg"
   xmlns:inkscape="http://www.inkscape.org/namespaces/inkscape"
   xmlns:sodipodi="http://sodipodi.sourceforge.net/DTD/sodipodi-0.dtd"
   xmlns="http://www.w3.org/2000/svg"
   xmlns:svg="http://www.w3.org/2000/svg">
  <sodipodi:namedview
     id="namedview7"
     pagecolor="#262626"
     bordercolor="#ffffff"
     borderopacity="1"
     inkscape:pageshadow="0"
     inkscape:pageopacity="0"
     inkscape:pagecheckerboard="false"
     inkscape:document-units="px"
     showgrid="false"
     units="px"
     inkscape:snap-page="true"
     inkscape:showpageshadow="0"
     inkscape:deskcolor="#262626"
     inkscape:zoom="1"
     inkscape:cx="1720.5"
     inkscape:cy="92"
     inkscape:window-width="1920"
     inkscape:window-height="1057"
     inkscape:window-x="-8"
     inkscape:window-y="-8"
     inkscape:window-maximized="1"
     inkscape:current-layer="layer2">
    <inkscape:grid
       type="xygrid"
       id="grid3544" />
  </sodipodi:namedview>
  <defs
     id="defs2" />
  <g
     inkscape:groupmode="layer"
     id="layer6"
     inkscape:label="Layer 6"
     transform="translate(-713.85799,-56.888789)">
    <path
       id="path520"
       style="font-weight:900;font-size:18.7679px;line-height:1.2;font-family:Orbitron;-inkscape-font-specification:'Orbitron Heavy';fill:#f26c0c;stroke-width:0.469195;stroke-linecap:round;paint-order:stroke markers fill"
       d="m 723.65272,56.889311 -1.8557,1.819527 h 1.8557 2.58072 2.30529 v 2.131653 h -4.88549 l -1.82108,1.843815 -0.0351,0.03566 v 2.784326 h 1.8557 v -1.81436 -1.005623 l 2.46703,-0.01189 2.3828,2.831869 h 0.007 0.0532 1.8557 v -0.633553 c -0.18609,-0.21927 -0.37176,-0.437717 -0.55862,-0.657325 -0.43712,-0.51665 -0.88234,-1.038462 -1.30948,-1.540991 h 0.0124 1.8557 V 60.84049 58.708837 58.70832 56.88931 h -1.78439 z" />
    <path
       id="path522"
       style="font-weight:900;font-size:18.7679px;line-height:1.2;font-family:Orbitron;-inkscape-font-specification:'Orbitron Heavy';fill:#f26c0c;stroke-width:0.469195;stroke-linecap:round;paint-order:stroke markers fill"
       d="m 715.71419,56.889311 -1.85622,1.819527 h 1.85622 0.51728 4.36872 v 2.131653 h -4.36872 -0.51728 l -1.82108,1.843815 -0.0346,0.03514 -5.2e-4,5.17e-4 v 2.784326 h 5.2e-4 1.8557 v -1.81436 -1.005623 l 4.886,-0.01189 h 0.0243 l 1.8557,-1.831929 v -2.13217 -1.81901 h -1.87999 -2.44274 z" />
    <path
       style="font-weight:900;font-size:18.7679px;line-height:1.2;font-family:Orbitron;-inkscape-font-specification:'Orbitron Heavy';fill:#f26c0c;stroke-width:0.469195;stroke-linecap:round;paint-order:stroke markers fill"
       d="m 772.78305,56.888794 -1.85622,1.820044 v 6.795451 h 4.31085 l 1.85622,-1.81436 h -4.31085 z"
       id="path524" />
    <path
       style="font-weight:900;font-size:18.7679px;line-height:1.2;font-family:Orbitron;-inkscape-font-specification:'Orbitron Heavy';fill:#f26c0c;stroke-width:0.469195;stroke-linecap:round;paint-order:stroke markers fill"
       d="m 763.08263,56.888794 -1.8681,1.820044 h 1.85622 0.0119 1.65003 3.22358 v 2.131653 h -3.22358 -1.66191 l -1.85622,1.879472 v 0.970483 1.814359 h 1.8681 v -1.814359 h -0.0124 l 5.2e-4,-5.17e-4 v -0.957564 h 4.88549 v 0.958081 1.813843 5.16e-4 h 1.8681 v -1.80299 l 0.0124,-0.01189 v -4.981091 -5.17e-4 -1.819527 h -1.7849 z"
       id="path526" />
    <path
       style="font-weight:900;font-size:18.7679px;line-height:1.2;font-family:Orbitron;-inkscape-font-specification:'Orbitron Heavy';fill:#f26c0c;stroke-width:0.469195;stroke-linecap:round;paint-order:stroke markers fill"
       d="m 755.12181,56.888794 -1.86811,1.820044 v 4.981608 1.813843 h 6.72931 l 1.8681,-1.81436 h -6.7417 v -4.981091 h 4.8736 l 1.8681,-1.820044 z"
       id="path528" />
    <path
       style="font-weight:900;font-size:18.7679px;line-height:1.2;font-family:Orbitron;-inkscape-font-specification:'Orbitron Heavy';fill:#f26c0c;stroke-width:0.469195;stroke-linecap:round;paint-order:stroke markers fill"
       d="m 752.16363,56.888794 -1.8681,1.820044 v 4.981091 1.81436 h 1.8681 v -1.81436 z"
       id="path530" />
    <path
       style="font-weight:900;font-size:18.7679px;line-height:1.2;font-family:Orbitron;-inkscape-font-specification:'Orbitron Heavy';fill:#f26c0c;stroke-width:0.469195;stroke-linecap:round;paint-order:stroke markers fill"
       d="m 736.33463,56.888794 -1.86862,1.820044 v 6.795451 h 10e-4 1.8557 v -1.81436 -1.005623 -2.945557 l 4.84984,5.76554 h 0.0599 1.85571 v -1.81436 -1.005623 -3.975468 h 2.5988 v 4.981091 1.81436 h 1.8681 v -1.81436 -4.981091 h 1.50896 l 1.86758,-1.820044 h -7.84344 -0.0119 l -1.86811,1.820044 v 3.927925 l -4.82607,-5.747969 z"
       id="path532" />
    <path
       style="font-weight:900;font-size:18.7679px;line-height:1.2;font-family:Orbitron;-inkscape-font-specification:'Orbitron Heavy';fill:#f26c0c;stroke-width:0.469195;stroke-linecap:round;paint-order:stroke markers fill"
       d="m 733.37592,56.888794 -1.86759,1.820044 v 3.975468 2.819983 h 0.0119 1.84381 v -1.802991 l 0.0119,-0.01137 z"
       id="path534" />
  </g>
</svg>
