<?xml version="1.0" encoding="UTF-8" standalone="no"?>
<!-- Created with Inkscape (http://www.inkscape.org/) -->

<svg
   width="239.00183"
   height="32.564514"
   viewBox="0 0 63.2359 8.616028"
   version="1.1"
   id="svg5"
   inkscape:version="1.2.2 (732a01da63, 2022-12-09)"
   sodipodi:docname="printical2.0.svg"
   xmlns:inkscape="http://www.inkscape.org/namespaces/inkscape"
   xmlns:sodipodi="http://sodipodi.sourceforge.net/DTD/sodipodi-0.dtd"
   xmlns="http://www.w3.org/2000/svg"
   xmlns:svg="http://www.w3.org/2000/svg">
  <sodipodi:namedview
     id="namedview7"
     pagecolor="#262626"
     bordercolor="#ffffff"
     borderopacity="1"
     inkscape:pageshadow="0"
     inkscape:pageopacity="0"
     inkscape:pagecheckerboard="false"
     inkscape:document-units="px"
     showgrid="false"
     units="px"
     inkscape:snap-page="true"
     inkscape:showpageshadow="0"
     inkscape:deskcolor="#262626"
     inkscape:zoom="1"
     inkscape:cx="1720.5"
     inkscape:cy="92"
     inkscape:window-width="1920"
     inkscape:window-height="1057"
     inkscape:window-x="-8"
     inkscape:window-y="-8"
     inkscape:window-maximized="1"
     inkscape:current-layer="layer2">
    <inkscape:grid
       type="xygrid"
       id="grid3544" />
  </sodipodi:namedview>
  <defs
     id="defs2" />
  <g
     inkscape:groupmode="layer"
     id="layer6"
     inkscape:label="Layer 6"
     transform="translate(-713.85799,-123.0346)">
    <path
       id="path542"
       style="font-weight:900;font-size:18.7679px;line-height:1.2;font-family:Orbitron;-inkscape-font-specification:'Orbitron Heavy';fill:#05101a;fill-opacity:1;stroke-width:0.469195;stroke-linecap:round;paint-order:stroke markers fill"
       d="m 723.65272,123.03513 -1.8557,1.81953 h 1.8557 2.58072 2.30529 v 2.13165 h -4.88549 l -1.82108,1.84382 -0.0351,0.0357 v 2.78432 h 1.8557 v -1.81436 -1.00562 l 2.46703,-0.0119 2.3828,2.83187 h 0.007 0.0532 1.8557 v -0.63355 c -0.18609,-0.21927 -0.37176,-0.43772 -0.55862,-0.65733 -0.43712,-0.51665 -0.88234,-1.03846 -1.30948,-1.54099 h 0.0124 1.8557 v -1.83193 -2.13165 -5.2e-4 -1.81901 h -1.78439 z" />
    <path
       id="path544"
       style="font-weight:900;font-size:18.7679px;line-height:1.2;font-family:Orbitron;-inkscape-font-specification:'Orbitron Heavy';fill:#05101a;fill-opacity:1;stroke-width:0.469195;stroke-linecap:round;paint-order:stroke markers fill"
       d="m 715.71419,123.03513 -1.85622,1.81953 h 1.85622 0.51728 4.36872 v 2.13165 h -4.36872 -0.51728 l -1.82108,1.84382 -0.0346,0.0351 -5.2e-4,5.1e-4 v 2.78433 h 5.2e-4 1.8557 v -1.81436 -1.00562 l 4.886,-0.0119 h 0.0243 l 1.8557,-1.83193 v -2.13217 -1.81901 h -1.87999 -2.44274 z" />
    <path
       style="font-weight:900;font-size:18.7679px;line-height:1.2;font-family:Orbitron;-inkscape-font-specification:'Orbitron Heavy';fill:#05101a;fill-opacity:1;stroke-width:0.469195;stroke-linecap:round;paint-order:stroke markers fill"
       d="m 772.78305,123.03462 -1.85622,1.82004 v 6.79545 h 4.31085 l 1.85622,-1.81436 h -4.31085 z"
       id="path546" />
    <path
       style="font-weight:900;font-size:18.7679px;line-height:1.2;font-family:Orbitron;-inkscape-font-specification:'Orbitron Heavy';fill:#05101a;fill-opacity:1;stroke-width:0.469195;stroke-linecap:round;paint-order:stroke markers fill"
       d="m 763.08263,123.03462 -1.8681,1.82004 h 1.85622 0.0119 1.65003 3.22358 v 2.13165 h -3.22358 -1.66191 l -1.85622,1.87947 v 0.97049 1.81436 h 1.8681 v -1.81436 h -0.0124 l 5.2e-4,-5.2e-4 v -0.95756 h 4.88549 v 0.95808 1.81384 5.2e-4 h 1.8681 v -1.80299 l 0.0124,-0.0119 v -4.98109 -5.2e-4 -1.81953 h -1.7849 z"
       id="path548" />
    <path
       style="font-weight:900;font-size:18.7679px;line-height:1.2;font-family:Orbitron;-inkscape-font-specification:'Orbitron Heavy';fill:#05101a;fill-opacity:1;stroke-width:0.469195;stroke-linecap:round;paint-order:stroke markers fill"
       d="m 755.12181,123.03462 -1.86811,1.82004 v 4.98161 1.81384 h 6.72931 l 1.8681,-1.81436 h -6.7417 v -4.98109 h 4.8736 l 1.8681,-1.82004 z"
       id="path550" />
    <path
       style="font-weight:900;font-size:18.7679px;line-height:1.2;font-family:Orbitron;-inkscape-font-specification:'Orbitron Heavy';fill:#05101a;fill-opacity:1;stroke-width:0.469195;stroke-linecap:round;paint-order:stroke markers fill"
       d="m 752.16363,123.03462 -1.8681,1.82004 v 4.98109 1.81436 h 1.8681 v -1.81436 z"
       id="path552" />
    <path
       style="font-weight:900;font-size:18.7679px;line-height:1.2;font-family:Orbitron;-inkscape-font-specification:'Orbitron Heavy';fill:#05101a;fill-opacity:1;stroke-width:0.469195;stroke-linecap:round;paint-order:stroke markers fill"
       d="m 736.33463,123.03462 -1.86862,1.82004 v 6.79545 h 10e-4 1.8557 v -1.81436 -1.00562 -2.94556 l 4.84984,5.76554 h 0.0599 1.85571 v -1.81436 -1.00562 -3.97547 h 2.5988 v 4.98109 1.81436 h 1.8681 v -1.81436 -4.98109 h 1.50896 l 1.86758,-1.82004 h -7.84344 -0.0119 l -1.86811,1.82004 v 3.92792 l -4.82607,-5.74796 z"
       id="path554" />
    <path
       style="font-weight:900;font-size:18.7679px;line-height:1.2;font-family:Orbitron;-inkscape-font-specification:'Orbitron Heavy';fill:#05101a;fill-opacity:1;stroke-width:0.469195;stroke-linecap:round;paint-order:stroke markers fill"
       d="m 733.37592,123.03462 -1.86759,1.82004 v 3.97547 2.81998 h 0.0119 1.84381 v -1.80299 l 0.0119,-0.0114 z"
       id="path556" />
  </g>
</svg>
