<?xml version="1.0" encoding="UTF-8" standalone="no"?>
<!-- Created with Inkscape (http://www.inkscape.org/) -->

<svg
   sodipodi:docname="printical.fi new design.svg"
   xml:space="preserve"
   inkscape:version="1.3.2 (091e20e, 2023-11-25, custom)"
   id="svg5"
   version="1.1"
   viewBox="0 0 84.25377 45.965409"
   height="173.72754"
   width="318.43945"
   inkscape:export-filename="tausta.png"
   inkscape:export-xdpi="96"
   inkscape:export-ydpi="96"
   xmlns:inkscape="http://www.inkscape.org/namespaces/inkscape"
   xmlns:sodipodi="http://sodipodi.sourceforge.net/DTD/sodipodi-0.dtd"
   xmlns="http://www.w3.org/2000/svg"
   xmlns:svg="http://www.w3.org/2000/svg"><sodipodi:namedview
     id="namedview7"
     pagecolor="#262626"
     bordercolor="#ffffff"
     borderopacity="1"
     inkscape:pageshadow="0"
     inkscape:pageopacity="0"
     inkscape:pagecheckerboard="false"
     inkscape:document-units="px"
     showgrid="false"
     units="px"
     inkscape:snap-page="true"
     inkscape:showpageshadow="false"
     inkscape:deskcolor="#262626"
     borderlayer="true"
     inkscape:zoom="0.5"
     inkscape:cx="1702"
     inkscape:cy="2643"
     inkscape:window-width="1920"
     inkscape:window-height="1057"
     inkscape:window-x="-8"
     inkscape:window-y="-8"
     inkscape:window-maximized="1"
     inkscape:current-layer="layer1"
     showguides="false"><inkscape:grid
       id="grid274"
       units="px"
       originx="-115.75262"
       originy="-976.47186"
       spacingx="5.08"
       spacingy="2.8575"
       empcolor="#004ebc"
       empopacity="0.30196078"
       color="#e56900"
       opacity="0.14901961"
       empspacing="10"
       dotted="false"
       gridanglex="30"
       gridanglez="30"
       visible="false" /><sodipodi:guide
       position="138.24738,2119.472"
       orientation="1,0"
       id="guide2"
       inkscape:locked="false" /><sodipodi:guide
       position="-64.95261,2174.5053"
       orientation="0,-1"
       id="guide16"
       inkscape:locked="false" /><sodipodi:guide
       position="-115.75261,1939.5553"
       orientation="0,-1"
       id="guide84"
       inkscape:locked="false" /><sodipodi:guide
       position="-41.4047,1990.3553"
       orientation="0,-1"
       id="guide139"
       inkscape:locked="false" /><sodipodi:guide
       position="-77.65262,2113.0691"
       orientation="1,0"
       id="guide161"
       inkscape:locked="false" /><sodipodi:guide
       position="354.14741,2113.122"
       orientation="1,0"
       id="guide162"
       inkscape:locked="false" /><sodipodi:guide
       position="-115.75259,2187.3706"
       orientation="0,-1"
       id="guide200"
       inkscape:locked="false" /><sodipodi:guide
       position="166.16093,2193.7315"
       orientation="0,-1"
       id="guide52"
       inkscape:locked="false" /><sodipodi:guide
       position="-259.29581,2166.5678"
       orientation="1,0"
       id="guide133"
       inkscape:locked="false" /><sodipodi:guide
       position="-478.37079,2137.3502"
       orientation="0,-1"
       id="guide134"
       inkscape:locked="false" /><sodipodi:guide
       position="-47.536313,1923.3269"
       orientation="1,0"
       id="guide173"
       inkscape:locked="false" /><sodipodi:guide
       position="324.03108,1923.3269"
       orientation="1,0"
       id="guide174"
       inkscape:locked="false" /></sodipodi:namedview><defs
     id="defs2" /><g
     inkscape:groupmode="layer"
     id="layer6"
     inkscape:label="Layer 6"
     transform="translate(-115.75262,-976.47188)"><path
       style="fill:#ff671a;fill-opacity:1;stroke-width:0.999997"
       d="m 119.6937,993.74566 c -0.44597,-0.10784 -0.9255,-0.4803 -1.16179,-0.9025 -0.25112,-0.44866 -0.2343,0.10203 -0.2343,-7.70525 0,-7.77895 -0.0159,-7.24412 0.2262,-7.69801 0.0633,-0.11882 0.2076,-0.3085 0.32059,-0.4215 0.97048,-0.97049 2.59143,-0.59599 3.06702,0.70855 0.0733,0.20109 0.0949,0.3426 0.11139,0.72991 l 0.0204,0.48046 h 6.58639 c 7.21349,0 6.76633,-0.013 7.21531,0.21037 0.27193,0.13532 0.59526,0.44366 0.76416,0.72869 0.27162,0.4583 0.25387,0.005 0.25387,6.4944 0,6.44195 0.0155,6.02679 -0.23434,6.47238 -0.24072,0.43021 -0.71812,0.79621 -1.17981,0.9046 -0.3468,0.082 -15.41783,0.079 -15.7552,0 z m 15.45746,-0.59229 c 0.45287,-0.0655 0.83106,-0.35256 0.99297,-0.75382 l 0.0843,-0.20892 v -5.80172 c 0,-4.76148 -0.009,-5.82773 -0.0486,-5.94677 -0.123,-0.36601 -0.47741,-0.71611 -0.82159,-0.81151 -0.10369,-0.0287 -2.02203,-0.0403 -6.73494,-0.0404 l -6.58998,-1.3e-4 -0.01,5.62355 -0.01,5.62358 -0.10178,0.0875 c -0.1365,0.11741 -0.31178,0.11628 -0.42366,-0.003 -0.0593,-0.0631 -0.0939,-0.15847 -0.11524,-0.31729 -0.0609,-0.45341 -0.31944,-0.81992 -0.7164,-1.01552 -0.1349,-0.0665 -0.22681,-0.0818 -0.49224,-0.0818 -0.27733,0 -0.35715,0.0145 -0.53142,0.0961 -0.38004,0.17818 -0.61965,0.51276 -0.68978,0.9633 -0.0217,0.13957 -0.0305,0.54026 -0.0212,0.93413 0.0146,0.60235 0.027,0.71619 0.0975,0.89864 0.14894,0.38438 0.53868,0.69057 0.95676,0.75167 0.27294,0.0399 14.89925,0.0419 15.17454,0.002 z m -11.50677,-0.99736 c -0.0749,-0.0748 -0.089,-0.12381 -0.089,-0.3082 v -0.21922 h -0.21925 c -0.1844,0 -0.23332,-0.0141 -0.30823,-0.089 -0.12282,-0.12285 -0.12003,-0.30516 0.007,-0.43183 0.0815,-0.0815 0.1268,-0.0956 0.30815,-0.0956 h 0.21269 v -5.31019 -5.31017 l 0.0875,-0.10174 0.0875,-0.10175 h 0.59765 c 0.53106,0 0.60593,0.008 0.67194,0.0672 0.17196,0.15568 0.11193,0.45074 -0.10723,0.52717 -0.0634,0.0222 -0.25161,0.0401 -0.41812,0.0401 h -0.30279 v 0.45326 0.45326 h 0.2192 c 0.271,0 0.39718,0.0979 0.39718,0.30821 0,0.21031 -0.12618,0.30823 -0.39718,0.30823 h -0.2192 v 0.44809 0.4481 l 0.2266,0.0229 c 0.18125,0.0184 0.24297,0.0415 0.30823,0.11597 0.0796,0.0908 0.10435,0.24131 0.0591,0.35934 -0.0359,0.0938 -0.21291,0.1648 -0.41082,0.1648 h -0.18307 v 0.4489 0.4489 l 0.21708,0.0157 c 0.27383,0.0198 0.3993,0.12019 0.3993,0.31936 0,0.19916 -0.12547,0.29955 -0.3993,0.31936 l -0.21708,0.0157 v 0.44891 0.4489 h 0.2192 c 0.271,0 0.39718,0.0979 0.39718,0.30821 0,0.21029 -0.12618,0.30822 -0.39718,0.30822 h -0.2192 v 0.44809 0.4481 l 0.22659,0.0229 c 0.18126,0.0184 0.24298,0.0415 0.30824,0.11597 0.0796,0.0908 0.10435,0.24131 0.0591,0.35934 -0.0359,0.0938 -0.21291,0.1648 -0.41082,0.1648 h -0.18307 v 0.44889 0.44892 l 0.21708,0.0157 c 0.27383,0.0198 0.3993,0.1202 0.3993,0.31936 0,0.19916 -0.12547,0.29956 -0.3993,0.31936 l -0.21708,0.0157 v 0.4489 0.44891 h 0.45323 0.45328 v -0.14621 c 0,-0.294 0.13291,-0.47155 0.35113,-0.46907 0.19711,0.002 0.3016,0.15174 0.3016,0.43159 v 0.18369 h 0.44884 0.4489 l 0.0159,-0.22304 c 0.0133,-0.18717 0.0319,-0.23673 0.11516,-0.30822 0.0545,-0.0469 0.14606,-0.0852 0.20379,-0.0852 0.0576,0 0.14925,0.0383 0.20375,0.0852 0.0831,0.0715 0.10161,0.12105 0.11516,0.30822 l 0.0164,0.22304 h 0.4489 0.44889 v -0.21263 c 0,-0.18137 0.0142,-0.22667 0.0956,-0.30822 0.12662,-0.12666 0.30899,-0.12944 0.43185,-0.007 0.0748,0.0748 0.089,0.12381 0.089,0.30821 v 0.21921 h 0.45323 0.45327 v -0.14621 c 0,-0.294 0.13291,-0.47153 0.35118,-0.46907 0.19707,0.002 0.30151,0.15175 0.30151,0.43159 v 0.18369 h 0.44894 0.44889 l 0.0164,-0.22303 c 0.0133,-0.18718 0.0319,-0.23674 0.11516,-0.30823 0.12623,-0.10857 0.28132,-0.10857 0.40754,0 0.0831,0.0715 0.10165,0.12105 0.11516,0.30823 l 0.0159,0.22303 h 0.44893 0.44889 v -0.21263 c 0,-0.18137 0.0142,-0.22665 0.0956,-0.30821 0.12671,-0.12665 0.30903,-0.12944 0.43184,-0.007 0.0749,0.0748 0.089,0.12382 0.089,0.30822 v 0.2192 h 0.30828 0.30824 v -0.4919 c 0,-0.49326 0.0221,-0.6027 0.1419,-0.69448 0.0803,-0.0617 0.26196,-0.0571 0.35622,0.009 0.12047,0.0844 0.15416,0.27407 0.15416,0.86918 0,0.29916 -0.0168,0.60462 -0.0376,0.67882 -0.074,0.26651 0.37633,0.24583 -5.35492,0.24583 h -5.15909 v 0.21922 c 0,0.1844 -0.0142,0.23334 -0.089,0.30821 -0.12104,0.1211 -0.31726,0.1211 -0.4384,0 z m 5.362,-2.71853 c -0.0632,-0.0281 -0.13096,-0.081 -0.15044,-0.11756 -0.0195,-0.0365 -0.0884,-0.33565 -0.1531,-0.66471 -0.0647,-0.32907 -0.13025,-0.61243 -0.14566,-0.62969 -0.0155,-0.0173 -0.25892,0.12721 -0.54112,0.32107 -0.37376,0.25665 -0.55267,0.35773 -0.65835,0.3719 l -0.14508,0.0195 -0.52323,-0.52321 c -0.66725,-0.66722 -0.6584,-0.59206 -0.15788,-1.34047 0.20091,-0.30047 0.36008,-0.55019 0.35352,-0.55493 -0.007,-0.005 -0.30553,-0.0677 -0.6645,-0.1399 -0.87476,-0.17597 -0.81588,-0.10079 -0.81588,-1.04154 0,-0.9391 -0.0523,-0.86962 0.78068,-1.03692 0.33843,-0.0679 0.63586,-0.13124 0.66088,-0.14059 0.0297,-0.011 -0.0821,-0.2097 -0.31723,-0.56445 -0.4948,-0.74659 -0.50366,-0.67085 0.15527,-1.32976 0.46718,-0.46716 0.5304,-0.5181 0.64361,-0.51805 0.0985,4e-5 0.24244,0.078 0.66845,0.36182 0.29858,0.19897 0.55324,0.34989 0.56599,0.33536 0.0128,-0.0146 0.0771,-0.30189 0.14292,-0.63861 0.0915,-0.46759 0.13902,-0.63462 0.20131,-0.70709 l 0.0815,-0.0949 0.66495,-0.0118 c 0.70754,-0.0125 0.88756,0.0135 0.96588,0.13977 0.0261,0.0417 0.10333,0.35494 0.17213,0.69607 0.0689,0.34114 0.13163,0.62665 0.13951,0.63448 0.008,0.008 0.26188,-0.14989 0.56454,-0.35049 0.73884,-0.48963 0.67371,-0.49461 1.27747,0.0976 0.46559,0.4567 0.57331,0.59308 0.57331,0.7264 0,0.0376 -0.16541,0.32443 -0.36752,0.63754 -0.20211,0.31312 -0.36123,0.57439 -0.35357,0.5806 0.008,0.006 0.28317,0.0645 0.61226,0.12937 0.32904,0.0649 0.62559,0.13264 0.65889,0.15045 0.17257,0.0922 0.1751,0.1052 0.1751,0.9025 v 0.75566 l -0.1009,0.0848 c -0.0785,0.066 -0.23952,0.11198 -0.7272,0.20757 -0.46833,0.0918 -0.62165,0.13482 -0.60801,0.1705 0.01,0.0262 0.16726,0.27025 0.34927,0.54222 0.19556,0.29216 0.33936,0.54615 0.35149,0.62074 0.0199,0.12267 0.005,0.1416 -0.52092,0.66759 -0.46802,0.46807 -0.55679,0.54135 -0.65534,0.54135 -0.0838,0 -0.25976,-0.0966 -0.66433,-0.36473 -0.30266,-0.20061 -0.55675,-0.35832 -0.56454,-0.3505 -0.008,0.008 -0.0716,0.29828 -0.14167,0.64547 -0.17418,0.86284 -0.11131,0.81054 -0.98833,0.82189 -0.52141,0.007 -0.70581,-0.003 -0.79414,-0.0424 z m 1.21656,-1.18706 c 0.0619,-0.32235 0.13512,-0.62046 0.16266,-0.66248 0.0517,-0.0789 0.47953,-0.27439 0.60066,-0.27439 0.0376,0 0.30771,0.15783 0.60009,0.35072 l 0.5316,0.35072 0.25059,-0.251 0.25059,-0.25101 -0.34379,-0.51972 c -0.19494,-0.29476 -0.34374,-0.55749 -0.34374,-0.60698 0,-0.13899 0.18342,-0.55925 0.26768,-0.61323 0.0425,-0.027 0.34197,-0.10181 0.66605,-0.16608 l 0.58924,-0.11687 v -0.3574 c 0,-0.19657 -0.006,-0.3574 -0.0124,-0.3574 -0.0662,0 -1.11725,-0.2274 -1.19247,-0.258 -0.1114,-0.0453 -0.27875,-0.35772 -0.30788,-0.57453 -0.0159,-0.11569 0.0195,-0.1855 0.33001,-0.65472 l 0.34742,-0.52522 -0.25059,-0.251 -0.25059,-0.251 -0.5316,0.35072 c -0.29238,0.19289 -0.55997,0.35071 -0.59468,0.35071 -0.0944,0 -0.47975,-0.16428 -0.56635,-0.24147 -0.059,-0.0525 -0.10263,-0.20244 -0.19623,-0.6745 l -0.12042,-0.60699 h -0.35694 c -0.34046,0 -0.35782,0.003 -0.37584,0.0816 -0.0102,0.0448 -0.0669,0.31594 -0.12565,0.60238 -0.0615,0.29974 -0.13215,0.54876 -0.16651,0.58672 -0.0649,0.0717 -0.48608,0.25226 -0.5884,0.25226 -0.035,0 -0.29796,-0.1567 -0.58481,-0.3482 l -0.52155,-0.34821 -0.25541,0.25541 -0.25542,0.2554 0.32957,0.50074 c 0.18131,0.27539 0.33998,0.53624 0.35269,0.57963 0.0266,0.0907 -0.13105,0.49992 -0.23306,0.60515 -0.0451,0.0465 -0.22818,0.10013 -0.58618,0.17173 -0.28632,0.0573 -0.55732,0.11281 -0.60222,0.12345 -0.0778,0.0184 -0.0816,0.036 -0.0816,0.37823 v 0.35891 l 0.17227,0.0363 c 0.0947,0.02 0.35808,0.073 0.58521,0.11788 0.28291,0.0559 0.43928,0.10542 0.49649,0.15712 0.11214,0.10145 0.27879,0.51155 0.24908,0.61302 -0.0124,0.0434 -0.17138,0.30423 -0.35269,0.57964 l -0.32957,0.50074 0.25139,0.25094 0.25134,0.25096 0.51977,-0.34375 c 0.29952,-0.19814 0.55715,-0.34377 0.60811,-0.34377 0.11015,0 0.52349,0.18513 0.58769,0.26318 0.0261,0.0318 0.0955,0.29157 0.15411,0.57722 0.0586,0.28566 0.11503,0.5561 0.12534,0.60098 0.0182,0.0778 0.0354,0.0816 0.37668,0.0816 h 0.35783 z m -1.04712,-1.34606 c -0.66562,-0.22865 -1.1668,-0.82161 -1.27088,-1.50356 -0.12804,-0.8391 0.37823,-1.69136 1.19282,-2.008 0.28375,-0.11029 0.85688,-0.13591 1.14785,-0.0513 0.79405,0.23082 1.35965,0.97817 1.35965,1.79642 0,0.82686 -0.58659,1.58312 -1.396,1.79989 -0.28708,0.0769 -0.7566,0.0617 -1.03344,-0.0334 z m 1.07399,-0.65905 c 0.50255,-0.22674 0.78334,-0.75507 0.6963,-1.31011 -0.0631,-0.4018 -0.31789,-0.73565 -0.69165,-0.90605 -0.31408,-0.14318 -0.71352,-0.14747 -1.00612,-0.0108 -0.26016,0.12152 -0.49122,0.35075 -0.61098,0.60626 -0.0805,0.17164 -0.0961,0.25531 -0.0959,0.51328 0,0.25581 0.0164,0.34213 0.0941,0.50766 0.28632,0.60826 1.00431,0.87501 1.61431,0.59975 z m -10.8551,2.77149 c 0.30757,-0.14375 0.71029,-0.20133 1.02472,-0.14658 0.33002,0.0574 0.59561,0.16251 0.79414,0.31414 l 0.16726,0.12771 -0.01,-5.6497 -0.009,-5.64971 -0.079,-0.17105 c -0.11838,-0.2563 -0.37544,-0.51039 -0.63338,-0.62616 -0.62041,-0.27842 -1.37705,0.0269 -1.63175,0.65834 l -0.0854,0.2114 -0.01,5.61617 -0.01,5.61617 0.12777,-0.0975 c 0.0703,-0.0536 0.2297,-0.14508 0.35424,-0.20326 z"
       id="path33"
       inkscape:export-filename=".\protot.svg"
       inkscape:export-xdpi="96"
       inkscape:export-ydpi="96" /><text
       xml:space="preserve"
       style="font-style:normal;font-variant:normal;font-weight:600;font-stretch:normal;font-size:5.4664px;line-height:1.3;font-family:Rubik;-inkscape-font-specification:'Rubik Semi-Bold';letter-spacing:0.40998px;fill:#ff671a;fill-opacity:1;stroke:none;stroke-width:1.85208;stroke-linecap:round;stroke-linejoin:round;stroke-dasharray:none;stroke-opacity:1;paint-order:fill markers stroke"
       x="144.52481"
       y="989.23187"
       id="text63"><tspan
         sodipodi:role="line"
         id="tspan63"
         style="font-style:normal;font-variant:normal;font-weight:600;font-stretch:normal;font-family:Rubik;-inkscape-font-specification:'Rubik Semi-Bold';letter-spacing:0.40998px;fill:#ff671a;fill-opacity:1;stroke-width:1.85208"
         x="144.52481"
         y="989.23187">Prototyypit</tspan></text><path
       id="path281"
       style="font-size:5.4664px;line-height:1.3;font-family:Rubik;-inkscape-font-specification:Rubik;letter-spacing:0.40998px;fill:#ff671a;stroke-width:1.85208;stroke-linecap:round;stroke-linejoin:round;paint-order:fill markers stroke"
       d="m 136.33896,1003.2617 c -0.0364,0 -0.0675,0.012 -0.093,0.038 -0.0219,0.025 -0.0325,0.056 -0.0325,0.093 v 0.295 c 0,0.037 0.0107,0.068 0.0325,0.093 0.0255,0.022 0.0566,0.033 0.093,0.033 h 0.34985 c 0.0364,0 0.0675,-0.011 0.093,-0.033 0.0255,-0.025 0.0382,-0.056 0.0382,-0.093 v -0.295 c 0,-0.037 -0.0127,-0.068 -0.0382,-0.093 -0.0255,-0.025 -0.0566,-0.038 -0.093,-0.038 z m 57.78562,5e-4 c -0.0364,0 -0.0675,0.013 -0.093,0.038 -0.0219,0.025 -0.0331,0.056 -0.0331,0.093 v 0.2951 c 0,0.037 0.0112,0.068 0.0331,0.093 0.0255,0.022 0.0565,0.033 0.093,0.033 h 0.34416 c 0.0364,0 0.0675,-0.011 0.093,-0.033 0.0255,-0.025 0.0382,-0.056 0.0382,-0.093 v -0.2951 c 0,-0.037 -0.0127,-0.068 -0.0382,-0.093 -0.0255,-0.025 -0.0565,-0.038 -0.093,-0.038 z m -68.66403,0.042 c -0.0364,0 -0.067,0.012 -0.0925,0.038 -0.0219,0.022 -0.0331,0.052 -0.0331,0.088 v 3.6292 c 0,0.037 0.0112,0.068 0.0331,0.093 0.0255,0.022 0.056,0.033 0.0925,0.033 h 0.25735 c 0.0365,0 0.0655,-0.011 0.0873,-0.033 0.0255,-0.025 0.0382,-0.056 0.0382,-0.093 v -1.1312 l 1.21904,1.1643 c 0.0401,0.037 0.0727,0.062 0.0982,0.077 0.0255,0.011 0.0657,0.016 0.12041,0.016 h 0.28422 c 0.0328,0 0.0603,-0.011 0.0822,-0.033 0.0219,-0.022 0.0326,-0.049 0.0326,-0.082 0,-0.029 -0.0219,-0.061 -0.0656,-0.098 l -1.3994,-1.3611 1.26297,-1.0496 c 0.0255,-0.019 0.0418,-0.037 0.0491,-0.055 0.0109,-0.018 0.0165,-0.034 0.0165,-0.048 0,-0.033 -0.0112,-0.06 -0.0331,-0.082 -0.0219,-0.022 -0.0489,-0.033 -0.0816,-0.033 h -0.2899 c -0.0546,0 -0.0949,0.01 -0.12041,0.022 -0.0219,0.011 -0.0545,0.034 -0.0982,0.071 l -1.07693,0.8966 v -1.9022 c 0,-0.037 -0.0127,-0.066 -0.0382,-0.088 -0.0219,-0.025 -0.0509,-0.038 -0.0873,-0.038 z m 6.81664,10e-4 c -0.0364,0 -0.0675,0.012 -0.093,0.038 -0.0219,0.022 -0.0326,0.052 -0.0326,0.088 v 0.9126 h -0.42633 c -0.0364,0 -0.0675,0.013 -0.093,0.038 -0.0219,0.021 -0.0326,0.05 -0.0326,0.087 v 0.186 c 0,0.037 0.0107,0.068 0.0326,0.093 0.0255,0.022 0.0565,0.033 0.093,0.033 h 0.42633 v 1.4428 c 0,0.1968 0.029,0.3684 0.0873,0.5142 0.0583,0.1421 0.1515,0.2532 0.27905,0.3333 0.12755,0.077 0.29305,0.1147 0.49713,0.1147 l 0.37724,-5e-4 c 0.0365,0 0.066,-0.011 0.0879,-0.033 0.0255,-0.025 0.0382,-0.056 0.0382,-0.093 v -0.1968 c 0,-0.036 -0.0127,-0.065 -0.0382,-0.087 -0.0219,-0.025 -0.0514,-0.038 -0.0879,-0.038 H 133.059 c -0.14939,0 -0.25328,-0.049 -0.31161,-0.1478 -0.0583,-0.098 -0.0873,-0.2333 -0.0873,-0.4046 v -1.4046 h 0.67799 c 0.0401,0 0.0706,-0.011 0.0925,-0.033 0.0219,-0.025 0.0331,-0.056 0.0331,-0.093 v -0.186 c 0,-0.036 -0.0112,-0.065 -0.0331,-0.087 -0.0219,-0.025 -0.0524,-0.038 -0.0925,-0.038 h -0.67799 v -0.9126 c 0,-0.037 -0.0127,-0.066 -0.0383,-0.088 -0.0219,-0.025 -0.0514,-0.038 -0.0879,-0.038 z m 29.08143,0 c -0.0364,0 -0.0675,0.013 -0.093,0.038 -0.0219,0.022 -0.0326,0.051 -0.0326,0.088 v 0.9132 h -0.42633 c -0.0364,0 -0.0675,0.012 -0.093,0.038 -0.0219,0.021 -0.0331,0.051 -0.0331,0.087 v 0.1855 c 0,0.037 0.0112,0.068 0.0331,0.093 0.0255,0.022 0.0566,0.033 0.093,0.033 h 0.42633 v 1.4434 c 0,0.1968 0.029,0.3678 0.0873,0.5136 0.0583,0.1421 0.1515,0.2532 0.27905,0.3333 0.12755,0.077 0.29305,0.1147 0.49713,0.1147 h 0.37724 c 0.0365,0 0.0655,-0.011 0.0873,-0.033 0.0255,-0.025 0.0388,-0.056 0.0388,-0.093 v -0.1969 c 0,-0.036 -0.0132,-0.065 -0.0388,-0.087 -0.0219,-0.025 -0.0509,-0.038 -0.0873,-0.038 h -0.33331 c -0.1494,0 -0.25328,-0.049 -0.31161,-0.1473 -0.0583,-0.098 -0.0873,-0.2333 -0.0873,-0.4046 v -1.4051 h 0.67748 c 0.0401,0 0.0712,-0.011 0.093,-0.033 0.0219,-0.025 0.0331,-0.056 0.0331,-0.093 v -0.1855 c 0,-0.036 -0.0112,-0.065 -0.0331,-0.087 -0.0219,-0.025 -0.053,-0.038 -0.093,-0.038 h -0.67748 v -0.9132 c 0,-0.037 -0.0132,-0.066 -0.0387,-0.088 -0.0219,-0.025 -0.0509,-0.038 -0.0873,-0.038 z m 13.9175,6e-4 c -0.0364,0 -0.0675,0.012 -0.093,0.038 -0.0219,0.022 -0.0326,0.052 -0.0326,0.088 v 0.9126 h -0.42633 c -0.0364,0 -0.0675,0.013 -0.093,0.038 -0.0219,0.021 -0.0331,0.05 -0.0331,0.087 v 0.1861 c 0,0.037 0.0112,0.068 0.0331,0.093 0.0255,0.022 0.0565,0.033 0.093,0.033 h 0.42633 v 1.4429 c 0,0.1968 0.029,0.3683 0.0873,0.5141 0.0583,0.1422 0.15099,0.2532 0.27853,0.3333 0.12756,0.077 0.29357,0.1148 0.49765,0.1148 l 0.37723,-6e-4 c 0.0365,0 0.0655,-0.011 0.0873,-0.033 0.0255,-0.025 0.0382,-0.056 0.0382,-0.093 v -0.1964 c 0,-0.036 -0.0127,-0.065 -0.0382,-0.087 -0.0219,-0.025 -0.0509,-0.038 -0.0873,-0.038 h -0.33331 c -0.14939,0 -0.25327,-0.049 -0.31161,-0.1478 -0.0583,-0.098 -0.0879,-0.2333 -0.0879,-0.4046 v -1.4046 h 0.678 c 0.0401,0 0.0711,-0.011 0.093,-0.033 0.0219,-0.025 0.0326,-0.056 0.0326,-0.093 v -0.1861 c 0,-0.036 -0.0107,-0.065 -0.0326,-0.087 -0.0219,-0.025 -0.053,-0.038 -0.093,-0.038 h -0.678 v -0.9126 c 0,-0.037 -0.0127,-0.066 -0.0382,-0.088 -0.0219,-0.025 -0.0509,-0.038 -0.0873,-0.038 z m 6.06784,0 c -0.0364,0 -0.0675,0.013 -0.093,0.038 -0.0219,0.022 -0.0331,0.051 -0.0331,0.088 v 0.9131 h -0.42633 c -0.0364,0 -0.067,0.012 -0.0925,0.038 -0.0219,0.021 -0.0331,0.051 -0.0331,0.087 v 0.1856 c 0,0.037 0.0112,0.068 0.0331,0.093 0.0255,0.022 0.056,0.033 0.0925,0.033 h 0.42633 v 1.4434 c 0,0.1968 0.0295,0.3678 0.0879,0.5136 0.0583,0.1422 0.15099,0.2532 0.27854,0.3333 0.12755,0.077 0.29357,0.1153 0.49764,0.1153 l 0.37724,-5e-4 c 0.0365,0 0.0655,-0.011 0.0873,-0.033 0.0255,-0.025 0.0382,-0.056 0.0382,-0.093 v -0.1969 c 0,-0.036 -0.0127,-0.065 -0.0382,-0.087 -0.0219,-0.025 -0.0509,-0.038 -0.0873,-0.038 h -0.33331 c -0.1494,0 -0.25328,-0.049 -0.31161,-0.1472 -0.0583,-0.098 -0.0879,-0.2334 -0.0879,-0.4047 v -1.4051 h 0.67799 c 0.0401,0 0.0712,-0.011 0.093,-0.033 0.0219,-0.025 0.0326,-0.056 0.0326,-0.093 v -0.1856 c 0,-0.036 -0.0107,-0.065 -0.0326,-0.087 -0.0219,-0.025 -0.0529,-0.038 -0.093,-0.038 h -0.67799 v -0.9131 c 0,-0.037 -0.0127,-0.066 -0.0382,-0.088 -0.0219,-0.025 -0.0509,-0.038 -0.0873,-0.038 z m 14.80272,0 c -0.0364,0 -0.067,0.013 -0.0925,0.038 -0.0219,0.022 -0.0331,0.051 -0.0331,0.088 v 0.9131 h -0.42633 c -0.0364,0 -0.0675,0.012 -0.093,0.038 -0.0219,0.021 -0.0326,0.051 -0.0326,0.087 v 0.1856 c 0,0.037 0.0107,0.068 0.0326,0.093 0.0255,0.022 0.0566,0.033 0.093,0.033 h 0.42633 v 1.4434 c 0,0.1968 0.029,0.3678 0.0873,0.5136 0.0583,0.1422 0.1515,0.2532 0.27905,0.3333 0.12755,0.077 0.29305,0.1153 0.49713,0.1153 l 0.37723,-5e-4 c 0.0365,0 0.066,-0.011 0.0879,-0.033 0.0255,-0.025 0.0382,-0.056 0.0382,-0.093 v -0.1969 c 0,-0.036 -0.0127,-0.065 -0.0382,-0.087 -0.0219,-0.025 -0.0514,-0.038 -0.0879,-0.038 h -0.33331 c -0.14939,0 -0.25327,-0.049 -0.31161,-0.1472 -0.0583,-0.098 -0.0873,-0.2334 -0.0873,-0.4047 v -1.4051 h 0.67799 c 0.0401,0 0.0706,-0.011 0.0925,-0.033 0.0219,-0.025 0.0331,-0.056 0.0331,-0.093 v -0.1856 c 0,-0.036 -0.0112,-0.065 -0.0331,-0.087 -0.0219,-0.025 -0.0524,-0.038 -0.0925,-0.038 h -0.67799 v -0.9131 c 0,-0.037 -0.0127,-0.066 -0.0382,-0.088 -0.0219,-0.025 -0.0514,-0.038 -0.0878,-0.038 z m -79.94602,0.053 c -0.0364,0 -0.0675,0.013 -0.093,0.038 -0.0219,0.022 -0.0326,0.053 -0.0326,0.093 v 0.2295 c 0,0.037 0.0107,0.068 0.0326,0.093 0.0255,0.022 0.0566,0.033 0.093,0.033 h 1.04954 v 3.2142 c 0,0.037 0.0112,0.068 0.0331,0.093 0.0255,0.022 0.056,0.033 0.0925,0.033 h 0.28473 c 0.0401,0 0.0706,-0.011 0.0925,-0.033 0.0255,-0.025 0.0382,-0.056 0.0382,-0.093 v -3.2142 h 1.04438 c 0.0401,0 0.0712,-0.011 0.093,-0.033 0.0255,-0.025 0.0382,-0.056 0.0382,-0.093 v -0.2295 c 0,-0.04 -0.0127,-0.071 -0.0382,-0.093 -0.0219,-0.025 -0.053,-0.038 -0.093,-0.038 z m 4.29689,0.9302 c -0.19679,0 -0.36484,0.027 -0.50333,0.082 -0.13483,0.051 -0.24584,0.1147 -0.33331,0.1912 -0.0875,0.077 -0.15315,0.1549 -0.19689,0.2351 -0.0401,0.08 -0.0599,0.1479 -0.0599,0.2026 0,0.033 0.009,0.062 0.0274,0.087 0.0219,0.022 0.0529,0.033 0.093,0.033 h 0.24598 c 0.0547,0 0.0929,-0.028 0.11472,-0.082 0.0401,-0.1022 0.11088,-0.1858 0.21291,-0.2511 0.10204,-0.065 0.23342,-0.098 0.39378,-0.098 0.22594,0 0.38787,0.049 0.48627,0.1478 0.10203,0.098 0.15348,0.2349 0.15348,0.4098 v 0.1586 l -0.81494,0.1148 c -0.32798,0.047 -0.59381,0.1456 -0.79788,0.295 -0.20408,0.1495 -0.30593,0.3501 -0.30593,0.6015 0,0.1567 0.0453,0.2967 0.13643,0.4207 0.0911,0.1238 0.21129,0.2222 0.3607,0.2951 0.14941,0.073 0.31543,0.1095 0.49765,0.1095 0.17492,0 0.3226,-0.02 0.44286,-0.06 0.12026,-0.044 0.22007,-0.096 0.30024,-0.1582 0.0802,-0.066 0.14432,-0.1315 0.19172,-0.1969 v 0.2352 c 0,0.037 0.0107,0.068 0.0326,0.093 0.0219,0.022 0.0529,0.033 0.093,0.033 h 0.25114 c 0.0365,0 0.066,-0.01 0.0879,-0.033 0.0255,-0.025 0.0382,-0.056 0.0382,-0.093 v -1.7715 c 0,-0.1239 -0.0199,-0.2456 -0.0599,-0.3659 -0.0365,-0.1202 -0.0986,-0.2282 -0.18604,-0.3229 -0.0838,-0.095 -0.20043,-0.1691 -0.34985,-0.2238 -0.14941,-0.059 -0.33324,-0.088 -0.5519,-0.088 z m 9.0904,0 c -0.19679,0 -0.36432,0.028 -0.50281,0.082 -0.13483,0.051 -0.24585,0.1147 -0.33331,0.1912 -0.0875,0.077 -0.15316,0.1549 -0.19689,0.2351 -0.0401,0.08 -0.0605,0.1474 -0.0605,0.2021 0,0.033 0.009,0.062 0.0274,0.087 0.0219,0.022 0.0529,0.033 0.093,0.033 h 0.24598 c 0.0547,0 0.0929,-0.028 0.11473,-0.082 0.0401,-0.1022 0.11138,-0.1863 0.21342,-0.2516 0.10204,-0.065 0.23291,-0.098 0.39326,-0.098 0.22594,0 0.38839,0.049 0.48679,0.1473 0.10204,0.098 0.15296,0.2354 0.15296,0.4103 v 0.1586 l -0.81442,0.1148 c -0.32798,0.047 -0.59432,0.1456 -0.7984,0.295 -0.20408,0.1495 -0.30592,0.3501 -0.30592,0.6016 0,0.1566 0.0458,0.2967 0.13694,0.4206 0.0911,0.1239 0.21129,0.2222 0.3607,0.2951 0.14941,0.073 0.31491,0.1095 0.49713,0.1095 0.17492,0 0.3226,-0.02 0.44286,-0.06 0.12026,-0.044 0.22059,-0.097 0.30076,-0.1587 0.0802,-0.066 0.1438,-0.1315 0.1912,-0.1969 v 0.2352 c 0,0.037 0.0112,0.068 0.0331,0.093 0.0219,0.022 0.0524,0.033 0.0925,0.033 h 0.25166 c 0.0365,0 0.0655,-0.011 0.0873,-0.033 0.0255,-0.025 0.0382,-0.056 0.0382,-0.093 v -1.771 c 0,-0.1239 -0.0199,-0.2461 -0.0599,-0.3664 -0.0365,-0.1202 -0.0986,-0.2277 -0.18604,-0.3224 -0.0838,-0.095 -0.20043,-0.1696 -0.34984,-0.2243 -0.14942,-0.059 -0.33325,-0.088 -0.55191,-0.088 z m 9.49503,0 c -0.19679,0 -0.36433,0.028 -0.50281,0.082 -0.13484,0.051 -0.24585,0.1147 -0.33332,0.1912 -0.0875,0.077 -0.15315,0.1549 -0.19688,0.2351 -0.0401,0.08 -0.06,0.1474 -0.06,0.2021 0,0.033 0.009,0.062 0.0269,0.087 0.0219,0.022 0.053,0.033 0.093,0.033 h 0.24598 c 0.0547,0 0.0929,-0.028 0.11472,-0.082 0.0401,-0.1022 0.11139,-0.1863 0.21343,-0.2516 0.10204,-0.065 0.23342,-0.098 0.39377,-0.098 0.22594,0 0.38788,0.049 0.48628,0.1473 0.10204,0.098 0.15296,0.2354 0.15296,0.4103 v 0.1586 l -0.81442,0.1148 c -0.32798,0.047 -0.59381,0.1456 -0.79789,0.295 -0.20408,0.1495 -0.30644,0.3501 -0.30644,0.6016 0,0.1566 0.0458,0.2967 0.13695,0.4206 0.0911,0.1239 0.21128,0.2222 0.3607,0.2951 0.14926,0.073 0.31564,0.1095 0.49764,0.1095 0.17466,0 0.32223,-0.02 0.44235,-0.06 0.12026,-0.044 0.22058,-0.097 0.30076,-0.1587 0.0802,-0.066 0.1438,-0.1315 0.1912,-0.1969 v 0.2352 c 0,0.037 0.0112,0.068 0.0331,0.093 0.0219,0.022 0.053,0.033 0.093,0.033 h 0.25115 c 0.0365,0 0.0655,-0.011 0.0873,-0.033 0.0255,-0.025 0.0388,-0.056 0.0388,-0.093 v -1.771 c 0,-0.1239 -0.0204,-0.2461 -0.0605,-0.3664 -0.0365,-0.1202 -0.0981,-0.2277 -0.18552,-0.3224 -0.0838,-0.095 -0.20044,-0.1696 -0.34985,-0.2243 -0.14941,-0.059 -0.33376,-0.088 -0.55242,-0.088 z m 5.51594,0 c -0.22595,0 -0.41181,0.04 -0.55759,0.1204 -0.14212,0.077 -0.26079,0.1763 -0.35553,0.3002 v -0.2403 c 0,-0.036 -0.0127,-0.065 -0.0382,-0.087 -0.0219,-0.025 -0.0509,-0.038 -0.0873,-0.038 h -0.25683 c -0.0364,0 -0.0675,0.013 -0.093,0.038 -0.0219,0.021 -0.0331,0.05 -0.0331,0.087 v 2.5911 c 0,0.037 0.0112,0.068 0.0331,0.093 0.0255,0.022 0.0566,0.033 0.093,0.033 h 0.27285 c 0.0365,0 0.066,-0.011 0.0878,-0.033 0.0255,-0.025 0.0382,-0.056 0.0382,-0.093 v -1.5142 c 0,-0.2551 0.0672,-0.4537 0.20206,-0.5958 0.13849,-0.1458 0.3208,-0.2186 0.54674,-0.2186 0.24052,0 0.42283,0.073 0.54673,0.2186 0.12391,0.1421 0.18552,0.3407 0.18552,0.5958 v 1.5142 c 0,0.037 0.0112,0.068 0.0331,0.093 0.0255,0.022 0.0566,0.033 0.093,0.033 h 0.27337 c 0.0365,0 0.0655,-0.011 0.0873,-0.033 0.0255,-0.025 0.0382,-0.056 0.0382,-0.093 v -1.5415 c 0,-0.2442 -0.0438,-0.4576 -0.13125,-0.6398 -0.0838,-0.1859 -0.20961,-0.3294 -0.37724,-0.4315 -0.164,-0.1057 -0.36413,-0.1586 -0.601,-0.1586 z m 3.46542,5e-4 c -0.27332,0 -0.50298,0.053 -0.68884,0.1586 -0.18586,0.1057 -0.32946,0.2513 -0.4315,0.4372 -0.0984,0.1858 -0.1534,0.4007 -0.16433,0.6449 -0.003,0.058 -0.005,0.1368 -0.005,0.2351 0,0.095 0.001,0.1732 0.005,0.2352 0.0109,0.2405 0.0659,0.4554 0.16433,0.6449 0.0984,0.1859 0.24047,0.332 0.42633,0.4377 0.18585,0.1057 0.41705,0.1581 0.69401,0.1581 0.27696,0 0.50816,-0.052 0.69402,-0.1581 0.18586,-0.1057 0.32845,-0.2518 0.42684,-0.4377 0.0984,-0.1895 0.15288,-0.4044 0.16382,-0.6449 0.003,-0.062 0.005,-0.1404 0.005,-0.2352 0,-0.098 -0.002,-0.1764 -0.005,-0.2351 -0.0109,-0.2442 -0.0675,-0.4591 -0.1695,-0.6449 -0.0984,-0.1859 -0.24047,-0.3315 -0.42633,-0.4372 -0.18585,-0.1057 -0.41553,-0.1586 -0.68885,-0.1586 z m 7.18303,0 c -0.24782,0 -0.46476,0.053 -0.65061,0.1586 -0.18221,0.1057 -0.32633,0.2569 -0.43202,0.4537 -0.10566,0.1932 -0.16575,0.4193 -0.18035,0.678 -0.003,0.047 -0.005,0.1091 -0.005,0.1855 0,0.073 0.001,0.1331 0.005,0.1804 0.0219,0.4009 0.14409,0.7181 0.36639,0.9514 0.2223,0.2296 0.52275,0.3441 0.90175,0.3441 v 5e-4 c 0.18586,0 0.35187,-0.023 0.49765,-0.071 0.14941,-0.051 0.27316,-0.1146 0.37155,-0.1912 0.10204,-0.077 0.18046,-0.1534 0.23513,-0.2299 0.055,-0.08 0.084,-0.1474 0.0873,-0.2021 0.004,-0.037 -0.007,-0.064 -0.0325,-0.082 -0.0219,-0.022 -0.0494,-0.033 -0.0822,-0.033 h -0.26768 c -0.0401,0 -0.0696,0.01 -0.0879,0.016 -0.0182,0.01 -0.0437,0.033 -0.0765,0.077 -0.0182,0.029 -0.0544,0.07 -0.10904,0.1204 -0.0547,0.048 -0.12596,0.091 -0.21343,0.1313 -0.0875,0.04 -0.19643,0.06 -0.32762,0.06 -0.14942,0 -0.28081,-0.04 -0.39378,-0.1204 -0.1093,-0.08 -0.19333,-0.1841 -0.25166,-0.3116 -0.0583,-0.1312 -0.0909,-0.2712 -0.0982,-0.4206 v -0.027 -0.022 h 1.89136 c 0.0365,0 0.0655,-0.011 0.0873,-0.033 0.0255,-0.022 0.0382,-0.053 0.0382,-0.093 v -0.093 c 0,-0.288 -0.0489,-0.5395 -0.14727,-0.7545 -0.0984,-0.215 -0.24252,-0.3805 -0.43202,-0.4971 -0.18585,-0.1166 -0.41705,-0.1752 -0.69401,-0.1752 z m 3.42201,0 c -0.19679,0 -0.36433,0.027 -0.50281,0.082 -0.13484,0.051 -0.24637,0.1152 -0.33383,0.1917 -0.0875,0.077 -0.15316,0.1544 -0.19689,0.2346 -0.0401,0.08 -0.0599,0.148 -0.0599,0.2026 0,0.033 0.009,0.062 0.0274,0.087 0.0219,0.022 0.053,0.033 0.093,0.033 h 0.24598 c 0.0547,0 0.0929,-0.028 0.11472,-0.082 0.0401,-0.1022 0.11088,-0.1858 0.21291,-0.2511 0.10204,-0.065 0.23342,-0.098 0.39377,-0.098 0.22594,0 0.3884,0.049 0.4868,0.1478 0.10203,0.098 0.15296,0.2349 0.15296,0.4098 v 0.1586 l -0.81442,0.1148 c -0.32799,0.047 -0.59433,0.1456 -0.7984,0.295 -0.20408,0.1495 -0.30593,0.3501 -0.30593,0.6016 0,0.1566 0.0453,0.2972 0.13643,0.4211 0.0911,0.1239 0.21129,0.2222 0.3607,0.2951 0.14941,0.073 0.31543,0.109 0.49764,0.109 v 5e-4 c 0.17493,0 0.32261,-0.02 0.44287,-0.06 0.12026,-0.044 0.22059,-0.096 0.30076,-0.1581 0.0802,-0.066 0.1438,-0.1316 0.1912,-0.1969 v 0.2351 c 0,0.037 0.0107,0.068 0.0326,0.093 0.0219,0.022 0.053,0.033 0.093,0.033 h 0.25167 c 0.0365,0 0.0655,-0.011 0.0873,-0.033 0.0255,-0.025 0.0382,-0.056 0.0382,-0.093 v -1.771 c 0,-0.1239 -0.0199,-0.2461 -0.0599,-0.3663 -0.0365,-0.1203 -0.0986,-0.2278 -0.18604,-0.3225 -0.0838,-0.095 -0.20043,-0.1696 -0.34985,-0.2243 -0.14941,-0.059 -0.33324,-0.088 -0.5519,-0.088 z m -6.81664,5e-4 c -0.21865,0 -0.40096,0.04 -0.54674,0.1204 -0.14576,0.08 -0.26238,0.1805 -0.34984,0.3007 v -0.2402 c 0,-0.036 -0.0127,-0.065 -0.0383,-0.087 -0.0219,-0.025 -0.0509,-0.038 -0.0873,-0.038 h -0.25166 c -0.0364,0 -0.0675,0.012 -0.093,0.038 -0.0219,0.021 -0.0326,0.051 -0.0326,0.087 v 3.6292 c 0,0.036 0.0107,0.065 0.0326,0.087 0.0255,0.025 0.0566,0.038 0.093,0.038 h 0.26768 c 0.0365,0 0.066,-0.012 0.0879,-0.038 0.0219,-0.021 0.0326,-0.051 0.0326,-0.087 v -1.2682 c 0.0911,0.1166 0.20772,0.2154 0.34985,0.2956 0.14577,0.077 0.32451,0.1148 0.53588,0.1148 0.20408,0 0.37722,-0.035 0.51935,-0.1039 0.14577,-0.073 0.26391,-0.1676 0.35502,-0.2842 0.0947,-0.1203 0.16602,-0.2573 0.21342,-0.4103 0.0474,-0.1568 0.0749,-0.3207 0.0822,-0.492 0.003,-0.059 0.005,-0.1207 0.005,-0.186 0,-0.066 -0.001,-0.1276 -0.005,-0.1856 -0.007,-0.1749 -0.0348,-0.3388 -0.0822,-0.4919 -0.0474,-0.1531 -0.11868,-0.2901 -0.21342,-0.4103 -0.0911,-0.1203 -0.20925,-0.215 -0.35502,-0.2842 -0.14213,-0.069 -0.31527,-0.1039 -0.51935,-0.1039 z m 14.83579,0 c -0.21866,0 -0.40097,0.04 -0.54674,0.1204 -0.14577,0.08 -0.26238,0.1805 -0.34985,0.3007 v -0.2402 c 0,-0.036 -0.0127,-0.065 -0.0382,-0.087 -0.0219,-0.025 -0.0509,-0.038 -0.0873,-0.038 h -0.25167 c -0.0364,0 -0.0675,0.012 -0.093,0.038 -0.0219,0.021 -0.0326,0.051 -0.0326,0.087 v 3.6292 c 0,0.036 0.0107,0.065 0.0326,0.087 0.0255,0.025 0.0566,0.038 0.093,0.038 h 0.26769 c 0.0365,0 0.066,-0.012 0.0879,-0.038 0.0219,-0.021 0.0325,-0.051 0.0325,-0.087 v -1.2682 c 0.0911,0.1166 0.20773,0.2154 0.34985,0.2956 0.14577,0.077 0.32452,0.1148 0.53589,0.1148 0.20408,0 0.37722,-0.035 0.51935,-0.1039 0.14577,-0.073 0.26391,-0.1676 0.35501,-0.2842 0.0947,-0.1203 0.16603,-0.2573 0.21343,-0.4103 0.0474,-0.1568 0.0749,-0.3207 0.0822,-0.492 0.003,-0.059 0.005,-0.1207 0.005,-0.186 0,-0.066 -10e-4,-0.1276 -0.005,-0.1856 -0.007,-0.1749 -0.0348,-0.3388 -0.0822,-0.4919 -0.0474,-0.1531 -0.11868,-0.2901 -0.21343,-0.4103 -0.0911,-0.1203 -0.20924,-0.215 -0.35501,-0.2842 -0.14213,-0.069 -0.31527,-0.1039 -0.51935,-0.1039 z m 5.8601,0 c -0.27331,0 -0.50298,0.052 -0.68884,0.1581 -0.18586,0.1057 -0.32998,0.2518 -0.43202,0.4377 -0.0984,0.1858 -0.15288,0.4007 -0.16381,0.6449 -0.003,0.058 -0.005,0.1368 -0.005,0.2352 0,0.095 0.002,0.1731 0.005,0.2351 0.0109,0.2405 0.0654,0.4554 0.16381,0.6449 0.0984,0.1859 0.24047,0.3315 0.42633,0.4372 0.18586,0.1057 0.41757,0.1586 0.69453,0.1586 0.27697,0 0.50817,-0.053 0.69402,-0.1586 0.18586,-0.1057 0.32794,-0.2513 0.42633,-0.4372 0.0984,-0.1895 0.15288,-0.4044 0.16381,-0.6449 0.003,-0.062 0.005,-0.1403 0.005,-0.2351 0,-0.098 -0.002,-0.1765 -0.005,-0.2352 -0.0109,-0.2442 -0.0674,-0.4591 -0.16949,-0.6449 -0.0984,-0.1859 -0.24048,-0.332 -0.42634,-0.4377 -0.18585,-0.1057 -0.41501,-0.1581 -0.68833,-0.1581 z m 6.06733,0 c -0.27332,0 -0.50299,0.053 -0.68884,0.1586 -0.18586,0.1058 -0.32946,0.2513 -0.4315,0.4372 -0.0984,0.1858 -0.1534,0.4013 -0.16433,0.6455 -0.003,0.058 -0.005,0.1362 -0.005,0.2346 0,0.095 0.001,0.1731 0.005,0.2351 0.0109,0.2405 0.0659,0.4554 0.16433,0.6449 0.0984,0.1859 0.24047,0.332 0.42633,0.4377 0.18586,0.1057 0.41705,0.1581 0.69401,0.1581 0.27697,0 0.50868,-0.052 0.69454,-0.1581 0.18586,-0.1057 0.32793,-0.2518 0.42633,-0.4377 0.0984,-0.1895 0.15288,-0.4044 0.16381,-0.6449 0.003,-0.062 0.005,-0.1403 0.005,-0.2351 0,-0.098 -0.002,-0.176 -0.005,-0.2346 -0.0109,-0.2442 -0.0675,-0.4597 -0.1695,-0.6455 -0.0984,-0.1859 -0.24048,-0.3314 -0.42633,-0.4372 -0.18586,-0.1056 -0.41553,-0.1586 -0.68885,-0.1586 z m 13.16354,0 c -0.21866,0 -0.40097,0.04 -0.54673,0.1199 -0.14578,0.08 -0.26239,0.1805 -0.34985,0.3008 v -0.2403 c 0,-0.036 -0.0127,-0.065 -0.0382,-0.087 -0.0219,-0.025 -0.0514,-0.038 -0.0879,-0.038 h -0.25115 c -0.0364,0 -0.0675,0.012 -0.093,0.038 -0.0219,0.021 -0.0331,0.051 -0.0331,0.087 v 3.6297 c 0,0.036 0.0112,0.065 0.0331,0.087 0.0255,0.025 0.0566,0.038 0.093,0.038 h 0.26768 c 0.0365,0 0.0655,-0.012 0.0873,-0.038 0.0219,-0.021 0.0331,-0.05 0.0331,-0.087 v -1.2686 c 0.0911,0.1166 0.20772,0.2154 0.34985,0.2956 0.14577,0.077 0.32452,0.1147 0.53588,0.1147 0.20407,0 0.37671,-0.035 0.51883,-0.1039 0.14578,-0.073 0.26443,-0.1676 0.35554,-0.2842 0.0947,-0.1203 0.16602,-0.2573 0.21342,-0.4103 0.0474,-0.1568 0.0744,-0.3207 0.0816,-0.492 0.003,-0.059 0.005,-0.1202 0.005,-0.1855 0,-0.066 -0.002,-0.128 -0.005,-0.186 -0.007,-0.175 -0.0342,-0.3389 -0.0816,-0.492 -0.0474,-0.1531 -0.11867,-0.2895 -0.21342,-0.4098 -0.0911,-0.1203 -0.20976,-0.215 -0.35554,-0.2842 -0.14212,-0.069 -0.31476,-0.1039 -0.51883,-0.1039 z m -67.66357,0.052 c -0.18221,0 -0.33702,0.031 -0.46457,0.093 -0.12755,0.062 -0.22787,0.1546 -0.30075,0.2786 v -0.2403 c 0,-0.037 -0.0127,-0.068 -0.0382,-0.093 -0.0255,-0.025 -0.0566,-0.038 -0.093,-0.038 h -0.25115 c -0.0364,0 -0.0675,0.012 -0.093,0.038 -0.0219,0.025 -0.0326,0.056 -0.0326,0.093 v 2.5853 c 0,0.037 0.0107,0.068 0.0326,0.093 0.0255,0.022 0.0566,0.033 0.093,0.033 h 0.26768 c 0.0364,0 0.0675,-0.011 0.093,-0.033 0.0255,-0.025 0.0382,-0.056 0.0382,-0.093 v -1.6071 c 0,-0.1968 0.0565,-0.3516 0.1695,-0.4646 0.11297,-0.1166 0.26779,-0.1747 0.46457,-0.1747 h 0.32815 c 0.0365,0 0.0655,-0.011 0.0873,-0.033 0.0255,-0.021 0.0382,-0.05 0.0382,-0.087 v -0.2242 c 0,-0.036 -0.0127,-0.065 -0.0382,-0.087 -0.0219,-0.025 -0.0509,-0.038 -0.0873,-0.038 z m 59.28269,0 c -0.0328,0 -0.0598,0.011 -0.0816,0.033 -0.0219,0.022 -0.0331,0.049 -0.0331,0.082 0,0.018 0.009,0.048 0.0274,0.092 l 1.04438,2.4654 -0.42117,1.0005 c -0.0113,0.022 -0.0184,0.04 -0.0217,0.055 -0.003,0.015 -0.005,0.03 -0.005,0.044 0,0.029 0.0107,0.055 0.0326,0.077 0.0219,0.022 0.0473,0.033 0.0765,0.033 h 0.25683 c 0.0401,0 0.0691,-0.01 0.0873,-0.027 0.0219,-0.019 0.0382,-0.041 0.0491,-0.066 l 1.55287,-3.5806 c 0.0182,-0.047 0.0269,-0.08 0.0269,-0.098 0,-0.029 -0.0107,-0.055 -0.0325,-0.077 -0.0219,-0.022 -0.0494,-0.033 -0.0822,-0.033 h -0.25683 c -0.0401,0 -0.0712,0.01 -0.093,0.027 -0.0182,0.019 -0.0325,0.041 -0.0434,0.066 l -0.85267,1.9896 -0.83095,-1.9896 c -0.007,-0.026 -0.0221,-0.048 -0.0439,-0.066 -0.0183,-0.018 -0.0473,-0.027 -0.0873,-0.027 z m 3.4277,0 c -0.0328,0 -0.0603,0.011 -0.0822,0.033 -0.0219,0.022 -0.0326,0.049 -0.0326,0.082 0,0.018 0.009,0.048 0.0274,0.092 l 1.04387,2.4654 -0.42117,1.0005 c -0.0113,0.022 -0.0184,0.04 -0.0217,0.055 -0.003,0.015 -0.005,0.03 -0.005,0.044 0,0.029 0.0112,0.055 0.0331,0.077 0.0219,0.022 0.0473,0.033 0.0765,0.033 h 0.25631 c 0.0401,0 0.0696,-0.01 0.0879,-0.027 0.0219,-0.019 0.0382,-0.041 0.0491,-0.066 l 1.55236,-3.5806 c 0.0182,-0.047 0.0274,-0.08 0.0274,-0.098 0,-0.029 -0.0112,-0.055 -0.0331,-0.077 -0.0219,-0.022 -0.0488,-0.033 -0.0816,-0.033 h -0.25683 c -0.0401,0 -0.0711,0.01 -0.093,0.027 -0.0182,0.019 -0.033,0.041 -0.0439,0.066 l -0.85267,1.9896 -0.83095,-1.9896 c -0.007,-0.026 -0.0215,-0.048 -0.0434,-0.066 -0.0183,-0.018 -0.0478,-0.027 -0.0879,-0.027 z m -16.60106,5e-4 c -0.18221,0 -0.33702,0.031 -0.46457,0.093 -0.12755,0.062 -0.22787,0.1552 -0.30076,0.2791 v -0.2408 c 0,-0.037 -0.0127,-0.068 -0.0382,-0.093 -0.0255,-0.025 -0.0566,-0.038 -0.093,-0.038 h -0.25167 c -0.0364,0 -0.067,0.012 -0.0925,0.038 -0.0219,0.025 -0.0331,0.056 -0.0331,0.093 v 2.5859 c 0,0.037 0.0112,0.068 0.0331,0.093 0.0255,0.022 0.056,0.033 0.0925,0.033 l 0.2682,-10e-4 c 0.0364,0 0.0675,-0.011 0.093,-0.033 0.0255,-0.025 0.0382,-0.056 0.0382,-0.092 v -1.6071 c 0,-0.1968 0.0565,-0.3521 0.1695,-0.4651 0.11297,-0.1166 0.26778,-0.1746 0.46457,-0.1746 h 0.32763 c 0.0365,0 0.066,-0.011 0.0878,-0.033 0.0255,-0.021 0.0382,-0.05 0.0382,-0.087 v -0.2243 c 0,-0.036 -0.0127,-0.065 -0.0382,-0.087 -0.0219,-0.025 -0.0514,-0.038 -0.0878,-0.038 z m -33.84289,5e-4 c -0.0364,0 -0.067,0.013 -0.0925,0.038 -0.0219,0.021 -0.0331,0.05 -0.0331,0.087 v 2.7771 c 0,0.098 -0.0107,0.1875 -0.0325,0.2677 -0.0182,0.084 -0.0585,0.1495 -0.12041,0.1969 -0.0619,0.051 -0.15871,0.077 -0.2899,0.077 h -0.0765 c -0.0365,0 -0.0655,0.011 -0.0873,0.033 -0.0255,0.025 -0.0382,0.056 -0.0382,0.093 v 0.186 c 0,0.036 0.0127,0.065 0.0382,0.087 0.0219,0.025 0.0509,0.038 0.0873,0.038 h 0.10387 c 0.23323,0 0.41758,-0.042 0.55242,-0.126 0.1348,-0.08 0.23105,-0.1933 0.28939,-0.339 0.0619,-0.1458 0.093,-0.3149 0.093,-0.508 v -2.7828 c 0,-0.036 -0.0127,-0.065 -0.0382,-0.087 -0.0219,-0.025 -0.0509,-0.038 -0.0873,-0.038 z m 57.78562,0 c -0.0364,0 -0.0675,0.012 -0.093,0.038 -0.0219,0.021 -0.0326,0.051 -0.0326,0.087 v 2.5911 c 0,0.037 0.0107,0.068 0.0326,0.093 0.0255,0.022 0.0565,0.033 0.093,0.033 h 0.26251 c 0.0365,0 0.0655,-0.011 0.0873,-0.033 0.0255,-0.025 0.0382,-0.056 0.0382,-0.093 v -2.5911 c 0,-0.036 -0.0127,-0.065 -0.0382,-0.087 -0.0219,-0.025 -0.0509,-0.038 -0.0873,-0.038 z m -38.92062,0.3436 c 0.1567,0 0.29165,0.038 0.40462,0.1147 0.11295,0.073 0.1985,0.1733 0.25683,0.3008 0.0619,0.1275 0.093,0.2732 0.093,0.4372 v 0.016 h -1.4981 v -0.016 c 0,-0.164 0.029,-0.3097 0.0873,-0.4372 0.0583,-0.1275 0.14233,-0.2279 0.25166,-0.3008 0.11297,-0.077 0.24792,-0.1147 0.40463,-0.1147 z m -7.18303,0.022 c 0.22595,0 0.40622,0.073 0.54105,0.2186 0.13484,0.1422 0.20766,0.3515 0.2186,0.6284 0.003,0.055 0.005,0.1239 0.005,0.2077 0,0.084 -0.002,0.1531 -0.005,0.2078 -0.0109,0.2769 -0.0838,0.4883 -0.2186,0.6341 -0.13483,0.1421 -0.3151,0.2134 -0.54105,0.2134 -0.22594,0 -0.40825,-0.071 -0.54673,-0.2134 -0.13486,-0.1458 -0.20564,-0.3572 -0.21291,-0.6341 -0.003,-0.055 -0.005,-0.1239 -0.005,-0.2078 0,-0.084 0.002,-0.153 0.005,-0.2077 0.007,-0.2769 0.0781,-0.4862 0.21291,-0.6284 0.13848,-0.1458 0.32079,-0.2186 0.54673,-0.2186 z m 24.48429,0 c 0.22595,0 0.40622,0.073 0.54106,0.2186 0.13484,0.1422 0.20766,0.352 0.21859,0.6289 0.003,0.055 0.005,0.124 0.005,0.2078 0,0.084 -0.002,0.153 -0.005,0.2077 -0.0109,0.2769 -0.0838,0.4883 -0.21859,0.6341 -0.13484,0.1421 -0.31511,0.2129 -0.54106,0.2129 -0.22594,0 -0.40825,-0.071 -0.54673,-0.2129 -0.13486,-0.1458 -0.20616,-0.3572 -0.21343,-0.6341 -0.003,-0.055 -0.005,-0.1239 -0.005,-0.2077 0,-0.084 0.002,-0.1531 0.005,-0.2078 0.007,-0.2769 0.0786,-0.4867 0.21343,-0.6289 0.13848,-0.1458 0.32079,-0.2186 0.54673,-0.2186 z m 6.06733,5e-4 c 0.22595,0 0.40673,0.073 0.54157,0.2186 0.13484,0.1422 0.20766,0.3515 0.21859,0.6284 0.003,0.055 0.005,0.124 0.005,0.2078 0,0.084 -0.001,0.153 -0.005,0.2077 -0.0109,0.2769 -0.0837,0.4883 -0.21859,0.6341 -0.13484,0.1421 -0.31562,0.2134 -0.54157,0.2134 -0.22594,0 -0.40825,-0.071 -0.54673,-0.2134 -0.13486,-0.1458 -0.20564,-0.3572 -0.21291,-0.6341 -0.003,-0.055 -0.005,-0.1239 -0.005,-0.2077 0,-0.084 0.002,-0.1531 0.005,-0.2078 0.007,-0.2769 0.0781,-0.4862 0.21291,-0.6284 0.13848,-0.1458 0.32079,-0.2186 0.54673,-0.2186 z m -26.87794,0.021 c 0.1895,0 0.33666,0.042 0.44235,0.1256 0.1093,0.08 0.18773,0.1877 0.23513,0.3225 0.0474,0.1312 0.0749,0.2732 0.0822,0.4263 0.003,0.1057 0.003,0.2116 0,0.3173 -0.007,0.1531 -0.0348,0.2972 -0.0822,0.432 -0.0474,0.1312 -0.1258,0.2387 -0.23513,0.3225 -0.10569,0.08 -0.25285,0.1199 -0.44235,0.1199 -0.17128,0 -0.31387,-0.04 -0.42685,-0.1199 -0.11294,-0.08 -0.1985,-0.1825 -0.25683,-0.3065 -0.055,-0.1238 -0.084,-0.2496 -0.0873,-0.3772 -0.003,-0.062 -0.005,-0.1327 -0.005,-0.2129 0,-0.081 0.002,-0.1498 0.005,-0.2078 0.007,-0.1348 0.0363,-0.2661 0.0873,-0.3937 0.0547,-0.1312 0.13665,-0.2386 0.24598,-0.3225 0.11297,-0.084 0.25913,-0.1256 0.4377,-0.1256 z m 14.83579,0 c 0.1895,0 0.33666,0.042 0.44235,0.1256 0.1093,0.08 0.18772,0.1877 0.23512,0.3225 0.0474,0.1312 0.0749,0.2732 0.0822,0.4263 0.003,0.1057 0.003,0.2116 0,0.3173 -0.007,0.1531 -0.0348,0.2972 -0.0822,0.432 -0.0474,0.1312 -0.1258,0.2387 -0.23512,0.3225 -0.10569,0.08 -0.25285,0.1199 -0.44235,0.1199 -0.17128,0 -0.31336,-0.04 -0.42633,-0.1199 -0.11295,-0.08 -0.19902,-0.1825 -0.25735,-0.3065 -0.055,-0.1238 -0.084,-0.2496 -0.0873,-0.3772 -0.003,-0.062 -0.005,-0.1327 -0.005,-0.2129 0,-0.081 0.002,-0.1498 0.005,-0.2078 0.007,-0.1348 0.0363,-0.2661 0.0873,-0.3937 0.0547,-0.1312 0.13665,-0.2386 0.24598,-0.3225 0.11297,-0.084 0.25913,-0.1256 0.4377,-0.1256 z m 25.09045,6e-4 c 0.1895,0 0.33718,0.042 0.44287,0.1255 0.10931,0.08 0.18773,0.1877 0.23513,0.3225 0.0474,0.1312 0.0749,0.2738 0.0822,0.4268 0.003,0.1057 0.003,0.2111 0,0.3168 -0.007,0.1531 -0.0348,0.2972 -0.0822,0.432 -0.0474,0.1312 -0.1258,0.2387 -0.23513,0.3225 -0.10569,0.08 -0.25337,0.1204 -0.44287,0.1204 -0.17128,0 -0.31335,-0.04 -0.42633,-0.1204 -0.11294,-0.08 -0.1985,-0.1825 -0.25683,-0.3065 -0.055,-0.1238 -0.084,-0.2491 -0.0873,-0.3767 -0.003,-0.062 -0.005,-0.1332 -0.005,-0.2134 0,-0.081 0.002,-0.1497 0.005,-0.2077 0.007,-0.1348 0.0363,-0.2662 0.0873,-0.3938 0.0547,-0.1311 0.13665,-0.2386 0.24598,-0.3225 0.11297,-0.084 0.25862,-0.1255 0.43718,-0.1255 z m -70.53264,1.0428 v 0.1529 c 0,0.2042 -0.0367,0.3737 -0.10955,0.5085 -0.0692,0.1352 -0.16601,0.2355 -0.28991,0.3008 -0.12391,0.062 -0.26038,0.093 -0.40979,0.093 v -5e-4 c -0.0984,0 -0.19516,-0.016 -0.28991,-0.049 -0.0911,-0.033 -0.16751,-0.082 -0.22944,-0.1478 -0.0583,-0.069 -0.0873,-0.1548 -0.0873,-0.2568 0,-0.1312 0.0657,-0.2387 0.19688,-0.3225 0.1312,-0.087 0.32624,-0.1493 0.58498,-0.186 z m 9.0904,5e-4 v 0.153 c 0,0.2041 -0.0367,0.3737 -0.10955,0.5085 -0.0692,0.1351 -0.16548,0.2349 -0.28939,0.3002 -0.12376,0.062 -0.26059,0.093 -0.4098,0.093 h -5.1e-4 c -0.0982,0 -0.1948,-0.017 -0.28939,-0.049 -0.0911,-0.033 -0.16751,-0.082 -0.22944,-0.1473 -0.0583,-0.069 -0.0878,-0.1553 -0.0878,-0.2573 0,-0.1312 0.0657,-0.2387 0.19688,-0.3225 0.1312,-0.087 0.32624,-0.1488 0.58498,-0.1855 z m 9.49503,0 v 0.153 c 0,0.2041 -0.0361,0.3737 -0.10904,0.5085 -0.0692,0.1351 -0.166,0.2349 -0.2899,0.3002 -0.12391,0.062 -0.26038,0.093 -0.4098,0.093 -0.0984,0 -0.19515,-0.016 -0.2899,-0.049 -0.0911,-0.033 -0.16751,-0.082 -0.22945,-0.1473 -0.0583,-0.069 -0.0873,-0.1553 -0.0873,-0.2573 0,-0.1312 0.0652,-0.2387 0.19637,-0.3225 0.13119,-0.087 0.32624,-0.1488 0.58498,-0.1855 z m 19.5864,0 v 0.153 c 0,0.2041 -0.0367,0.3737 -0.10955,0.5085 -0.0693,0.1351 -0.16549,0.2354 -0.28939,0.3007 -0.12391,0.062 -0.2609,0.093 -0.41031,0.093 -0.0984,0 -0.19465,-0.016 -0.28939,-0.049 -0.0911,-0.033 -0.16803,-0.082 -0.22996,-0.1478 -0.0583,-0.069 -0.0873,-0.1548 -0.0873,-0.2568 0,-0.1312 0.0657,-0.2386 0.19689,-0.3224 0.1312,-0.087 0.32624,-0.1494 0.58498,-0.1861 z m -16.6672,4.5811 c -0.0365,0 -0.0655,0.013 -0.0873,0.038 -0.0219,0.022 -0.0331,0.051 -0.0331,0.088 v 0.2951 c 0,0.036 0.0112,0.065 0.0331,0.087 0.0219,0.022 0.0509,0.033 0.0873,0.033 h 0.30076 c 0.0365,0 0.0655,-0.011 0.0873,-0.033 0.0255,-0.021 0.0382,-0.05 0.0382,-0.087 v -0.2951 c 0,-0.037 -0.0127,-0.066 -0.0382,-0.088 -0.0219,-0.025 -0.0509,-0.038 -0.0873,-0.038 z m 0.92914,0 c -0.0401,0 -0.0706,0.013 -0.0925,0.038 -0.0219,0.022 -0.0331,0.051 -0.0331,0.088 v 0.2951 c 0,0.036 0.0112,0.065 0.0331,0.087 0.0219,0.022 0.0524,0.033 0.0925,0.033 h 0.29559 c 0.0365,0 0.0655,-0.011 0.0873,-0.033 0.0255,-0.021 0.0383,-0.05 0.0383,-0.087 v -0.2951 c 0,-0.037 -0.0127,-0.066 -0.0383,-0.088 -0.0219,-0.025 -0.0509,-0.038 -0.0873,-0.038 z m -16.83101,0.01 c -0.0364,0 -0.0675,0.012 -0.093,0.038 -0.0219,0.025 -0.0326,0.056 -0.0326,0.093 v 0.2951 c 0,0.037 0.0107,0.068 0.0326,0.093 0.0255,0.022 0.0565,0.033 0.093,0.033 h 0.34468 c 0.0364,0 0.067,-0.011 0.0925,-0.033 0.0255,-0.025 0.0388,-0.056 0.0388,-0.093 v -0.2951 c 0,-0.037 -0.0132,-0.068 -0.0388,-0.093 -0.0255,-0.025 -0.056,-0.038 -0.0925,-0.038 z m 10.29859,0 c -0.0364,0 -0.067,0.013 -0.0925,0.038 -0.0219,0.025 -0.0331,0.056 -0.0331,0.093 v 0.2951 c 0,0.037 0.0112,0.068 0.0331,0.093 0.0255,0.022 0.056,0.033 0.0925,0.033 h 0.34469 c 0.0364,0 0.0675,-0.011 0.093,-0.033 0.0255,-0.025 0.0382,-0.056 0.0382,-0.093 v -0.2951 c 0,-0.037 -0.0127,-0.068 -0.0382,-0.093 -0.0255,-0.025 -0.0566,-0.038 -0.093,-0.038 z m 22.48339,0 c -0.0364,0 -0.067,0.012 -0.0925,0.038 -0.0219,0.025 -0.0331,0.056 -0.0331,0.093 v 0.2951 c 0,0.037 0.0112,0.068 0.0331,0.093 0.0255,0.022 0.056,0.033 0.0925,0.033 h 0.34468 c 0.0364,0 0.0675,-0.011 0.093,-0.033 0.0255,-0.025 0.0382,-0.056 0.0382,-0.093 v -0.2951 c 0,-0.037 -0.0127,-0.068 -0.0382,-0.093 -0.0255,-0.025 -0.0566,-0.038 -0.093,-0.038 z m 30.86891,5e-4 c -0.0364,0 -0.0675,0.012 -0.093,0.038 -0.0219,0.025 -0.0325,0.056 -0.0325,0.093 v 0.2951 c 0,0.037 0.0107,0.068 0.0325,0.093 0.0255,0.022 0.0566,0.033 0.093,0.033 h 0.34468 c 0.0364,0 0.067,-0.011 0.0925,-0.033 0.0255,-0.025 0.0388,-0.056 0.0388,-0.093 V 1010.5 c 0,-0.037 -0.0132,-0.068 -0.0388,-0.093 -0.0255,-0.025 -0.056,-0.038 -0.0925,-0.038 z m -73.91125,0.042 c -0.0364,0 -0.0675,0.012 -0.093,0.038 -0.0219,0.021 -0.0326,0.051 -0.0326,0.087 v 3.6293 c 0,0.037 0.0107,0.068 0.0326,0.093 0.0255,0.022 0.0566,0.033 0.093,0.033 h 0.25684 c 0.0365,0 0.0655,-0.011 0.0873,-0.033 0.0255,-0.025 0.0388,-0.056 0.0388,-0.093 v -1.1312 l 1.21904,1.1642 c 0.0401,0.037 0.0726,0.062 0.0982,0.077 0.0255,0.011 0.0657,0.016 0.1204,0.016 h 0.28422 c 0.0328,0 0.0598,-0.011 0.0816,-0.033 0.0219,-0.022 0.0331,-0.049 0.0331,-0.082 0,-0.029 -0.0219,-0.061 -0.0656,-0.098 l -1.3994,-1.3612 1.26245,-1.0496 c 0.0255,-0.019 0.0423,-0.037 0.0496,-0.055 0.0109,-0.018 0.016,-0.034 0.016,-0.049 0,-0.033 -0.0107,-0.06 -0.0326,-0.082 -0.0219,-0.022 -0.0494,-0.033 -0.0822,-0.033 h -0.28939 c -0.0546,0 -0.0949,0.01 -0.1204,0.022 -0.0219,0.011 -0.055,0.035 -0.0987,0.071 l -1.07642,0.8965 v -1.9022 c 0,-0.036 -0.0132,-0.065 -0.0388,-0.087 -0.0219,-0.025 -0.0509,-0.038 -0.0873,-0.038 z m 6.57066,0 c -0.0364,0 -0.0675,0.013 -0.093,0.038 -0.0219,0.021 -0.0326,0.05 -0.0326,0.087 v 3.6298 c 0,0.037 0.0107,0.068 0.0326,0.093 0.0255,0.022 0.0566,0.033 0.093,0.033 h 0.27337 c 0.0401,0 0.0712,-0.011 0.093,-0.033 0.0219,-0.025 0.0326,-0.056 0.0326,-0.093 v -1.5141 c 0,-0.2551 0.0693,-0.4537 0.20774,-0.5959 0.13848,-0.1458 0.32079,-0.2186 0.54674,-0.2186 0.24052,0 0.42283,0.073 0.54674,0.2186 0.1239,0.1422 0.18551,0.3408 0.18551,0.5959 v 1.5141 c 0,0.037 0.0112,0.068 0.0331,0.093 0.0255,0.022 0.0566,0.033 0.093,0.033 h 0.27336 c 0.0401,0 0.0706,-0.011 0.0925,-0.033 0.0219,-0.025 0.0331,-0.056 0.0331,-0.093 v -1.5415 c 0,-0.2442 -0.0438,-0.4576 -0.13126,-0.6398 -0.0838,-0.1858 -0.2096,-0.3295 -0.37724,-0.4315 -0.16399,-0.1057 -0.36463,-0.1586 -0.60151,-0.1586 -0.21866,0 -0.39893,0.038 -0.54105,0.1147 -0.14213,0.077 -0.26231,0.1768 -0.36071,0.3008 v -1.2739 c 0,-0.036 -0.0107,-0.065 -0.0326,-0.087 -0.0219,-0.025 -0.0529,-0.038 -0.093,-0.038 z m 15.77061,5e-4 c -0.0364,0 -0.0675,0.012 -0.093,0.038 -0.0219,0.021 -0.0326,0.051 -0.0326,0.087 v 3.6298 c 0,0.037 0.0107,0.068 0.0326,0.093 0.0255,0.022 0.0565,0.033 0.093,0.033 h 0.25684 c 0.0401,0 0.0712,-0.011 0.093,-0.033 0.0219,-0.025 0.0326,-0.056 0.0326,-0.093 v -3.6298 c 0,-0.036 -0.0107,-0.065 -0.0326,-0.087 -0.0219,-0.025 -0.053,-0.038 -0.093,-0.038 z m 1.7384,0 c -0.0364,0 -0.0675,0.012 -0.093,0.038 -0.0219,0.021 -0.0325,0.051 -0.0325,0.087 v 3.6298 c 0,0.037 0.0107,0.068 0.0325,0.093 0.0255,0.022 0.0566,0.033 0.093,0.033 h 0.25683 c 0.0401,0 0.0712,-0.011 0.093,-0.033 0.0219,-0.025 0.0326,-0.056 0.0326,-0.093 v -3.6298 c 0,-0.036 -0.0107,-0.065 -0.0326,-0.087 -0.0219,-0.025 -0.0529,-0.038 -0.093,-0.038 z m 10.46241,0 c -0.0364,0 -0.067,0.013 -0.0925,0.038 -0.0219,0.021 -0.0331,0.05 -0.0331,0.087 v 3.6298 c 0,0.037 0.0112,0.068 0.0331,0.093 0.0255,0.022 0.056,0.033 0.0925,0.033 h 0.25683 c 0.0401,0 0.0711,-0.011 0.093,-0.033 0.0219,-0.025 0.0331,-0.056 0.0331,-0.093 v -3.6298 c 0,-0.036 -0.0112,-0.065 -0.0331,-0.087 -0.0219,-0.025 -0.053,-0.038 -0.093,-0.038 z m -22.25911,5e-4 c -0.0364,0 -0.0675,0.012 -0.093,0.038 -0.0219,0.021 -0.0326,0.05 -0.0326,0.087 v 0.9132 h -0.42633 c -0.0364,0 -0.0675,0.013 -0.093,0.038 -0.0219,0.021 -0.0331,0.05 -0.0331,0.087 v 0.1861 c 0,0.037 0.0112,0.068 0.0331,0.093 0.0255,0.022 0.0566,0.033 0.093,0.033 h 0.42633 v 1.4428 c 0,0.1968 0.029,0.3683 0.0873,0.5141 0.0583,0.1422 0.1515,0.2532 0.27906,0.3334 0.12754,0.077 0.29304,0.1147 0.49712,0.1147 l 0.37724,-5e-4 c 0.0365,0 0.0655,-0.011 0.0873,-0.033 0.0255,-0.025 0.0388,-0.056 0.0388,-0.093 v -0.1969 c 0,-0.036 -0.0132,-0.065 -0.0388,-0.087 -0.0219,-0.025 -0.0509,-0.038 -0.0873,-0.038 h -0.33331 c -0.14939,0 -0.25328,-0.049 -0.31161,-0.1478 -0.0583,-0.098 -0.0873,-0.2333 -0.0873,-0.4046 v -1.4045 h 0.67747 c 0.0401,0 0.0712,-0.011 0.093,-0.033 0.0219,-0.025 0.0331,-0.056 0.0331,-0.093 v -0.1861 c 0,-0.036 -0.0112,-0.065 -0.0331,-0.087 -0.0219,-0.025 -0.053,-0.038 -0.093,-0.038 h -0.67747 v -0.9132 c 0,-0.036 -0.0132,-0.065 -0.0388,-0.087 -0.0219,-0.025 -0.0509,-0.038 -0.0873,-0.038 z m 2.54714,0 c -0.0364,0 -0.067,0.012 -0.0925,0.038 -0.0219,0.021 -0.0331,0.05 -0.0331,0.087 v 0.9132 h -0.42633 c -0.0364,0 -0.0675,0.013 -0.093,0.038 -0.0219,0.021 -0.0325,0.05 -0.0325,0.087 v 0.1861 c 0,0.037 0.0107,0.068 0.0325,0.093 0.0255,0.022 0.0566,0.033 0.093,0.033 h 0.42633 v 1.4428 c 0,0.1968 0.029,0.3683 0.0873,0.5141 0.0583,0.1422 0.15151,0.2532 0.27906,0.3334 0.12755,0.077 0.29357,0.1147 0.49764,0.1147 l 0.37724,-5e-4 c 0.0365,0 0.0655,-0.011 0.0873,-0.033 0.0255,-0.025 0.0382,-0.056 0.0382,-0.093 v -0.1969 c 0,-0.036 -0.0127,-0.065 -0.0382,-0.087 -0.0219,-0.025 -0.0509,-0.038 -0.0873,-0.038 h -0.33383 c -0.14939,0 -0.25328,-0.049 -0.31161,-0.1478 -0.0583,-0.098 -0.0873,-0.2333 -0.0873,-0.4046 v -1.4045 h 0.67799 c 0.0401,0 0.0706,-0.011 0.0925,-0.033 0.0219,-0.025 0.0331,-0.056 0.0331,-0.093 v -0.1861 c 0,-0.036 -0.0112,-0.065 -0.0331,-0.087 -0.0219,-0.025 -0.0524,-0.038 -0.0925,-0.038 h -0.67799 v -0.9132 c 0,-0.036 -0.0127,-0.065 -0.0382,-0.087 -0.0219,-0.025 -0.0509,-0.038 -0.0873,-0.038 z m 33.42741,5e-4 c -0.0364,0 -0.0675,0.012 -0.093,0.038 -0.0219,0.021 -0.0325,0.051 -0.0325,0.087 v 0.9126 h -0.42685 c -0.0364,0 -0.067,0.013 -0.0925,0.038 -0.0219,0.021 -0.0331,0.05 -0.0331,0.087 v 0.1861 c 0,0.037 0.0112,0.068 0.0331,0.093 0.0255,0.022 0.056,0.033 0.0925,0.033 h 0.42685 v 1.4428 c 0,0.1968 0.029,0.3684 0.0873,0.5142 0.0583,0.1421 0.15098,0.2531 0.27854,0.3333 0.12754,0.077 0.29356,0.1147 0.49764,0.1147 l 0.37724,-5e-4 c 0.0365,0 0.0655,-0.011 0.0873,-0.033 0.0255,-0.025 0.0382,-0.056 0.0382,-0.093 v -0.1964 c 0,-0.036 -0.0127,-0.065 -0.0382,-0.087 -0.0219,-0.025 -0.0509,-0.038 -0.0873,-0.038 h -0.33331 c -0.14939,0 -0.25328,-0.049 -0.31161,-0.1478 -0.0583,-0.098 -0.0879,-0.2334 -0.0879,-0.4047 v -1.4045 h 0.67799 c 0.0401,0 0.0711,-0.011 0.093,-0.033 0.0219,-0.025 0.0326,-0.056 0.0326,-0.093 v -0.1861 c 0,-0.036 -0.0107,-0.065 -0.0326,-0.087 -0.0219,-0.025 -0.053,-0.038 -0.093,-0.038 h -0.67799 v -0.9126 c 0,-0.036 -0.0127,-0.065 -0.0382,-0.087 -0.0219,-0.025 -0.0509,-0.038 -0.0873,-0.038 z m 7.60936,0 c -0.0364,0 -0.0675,0.013 -0.093,0.038 -0.0219,0.021 -0.0331,0.05 -0.0331,0.087 v 0.9131 h -0.42634 c -0.0364,0 -0.0675,0.012 -0.093,0.038 -0.0219,0.021 -0.0326,0.051 -0.0326,0.087 v 0.1855 c 0,0.037 0.0107,0.068 0.0326,0.093 0.0255,0.022 0.0566,0.033 0.093,0.033 h 0.42634 v 1.4433 c 0,0.1968 0.0295,0.3679 0.0879,0.5137 0.0583,0.1421 0.15098,0.2531 0.27853,0.3333 0.12755,0.077 0.29357,0.1152 0.49765,0.1152 l 0.37723,-5e-4 c 0.0365,0 0.0655,-0.011 0.0873,-0.033 0.0255,-0.025 0.0382,-0.056 0.0382,-0.093 v -0.1969 c 0,-0.036 -0.0127,-0.065 -0.0382,-0.087 -0.0219,-0.025 -0.0509,-0.038 -0.0873,-0.038 h -0.33383 c -0.14939,0 -0.25276,-0.049 -0.31109,-0.1473 -0.0583,-0.098 -0.0879,-0.2334 -0.0879,-0.4046 v -1.4051 h 0.678 c 0.0401,0 0.0712,-0.011 0.093,-0.033 0.0219,-0.025 0.0326,-0.056 0.0326,-0.093 v -0.1855 c 0,-0.036 -0.0107,-0.065 -0.0326,-0.087 -0.0219,-0.025 -0.053,-0.038 -0.093,-0.038 h -0.678 v -0.9131 c 0,-0.036 -0.0127,-0.065 -0.0382,-0.087 -0.0219,-0.025 -0.0509,-0.038 -0.0873,-0.038 z m 9.76839,5e-4 c -0.0364,0 -0.0675,0.012 -0.093,0.038 -0.0219,0.021 -0.0331,0.051 -0.0331,0.087 v 0.9126 h -0.42633 c -0.0364,0 -0.067,0.013 -0.0925,0.038 -0.0219,0.021 -0.0331,0.05 -0.0331,0.087 v 0.186 c 0,0.037 0.0112,0.068 0.0331,0.093 0.0255,0.022 0.056,0.033 0.0925,0.033 h 0.42633 v 1.4428 c 0,0.1968 0.0295,0.3684 0.0879,0.5142 0.0583,0.1421 0.15099,0.2532 0.27854,0.3333 0.12755,0.077 0.29356,0.1147 0.49764,0.1147 l 0.37724,-5e-4 c 0.0365,0 0.0655,-0.011 0.0873,-0.033 0.0255,-0.025 0.0382,-0.056 0.0382,-0.093 v -0.1969 c 0,-0.036 -0.0127,-0.065 -0.0382,-0.087 -0.0219,-0.025 -0.0509,-0.038 -0.0873,-0.038 h -0.33331 c -0.1494,0 -0.25328,-0.049 -0.31161,-0.1478 -0.0583,-0.098 -0.0879,-0.2334 -0.0879,-0.4046 v -1.4046 h 0.67799 c 0.0401,0 0.0711,-0.011 0.093,-0.033 0.0219,-0.025 0.0326,-0.056 0.0326,-0.093 v -0.186 c 0,-0.036 -0.0107,-0.065 -0.0326,-0.087 -0.0219,-0.025 -0.053,-0.038 -0.093,-0.038 h -0.67799 v -0.9126 c 0,-0.036 -0.0127,-0.065 -0.0382,-0.087 -0.0219,-0.025 -0.0509,-0.038 -0.0873,-0.038 z m 2.54713,0 c -0.0364,0 -0.0675,0.012 -0.093,0.038 -0.0219,0.021 -0.0326,0.051 -0.0326,0.087 v 0.9126 h -0.42633 c -0.0364,0 -0.0675,0.013 -0.093,0.038 -0.0219,0.021 -0.0326,0.05 -0.0326,0.087 v 0.186 c 0,0.037 0.0107,0.068 0.0326,0.093 0.0255,0.022 0.0565,0.033 0.093,0.033 h 0.42633 v 1.4428 c 0,0.1968 0.029,0.3684 0.0873,0.5142 0.0583,0.1421 0.15151,0.2532 0.27905,0.3333 0.12756,0.077 0.29306,0.1147 0.49713,0.1147 l 0.37724,-5e-4 c 0.0365,0 0.066,-0.011 0.0879,-0.033 0.0255,-0.025 0.0382,-0.056 0.0382,-0.093 v -0.1969 c 0,-0.036 -0.0127,-0.065 -0.0382,-0.087 -0.0219,-0.025 -0.0514,-0.038 -0.0879,-0.038 h -0.33331 c -0.1494,0 -0.25328,-0.049 -0.31161,-0.1478 -0.0583,-0.098 -0.0873,-0.2334 -0.0873,-0.4046 v -1.4046 h 0.67748 c 0.0401,0 0.0711,-0.011 0.093,-0.033 0.0219,-0.025 0.0331,-0.056 0.0331,-0.093 v -0.186 c 0,-0.036 -0.0112,-0.065 -0.0331,-0.087 -0.0219,-0.025 -0.053,-0.038 -0.093,-0.038 h -0.67748 v -0.9126 c 0,-0.036 -0.0127,-0.065 -0.0382,-0.087 -0.0219,-0.025 -0.0514,-0.038 -0.0879,-0.038 z m 10.94404,0 c -0.0364,0 -0.0675,0.012 -0.093,0.038 -0.0219,0.021 -0.0331,0.051 -0.0331,0.087 v 0.9126 h -0.42633 c -0.0364,0 -0.067,0.013 -0.0925,0.038 -0.0219,0.021 -0.0331,0.05 -0.0331,0.087 v 0.186 c 0,0.037 0.0112,0.068 0.0331,0.093 0.0255,0.022 0.056,0.033 0.0925,0.033 h 0.42633 v 1.4428 c 0,0.1968 0.0295,0.3684 0.0879,0.5142 0.0583,0.1421 0.15099,0.2532 0.27853,0.3333 0.12756,0.077 0.29357,0.1147 0.49765,0.1147 l 0.37723,-5e-4 c 0.0365,0 0.0655,-0.011 0.0873,-0.033 0.0255,-0.025 0.0382,-0.056 0.0382,-0.093 v -0.1969 c 0,-0.036 -0.0127,-0.065 -0.0382,-0.087 -0.0219,-0.025 -0.0509,-0.038 -0.0873,-0.038 h -0.33331 c -0.14939,0 -0.25327,-0.049 -0.31161,-0.1478 -0.0583,-0.098 -0.0879,-0.2334 -0.0879,-0.4046 v -1.4046 h 0.678 c 0.0401,0 0.0711,-0.011 0.093,-0.033 0.0219,-0.025 0.0326,-0.056 0.0326,-0.093 v -0.186 c 0,-0.036 -0.0107,-0.065 -0.0326,-0.087 -0.0219,-0.025 -0.053,-0.038 -0.093,-0.038 h -0.678 v -0.9126 c 0,-0.036 -0.0127,-0.065 -0.0382,-0.087 -0.0219,-0.025 -0.0509,-0.038 -0.0873,-0.038 z m -75.02643,0.9814 c -0.24781,0 -0.46475,0.053 -0.6506,0.1586 -0.18222,0.1057 -0.32633,0.2569 -0.43202,0.4537 -0.10566,0.1932 -0.16575,0.4193 -0.18035,0.678 -0.003,0.047 -0.005,0.1095 -0.005,0.1861 0,0.073 0.002,0.133 0.005,0.1803 0.0219,0.4009 0.14409,0.7177 0.36639,0.9509 0.2223,0.2296 0.52275,0.3447 0.90175,0.3447 0.18586,0 0.35187,-0.024 0.49764,-0.071 0.14942,-0.051 0.27316,-0.1147 0.37156,-0.1912 0.10204,-0.077 0.18046,-0.1535 0.23512,-0.23 0.055,-0.08 0.084,-0.1474 0.0873,-0.2021 0.004,-0.037 -0.007,-0.064 -0.0326,-0.082 -0.0219,-0.022 -0.0494,-0.033 -0.0822,-0.033 h -0.26769 c -0.0401,0 -0.0697,0.01 -0.0879,0.016 -0.0182,0.01 -0.0437,0.033 -0.0765,0.077 -0.0182,0.029 -0.0544,0.069 -0.10904,0.1199 -0.0547,0.048 -0.12596,0.091 -0.21342,0.1313 -0.0875,0.04 -0.19695,0.06 -0.32815,0.06 -0.14942,0 -0.28029,-0.04 -0.39325,-0.1199 -0.10931,-0.08 -0.19333,-0.184 -0.25167,-0.3116 -0.0583,-0.1312 -0.0909,-0.2717 -0.0982,-0.4211 v -0.027 -0.022 h 1.89135 c 0.0365,0 0.0655,-0.011 0.0873,-0.033 0.0255,-0.022 0.0382,-0.053 0.0382,-0.093 v -0.093 c 0,-0.288 -0.0489,-0.539 -0.14728,-0.754 -0.0984,-0.215 -0.24251,-0.381 -0.43201,-0.4976 -0.18586,-0.1167 -0.41706,-0.1752 -0.69402,-0.1752 z m 14.03739,5e-4 c -0.24782,0 -0.46424,0.053 -0.65009,0.1586 -0.18222,0.1057 -0.32633,0.257 -0.43202,0.4538 -0.10566,0.1931 -0.16575,0.4192 -0.18035,0.678 -0.003,0.047 -0.005,0.1089 -0.005,0.1855 0,0.073 0.002,0.133 0.005,0.1803 0.0219,0.4009 0.14409,0.7182 0.36639,0.9514 0.2223,0.2296 0.52275,0.3442 0.90175,0.3442 v 5e-4 c 0.18586,0 0.35136,-0.024 0.49713,-0.071 0.14941,-0.051 0.27368,-0.1147 0.37207,-0.1912 0.10204,-0.077 0.18046,-0.153 0.23513,-0.2295 0.055,-0.08 0.084,-0.1474 0.0873,-0.202 0.004,-0.037 -0.008,-0.064 -0.0331,-0.082 -0.0219,-0.022 -0.0488,-0.033 -0.0816,-0.033 h -0.2682 c -0.0401,0 -0.0691,0.01 -0.0873,0.016 -0.0182,0.01 -0.0437,0.033 -0.0765,0.077 -0.0182,0.029 -0.0549,0.069 -0.10955,0.1204 -0.0547,0.048 -0.12544,0.091 -0.21291,0.1313 -0.0875,0.04 -0.19695,0.06 -0.32814,0.06 -0.14942,0 -0.28029,-0.04 -0.39326,-0.1204 -0.10931,-0.08 -0.19333,-0.184 -0.25166,-0.3116 -0.0583,-0.1312 -0.0909,-0.2712 -0.0982,-0.4206 v -0.027 -0.022 h 1.89136 c 0.0365,0 0.0655,-0.011 0.0873,-0.033 0.0255,-0.022 0.0382,-0.053 0.0382,-0.093 v -0.093 c 0,-0.288 -0.0494,-0.5395 -0.14779,-0.7545 -0.0984,-0.215 -0.242,-0.3805 -0.4315,-0.4971 -0.18586,-0.1167 -0.41757,-0.1752 -0.69453,-0.1752 z m 8.63151,0 c -0.19679,0 -0.36432,0.028 -0.50281,0.082 -0.13483,0.051 -0.24585,0.1146 -0.33331,0.1912 -0.0875,0.077 -0.15316,0.155 -0.19689,0.2351 -0.0401,0.08 -0.06,0.1474 -0.06,0.202 0,0.033 0.009,0.062 0.0274,0.087 0.0219,0.022 0.0524,0.033 0.0925,0.033 h 0.24598 c 0.0547,0 0.0929,-0.027 0.11473,-0.082 0.0401,-0.1023 0.11138,-0.1858 0.21342,-0.2512 0.10203,-0.065 0.23342,-0.098 0.39377,-0.098 0.22594,0 0.38788,0.049 0.48628,0.1477 0.10204,0.098 0.15296,0.2349 0.15296,0.4098 v 0.1587 l -0.81442,0.1147 c -0.32798,0.047 -0.5938,0.1456 -0.79788,0.2951 -0.20408,0.1494 -0.30644,0.35 -0.30644,0.6015 0,0.1567 0.0458,0.2967 0.13694,0.4206 0.0911,0.1239 0.21129,0.2222 0.3607,0.2951 0.14941,0.073 0.31543,0.1096 0.49764,0.1096 v 0 c 0.17493,0 0.32209,-0.02 0.44235,-0.06 0.12026,-0.044 0.22059,-0.097 0.30076,-0.1587 0.0802,-0.066 0.1438,-0.131 0.1912,-0.1963 v 0.2346 c 0,0.037 0.0112,0.068 0.0331,0.093 0.0219,0.022 0.053,0.033 0.093,0.033 h 0.25115 c 0.0365,0 0.066,-0.011 0.0879,-0.033 0.0255,-0.025 0.0382,-0.056 0.0382,-0.093 v -1.771 c 0,-0.1239 -0.0204,-0.2461 -0.0605,-0.3664 -0.0365,-0.1202 -0.0981,-0.2276 -0.18552,-0.3224 -0.0838,-0.095 -0.20043,-0.1691 -0.34985,-0.2238 -0.14941,-0.058 -0.33376,-0.087 -0.55242,-0.087 z m 18.88102,0 c -0.23323,0 -0.42827,0.04 -0.58498,0.1204 -0.15306,0.08 -0.26967,0.1841 -0.34985,0.3116 -0.0802,0.1239 -0.11989,0.2532 -0.11989,0.3881 0,0.1312 0.027,0.2494 0.0816,0.355 0.0547,0.1021 0.14582,0.1917 0.27337,0.2682 0.12755,0.073 0.30069,0.1342 0.51935,0.1855 0.21865,0.047 0.39027,0.093 0.51418,0.137 0.12752,0.044 0.2146,0.093 0.262,0.1473 0.051,0.055 0.0765,0.1275 0.0765,0.2185 0,0.1386 -0.0601,0.2445 -0.18035,0.3173 -0.12026,0.069 -0.27304,0.1039 -0.45889,0.1039 -0.12755,0 -0.235,-0.016 -0.32246,-0.049 -0.0838,-0.033 -0.15509,-0.074 -0.21342,-0.1256 -0.0583,-0.051 -0.11125,-0.1016 -0.15865,-0.1529 -0.0219,-0.023 -0.0402,-0.037 -0.0548,-0.044 -0.0109,-0.01 -0.0252,-0.011 -0.0434,-0.011 h -0.24598 c -0.0292,0 -0.0582,0.011 -0.0873,0.033 -0.0289,0.022 -0.0421,0.053 -0.0388,0.093 0.004,0.044 0.0276,0.1022 0.0713,0.1752 0.0474,0.073 0.11663,0.1457 0.20774,0.2186 0.0911,0.073 0.20976,0.1341 0.35553,0.1855 0.14577,0.051 0.32044,0.077 0.52452,0.077 v 5e-4 c 0.2551,0 0.47052,-0.036 0.64544,-0.1091 0.17492,-0.077 0.30579,-0.1789 0.39325,-0.3064 0.0875,-0.1276 0.13126,-0.2676 0.13126,-0.4206 0,-0.1385 -0.029,-0.2608 -0.0873,-0.3664 -0.0583,-0.1057 -0.15711,-0.1984 -0.29559,-0.2786 -0.13848,-0.08 -0.32792,-0.1443 -0.56844,-0.1917 -0.22231,-0.051 -0.38985,-0.098 -0.50281,-0.1421 -0.113,-0.044 -0.18938,-0.093 -0.22945,-0.1473 -0.0401,-0.055 -0.0599,-0.1167 -0.0599,-0.186 0,-0.1166 0.0453,-0.2134 0.13642,-0.2899 0.0911,-0.077 0.22759,-0.1147 0.4098,-0.1147 0.12755,0 0.22991,0.016 0.30644,0.049 0.0802,0.029 0.1438,0.067 0.1912,0.1147 0.051,0.047 0.0948,0.095 0.13126,0.1421 0.0145,0.015 0.0288,0.028 0.0434,0.038 0.0182,0.011 0.0401,0.016 0.0656,0.016 h 0.22996 c 0.0328,0 0.0618,-0.011 0.0873,-0.033 0.0252,-0.025 0.0359,-0.056 0.0326,-0.093 -0.004,-0.047 -0.0271,-0.106 -0.0708,-0.1752 -0.0437,-0.069 -0.10943,-0.1385 -0.19689,-0.2078 -0.0875,-0.073 -0.19848,-0.133 -0.33331,-0.1803 -0.13484,-0.047 -0.29729,-0.071 -0.48679,-0.071 z m -13.62243,5e-4 c -0.27331,0 -0.50247,0.053 -0.68833,0.1587 -0.18586,0.1056 -0.32997,0.2513 -0.43201,0.4371 -0.0984,0.1859 -0.15288,0.4008 -0.16381,0.645 -0.003,0.058 -0.005,0.1367 -0.005,0.2351 0,0.095 0.002,0.1731 0.005,0.2351 0.0109,0.2406 0.0654,0.4554 0.16381,0.6449 0.0984,0.1858 0.24048,0.3315 0.42633,0.4372 0.18586,0.1057 0.41706,0.1587 0.69401,0.1587 0.27697,0 0.50868,-0.053 0.69454,-0.1587 0.18585,-0.1057 0.32793,-0.2514 0.42633,-0.4372 0.0984,-0.1895 0.15288,-0.4043 0.16381,-0.6449 0.003,-0.062 0.005,-0.1404 0.005,-0.2351 0,-0.099 -0.002,-0.1771 -0.005,-0.2351 -0.0109,-0.2442 -0.0675,-0.4591 -0.1695,-0.645 -0.0984,-0.1858 -0.24047,-0.3315 -0.42633,-0.4371 -0.18586,-0.1058 -0.41553,-0.1587 -0.68885,-0.1587 z m 5.25343,0 c -0.24781,0 -0.46475,0.053 -0.65061,0.1587 -0.18221,0.1056 -0.32581,0.2569 -0.43149,0.4537 -0.10566,0.1931 -0.16627,0.4192 -0.18087,0.678 -0.003,0.047 -0.005,0.109 -0.005,0.1855 0,0.073 0.001,0.1335 0.005,0.1809 0.0219,0.4008 0.14408,0.7176 0.36638,0.9508 0.2223,0.2296 0.52327,0.3442 0.90228,0.3442 l -5.2e-4,5e-4 c 0.18585,0 0.35187,-0.024 0.49764,-0.071 0.14942,-0.051 0.27316,-0.1152 0.37156,-0.1917 0.10204,-0.077 0.18046,-0.1529 0.23512,-0.2295 0.055,-0.08 0.084,-0.1474 0.0873,-0.202 0.004,-0.037 -0.007,-0.064 -0.0326,-0.082 -0.0219,-0.022 -0.0494,-0.033 -0.0822,-0.033 h -0.26769 c -0.0401,0 -0.0691,0.01 -0.0873,0.016 -0.0182,0.01 -0.0437,0.033 -0.0765,0.077 -0.0182,0.029 -0.0549,0.069 -0.10956,0.1204 -0.0547,0.047 -0.12544,0.091 -0.2129,0.1312 -0.0875,0.04 -0.19696,0.06 -0.32815,0.06 -0.14941,0 -0.2808,-0.04 -0.39377,-0.1204 -0.1093,-0.08 -0.19282,-0.1841 -0.25115,-0.3117 -0.0583,-0.1312 -0.0914,-0.2712 -0.0987,-0.4206 v -0.027 -0.022 h 1.89135 c 0.0365,0 0.066,-0.011 0.0879,-0.033 0.0255,-0.022 0.0382,-0.053 0.0382,-0.093 v -0.093 c 0,-0.2879 -0.0494,-0.5395 -0.14779,-0.7545 -0.0984,-0.215 -0.24251,-0.3805 -0.43201,-0.4971 -0.18586,-0.1167 -0.41705,-0.1752 -0.69402,-0.1752 z m 14.23479,0 c -0.19679,0 -0.36484,0.027 -0.50333,0.082 -0.13483,0.051 -0.24584,0.1151 -0.33331,0.1917 -0.0875,0.077 -0.15316,0.155 -0.19689,0.2351 -0.0401,0.08 -0.0599,0.1474 -0.0599,0.2021 0,0.033 0.009,0.061 0.0274,0.087 0.0219,0.022 0.0529,0.033 0.093,0.033 h 0.24598 c 0.0547,0 0.0929,-0.027 0.11472,-0.082 0.0401,-0.1023 0.11088,-0.1863 0.21291,-0.2517 0.10204,-0.065 0.23342,-0.098 0.39378,-0.098 0.22594,0 0.38788,0.049 0.48627,0.1477 0.10204,0.098 0.15348,0.2349 0.15348,0.4098 v 0.1587 l -0.81494,0.1147 c -0.32798,0.047 -0.59381,0.1461 -0.79788,0.2956 -0.20408,0.1494 -0.30593,0.3495 -0.30593,0.601 0,0.1567 0.0453,0.2972 0.13643,0.4212 0.0911,0.1238 0.21129,0.2221 0.3607,0.295 0.14941,0.073 0.31543,0.1091 0.49765,0.1091 v -5e-4 c 0.17492,0 0.3226,-0.02 0.44286,-0.06 0.12026,-0.044 0.22007,-0.097 0.30024,-0.1586 0.0802,-0.066 0.14432,-0.1316 0.19172,-0.1969 v 0.2351 c 0,0.037 0.0107,0.068 0.0326,0.093 0.0219,0.022 0.053,0.033 0.093,0.033 h 0.25114 c 0.0365,0 0.066,-0.011 0.0879,-0.033 0.0255,-0.025 0.0382,-0.056 0.0382,-0.093 v -1.7709 c 0,-0.124 -0.0199,-0.2462 -0.0599,-0.3664 -0.0365,-0.1202 -0.0986,-0.2277 -0.18604,-0.3225 -0.0838,-0.095 -0.20043,-0.1696 -0.34985,-0.2243 -0.14941,-0.058 -0.33324,-0.087 -0.5519,-0.087 z m 25.00312,0 c -0.23323,0 -0.42827,0.04 -0.58497,0.1204 -0.15306,0.08 -0.26968,0.1841 -0.34985,0.3116 -0.0802,0.1239 -0.12041,0.2532 -0.12041,0.3881 0,0.1312 0.0275,0.2499 0.0822,0.3556 0.0547,0.102 0.14582,0.1911 0.27337,0.2676 0.12755,0.073 0.30069,0.1342 0.51934,0.1856 0.21866,0.047 0.38977,0.093 0.51367,0.1369 0.12752,0.044 0.21511,0.093 0.26251,0.1478 0.051,0.055 0.0765,0.1275 0.0765,0.2186 0,0.1385 -0.0601,0.2439 -0.18035,0.3168 -0.12026,0.069 -0.27302,0.1038 -0.45888,0.1038 -0.12755,0 -0.23551,-0.016 -0.32298,-0.049 -0.0838,-0.033 -0.15457,-0.074 -0.21291,-0.1255 -0.0583,-0.051 -0.11124,-0.1017 -0.15864,-0.153 -0.0219,-0.023 -0.0402,-0.037 -0.0548,-0.044 -0.0109,-0.01 -0.0252,-0.011 -0.0434,-0.011 h -0.24598 c -0.0292,0 -0.0587,0.011 -0.0879,0.033 -0.0289,0.022 -0.0416,0.053 -0.0382,0.093 0.004,0.044 0.0276,0.1022 0.0713,0.1752 0.0474,0.073 0.11664,0.1457 0.20774,0.2186 0.0911,0.073 0.20925,0.1347 0.35502,0.186 0.14577,0.051 0.32095,0.077 0.52503,0.077 0.2551,0 0.47,-0.036 0.64492,-0.109 0.17493,-0.077 0.30632,-0.1784 0.39378,-0.306 0.0875,-0.1276 0.13126,-0.2681 0.13126,-0.4211 0,-0.1385 -0.0295,-0.2607 -0.0879,-0.3664 -0.0583,-0.1057 -0.1566,-0.1983 -0.29508,-0.2785 -0.13848,-0.08 -0.32792,-0.1439 -0.56844,-0.1912 -0.2223,-0.051 -0.38983,-0.098 -0.50281,-0.1422 -0.11299,-0.044 -0.18937,-0.093 -0.22944,-0.1478 -0.0401,-0.055 -0.0605,-0.1167 -0.0605,-0.186 0,-0.1166 0.0458,-0.2128 0.13694,-0.2894 0.0911,-0.077 0.22758,-0.1152 0.40979,-0.1152 0.12756,0 0.2294,0.016 0.30593,0.049 0.0802,0.029 0.14432,0.067 0.19172,0.1147 0.051,0.047 0.0948,0.095 0.13126,0.1421 0.0145,0.015 0.0288,0.028 0.0434,0.038 0.0182,0.011 0.0401,0.016 0.0656,0.016 h 0.22945 c 0.0328,0 0.0623,-0.011 0.0879,-0.033 0.0252,-0.025 0.0359,-0.056 0.0325,-0.093 -0.004,-0.047 -0.0271,-0.1054 -0.0708,-0.1747 -0.0437,-0.069 -0.10942,-0.1385 -0.19689,-0.2077 -0.0875,-0.073 -0.19847,-0.133 -0.33331,-0.1804 -0.13484,-0.047 -0.29729,-0.071 -0.4868,-0.071 z m -13.61157,5e-4 c -0.27332,0 -0.50247,0.053 -0.68833,0.1587 -0.18586,0.1056 -0.32998,0.2513 -0.43201,0.4372 -0.0984,0.1858 -0.1534,0.4007 -0.16433,0.6449 -0.003,0.058 -0.005,0.1367 -0.005,0.2351 0,0.095 0.001,0.1731 0.005,0.2351 0.0109,0.2406 0.0659,0.4554 0.16433,0.645 0.0984,0.1858 0.24047,0.3314 0.42633,0.4371 0.18586,0.1057 0.41705,0.1587 0.69401,0.1587 0.27696,0 0.50867,-0.053 0.69453,-0.1587 0.18586,-0.1057 0.32794,-0.2513 0.42633,-0.4371 0.0984,-0.1896 0.15289,-0.4044 0.16382,-0.645 0.003,-0.062 0.005,-0.1404 0.005,-0.2351 0,-0.099 -0.002,-0.1771 -0.005,-0.2351 -0.0109,-0.2442 -0.0675,-0.4591 -0.1695,-0.6449 -0.0984,-0.1859 -0.24047,-0.3316 -0.42633,-0.4372 -0.18585,-0.1058 -0.41553,-0.1587 -0.68885,-0.1587 z m 8.58242,0 c -0.24781,0 -0.46475,0.053 -0.6506,0.1587 -0.18222,0.1056 -0.32581,0.2569 -0.4315,0.4537 -0.10566,0.1931 -0.16627,0.4193 -0.18087,0.678 -0.003,0.047 -0.005,0.1095 -0.005,0.186 0,0.073 0.001,0.133 0.005,0.1804 0.0219,0.4008 0.14409,0.7176 0.36639,0.9508 0.22219,0.2295 0.52352,0.3446 0.90227,0.3447 0.18563,0 0.3515,-0.024 0.49713,-0.071 0.14941,-0.051 0.27316,-0.1147 0.37155,-0.1912 0.10204,-0.077 0.18046,-0.1534 0.23513,-0.23 0.055,-0.08 0.0845,-0.1473 0.0879,-0.202 0.004,-0.037 -0.008,-0.064 -0.0331,-0.082 -0.0219,-0.022 -0.0494,-0.033 -0.0822,-0.033 h -0.26769 c -0.0401,0 -0.0691,0.01 -0.0873,0.016 -0.0182,0.01 -0.0437,0.033 -0.0765,0.077 -0.0182,0.029 -0.0549,0.069 -0.10955,0.1204 -0.0547,0.047 -0.12544,0.091 -0.21291,0.1312 -0.0875,0.04 -0.19695,0.06 -0.32815,0.06 -0.14941,0 -0.2808,-0.04 -0.39377,-0.1204 -0.10931,-0.08 -0.19281,-0.184 -0.25115,-0.3116 -0.0583,-0.1312 -0.0914,-0.2713 -0.0987,-0.4207 v -0.027 -0.022 h 1.89136 c 0.0365,0 0.066,-0.011 0.0879,-0.033 0.0255,-0.022 0.0382,-0.053 0.0382,-0.093 v -0.093 c 0,-0.2879 -0.0494,-0.5389 -0.1478,-0.7539 -0.0984,-0.215 -0.24251,-0.3811 -0.43201,-0.4977 -0.18586,-0.1167 -0.41706,-0.1752 -0.69402,-0.1752 z m 10.89443,0 c -0.19679,0 -0.36433,0.027 -0.50281,0.082 -0.13484,0.051 -0.24585,0.1147 -0.33332,0.1912 -0.0875,0.077 -0.15315,0.155 -0.19688,0.2351 -0.0401,0.08 -0.06,0.1474 -0.06,0.2021 0,0.033 0.009,0.062 0.0274,0.087 0.0219,0.022 0.0524,0.033 0.0925,0.033 h 0.24598 c 0.0547,0 0.0934,-0.027 0.11524,-0.082 0.0401,-0.1022 0.11087,-0.1863 0.21291,-0.2516 0.10204,-0.065 0.23343,-0.098 0.39377,-0.098 0.22595,0 0.38788,0.049 0.48628,0.1473 0.10204,0.098 0.15296,0.2353 0.15296,0.4103 v 0.1581 l -0.81442,0.1152 c -0.32799,0.047 -0.59381,0.1456 -0.79789,0.2951 -0.20408,0.1494 -0.30644,0.3495 -0.30644,0.601 0,0.1567 0.0458,0.2972 0.13695,0.4212 0.0911,0.1238 0.21128,0.2221 0.3607,0.295 0.14941,0.073 0.31543,0.1096 0.49764,0.1096 v -10e-4 c 0.17493,0 0.32209,-0.02 0.44235,-0.06 0.12026,-0.044 0.22059,-0.097 0.30076,-0.1586 0.0802,-0.066 0.1438,-0.1316 0.1912,-0.1969 v 0.2351 c 0,0.037 0.0112,0.068 0.0331,0.093 0.0219,0.022 0.0529,0.033 0.093,0.033 h 0.25115 c 0.0365,0 0.066,-0.011 0.0879,-0.033 0.0255,-0.025 0.0382,-0.056 0.0382,-0.093 v -1.7709 c 0,-0.124 -0.0204,-0.2462 -0.0605,-0.3664 -0.0364,-0.1202 -0.0981,-0.2277 -0.18552,-0.3225 -0.0838,-0.095 -0.20044,-0.1696 -0.34985,-0.2243 -0.14941,-0.058 -0.33376,-0.087 -0.55242,-0.087 z m -72.07984,0.054 c -0.0364,0 -0.0675,0.013 -0.093,0.038 -0.0219,0.021 -0.0326,0.05 -0.0326,0.087 v 2.5911 c 0,0.037 0.0107,0.068 0.0326,0.093 0.0255,0.022 0.0566,0.033 0.093,0.033 h 0.26252 c 0.0365,0 0.0655,-0.011 0.0873,-0.033 0.0255,-0.025 0.0382,-0.056 0.0382,-0.093 v -2.5911 c 0,-0.036 -0.0127,-0.065 -0.0382,-0.087 -0.0219,-0.025 -0.0509,-0.038 -0.0873,-0.038 z m 10.2986,5e-4 c -0.0364,0 -0.0675,0.012 -0.093,0.038 -0.0219,0.021 -0.0325,0.051 -0.0325,0.087 v 2.5911 c 0,0.037 0.0107,0.068 0.0325,0.093 0.0255,0.022 0.0565,0.033 0.093,0.033 h 0.26252 c 0.0365,0 0.0655,-0.011 0.0873,-0.033 0.0255,-0.025 0.0382,-0.056 0.0382,-0.093 v -2.5911 c 0,-0.036 -0.0127,-0.065 -0.0382,-0.087 -0.0219,-0.025 -0.0509,-0.038 -0.0873,-0.038 z m 18.79885,0 c -0.0328,0 -0.0598,0.011 -0.0817,0.033 -0.0219,0.022 -0.0331,0.049 -0.0331,0.082 0,0.019 0.004,0.037 0.0109,0.055 l 1.01131,2.5363 c 0.0183,0.04 0.0422,0.073 0.0713,0.098 0.0328,0.025 0.0766,0.038 0.13126,0.038 h 0.23461 c 0.0583,0 0.10213,-0.013 0.13126,-0.038 0.0328,-0.025 0.0567,-0.058 0.0713,-0.098 l 1.01648,-2.5363 c 0.007,-0.019 0.0114,-0.037 0.0114,-0.055 0,-0.033 -0.0132,-0.06 -0.0388,-0.082 -0.0219,-0.022 -0.0473,-0.033 -0.0765,-0.033 h -0.26768 c -0.0401,0 -0.0712,0.011 -0.093,0.033 -0.0183,0.022 -0.031,0.042 -0.0382,0.06 l -0.83096,2.1539 -0.83096,-2.1539 c -0.007,-0.018 -0.0215,-0.038 -0.0434,-0.06 -0.0219,-0.022 -0.053,-0.033 -0.093,-0.033 z m 3.68453,5e-4 c -0.0364,0 -0.0675,0.012 -0.093,0.038 -0.0219,0.021 -0.0326,0.051 -0.0326,0.087 v 2.591 c 0,0.037 0.0107,0.068 0.0326,0.093 0.0255,0.022 0.0565,0.033 0.093,0.033 h 0.26252 c 0.0365,0 0.0655,-0.011 0.0873,-0.033 0.0255,-0.025 0.0382,-0.056 0.0382,-0.093 v -2.591 c 0,-0.036 -0.0127,-0.065 -0.0382,-0.087 -0.0219,-0.025 -0.0509,-0.038 -0.0873,-0.038 z m 15.05438,5e-4 c -0.0364,0 -0.0675,0.012 -0.093,0.038 -0.0219,0.021 -0.0326,0.051 -0.0326,0.087 v 1.5415 c 0,0.2405 0.0418,0.4539 0.12558,0.6397 0.0838,0.1859 0.20604,0.3316 0.36638,0.4372 0.164,0.1021 0.3626,0.153 0.59583,0.153 0.22959,0 0.41343,-0.038 0.55191,-0.1147 0.14212,-0.077 0.26282,-0.1784 0.36122,-0.306 v 0.2403 c 0,0.037 0.0107,0.068 0.0325,0.093 0.0255,0.022 0.0566,0.033 0.093,0.033 h 0.25683 c 0.0365,0 0.0655,-0.011 0.0873,-0.033 0.0219,-0.025 0.0331,-0.056 0.0331,-0.093 v -2.591 c 0,-0.036 -0.0112,-0.065 -0.0331,-0.087 -0.0219,-0.025 -0.0509,-0.038 -0.0873,-0.038 h -0.27337 c -0.0364,0 -0.0675,0.012 -0.093,0.038 -0.0219,0.021 -0.0326,0.051 -0.0326,0.087 v 1.5141 c 0,0.2551 -0.0692,0.4558 -0.20774,0.6015 -0.13483,0.1421 -0.31511,0.2129 -0.54105,0.2129 -0.47375,0 -0.71055,-0.2714 -0.71055,-0.8144 v -1.5141 c 0,-0.036 -0.0132,-0.065 -0.0388,-0.087 -0.0219,-0.025 -0.0509,-0.038 -0.0873,-0.038 z m 15.81454,0 c -0.0364,0 -0.0675,0.012 -0.093,0.038 -0.0219,0.021 -0.0326,0.051 -0.0326,0.087 v 2.591 c 0,0.037 0.0107,0.068 0.0326,0.093 0.0255,0.022 0.0565,0.033 0.093,0.033 h 0.26251 c 0.0365,0 0.0655,-0.011 0.0873,-0.033 0.0255,-0.025 0.0382,-0.056 0.0382,-0.093 v -2.591 c 0,-0.036 -0.0127,-0.065 -0.0382,-0.087 -0.0219,-0.025 -0.0509,-0.038 -0.0873,-0.038 z m -69.85517,0.3432 c 0.1567,0 0.29114,0.038 0.40411,0.1147 0.11295,0.073 0.19902,0.1727 0.25735,0.3002 0.0619,0.1276 0.0925,0.2738 0.0925,0.4377 v 0.016 h -1.49758 v -0.016 c 0,-0.1639 0.029,-0.3101 0.0873,-0.4377 0.0583,-0.1275 0.14234,-0.2274 0.25166,-0.3002 0.11298,-0.077 0.24792,-0.1147 0.40463,-0.1147 z m 14.03739,0 c 0.1567,0 0.29165,0.038 0.40462,0.1147 0.11295,0.073 0.1985,0.1732 0.25684,0.3007 0.0619,0.1276 0.093,0.2733 0.093,0.4372 v 0.016 h -1.49758 v -0.016 c 0,-0.1639 0.029,-0.3096 0.0873,-0.4372 0.0583,-0.1275 0.14234,-0.2279 0.25167,-0.3007 0.11297,-0.077 0.2474,-0.1147 0.40411,-0.1147 z m 19.14353,5e-4 c 0.15671,0 0.29166,0.038 0.40463,0.1147 0.11295,0.073 0.1985,0.1732 0.25683,0.3007 0.0619,0.1276 0.093,0.2733 0.093,0.4372 v 0.016 h -1.4981 v -0.016 c 0,-0.1639 0.0295,-0.3096 0.0879,-0.4372 0.0583,-0.1275 0.14182,-0.2278 0.25114,-0.3007 0.11298,-0.077 0.24793,-0.1147 0.40463,-0.1147 z m 34.20876,5e-4 c 0.1567,0 0.29166,0.039 0.40463,0.1152 0.11295,0.073 0.1985,0.1727 0.25683,0.3003 0.0619,0.1276 0.093,0.2732 0.093,0.4371 v 0.016 h -1.4981 v -0.016 c 0,-0.1639 0.0295,-0.3095 0.0879,-0.4371 0.0583,-0.1276 0.14182,-0.2274 0.25115,-0.3003 0.11297,-0.077 0.24792,-0.1152 0.40462,-0.1152 z m -39.46219,0.021 c 0.22595,0 0.40673,0.073 0.54157,0.2185 0.13484,0.1422 0.20766,0.352 0.2186,0.629 0.003,0.055 0.005,0.1238 0.005,0.2077 0,0.084 -0.001,0.1531 -0.005,0.2077 -0.0109,0.277 -0.0838,0.4883 -0.2186,0.6341 -0.13484,0.1421 -0.31562,0.2129 -0.54157,0.2129 -0.22594,0 -0.40773,-0.071 -0.54622,-0.2129 -0.13485,-0.1458 -0.20615,-0.3571 -0.21342,-0.6341 -0.003,-0.055 -0.005,-0.1239 -0.005,-0.2077 0,-0.084 0.002,-0.1531 0.005,-0.2077 0.007,-0.277 0.0786,-0.4868 0.21342,-0.629 0.13849,-0.1457 0.32028,-0.2185 0.54622,-0.2185 z m 30.87977,5e-4 c 0.22594,0 0.40673,0.073 0.54157,0.2186 0.13484,0.1421 0.20766,0.3519 0.21859,0.6289 0.003,0.055 0.005,0.1238 0.005,0.2077 0,0.084 -10e-4,0.1531 -0.005,0.2077 -0.0109,0.277 -0.0837,0.4883 -0.21859,0.6341 -0.13484,0.1421 -0.31563,0.2134 -0.54157,0.2134 -0.22594,0 -0.40774,-0.071 -0.54622,-0.2134 -0.13486,-0.1458 -0.20615,-0.3571 -0.21342,-0.6341 -0.003,-0.055 -0.005,-0.1239 -0.005,-0.2077 0,-0.084 0.002,-0.1531 0.005,-0.2077 0.007,-0.277 0.0786,-0.4868 0.21342,-0.6289 0.13848,-0.1458 0.32028,-0.2186 0.54622,-0.2186 z m -35.50429,1.0655 v 0.153 c 0,0.2041 -0.0362,0.3737 -0.10904,0.5085 -0.0692,0.1351 -0.16599,0.2354 -0.2899,0.3008 -0.12391,0.062 -0.26038,0.092 -0.4098,0.092 -0.0984,0 -0.19515,-0.016 -0.2899,-0.049 -0.0911,-0.033 -0.16751,-0.082 -0.22944,-0.1473 -0.0583,-0.069 -0.0873,-0.1548 -0.0873,-0.2568 0,-0.1312 0.0652,-0.2392 0.19637,-0.323 0.1312,-0.087 0.32624,-0.1489 0.58498,-0.1855 z m 24.74681,0 v 0.1535 c 0,0.2041 -0.0367,0.3732 -0.10955,0.508 -0.0693,0.1351 -0.16601,0.2354 -0.28991,0.3008 -0.12391,0.062 -0.26038,0.093 -0.40979,0.093 -0.0984,0 -0.19516,-0.016 -0.28991,-0.049 -0.0911,-0.033 -0.16751,-0.082 -0.22944,-0.1478 -0.0583,-0.069 -0.0873,-0.1548 -0.0873,-0.2568 0,-0.1312 0.0657,-0.2387 0.19688,-0.3225 0.1312,-0.087 0.32624,-0.1494 0.58498,-0.186 z m 30.8684,6e-4 v 0.1534 c 0,0.2041 -0.0362,0.3732 -0.10904,0.508 -0.0692,0.1352 -0.166,0.2354 -0.2899,0.3008 -0.12391,0.062 -0.26038,0.093 -0.4098,0.093 -0.0984,0 -0.19516,-0.016 -0.2899,-0.049 -0.0911,-0.033 -0.16751,-0.082 -0.22945,-0.1478 -0.0583,-0.069 -0.0873,-0.1548 -0.0873,-0.2568 0,-0.1312 0.0652,-0.2387 0.19637,-0.3225 0.1312,-0.087 0.32624,-0.1494 0.58498,-0.186 z m -83.0125,4.5904 c -0.0364,0 -0.0675,0.012 -0.093,0.038 -0.0219,0.025 -0.0331,0.056 -0.0331,0.093 v 0.2951 c 0,0.037 0.0112,0.068 0.0331,0.093 0.0255,0.022 0.0566,0.033 0.093,0.033 h 0.34985 c 0.0364,0 0.067,-0.011 0.0925,-0.033 0.0255,-0.025 0.0382,-0.056 0.0382,-0.093 v -0.2951 c 0,-0.037 -0.0127,-0.068 -0.0382,-0.093 -0.0255,-0.025 -0.056,-0.038 -0.0925,-0.038 z m 6.92051,0 c -0.0364,0 -0.0675,0.012 -0.093,0.038 -0.0219,0.025 -0.0331,0.056 -0.0331,0.093 v 0.2951 c 0,0.037 0.0112,0.068 0.0331,0.093 0.0255,0.022 0.0566,0.033 0.093,0.033 h 0.34416 c 0.0364,0 0.0675,-0.011 0.093,-0.033 0.0255,-0.025 0.0382,-0.056 0.0382,-0.093 v -0.2951 c 0,-0.037 -0.0127,-0.068 -0.0382,-0.093 -0.0255,-0.025 -0.0566,-0.038 -0.093,-0.038 z m 12.41422,0 c -0.0364,0 -0.0675,0.012 -0.093,0.038 -0.0219,0.025 -0.0331,0.056 -0.0331,0.093 v 0.2951 c 0,0.037 0.0112,0.068 0.0331,0.093 0.0255,0.022 0.0566,0.033 0.093,0.033 h 0.34417 c 0.0364,0 0.0675,-0.011 0.093,-0.033 0.0255,-0.025 0.0382,-0.056 0.0382,-0.093 v -0.2951 c 0,-0.037 -0.0127,-0.068 -0.0382,-0.093 -0.0255,-0.025 -0.0566,-0.038 -0.093,-0.038 z m -8.71368,0.044 c -0.0364,0 -0.0675,0.012 -0.093,0.038 -0.0219,0.021 -0.0326,0.051 -0.0326,0.087 v 1.2573 c -0.0911,-0.113 -0.20773,-0.2078 -0.34985,-0.2843 -0.14213,-0.077 -0.32087,-0.1147 -0.53588,-0.1147 -0.20044,0 -0.37358,0.036 -0.51935,0.1091 -0.14577,0.069 -0.26596,0.166 -0.3607,0.2899 -0.0911,0.1239 -0.16034,0.2639 -0.20774,0.4206 -0.0437,0.1567 -0.0692,0.3207 -0.0765,0.492 -0.003,0.058 -0.005,0.113 -0.005,0.1643 0,0.051 0.002,0.1058 0.005,0.1638 0.007,0.1749 0.0327,0.341 0.0765,0.4977 0.0474,0.1567 0.11663,0.2967 0.20774,0.4206 0.0947,0.1203 0.21493,0.217 0.3607,0.2899 0.14577,0.069 0.31891,0.1039 0.51935,0.1039 0.21865,0 0.40096,-0.038 0.54673,-0.1147 0.14577,-0.08 0.26391,-0.179 0.35502,-0.2956 v 0.2299 c 0,0.037 0.0112,0.068 0.0331,0.093 0.0219,0.022 0.0529,0.033 0.093,0.033 h 0.24598 c 0.0365,0 0.0655,-0.011 0.0873,-0.033 0.0255,-0.025 0.0382,-0.056 0.0382,-0.093 v -3.6297 c 0,-0.036 -0.0127,-0.065 -0.0382,-0.087 -0.0219,-0.025 -0.0509,-0.038 -0.0873,-0.038 z m 13.92835,0 c -0.0364,0 -0.0675,0.012 -0.093,0.038 -0.0219,0.021 -0.0326,0.051 -0.0326,0.087 v 0.9126 h -0.42633 c -0.0364,0 -0.0675,0.013 -0.093,0.038 -0.0219,0.021 -0.0331,0.05 -0.0331,0.087 v 0.1861 c 0,0.037 0.0112,0.068 0.0331,0.093 0.0255,0.022 0.0566,0.033 0.093,0.033 h 0.42633 v 1.4428 c 0,0.1968 0.029,0.3684 0.0873,0.5141 0.0583,0.1422 0.15151,0.2532 0.27906,0.3334 0.12754,0.077 0.29304,0.1147 0.49712,0.1147 l 0.37724,-5e-4 c 0.0365,0 0.0655,-0.011 0.0873,-0.033 0.0255,-0.025 0.0388,-0.056 0.0388,-0.093 v -0.1964 c 0,-0.036 -0.0132,-0.065 -0.0388,-0.087 -0.0219,-0.025 -0.0509,-0.038 -0.0873,-0.038 h -0.33331 c -0.14939,0 -0.25328,-0.049 -0.31161,-0.1477 -0.0583,-0.098 -0.0873,-0.2334 -0.0873,-0.4047 v -1.4045 h 0.67747 c 0.0401,0 0.0712,-0.011 0.093,-0.033 0.0219,-0.025 0.0331,-0.056 0.0331,-0.093 v -0.1861 c 0,-0.036 -0.0112,-0.065 -0.0331,-0.087 -0.0219,-0.025 -0.053,-0.038 -0.093,-0.038 h -0.67747 v -0.9126 c 0,-0.036 -0.0132,-0.065 -0.0388,-0.087 -0.0219,-0.025 -0.0509,-0.038 -0.0873,-0.038 z m -2.60759,0.9824 c -0.23323,0 -0.42775,0.04 -0.58446,0.1204 -0.15305,0.08 -0.26968,0.1841 -0.34985,0.3116 -0.0802,0.1239 -0.12041,0.2533 -0.12041,0.3881 0,0.1312 0.0275,0.2493 0.0822,0.355 0.0547,0.1021 0.1453,0.1917 0.27285,0.2682 0.12755,0.072 0.30069,0.1342 0.51935,0.1855 0.21865,0.047 0.39027,0.093 0.51418,0.137 0.12753,0.044 0.2146,0.093 0.262,0.1472 0.051,0.055 0.077,0.128 0.077,0.2192 0,0.1384 -0.0606,0.2439 -0.18087,0.3167 -0.12027,0.069 -0.27303,0.1039 -0.45889,0.1039 -0.12755,0 -0.235,-0.016 -0.32246,-0.049 -0.0838,-0.032 -0.15509,-0.074 -0.21342,-0.1256 -0.0583,-0.051 -0.11125,-0.1016 -0.15865,-0.1529 -0.0219,-0.023 -0.0397,-0.037 -0.0543,-0.044 -0.0109,-0.01 -0.0257,-0.011 -0.0439,-0.011 h -0.24598 c -0.0292,0 -0.0582,0.011 -0.0873,0.033 -0.0289,0.022 -0.0416,0.053 -0.0382,0.093 0.004,0.044 0.0271,0.1022 0.0708,0.1752 0.0474,0.073 0.11663,0.1457 0.20774,0.2185 0.0911,0.073 0.20976,0.1347 0.35553,0.1861 0.14577,0.051 0.32044,0.077 0.52452,0.077 v 5e-4 c 0.2551,0 0.47051,-0.037 0.64544,-0.1096 0.17492,-0.077 0.30579,-0.1784 0.39325,-0.3059 0.0875,-0.1276 0.13126,-0.2681 0.13126,-0.4211 0,-0.1386 -0.029,-0.2608 -0.0873,-0.3664 -0.0583,-0.1057 -0.15659,-0.1984 -0.29507,-0.2786 -0.13848,-0.08 -0.32844,-0.1438 -0.56896,-0.1912 -0.2223,-0.051 -0.38984,-0.098 -0.50281,-0.1421 -0.11299,-0.044 -0.18938,-0.093 -0.22944,-0.1478 -0.0401,-0.055 -0.0599,-0.1167 -0.0599,-0.186 0,-0.1166 0.0453,-0.2129 0.13643,-0.2894 0.0911,-0.077 0.22809,-0.1147 0.41031,-0.1147 0.12754,0 0.22939,0.016 0.30592,0.049 0.0802,0.029 0.1438,0.068 0.1912,0.1152 0.051,0.047 0.0948,0.095 0.13126,0.1421 0.0145,0.015 0.0293,0.027 0.0439,0.038 0.0182,0.011 0.0401,0.016 0.0656,0.016 h 0.22944 c 0.0328,0 0.0618,-0.011 0.0873,-0.033 0.0252,-0.025 0.0364,-0.056 0.0331,-0.093 -0.004,-0.047 -0.0276,-0.1054 -0.0713,-0.1747 -0.0437,-0.069 -0.10942,-0.1385 -0.19688,-0.2077 -0.0875,-0.073 -0.19848,-0.1331 -0.33332,-0.1804 -0.13484,-0.047 -0.29729,-0.071 -0.48679,-0.071 z m -19.19779,5e-4 c -0.19679,0 -0.36433,0.028 -0.50282,0.082 -0.13483,0.051 -0.24636,0.1146 -0.33383,0.1912 -0.0875,0.077 -0.15263,0.155 -0.19637,0.2351 -0.0401,0.08 -0.0605,0.1474 -0.0605,0.2021 0,0.033 0.009,0.062 0.0274,0.087 0.0219,0.022 0.0529,0.033 0.093,0.033 h 0.24598 c 0.0547,0 0.0928,-0.027 0.11472,-0.082 0.0401,-0.1023 0.11138,-0.1863 0.21342,-0.2517 0.10204,-0.065 0.23292,-0.098 0.39326,-0.098 0.22595,0 0.3884,0.049 0.48679,0.1472 0.10204,0.098 0.15297,0.2354 0.15297,0.4104 v 0.1581 l -0.81442,0.1152 c -0.32799,0.047 -0.59433,0.1457 -0.79841,0.2951 -0.20408,0.1494 -0.30592,0.3495 -0.30592,0.601 0,0.1567 0.0453,0.2972 0.13643,0.4212 0.0911,0.1239 0.2118,0.2222 0.36121,0.295 0.14942,0.073 0.31492,0.1096 0.49713,0.1096 v 0 c 0.17493,0 0.32261,-0.02 0.44287,-0.06 0.12026,-0.044 0.22058,-0.096 0.30076,-0.1581 0.0802,-0.066 0.1438,-0.1316 0.1912,-0.1969 v 0.2351 c 0,0.037 0.0107,0.068 0.0326,0.093 0.0219,0.022 0.053,0.033 0.093,0.033 h 0.25167 c 0.0365,0 0.0655,-0.011 0.0873,-0.033 0.0255,-0.025 0.0382,-0.056 0.0382,-0.093 v -1.7715 c 0,-0.1238 -0.0199,-0.2456 -0.0599,-0.3658 -0.0364,-0.1203 -0.0986,-0.2282 -0.18604,-0.323 -0.0838,-0.095 -0.20044,-0.1691 -0.34985,-0.2238 -0.14941,-0.058 -0.33324,-0.087 -0.5519,-0.087 z m 25.06358,0 c -0.19679,0 -0.36433,0.028 -0.50281,0.082 -0.13484,0.051 -0.24637,0.1146 -0.33383,0.1912 -0.0875,0.077 -0.15315,0.155 -0.19689,0.2351 -0.0401,0.08 -0.0599,0.1474 -0.0599,0.2021 0,0.033 0.009,0.062 0.0274,0.087 0.0219,0.022 0.053,0.033 0.093,0.033 h 0.24598 c 0.0547,0 0.0929,-0.027 0.11473,-0.082 0.0401,-0.1023 0.11086,-0.1863 0.2129,-0.2517 0.10204,-0.065 0.23343,-0.098 0.39378,-0.098 0.22594,0 0.3884,0.049 0.48679,0.1472 0.10204,0.098 0.15296,0.2354 0.15296,0.4104 v 0.1581 l -0.81442,0.1152 c -0.32798,0.047 -0.59432,0.1457 -0.7984,0.2951 -0.20408,0.1494 -0.30592,0.3495 -0.30592,0.601 0,0.1567 0.0453,0.2972 0.13642,0.4212 0.0911,0.1239 0.21129,0.2222 0.3607,0.295 0.14942,0.073 0.31543,0.1096 0.49765,0.1096 v 0 c 0.17492,0 0.3226,-0.02 0.44286,-0.06 0.12027,-0.044 0.22059,-0.096 0.30076,-0.1581 0.0802,-0.066 0.1438,-0.1316 0.1912,-0.1969 v 0.2351 c 0,0.037 0.0107,0.068 0.0326,0.093 0.0219,0.022 0.053,0.033 0.093,0.033 h 0.25166 c 0.0365,0 0.0655,-0.011 0.0873,-0.033 0.0255,-0.025 0.0382,-0.056 0.0382,-0.093 v -1.7715 c 0,-0.1238 -0.0199,-0.2456 -0.0599,-0.3658 -0.0364,-0.1203 -0.0986,-0.2282 -0.18603,-0.323 -0.0838,-0.095 -0.20044,-0.1691 -0.34985,-0.2238 -0.14942,-0.058 -0.33326,-0.087 -0.55191,-0.087 z m -14.44253,5e-4 c -0.2478,0 -0.46474,0.052 -0.6506,0.1582 -0.18222,0.1056 -0.32581,0.2569 -0.4315,0.4537 -0.10566,0.1931 -0.16575,0.4192 -0.18035,0.678 -0.003,0.047 -0.005,0.1095 -0.005,0.186 0,0.073 0.002,0.133 0.005,0.1804 0.0219,0.4008 0.14357,0.7176 0.36587,0.9508 0.2223,0.2296 0.52326,0.3447 0.90227,0.3447 0.18585,0 0.35135,-0.024 0.49712,-0.071 0.14942,-0.051 0.27316,-0.1147 0.37156,-0.1912 0.10203,-0.077 0.18046,-0.1534 0.23513,-0.23 0.055,-0.08 0.0845,-0.1474 0.0878,-0.202 0.004,-0.037 -0.008,-0.064 -0.0331,-0.082 -0.0219,-0.022 -0.0489,-0.033 -0.0816,-0.033 h -0.2682 c -0.0401,0 -0.0691,0 -0.0873,0.016 -0.0182,0.01 -0.0437,0.033 -0.0765,0.077 -0.0182,0.029 -0.0549,0.069 -0.10955,0.1204 -0.0547,0.048 -0.12545,0.091 -0.21291,0.1313 -0.0875,0.04 -0.19695,0.06 -0.32815,0.06 -0.14941,0 -0.2808,-0.04 -0.39377,-0.1205 -0.1093,-0.08 -0.19282,-0.1835 -0.25115,-0.311 -0.0583,-0.1312 -0.0914,-0.2717 -0.0987,-0.4212 v -0.027 -0.022 h 1.89136 c 0.0365,0 0.066,-0.011 0.0878,-0.033 0.0255,-0.022 0.0382,-0.053 0.0382,-0.093 v -0.093 c 0,-0.2879 -0.0494,-0.539 -0.1478,-0.754 -0.0984,-0.215 -0.24199,-0.381 -0.4315,-0.4976 -0.18585,-0.1166 -0.41756,-0.1747 -0.69453,-0.1747 z m 3.50418,0 c -0.27332,0 -0.50299,0.052 -0.68884,0.1582 -0.18586,0.1056 -0.32998,0.2518 -0.43202,0.4376 -0.0984,0.1859 -0.15288,0.4008 -0.16381,0.645 -0.003,0.058 -0.005,0.1367 -0.005,0.2351 0,0.095 0.002,0.1726 0.005,0.2346 0.0109,0.2405 0.0654,0.4559 0.16381,0.6454 0.0984,0.1859 0.24047,0.3316 0.42633,0.4372 0.18585,0.1057 0.41757,0.1587 0.69453,0.1587 0.27697,0 0.50816,-0.053 0.69402,-0.1587 0.18586,-0.1056 0.32793,-0.2513 0.42633,-0.4372 0.0984,-0.1895 0.15339,-0.4049 0.16433,-0.6454 0.003,-0.062 0.005,-0.1399 0.005,-0.2346 0,-0.099 -0.001,-0.1771 -0.005,-0.2351 -0.0109,-0.2442 -0.0675,-0.4591 -0.1695,-0.645 -0.0984,-0.1858 -0.24048,-0.332 -0.42633,-0.4376 -0.18586,-0.1057 -0.41553,-0.1582 -0.68885,-0.1582 z m -9.90534,0.055 c -0.0364,0 -0.0675,0.013 -0.093,0.038 -0.0219,0.021 -0.0326,0.05 -0.0326,0.087 v 2.591 c 0,0.037 0.0107,0.068 0.0326,0.093 0.0255,0.022 0.0566,0.033 0.093,0.033 h 0.26252 c 0.0365,0 0.0655,-0.011 0.0873,-0.033 0.0255,-0.025 0.0382,-0.056 0.0382,-0.093 v -2.591 c 0,-0.036 -0.0127,-0.065 -0.0382,-0.087 -0.0219,-0.025 -0.0509,-0.038 -0.0873,-0.038 z m 12.41423,0 c -0.0364,0 -0.0675,0.013 -0.093,0.038 -0.0219,0.021 -0.0325,0.05 -0.0325,0.087 v 2.591 c 0,0.037 0.0107,0.068 0.0325,0.093 0.0255,0.022 0.0566,0.033 0.093,0.033 h 0.26252 c 0.0365,0 0.0655,-0.011 0.0873,-0.033 0.0255,-0.025 0.0382,-0.056 0.0382,-0.093 v -2.591 c 0,-0.036 -0.0127,-0.065 -0.0382,-0.087 -0.0219,-0.025 -0.0509,-0.038 -0.0873,-0.038 z m -19.33473,5e-4 c -0.0364,0 -0.0675,0.013 -0.093,0.038 -0.0219,0.021 -0.0326,0.05 -0.0326,0.087 v 2.7765 c 0,0.098 -0.0112,0.1881 -0.0331,0.2682 -0.0182,0.084 -0.058,0.1496 -0.11989,0.1969 -0.0619,0.051 -0.15871,0.077 -0.2899,0.077 h -0.0765 c -0.0365,0 -0.0655,0.011 -0.0873,0.033 -0.0255,0.025 -0.0382,0.056 -0.0382,0.093 v 0.186 c 0,0.036 0.0127,0.065 0.0382,0.087 0.0219,0.025 0.0509,0.038 0.0873,0.038 h 0.10387 c 0.23324,0 0.41707,-0.042 0.55191,-0.1256 0.13481,-0.08 0.23157,-0.1932 0.2899,-0.339 0.0619,-0.1457 0.093,-0.3153 0.093,-0.5085 v -2.7822 c 0,-0.036 -0.0127,-0.065 -0.0382,-0.087 -0.0219,-0.025 -0.0514,-0.038 -0.0878,-0.038 z m 13.32166,0.3437 c 0.15671,0 0.29166,0.039 0.40463,0.1152 0.11295,0.073 0.1985,0.1732 0.25683,0.3008 0.0619,0.1275 0.093,0.2731 0.093,0.4371 v 0.016 h -1.49758 v -0.016 c 0,-0.164 0.029,-0.3096 0.0873,-0.4371 0.0583,-0.1276 0.14182,-0.2279 0.25115,-0.3008 0.11297,-0.077 0.24792,-0.1152 0.40462,-0.1152 z m 3.50418,0.022 c 0.22595,0 0.40622,0.073 0.54105,0.2186 0.13484,0.1421 0.20766,0.3519 0.2186,0.6289 0.003,0.055 0.005,0.1239 0.005,0.2077 0,0.084 -0.002,0.1531 -0.005,0.2077 -0.0109,0.277 -0.0838,0.4884 -0.2186,0.6341 -0.13483,0.1421 -0.3151,0.2129 -0.54105,0.2129 -0.22594,0 -0.40825,-0.071 -0.54673,-0.2129 -0.13486,-0.1457 -0.20616,-0.3571 -0.21343,-0.6341 -0.003,-0.055 -0.005,-0.1239 -0.005,-0.2077 0,-0.084 0.001,-0.1531 0.005,-0.2077 0.007,-0.277 0.0786,-0.4868 0.21343,-0.6289 0.13848,-0.1458 0.32079,-0.2186 0.54673,-0.2186 z m -7.14478,0.022 c 0.17493,0 0.317,0.04 0.42633,0.1204 0.11297,0.08 0.197,0.182 0.25166,0.3059 0.0586,0.1239 0.0897,0.2497 0.093,0.3772 0.003,0.058 0.005,0.1297 0.005,0.2135 0,0.08 -0.001,0.1497 -0.005,0.2077 -0.004,0.1349 -0.0332,0.2677 -0.0879,0.3989 -0.0547,0.1276 -0.13665,0.2335 -0.24598,0.3173 -0.10933,0.084 -0.25497,0.1256 -0.43718,0.1256 -0.18585,0 -0.33354,-0.04 -0.44287,-0.1204 -0.1093,-0.084 -0.18721,-0.1913 -0.23461,-0.3225 -0.0474,-0.1348 -0.0749,-0.2789 -0.0822,-0.432 -0.003,-0.1056 -0.003,-0.2111 0,-0.3167 0.007,-0.1531 0.0348,-0.2952 0.0822,-0.4264 0.0474,-0.1348 0.12528,-0.2423 0.23461,-0.3224 0.10933,-0.084 0.25702,-0.1261 0.44287,-0.1261 z m -6.34638,1.0444 v 0.1529 c 0,0.2041 -0.0367,0.3736 -0.10956,0.5085 -0.0692,0.1351 -0.16549,0.2349 -0.28939,0.3002 -0.1239,0.062 -0.26089,0.093 -0.41031,0.093 -0.0984,0 -0.19464,-0.016 -0.28938,-0.049 -0.0911,-0.033 -0.16803,-0.082 -0.22996,-0.1478 -0.0583,-0.069 -0.0873,-0.1548 -0.0873,-0.2569 0,-0.1312 0.0657,-0.2386 0.19689,-0.3224 0.13119,-0.087 0.32624,-0.1494 0.58498,-0.186 z m 25.06358,0 v 0.1529 c 0,0.2041 -0.0367,0.3736 -0.10955,0.5085 -0.0692,0.1351 -0.16548,0.2349 -0.28939,0.3002 -0.12391,0.062 -0.2609,0.093 -0.41031,0.093 -0.0984,0 -0.19464,-0.016 -0.28939,-0.049 -0.0911,-0.033 -0.16803,-0.082 -0.22996,-0.1478 -0.0583,-0.069 -0.0873,-0.1548 -0.0873,-0.2569 0,-0.1312 0.0657,-0.2386 0.19688,-0.3224 0.1312,-0.087 0.32624,-0.1494 0.58498,-0.186 z" /></g></svg>
