<?xml version="1.0" encoding="UTF-8" standalone="no"?>
<!-- Created with Inkscape (http://www.inkscape.org/) -->

<svg
   sodipodi:docname="printical.fi new design.svg"
   xml:space="preserve"
   inkscape:version="1.3.2 (091e20e, 2023-11-25, custom)"
   id="svg5"
   version="1.1"
   viewBox="0 0 89.184219 38.297402"
   height="144.74609"
   width="337.07422"
   inkscape:export-filename="tausta.png"
   inkscape:export-xdpi="96"
   inkscape:export-ydpi="96"
   xmlns:inkscape="http://www.inkscape.org/namespaces/inkscape"
   xmlns:sodipodi="http://sodipodi.sourceforge.net/DTD/sodipodi-0.dtd"
   xmlns="http://www.w3.org/2000/svg"
   xmlns:svg="http://www.w3.org/2000/svg"><sodipodi:namedview
     id="namedview7"
     pagecolor="#262626"
     bordercolor="#ffffff"
     borderopacity="1"
     inkscape:pageshadow="0"
     inkscape:pageopacity="0"
     inkscape:pagecheckerboard="false"
     inkscape:document-units="px"
     showgrid="false"
     units="px"
     inkscape:snap-page="true"
     inkscape:showpageshadow="false"
     inkscape:deskcolor="#262626"
     borderlayer="true"
     inkscape:zoom="0.70710678"
     inkscape:cx="1156.8267"
     inkscape:cy="4025.5589"
     inkscape:window-width="1920"
     inkscape:window-height="1057"
     inkscape:window-x="-8"
     inkscape:window-y="-8"
     inkscape:window-maximized="1"
     inkscape:current-layer="layer6"
     showguides="false"><inkscape:grid
       id="grid274"
       units="px"
       originx="-330.75501"
       originy="-977.03387"
       spacingx="5.08"
       spacingy="2.8575"
       empcolor="#004ebc"
       empopacity="0.30196078"
       color="#e56900"
       opacity="0.14901961"
       empspacing="10"
       dotted="false"
       gridanglex="30"
       gridanglez="30"
       visible="false" /><sodipodi:guide
       position="-76.755,2120.034"
       orientation="1,0"
       id="guide2"
       inkscape:locked="false" /><sodipodi:guide
       position="-279.95499,2175.0673"
       orientation="0,-1"
       id="guide16"
       inkscape:locked="false" /><sodipodi:guide
       position="-330.755,1940.1173"
       orientation="0,-1"
       id="guide84"
       inkscape:locked="false" /><sodipodi:guide
       position="-256.40708,1990.9173"
       orientation="0,-1"
       id="guide139"
       inkscape:locked="false" /><sodipodi:guide
       position="-292.655,2113.6311"
       orientation="1,0"
       id="guide161"
       inkscape:locked="false" /><sodipodi:guide
       position="139.14503,2113.684"
       orientation="1,0"
       id="guide162"
       inkscape:locked="false" /><sodipodi:guide
       position="-330.75497,2187.9326"
       orientation="0,-1"
       id="guide200"
       inkscape:locked="false" /><sodipodi:guide
       position="-48.84145,2194.2935"
       orientation="0,-1"
       id="guide52"
       inkscape:locked="false" /><sodipodi:guide
       position="-474.29819,2167.1298"
       orientation="1,0"
       id="guide133"
       inkscape:locked="false" /><sodipodi:guide
       position="-693.37317,2137.9122"
       orientation="0,-1"
       id="guide134"
       inkscape:locked="false" /><sodipodi:guide
       position="-262.5387,1923.8889"
       orientation="1,0"
       id="guide173"
       inkscape:locked="false" /><sodipodi:guide
       position="109.0287,1923.8889"
       orientation="1,0"
       id="guide174"
       inkscape:locked="false" /></sodipodi:namedview><defs
     id="defs2" /><g
     inkscape:groupmode="layer"
     id="layer6"
     inkscape:label="Layer 6"
     transform="translate(-330.755,-977.03389)"><path
       id="path49"
       style="display:inline;fill:#ff671a;fill-opacity:1;stroke-width:0.999997"
       d="m 341.04429,977.03387 c -9.78561,0 -9.90992,0.002 -10.09034,0.18242 -0.14188,0.14205 -0.18242,0.30457 -0.18242,0.7307 0,0.82311 0.12608,0.91312 1.27847,0.91312 h 0.91313 v 0.55139 c 0,0.3553 -0.053,0.63147 -0.14883,0.77773 -0.22947,0.35011 -0.12344,0.99744 0.21911,1.33997 0.34254,0.34255 0.98985,0.44853 1.33997,0.21911 0.19706,-0.12913 0.59327,-0.14883 3.01532,-0.14883 h 2.78794 v 0.54519 c 0,0.48239 -0.0473,0.62535 -0.41083,1.24023 -0.22597,0.38225 -0.41083,0.73062 -0.41083,0.77412 0,0.0434 0.15007,0.33481 0.33332,0.6475 l 0.33279,0.56844 -0.35243,0.65888 c -0.30236,0.56443 -0.33561,0.68007 -0.23099,0.80615 l 0.002,5.2e-4 c 0.10316,0.12438 0.35296,0.14727 1.60662,0.14727 1.87274,0 1.88247,-0.007 1.37562,-0.95343 l -0.35295,-0.65887 0.33332,-0.56844 c 0.18325,-0.3127 0.33331,-0.60401 0.33331,-0.64751 0,-0.0434 -0.18481,-0.39185 -0.41083,-0.77411 -0.37918,-0.64095 -0.41424,-0.74246 -0.40824,-1.30845 0.002,-0.3943 0.0508,-0.67729 0.13694,-0.79116 0.17229,-0.22982 0.17035,-0.8094 -0.006,-1.1498 -0.25661,-0.49618 -1.12296,-0.71998 -1.57097,-0.40618 -0.16784,0.11715 -0.61354,0.13419 -2.96519,0.11369 l -2.76727,-0.0238 -0.0279,-0.47956 -0.0274,-0.47956 0.7121,-0.002 c 0.78254,-0.002 0.97575,-0.0702 0.92605,-0.32918 -0.0312,-0.16228 -0.16902,-0.17285 -2.52026,-0.19585 l -2.48719,-0.0243 v -0.3638 -0.3638 h 9.72499 9.72447 v 0.36535 0.36535 h -6.7598 c -5.94987,0 -6.76662,0.0164 -6.81302,0.13798 -0.0292,0.076 -0.002,0.19919 0.06,0.27388 0.0979,0.1179 1.00427,0.13591 6.90397,0.13591 6.66989,0 6.79494,-0.003 6.97425,-0.18241 0.26139,-0.26138 0.26139,-1.20001 0,-1.46141 -0.18037,-0.18062 -0.30416,-0.18242 -10.08982,-0.18242 z m -7.53339,1.82624 h 0.36535 0.36535 v 0.36536 0.36535 h -0.36535 -0.36535 v -0.36535 z m 0.34003,1.28416 c 0.16599,0.003 0.32802,0.0572 0.42219,0.16123 0.20051,0.22164 0.19202,0.68091 -0.016,0.8692 -0.37992,0.3438 -1.0201,0.0464 -1.0201,-0.47387 0,-0.14287 0.0751,-0.32773 0.16692,-0.41083 0.11082,-0.10027 0.281,-0.14876 0.447,-0.14573 z m 7.21351,0 c 0.16599,0.003 0.32805,0.0572 0.4222,0.16123 0.20051,0.22164 0.19202,0.68091 -0.016,0.8692 -0.22163,0.20055 -0.68038,0.19205 -0.86868,-0.016 -0.20056,-0.22163 -0.19202,-0.68038 0.016,-0.86868 0.11081,-0.10027 0.28049,-0.14876 0.44648,-0.14573 z m -6.09265,0.2682 h 2.46548 2.46549 v 0.31988 0.31936 h -2.46549 -2.46548 v -0.31936 z m 6.0725,1.4609 c 0.31957,0 0.31936,0.002 0.31936,0.41082 0,0.40891 -0.001,0.41083 -0.31936,0.41083 -0.31957,0 -0.31988,-0.002 -0.31988,-0.41083 0,-0.4089 0.002,-0.41082 0.31988,-0.41082 z m -0.60565,1.41541 h 0.60565 0.60565 l 0.24236,0.42737 c 0.2379,0.4193 0.2396,0.43254 0.0868,0.75292 -0.0856,0.17946 -0.18991,0.3266 -0.23151,0.3266 -0.0417,0 -0.14342,-0.14137 -0.22582,-0.31419 -0.28485,-0.59743 -0.72233,-0.58148 -0.97824,0.0362 v 5.2e-4 c -0.14937,0.36074 -0.24388,0.34975 -0.43408,-0.0491 -0.15282,-0.32038 -0.15115,-0.33362 0.0868,-0.75292 z m 0.60565,1.50689 c 0.0424,0 0.9586,1.6028 0.9586,1.6769 0,0.0316 -0.43125,0.0579 -0.9586,0.0579 -0.52734,0 -0.95912,-0.0262 -0.95912,-0.0579 0,-0.0741 0.91662,-1.6769 0.95912,-1.6769 z m 28.04221,2.00814 c -0.0364,0 -0.067,0.0148 -0.0925,0.0439 -0.0255,0.0255 -0.0388,0.0581 -0.0388,0.0982 v 0.43718 c 0,0.0401 0.0132,0.0732 0.0388,0.0987 0.0255,0.0255 0.056,0.0382 0.0925,0.0382 h 0.60152 c 0.0401,0 0.0727,-0.0127 0.0982,-0.0382 0.0255,-0.0255 0.0382,-0.0586 0.0382,-0.0987 v -0.43718 c 0,-0.0401 -0.0127,-0.0727 -0.0382,-0.0982 -0.0255,-0.0291 -0.0581,-0.0439 -0.0982,-0.0439 z m -9.1121,0.11473 c -0.30248,0 -0.56321,0.0494 -0.78187,0.14779 -0.21866,0.0947 -0.38823,0.22766 -0.50849,0.39894 -0.12026,0.16764 -0.18035,0.36064 -0.18035,0.5793 0,0.21865 0.0473,0.403 0.14211,0.55242 0.0984,0.14577 0.24251,0.26595 0.43201,0.3607 0.19315,0.0911 0.42638,0.16594 0.6997,0.22427 0.22595,0.0546 0.40621,0.10557 0.54105,0.15297 0.1385,0.0473 0.23883,0.10031 0.30076,0.15864 0.0656,0.0583 0.0982,0.1347 0.0982,0.22945 0,0.13119 -0.0601,0.23507 -0.18035,0.31161 -0.11661,0.0765 -0.29332,0.11472 -0.5302,0.11472 -0.14576,0 -0.26798,-0.0183 -0.36638,-0.0548 -0.0984,-0.0401 -0.17628,-0.0895 -0.23461,-0.14779 -0.0546,-0.0583 -0.0949,-0.11842 -0.12041,-0.18036 -0.0219,-0.0292 -0.0458,-0.0526 -0.0713,-0.0708 -0.0255,-0.0219 -0.0616,-0.0331 -0.10904,-0.0331 h -0.58498 c -0.0328,0 -0.0603,0.0127 -0.0822,0.0382 -0.0219,0.0219 -0.0326,0.0473 -0.0326,0.0765 0.007,0.18585 0.0709,0.36104 0.1912,0.52503 0.12026,0.16399 0.29697,0.2969 0.5302,0.39894 0.23688,0.10204 0.53021,0.15296 0.88005,0.15296 v 5.2e-4 c 0.31706,0 0.59409,-0.0458 0.83096,-0.13694 0.24053,-0.0948 0.42792,-0.2297 0.56276,-0.40463 0.13848,-0.17492 0.20774,-0.38422 0.20774,-0.62838 0,-0.21866 -0.0474,-0.39893 -0.14211,-0.54106 -0.0948,-0.14576 -0.24192,-0.26442 -0.44235,-0.35553 -0.20044,-0.0911 -0.46118,-0.16953 -0.78187,-0.23513 -0.20773,-0.0547 -0.37526,-0.10354 -0.50281,-0.14728 -0.12391,-0.0474 -0.21353,-0.10031 -0.2682,-0.15864 -0.051,-0.0619 -0.0765,-0.13681 -0.0765,-0.22428 0,-0.13483 0.0509,-0.23516 0.15296,-0.30075 0.10569,-0.0656 0.24828,-0.0982 0.42685,-0.0982 0.17128,0 0.30979,0.0362 0.41548,0.10904 0.10932,0.0692 0.1745,0.15122 0.19637,0.24598 0.0183,0.0364 0.0422,0.0619 0.0713,0.0765 0.0291,0.0146 0.0617,0.0222 0.0982,0.0222 h 0.61236 c 0.0328,0 0.0603,-0.0112 0.0822,-0.0331 0.0219,-0.0255 0.0325,-0.0525 0.0325,-0.0816 -0.004,-0.11298 -0.0383,-0.22959 -0.10387,-0.34985 -0.0656,-0.12026 -0.16184,-0.23332 -0.28939,-0.339 -0.1239,-0.10569 -0.28075,-0.19123 -0.47025,-0.25683 -0.18586,-0.0656 -0.40076,-0.0987 -0.64492,-0.0987 z m 14.9288,0 c -0.0365,0 -0.0696,0.0127 -0.0987,0.0382 -0.0255,0.0255 -0.0382,0.0581 -0.0382,0.0982 v 0.90227 h -0.42633 c -0.0401,0 -0.0726,0.0127 -0.0982,0.0382 -0.0255,0.0255 -0.0387,0.0581 -0.0387,0.0982 v 0.37207 c 0,0.0401 0.0132,0.0726 0.0387,0.0982 0.0255,0.0255 0.0581,0.0382 0.0982,0.0382 h 0.42633 v 1.14825 c 0,0.23688 0.0402,0.43344 0.1204,0.59015 0.0838,0.1567 0.20552,0.27332 0.36587,0.34985 0.16035,0.0729 0.35387,0.10955 0.57981,0.10955 h 0.47543 c 0.0364,0 0.0675,-0.0127 0.093,-0.0382 0.0255,-0.0255 0.0382,-0.0586 0.0382,-0.0987 v -0.40463 c 0,-0.0364 -0.0127,-0.067 -0.0382,-0.0925 -0.0255,-0.0255 -0.0566,-0.0388 -0.093,-0.0388 h -0.39895 c -0.12392,0 -0.21151,-0.0382 -0.26251,-0.11473 -0.0474,-0.0802 -0.0708,-0.18914 -0.0708,-0.32762 v -1.08263 h 0.68316 c 0.0364,0 0.0675,-0.0127 0.093,-0.0382 0.0255,-0.0255 0.0382,-0.0581 0.0382,-0.0982 v -0.37207 c 0,-0.0401 -0.0127,-0.0726 -0.0382,-0.0982 -0.0255,-0.0255 -0.0566,-0.0382 -0.093,-0.0382 h -0.68316 v -0.90227 c 0,-0.0401 -0.0127,-0.0727 -0.0382,-0.0982 -0.0255,-0.0255 -0.0586,-0.0382 -0.0987,-0.0382 z m 10.39678,0 c -0.0365,0 -0.0691,0.0127 -0.0982,0.0382 -0.0255,0.0255 -0.0382,0.0581 -0.0382,0.0982 v 0.90227 h -0.42633 c -0.0401,0 -0.0732,0.0127 -0.0987,0.0382 -0.0255,0.0255 -0.0382,0.0581 -0.0382,0.0982 v 0.37207 c 0,0.0401 0.0127,0.0726 0.0382,0.0982 0.0255,0.0255 0.0586,0.0382 0.0987,0.0382 h 0.42633 v 1.14825 c 0,0.23688 0.0397,0.43344 0.11989,0.59015 0.0838,0.1567 0.20604,0.27332 0.36638,0.34985 0.16035,0.0729 0.35335,0.10955 0.57929,0.10955 h 0.47594 c 0.0364,0 0.0675,-0.0127 0.093,-0.0382 0.0255,-0.0255 0.0382,-0.0586 0.0382,-0.0987 v -0.40463 c 0,-0.0364 -0.0127,-0.067 -0.0382,-0.0925 -0.0255,-0.0255 -0.0566,-0.0382 -0.093,-0.0382 h -0.39894 c -0.12392,0 -0.21151,-0.0387 -0.26251,-0.11524 -0.0474,-0.0802 -0.0713,-0.18914 -0.0713,-0.32762 v -1.08263 h 0.68368 c 0.0364,0 0.067,-0.0127 0.0925,-0.0382 0.0255,-0.0255 0.0388,-0.0581 0.0388,-0.0982 v -0.37207 c 0,-0.0401 -0.0132,-0.0726 -0.0388,-0.0982 -0.0255,-0.0255 -0.056,-0.0382 -0.0925,-0.0382 h -0.68368 v -0.90227 c 0,-0.0401 -0.0127,-0.0727 -0.0382,-0.0982 -0.0255,-0.0255 -0.0581,-0.0382 -0.0982,-0.0382 z m 10.27689,0 c -0.0365,0 -0.0691,0.0127 -0.0982,0.0382 -0.0255,0.0255 -0.0382,0.0586 -0.0382,0.0987 v 0.90175 h -0.42685 c -0.0401,0 -0.0727,0.0127 -0.0982,0.0382 -0.0255,0.0255 -0.0382,0.0581 -0.0382,0.0982 v 0.37207 c 0,0.0401 0.0127,0.0726 0.0382,0.0982 0.0255,0.0255 0.0581,0.0382 0.0982,0.0382 h 0.42685 v 1.14825 c 0,0.23688 0.0397,0.43344 0.11989,0.59015 0.0838,0.1567 0.20604,0.27332 0.36638,0.34985 0.16035,0.0729 0.35335,0.10955 0.5793,0.10955 h 0.47594 c 0.0364,0 0.0675,-0.0127 0.093,-0.0382 0.0255,-0.0255 0.0382,-0.0586 0.0382,-0.0987 v -0.40463 c 0,-0.0364 -0.0127,-0.067 -0.0382,-0.0925 -0.0255,-0.0255 -0.0566,-0.0382 -0.093,-0.0382 h -0.39895 c -0.12392,0 -0.21151,-0.0387 -0.26251,-0.11524 -0.0474,-0.0802 -0.0713,-0.18914 -0.0713,-0.32762 v -1.08263 h 0.68317 c 0.0364,0 0.0675,-0.0127 0.093,-0.0382 0.0255,-0.0255 0.0383,-0.0581 0.0383,-0.0982 v -0.37207 c 0,-0.0401 -0.0127,-0.0726 -0.0383,-0.0982 -0.0255,-0.0255 -0.0565,-0.0382 -0.093,-0.0382 h -0.68317 v -0.90175 c 0,-0.0401 -0.0127,-0.0732 -0.0382,-0.0987 -0.0255,-0.0255 -0.0581,-0.0382 -0.0982,-0.0382 z m -63.25505,0.16381 c -0.31016,0 -0.29963,0.22267 0.0419,0.90072 l 0.32556,0.64699 v 1.7601 1.7601 l -0.41289,0.21911 c -0.91027,0.48288 -1.44571,1.38605 -1.43971,2.42879 0.007,1.31454 0.76749,2.29696 2.04225,2.63963 l -5.1e-4,-0.005 c 0.67526,0.1861 1.49244,0.18862 1.67121,0.01 0.22461,-0.22457 0.0812,-0.40825 -0.31884,-0.40825 -0.35548,0 -0.35553,-10e-4 -0.35553,-0.36741 v -0.36742 l 1.56889,0.0253 1.5689,0.0248 5.2e-4,0.31936 v 0.31988 l -0.7059,0.0269 c -0.74204,0.0281 -0.93255,0.1468 -0.69454,0.43357 0.10134,0.1223 0.91143,0.13565 6.79029,0.11265 7.63709,-0.0302 7.19416,0.0162 8.05325,-0.84284 1.30179,-1.30174 0.97687,-3.48924 -0.64595,-4.35012 l -0.41238,-0.21911 v -1.8309 c 0,-1.30233 -0.0315,-1.86255 -0.10955,-1.94045 -0.0781,-0.0781 -0.65207,-0.10955 -2.00247,-0.10955 -1.59894,0 -1.91483,0.0219 -2.03605,0.14314 -0.12045,0.12033 -0.14366,0.42271 -0.14366,1.87224 v 1.72806 h -0.9586 -0.95911 v -1.68155 -1.68207 l 0.31368,-0.65422 c 0.32991,-0.68721 0.33643,-0.94104 0.0238,-0.89504 -0.12751,0.0188 -0.27722,0.21046 -0.46768,0.59841 l -0.28008,0.57103 h -1.73478 -1.73529 l -0.28009,-0.57103 c -0.19051,-0.38795 -0.34016,-0.57961 -0.46767,-0.59841 -0.3121,-0.0461 -0.30559,0.20783 0.0238,0.89504 l 0.31368,0.65422 v 1.68207 1.68155 h -0.9586 -0.9586 v -1.73736 -1.73736 l 0.27388,-0.54261 c 0.33643,-0.66641 0.35383,-0.91312 0.0651,-0.91312 -0.16603,0 -0.26847,0.12127 -0.50126,0.59325 l -0.29249,0.59376 h -1.71669 -1.71618 l -0.29249,-0.59376 c -0.21747,-0.44098 -0.3406,-0.59325 -0.47904,-0.59325 z m 31.457,0.82011 c -0.2223,0 -0.4097,0.0275 -0.56276,0.0822 -0.15306,0.0547 -0.27884,0.12392 -0.37724,0.20774 -0.0984,0.0802 -0.17119,0.16216 -0.21859,0.24598 -0.0474,0.0838 -0.0713,0.15666 -0.0713,0.21859 -0.004,0.0328 0.006,0.0618 0.0274,0.0873 0.0219,0.0219 0.053,0.0331 0.093,0.0331 h 0.51935 c 0.0547,0 0.0964,-0.0239 0.12558,-0.0713 0.0401,-0.0765 0.0966,-0.13811 0.16949,-0.18551 0.0729,-0.0474 0.16913,-0.0713 0.28939,-0.0713 0.164,0 0.27908,0.0382 0.34468,0.11472 0.0656,0.0765 0.0982,0.18602 0.0982,0.32815 v 0.0982 l -0.71624,0.10387 c -0.34256,0.0547 -0.61907,0.15703 -0.83044,0.30645 -0.20772,0.14941 -0.31161,0.3531 -0.31161,0.61184 0,0.15671 0.0453,0.29879 0.13643,0.42633 0.0911,0.12756 0.21333,0.22992 0.36639,0.30645 0.15306,0.0729 0.3262,0.10903 0.51934,0.10903 v 5.2e-4 c 0.14942,0 0.27877,-0.0183 0.38809,-0.0548 0.11298,-0.0364 0.20974,-0.0838 0.28991,-0.14211 0.0802,-0.0619 0.1438,-0.12764 0.1912,-0.19688 v 0.20205 c 0,0.0401 0.0127,0.0732 0.0382,0.0987 0.0255,0.0255 0.0566,0.0382 0.093,0.0382 h 0.53537 c 0.0401,0 0.0732,-0.0127 0.0987,-0.0382 0.0255,-0.0255 0.0382,-0.0586 0.0382,-0.0987 v -1.68879 c 0,-0.14941 -0.0239,-0.28793 -0.0713,-0.41547 -0.0474,-0.1312 -0.1202,-0.24629 -0.21859,-0.34469 -0.0984,-0.0984 -0.22927,-0.17477 -0.39326,-0.22944 -0.164,-0.0547 -0.36108,-0.0822 -0.59066,-0.0822 z m 8.36383,0 c -0.2223,0 -0.41022,0.0275 -0.56328,0.0822 -0.15305,0.0547 -0.27883,0.12392 -0.37723,0.20774 -0.0984,0.0802 -0.1712,0.16216 -0.2186,0.24598 -0.0474,0.0838 -0.0708,0.15666 -0.0708,0.21859 -0.004,0.0328 0.005,0.0618 0.0269,0.0873 0.0219,0.0219 0.053,0.0331 0.093,0.0331 h 0.51934 c 0.0547,0 0.0965,-0.0239 0.12558,-0.0713 0.0401,-0.0765 0.0966,-0.13811 0.1695,-0.18551 0.0729,-0.0474 0.16964,-0.0713 0.2899,-0.0713 0.16399,0 0.27857,0.0382 0.34417,0.11472 0.0656,0.0765 0.0987,0.18602 0.0987,0.32815 v 0.0982 l -0.71624,0.10387 c -0.34256,0.0547 -0.61958,0.15703 -0.83095,0.30645 -0.20772,0.14941 -0.31161,0.3531 -0.31161,0.61184 0,0.15671 0.0458,0.29879 0.13694,0.42633 0.0911,0.12756 0.21281,0.22992 0.36587,0.30645 0.15306,0.0729 0.3262,0.10903 0.51935,0.10903 v 5.2e-4 c 0.14941,0 0.27928,-0.0183 0.3886,-0.0548 0.11298,-0.0364 0.20922,-0.0838 0.28939,-0.14211 0.0802,-0.0619 0.14381,-0.12764 0.19121,-0.19688 v 0.20205 c 0,0.0401 0.0132,0.0732 0.0387,0.0987 0.0255,0.0255 0.056,0.0382 0.0925,0.0382 h 0.53589 c 0.0401,0 0.0726,-0.0127 0.0982,-0.0382 0.0255,-0.0255 0.0382,-0.0586 0.0382,-0.0987 v -1.68879 c 0,-0.14941 -0.0234,-0.28793 -0.0708,-0.41547 -0.0474,-0.1312 -0.1202,-0.24629 -0.21859,-0.34469 -0.0984,-0.0984 -0.22979,-0.17477 -0.39378,-0.22944 -0.16399,-0.0547 -0.36055,-0.0822 -0.59014,-0.0822 z m 10.342,0 c -0.29154,0 -0.53903,0.0509 -0.74311,0.15296 -0.20408,0.0984 -0.36296,0.24099 -0.47594,0.42685 -0.11297,0.18221 -0.17458,0.39863 -0.18551,0.65008 -0.003,0.0692 -0.005,0.15123 -0.005,0.24598 0,0.0911 0.002,0.1731 0.005,0.24598 0.0109,0.24781 0.069,0.46475 0.17466,0.65061 0.10933,0.18586 0.26618,0.32998 0.47026,0.43202 0.20408,0.0984 0.45717,0.14727 0.75964,0.14727 0.29883,0 0.5504,-0.0489 0.75448,-0.14727 0.20408,-0.10204 0.35889,-0.24616 0.46457,-0.43202 0.10933,-0.18586 0.16941,-0.4028 0.18035,-0.65061 0.007,-0.0729 0.0109,-0.15487 0.0109,-0.24598 0,-0.0947 -0.004,-0.17674 -0.0109,-0.24598 -0.0109,-0.25145 -0.0725,-0.46787 -0.18552,-0.65008 -0.11297,-0.18586 -0.27186,-0.32846 -0.47594,-0.42685 -0.20408,-0.10204 -0.45005,-0.15296 -0.73794,-0.15296 z m 6.47247,0 c -0.2223,0 -0.41021,0.0275 -0.56327,0.0822 -0.15306,0.0547 -0.27833,0.12392 -0.37672,0.20774 -0.0984,0.0802 -0.17171,0.16216 -0.21911,0.24598 -0.0474,0.0838 -0.0708,0.15666 -0.0708,0.21859 -0.004,0.0328 0.006,0.0618 0.0274,0.0873 0.0219,0.0219 0.0524,0.0331 0.0925,0.0331 h 0.51935 c 0.0547,0 0.097,-0.0239 0.12609,-0.0713 0.0401,-0.0765 0.0966,-0.13811 0.1695,-0.18551 0.0729,-0.0474 0.16912,-0.0713 0.28939,-0.0713 0.16399,0 0.27908,0.0382 0.34468,0.11472 0.0656,0.0765 0.0982,0.18602 0.0982,0.32815 v 0.0982 l -0.71624,0.10387 c -0.34257,0.0547 -0.61959,0.15703 -0.83096,0.30645 -0.20772,0.14941 -0.31109,0.3531 -0.31109,0.61184 0,0.15671 0.0453,0.29931 0.13643,0.42685 0.0911,0.12755 0.21332,0.2294 0.36638,0.30593 0.15306,0.0729 0.32621,0.10903 0.51935,0.10903 v 5.2e-4 c 0.14942,0 0.27876,-0.0183 0.38809,-0.0548 0.11297,-0.0364 0.20973,-0.0838 0.28991,-0.14211 0.0801,-0.0619 0.1438,-0.12764 0.1912,-0.19688 v 0.20205 c 0,0.0401 0.0127,0.0732 0.0382,0.0987 0.0255,0.0255 0.0566,0.0382 0.093,0.0382 h 0.53536 c 0.0401,0 0.0732,-0.0127 0.0987,-0.0382 0.0255,-0.0255 0.0382,-0.0586 0.0382,-0.0987 v -1.68879 c 0,-0.14941 -0.0239,-0.28793 -0.0713,-0.41547 -0.0474,-0.1312 -0.12019,-0.24629 -0.21859,-0.34469 -0.0984,-0.0984 -0.22978,-0.17477 -0.39377,-0.22944 -0.16399,-0.0547 -0.36056,-0.0822 -0.59015,-0.0822 z m 4.06125,0 c -0.21501,0 -0.3968,0.0382 -0.54622,0.11472 -0.14942,0.0765 -0.27164,0.17328 -0.36638,0.2899 v -0.21342 c 0,-0.0401 -0.0127,-0.0726 -0.0382,-0.0982 -0.0255,-0.0255 -0.0586,-0.0382 -0.0987,-0.0382 h -0.53537 c -0.0364,0 -0.0675,0.0127 -0.093,0.0382 -0.0255,0.0255 -0.0382,0.0581 -0.0382,0.0982 v 2.56935 c 0,0.0401 0.0127,0.0732 0.0382,0.0987 0.0255,0.0255 0.0566,0.0382 0.093,0.0382 h 0.57929 c 0.0364,0 0.0675,-0.0127 0.093,-0.0382 0.0255,-0.0255 0.0382,-0.0586 0.0382,-0.0987 v -1.49241 c 0,-0.19315 0.0509,-0.34235 0.15296,-0.44804 0.10204,-0.10933 0.23903,-0.16381 0.41031,-0.16381 0.17857,0 0.31301,0.0545 0.40411,0.16381 0.0948,0.10569 0.14211,0.25489 0.14211,0.44804 v 1.49241 c 0,0.0401 0.0127,0.0732 0.0382,0.0987 0.0255,0.0255 0.0586,0.0382 0.0987,0.0382 h 0.5793 c 0.0364,0 0.0675,-0.0127 0.093,-0.0382 0.0291,-0.0255 0.0439,-0.0586 0.0439,-0.0987 v -1.52497 c 0,-0.26239 -0.0479,-0.48493 -0.14263,-0.66714 -0.0911,-0.18586 -0.21841,-0.3259 -0.3824,-0.42065 -0.16035,-0.0984 -0.34827,-0.14779 -0.56328,-0.14779 z m 6.28127,0 c -0.29154,0 -0.53954,0.0514 -0.74362,0.15347 -0.20408,0.0984 -0.36246,0.24048 -0.47542,0.42634 -0.11298,0.18221 -0.1751,0.39863 -0.18604,0.65008 -0.003,0.0692 -0.005,0.15123 -0.005,0.24598 0,0.0911 0.002,0.1731 0.005,0.24598 0.0109,0.24781 0.0695,0.46475 0.17519,0.65061 0.10933,0.18586 0.26566,0.32998 0.46973,0.43202 0.20408,0.0984 0.45769,0.14779 0.76016,0.14779 0.29884,0 0.54988,-0.0494 0.75396,-0.14779 0.20408,-0.10204 0.35941,-0.24616 0.46509,-0.43202 0.10933,-0.18586 0.16942,-0.4028 0.18035,-0.65061 0.007,-0.0729 0.0108,-0.15487 0.0108,-0.24598 0,-0.0947 -0.004,-0.17674 -0.0108,-0.24598 -0.0109,-0.25145 -0.0731,-0.46787 -0.18603,-0.65008 -0.11297,-0.18586 -0.27135,-0.32794 -0.47543,-0.42634 -0.20408,-0.10204 -0.45004,-0.15347 -0.73794,-0.15347 z m -33.04449,0.0548 c -0.0364,0 -0.0675,0.0148 -0.093,0.0439 -0.0255,0.0255 -0.0382,0.056 -0.0382,0.0925 v 2.56935 c 0,0.0401 0.0127,0.0727 0.0382,0.0982 0.0255,0.0255 0.0566,0.0387 0.093,0.0387 h 0.57361 c 0.0401,0 0.0732,-0.0127 0.0987,-0.0382 0.0255,-0.0255 0.0382,-0.0586 0.0382,-0.0987 v -1.44849 c 0,-0.16399 0.0453,-0.28978 0.13643,-0.37724 0.0911,-0.0911 0.21689,-0.13642 0.37724,-0.13642 h 0.4811 c 0.0364,0 0.0675,-0.0127 0.093,-0.0382 0.0255,-0.0255 0.0382,-0.0586 0.0382,-0.0987 v -0.47025 c 0,-0.0401 -0.0127,-0.0726 -0.0382,-0.0982 -0.0255,-0.0255 -0.0566,-0.0382 -0.093,-0.0382 h -0.23512 c -0.17493,0 -0.32974,0.0311 -0.46458,0.093 -0.13119,0.062 -0.2422,0.14903 -0.33331,0.262 v -0.21859 c 0,-0.0364 -0.0148,-0.067 -0.0439,-0.0925 -0.0255,-0.0291 -0.056,-0.0439 -0.0925,-0.0439 z m 2.84789,0 c -0.0364,0 -0.0675,0.0127 -0.093,0.0382 -0.0255,0.0255 -0.0382,0.0581 -0.0382,0.0982 v 2.66754 c 0,0.0802 -0.009,0.1535 -0.0274,0.2191 -0.0182,0.0656 -0.0544,0.1165 -0.10904,0.15297 -0.051,0.0401 -0.12587,0.0599 -0.22427,0.0599 h -0.17467 c -0.0401,0 -0.0732,0.0127 -0.0987,0.0382 -0.0255,0.0255 -0.0382,0.0586 -0.0382,0.0987 v 0.37156 c 0,0.0401 0.0127,0.0726 0.0382,0.0982 0.0255,0.0255 0.0586,0.0382 0.0987,0.0382 h 0.25683 c 0.24417,0 0.44786,-0.0417 0.61185,-0.12557 0.16764,-0.0838 0.29342,-0.20603 0.37724,-0.36639 0.0838,-0.1567 0.12609,-0.34614 0.12609,-0.56844 v -2.68407 c 0,-0.0401 -0.0132,-0.0726 -0.0388,-0.0982 -0.0255,-0.0255 -0.056,-0.0382 -0.0925,-0.0382 z m 8.32559,0 c -0.0364,0 -0.0675,0.0127 -0.093,0.0382 -0.0255,0.0255 -0.0382,0.0581 -0.0382,0.0982 v 1.52549 c 0,0.26238 0.0438,0.48645 0.13126,0.67231 0.0911,0.18221 0.21637,0.32225 0.37672,0.42064 0.16399,0.0948 0.35191,0.14211 0.56327,0.14211 0.21502,0 0.39733,-0.0346 0.54674,-0.10387 0.14942,-0.0692 0.27164,-0.16904 0.36639,-0.30024 v 0.21291 c 0,0.0401 0.0127,0.0732 0.0382,0.0987 0.0255,0.0255 0.0581,0.0382 0.0982,0.0382 h 0.53589 c 0.0364,0 0.0675,-0.0127 0.093,-0.0382 0.0255,-0.0255 0.0382,-0.0586 0.0382,-0.0987 v -2.56935 c 0,-0.0401 -0.0127,-0.0726 -0.0382,-0.0982 -0.0255,-0.0255 -0.0566,-0.0382 -0.093,-0.0382 h -0.5793 c -0.0401,0 -0.0732,0.0127 -0.0987,0.0382 -0.0255,0.0255 -0.0382,0.0581 -0.0382,0.0982 v 1.49241 c 0,0.19315 -0.0509,0.3444 -0.15296,0.45372 -0.0984,0.10569 -0.23335,0.15865 -0.40463,0.15865 -0.35714,0 -0.53588,-0.20421 -0.53588,-0.61237 v -1.49241 c 0,-0.0401 -0.0127,-0.0726 -0.0382,-0.0982 -0.0255,-0.0255 -0.0581,-0.0382 -0.0982,-0.0382 z m 5.05602,0.54674 c 0.17857,0 0.31352,0.0565 0.40463,0.1695 0.0911,0.11297 0.14052,0.27491 0.14779,0.48627 0.003,0.0547 0.005,0.12749 0.005,0.21859 0,0.0911 -0.001,0.16393 -0.005,0.2186 -0.007,0.215 -0.0567,0.37898 -0.14779,0.49196 -0.0911,0.10932 -0.22606,0.16433 -0.40463,0.16433 -0.17857,0 -0.31505,-0.055 -0.40979,-0.16433 -0.0911,-0.11298 -0.14053,-0.27696 -0.1478,-0.49196 -0.003,-0.0547 -0.005,-0.12749 -0.005,-0.2186 0,-0.0911 0.001,-0.16392 0.005,-0.21859 0.007,-0.21136 0.0567,-0.3733 0.1478,-0.48627 0.0947,-0.11297 0.23122,-0.1695 0.40979,-0.1695 z m 16.81499,0 c 0.17858,0 0.31301,0.0565 0.40411,0.1695 0.0911,0.11297 0.14053,0.27491 0.1478,0.48627 0.003,0.0547 0.005,0.12749 0.005,0.21859 0,0.0911 -0.002,0.16445 -0.005,0.21911 -0.007,0.21501 -0.0567,0.37899 -0.1478,0.49196 -0.0911,0.10933 -0.22553,0.16382 -0.40411,0.16382 -0.17856,0 -0.31555,-0.0545 -0.41031,-0.16382 -0.0911,-0.11297 -0.14001,-0.27695 -0.14727,-0.49196 -0.003,-0.0547 -0.005,-0.128 -0.005,-0.21911 0,-0.0911 0.002,-0.16392 0.005,-0.21859 0.007,-0.21136 0.0562,-0.3733 0.14727,-0.48627 0.0948,-0.11297 0.23175,-0.1695 0.41031,-0.1695 z m -52.36579,0.29869 0.34261,0.0284 c 0.32471,0.0269 0.3421,0.0444 0.3421,0.34778 0,0.30333 -0.017,0.32089 -0.3421,0.34779 l -0.34261,0.0284 v -0.37621 z m 1.91771,0 v 1.59938 1.59939 l -0.66249,0.0269 c -0.63804,0.0259 -0.66146,0.0353 -0.66146,0.25528 0,0.19793 0.0452,0.23172 0.3421,0.25632 0.33346,0.0276 0.34262,0.0383 0.34262,0.38809 v 0.36018 h -1.55547 c -1.66679,0 -1.69122,-0.007 -1.62522,-0.47284 0.0284,-0.19988 0.0739,-0.21374 0.78807,-0.23874 0.56462,-0.0198 0.77075,-0.0611 0.80925,-0.16123 0.0904,-0.23556 -0.15039,-0.40566 -0.57361,-0.40566 h -0.39997 v -1.59784 -1.59835 h 0.36535 0.36535 v 0.54467 c 0,0.44504 0.0324,0.56204 0.17673,0.63924 0.25573,0.13689 1.3316,0.12045 1.45004,-0.0222 0.0533,-0.0643 0.11058,-0.3418 0.12558,-0.6165 l 0.0279,-0.4992 0.34262,-0.0284 z m -15.61455,0.0109 h 1.59784 1.59783 v 1.59784 1.59835 h -1.59783 -1.59784 v -1.59835 z m 6.20944,0 h 1.59784 1.59783 v 1.59784 1.59835 h -1.59783 -1.59784 v -1.59835 z m 24.7804,0.66869 v 0.093 c 0,0.16035 -0.027,0.29326 -0.0817,0.39894 -0.0547,0.1057 -0.12953,0.18413 -0.22427,0.23513 -0.0948,0.051 -0.2022,0.0765 -0.32246,0.0765 -0.0765,0 -0.14936,-0.0127 -0.2186,-0.0382 -0.0692,-0.0255 -0.12576,-0.0637 -0.16949,-0.11472 -0.0401,-0.051 -0.06,-0.11111 -0.06,-0.18035 0,-0.0947 0.0453,-0.1747 0.13643,-0.2403 0.0911,-0.0656 0.23522,-0.11499 0.43201,-0.14779 z m 8.36383,0 v 0.093 c 0,0.16035 -0.0275,0.29326 -0.0822,0.39894 -0.0547,0.1057 -0.12901,0.18413 -0.22376,0.23513 -0.0948,0.051 -0.20272,0.0765 -0.32298,0.0765 -0.0765,0 -0.14935,-0.0127 -0.21859,-0.0382 -0.0692,-0.0255 -0.12577,-0.0637 -0.1695,-0.11472 -0.0401,-0.051 -0.06,-0.11111 -0.06,-0.18035 0,-0.0947 0.0458,-0.1747 0.13695,-0.2403 0.0911,-0.0656 0.23471,-0.11499 0.4315,-0.14779 z m 16.81448,0 v 0.093 c 0,0.16035 -0.027,0.29326 -0.0817,0.39894 -0.0547,0.1057 -0.12953,0.18413 -0.22428,0.23513 -0.0947,0.051 -0.2022,0.0765 -0.32246,0.0765 v 5.2e-4 c -0.0765,0 -0.14934,-0.0132 -0.21859,-0.0388 -0.0692,-0.0255 -0.12576,-0.0637 -0.1695,-0.11472 -0.0401,-0.051 -0.0605,-0.11111 -0.0605,-0.18035 0,-0.0947 0.0458,-0.1747 0.13694,-0.2403 0.0911,-0.0656 0.23472,-0.11499 0.4315,-0.14779 z m -55.52891,3.07165 1.5751,0.0248 1.57509,0.0248 v 0.31936 0.31988 l -1.57509,0.0253 -1.5751,0.0248 v -0.36948 z m 6.84816,0 v 0.36742 0.36742 h -1.55494 c -1.66672,0 -1.69123,-0.007 -1.62523,-0.47284 0.03,-0.21148 0.0349,-0.21229 1.60507,-0.23719 z m 0.63924,0 1.5751,0.0248 1.57509,0.0248 v 0.31936 0.31988 l -1.57509,0.0253 -1.5751,0.0248 v -0.36948 z m -8.1871,0.0734 c 0.0947,0.0126 0.11524,0.0874 0.13384,0.31006 0.0259,0.30978 0.005,0.34127 -0.29352,0.43977 -0.33356,0.11008 -0.7437,0.52243 -0.88263,0.8878 -0.0633,0.1666 -0.14894,0.21032 -0.4129,0.21032 -0.32674,0 -0.33223,-0.006 -0.27543,-0.29662 0.12556,-0.64358 0.98288,-1.46788 1.60868,-1.54668 0.0507,-0.006 0.0904,-0.009 0.12196,-0.005 z m 15.73547,0 c 0.0316,-0.004 0.0712,-10e-4 0.12196,0.005 0.61386,0.0773 1.48332,0.91306 1.60817,1.54616 0.0574,0.28667 0.0522,0.29662 -0.27492,0.29662 -0.26405,0 -0.35001,-0.0434 -0.41341,-0.21032 -0.13897,-0.36537 -0.54856,-0.77772 -0.88212,-0.8878 -0.29975,-0.0985 -0.31962,-0.12999 -0.29352,-0.43977 0.0186,-0.2227 0.0391,-0.29748 0.13384,-0.31006 z m -10.36887,1.20096 c 0.22143,0.006 0.44991,0.0951 0.6506,0.2744 0.25573,0.22867 0.29818,0.3269 0.29818,0.69247 0,0.3657 -0.0421,0.46315 -0.29818,0.69195 -0.75826,0.67746 -1.92937,-0.11053 -1.54202,-1.03767 0.17253,-0.41285 0.52236,-0.63167 0.89142,-0.62115 z m -4.96611,5.2e-4 c 0.22818,0.005 0.46154,0.0956 0.65733,0.29145 0.44615,0.44607 0.34829,1.22877 -0.18862,1.50637 -0.43065,0.22277 -0.79154,0.16552 -1.1374,-0.18035 -0.2216,-0.22167 -0.31058,-0.39301 -0.31058,-0.59841 0,-0.62229 0.47729,-1.02915 0.97927,-1.01906 z m 9.95702,0.007 c 0.98731,0 1.35337,1.3278 0.48937,1.77457 -0.65853,0.34047 -1.34645,-0.0142 -1.44435,-0.74466 -0.0471,-0.35106 -0.0225,-0.41418 0.27078,-0.70745 0.26033,-0.2602 0.39164,-0.32246 0.6842,-0.32246 z m 1.20251,0 h 1.27641 1.27589 l -0.13229,0.31678 c -0.16937,0.40707 -0.16695,0.93669 0.006,1.26866 0.075,0.1439 0.13642,0.27714 0.13642,0.29714 h -10e-4 c 0,0.019 -0.57614,0.0351 -1.28054,0.0351 h -1.28106 l 0.13952,-0.26924 c 0.0766,-0.1482 0.13953,-0.45836 0.13953,-0.68936 0,-0.23097 -0.0629,-0.5412 -0.13953,-0.68937 z m 3.71553,0 c 0.94976,0 1.38178,0.95357 0.72812,1.60714 -0.23213,0.2323 -0.38783,0.30748 -0.6165,0.30748 -0.60552,-0.006 -0.98153,-0.39363 -0.98753,-1.017 -0.004,-0.45917 0.42343,-0.89762 0.87591,-0.89762 z m -7.4073,5.2e-4 c 0.67792,0 1.23249,0.0151 1.23249,0.0341 0,0.019 -0.0616,0.18198 -0.13695,0.36225 -0.18323,0.4374 -0.17283,0.77307 0.0357,1.18184 l 0.17312,0.339 h -1.30432 -1.30431 l 0.17312,-0.339 c 0.20802,-0.40877 0.21794,-0.74444 0.0351,-1.18184 -0.0752,-0.18027 -0.13695,-0.34325 -0.13695,-0.36225 0,-0.018 0.55494,-0.0341 1.233,-0.0341 z m -6.24613,0.003 h 1.2759 1.2764 l -0.13952,0.26924 c -0.0766,0.14817 -0.13953,0.45839 -0.13953,0.68936 0,0.231 0.0628,0.54117 0.13953,0.68937 l 0.13849,0.26923 h -1.28054 c -0.70435,0 -1.28106,-0.0161 -1.28106,-0.0351 0,-0.0193 0.0614,-0.15282 0.13642,-0.29662 0.17393,-0.33197 0.17627,-0.86159 0.006,-1.26866 z m 8.75658,0.72761 c -0.20511,0 -0.30947,0.14114 -0.23927,0.32401 0.0683,0.1775 0.38816,0.16878 0.45786,-0.0129 0.0742,-0.19337 -0.008,-0.31109 -0.21859,-0.31109 z m 4.98315,0 c -0.19125,0 -0.23512,0.0435 -0.23512,0.23461 0,0.1914 0.0383,0.22915 0.20567,0.20515 0.13207,-0.0187 0.21601,-0.10261 0.23461,-0.23461 0.0238,-0.16747 -0.0141,-0.20515 -0.20516,-0.20515 z m -14.98203,0.003 c -0.16052,0 -0.22789,0.0492 -0.22789,0.16691 0,0.0921 0.0273,0.19441 0.0605,0.22841 0.0335,0.033 0.13631,0.061 0.22841,0.061 0.1177,0 0.16743,-0.0679 0.16743,-0.22841 0,-0.18227 -0.0458,-0.22789 -0.22841,-0.22789 z m 4.97748,0.002 c -0.0703,-0.009 -0.14336,0.009 -0.19637,0.062 -0.0464,0.0466 -0.0575,0.15584 -0.0243,0.24184 v 5.2e-4 c 0.0846,0.22 0.44803,0.1553 0.44803,-0.0801 0,-0.12192 -0.11017,-0.2099 -0.22737,-0.22427 z m -6.82646,0.45423 c 0.26095,3e-4 0.32425,0.053 0.52503,0.43408 0.16895,0.32077 0.34126,0.49256 0.66198,0.66146 0.38111,0.20067 0.43338,0.26403 0.43356,0.52503 2.2e-4,0.24687 -0.034,0.29651 -0.20515,0.29611 -0.11299,-5e-4 -0.4207,-0.12453 -0.68368,-0.27543 -0.35216,-0.2019 -0.55044,-0.40031 -0.75241,-0.75241 -0.15089,-0.26297 -0.27492,-0.5702 -0.27492,-0.68317 -6.6e-4,-0.1712 0.0484,-0.20587 0.29559,-0.20567 z m 18.67328,0 c 0.23787,-2e-4 0.29714,0.0367 0.29714,0.18604 0,0.47767 -0.59474,1.24664 -1.2051,1.55804 -0.52279,0.26667 -0.71246,0.23356 -0.7121,-0.12351 2.2e-4,-0.261 0.0524,-0.32436 0.43357,-0.52503 0.32076,-0.1689 0.49251,-0.34069 0.66146,-0.66146 0.20069,-0.38167 0.26404,-0.43378 0.52503,-0.43408 z m -2.16834,1.27434 v 0.36742 l -5.2e-4,0.36794 h -1.55236 c -0.85382,0 -1.55463,-0.021 -1.56063,-0.046 -0.004,-0.0251 -0.0105,-0.17942 -0.0165,-0.34262 l -0.008,-0.29662 1.56941,-0.0253 z m -9.02478,0.004 h 1.53686 v 0.36535 0.36535 h -1.54254 -1.54203 l -0.0382,-0.32246 c -0.0201,-0.1773 -0.0177,-0.34135 0.006,-0.36535 0.0236,-0.024 0.73439,-0.0429 1.57975,-0.0429 z m 2.17558,0 h 1.53686 c 0.84536,0 1.55636,0.0189 1.58026,0.0429 0.0242,0.0236 0.0265,0.18795 0.006,0.36535 l -0.0382,0.32246 h -1.54254 -1.54203 v -0.36535 z m 3.81786,6.95669 c -0.0364,0 -0.0675,0.013 -0.093,0.038 -0.0219,0.025 -0.0326,0.056 -0.0326,0.092 v 0.2956 c 0,0.037 0.0107,0.068 0.0326,0.093 0.0255,0.022 0.0566,0.033 0.093,0.033 h 0.34468 c 0.0364,0 0.067,-0.011 0.0925,-0.033 0.0255,-0.025 0.0382,-0.056 0.0382,-0.093 v -0.2956 c 0,-0.037 -0.0127,-0.067 -0.0382,-0.092 -0.0255,-0.025 -0.056,-0.038 -0.0925,-0.038 z m 1.73271,0 c -0.0364,0 -0.067,0.013 -0.0925,0.038 -0.0219,0.025 -0.0331,0.056 -0.0331,0.092 v 0.2956 c 0,0.037 0.0112,0.068 0.0331,0.093 0.0255,0.022 0.056,0.033 0.0925,0.033 h 0.34468 c 0.0364,0 0.0675,-0.011 0.093,-0.033 0.0255,-0.025 0.0382,-0.056 0.0382,-0.093 v -0.2956 c 0,-0.037 -0.0127,-0.067 -0.0382,-0.092 -0.0255,-0.025 -0.0566,-0.038 -0.093,-0.038 z m 43.53481,10e-4 c -0.0364,0 -0.0675,0.012 -0.093,0.038 -0.0219,0.025 -0.0331,0.056 -0.0331,0.093 v 0.2951 c 0,0.037 0.0112,0.068 0.0331,0.093 0.0255,0.022 0.0566,0.033 0.093,0.033 h 0.34984 c 0.0364,0 0.067,-0.011 0.0925,-0.033 0.0255,-0.025 0.0388,-0.056 0.0388,-0.093 v -0.2951 c 0,-0.037 -0.0132,-0.068 -0.0388,-0.093 -0.0255,-0.025 -0.056,-0.038 -0.0925,-0.038 z m -52.22627,0.042 c -0.0364,0 -0.0675,0.012 -0.093,0.038 -0.0219,0.022 -0.0326,0.052 -0.0326,0.088 v 3.6292 c 0,0.037 0.0107,0.068 0.0326,0.093 0.0255,0.022 0.0566,0.033 0.093,0.033 h 0.25683 c 0.0401,0 0.0712,-0.011 0.093,-0.033 0.0219,-0.025 0.0326,-0.056 0.0326,-0.093 v -3.6292 c 0,-0.037 -0.0107,-0.066 -0.0326,-0.088 -0.0219,-0.025 -0.053,-0.038 -0.093,-0.038 z m 16.07137,5e-4 c -0.0364,0 -0.0675,0.013 -0.093,0.038 -0.0219,0.022 -0.0326,0.051 -0.0326,0.088 v 0.9131 h -0.42684 c -0.0364,0 -0.067,0.012 -0.0925,0.038 -0.0219,0.021 -0.0331,0.05 -0.0331,0.087 v 0.186 c 0,0.037 0.0112,0.068 0.0331,0.093 0.0255,0.022 0.056,0.033 0.0925,0.033 h 0.42684 v 1.4433 c 0,0.1968 0.029,0.3679 0.0873,0.5137 0.0583,0.1421 0.15099,0.2532 0.27853,0.3333 0.12756,0.077 0.29357,0.1147 0.49765,0.1147 h 0.37723 c 0.0365,0 0.0655,-0.011 0.0873,-0.033 0.0255,-0.025 0.0382,-0.056 0.0382,-0.093 v -0.1968 c 0,-0.036 -0.0127,-0.065 -0.0382,-0.087 -0.0219,-0.025 -0.0509,-0.038 -0.0873,-0.038 h -0.33331 c -0.14939,0 -0.25327,-0.049 -0.31161,-0.1478 -0.0583,-0.098 -0.0879,-0.2328 -0.0879,-0.4041 v -1.4051 h 0.678 c 0.0401,0 0.0711,-0.011 0.093,-0.033 0.0219,-0.025 0.0326,-0.056 0.0326,-0.093 v -0.186 c 0,-0.036 -0.0107,-0.065 -0.0326,-0.087 -0.0219,-0.025 -0.053,-0.038 -0.093,-0.038 h -0.678 v -0.9131 c 0,-0.037 -0.0127,-0.066 -0.0382,-0.088 -0.0219,-0.025 -0.0509,-0.038 -0.0873,-0.038 z m 9.76839,5e-4 c -0.0364,0 -0.0675,0.012 -0.093,0.038 -0.0219,0.022 -0.0326,0.052 -0.0326,0.088 v 0.9126 h -0.42633 c -0.0364,0 -0.0675,0.013 -0.093,0.038 -0.0219,0.021 -0.0331,0.05 -0.0331,0.087 v 0.186 c 0,0.037 0.0112,0.068 0.0331,0.093 0.0255,0.022 0.0566,0.033 0.093,0.033 h 0.42633 v 1.4428 c 0,0.1968 0.029,0.3684 0.0873,0.5142 0.0583,0.1421 0.15099,0.2532 0.27854,0.3333 0.12755,0.077 0.29356,0.1147 0.49764,0.1147 l 0.37724,-5e-4 c 0.0365,0 0.0655,-0.011 0.0873,-0.033 0.0255,-0.025 0.0382,-0.056 0.0382,-0.093 v -0.1968 c 0,-0.036 -0.0127,-0.065 -0.0382,-0.087 -0.0219,-0.025 -0.0509,-0.038 -0.0873,-0.038 h -0.33331 c -0.14939,0 -0.25328,-0.049 -0.31161,-0.1478 -0.0583,-0.098 -0.0873,-0.2333 -0.0873,-0.4046 v -1.4046 h 0.67747 c 0.0401,0 0.0711,-0.011 0.093,-0.033 0.0219,-0.025 0.0326,-0.056 0.0326,-0.093 v -0.186 c 0,-0.036 -0.0107,-0.065 -0.0326,-0.087 -0.0219,-0.025 -0.053,-0.038 -0.093,-0.038 h -0.67747 v -0.9126 c 0,-0.037 -0.0132,-0.066 -0.0388,-0.088 -0.0219,-0.025 -0.0509,-0.038 -0.0873,-0.038 z m 2.54713,0 c -0.0364,0 -0.067,0.012 -0.0925,0.038 -0.0219,0.022 -0.0331,0.052 -0.0331,0.088 v 0.9126 h -0.42633 c -0.0364,0 -0.0675,0.013 -0.093,0.038 -0.0219,0.021 -0.0325,0.05 -0.0325,0.087 v 0.186 c 0,0.037 0.0107,0.068 0.0325,0.093 0.0255,0.022 0.0566,0.033 0.093,0.033 h 0.42633 v 1.4428 c 0,0.1968 0.029,0.3684 0.0873,0.5142 0.0583,0.1421 0.1515,0.2532 0.27906,0.3333 0.12754,0.077 0.29356,0.1147 0.49764,0.1147 l 0.37672,-5e-4 c 0.0365,0 0.066,-0.011 0.0879,-0.033 0.0255,-0.025 0.0382,-0.056 0.0382,-0.093 v -0.1968 c 0,-0.036 -0.0127,-0.065 -0.0382,-0.087 -0.0219,-0.025 -0.0514,-0.038 -0.0879,-0.038 H 367.391 c -0.14939,0 -0.25328,-0.049 -0.31161,-0.1478 -0.0583,-0.098 -0.0873,-0.2333 -0.0873,-0.4046 v -1.4046 h 0.67799 c 0.0401,0 0.0706,-0.011 0.0925,-0.033 0.0219,-0.025 0.0331,-0.056 0.0331,-0.093 v -0.186 c 0,-0.036 -0.0112,-0.065 -0.0331,-0.087 -0.0219,-0.025 -0.0524,-0.038 -0.0925,-0.038 h -0.67799 v -0.9126 c 0,-0.037 -0.0127,-0.066 -0.0382,-0.088 -0.0219,-0.025 -0.0509,-0.038 -0.0873,-0.038 z m 29.27264,6e-4 c -0.0364,0 -0.0675,0.012 -0.093,0.038 -0.0219,0.022 -0.0326,0.052 -0.0326,0.088 v 0.9126 h -0.42633 c -0.0364,0 -0.0675,0.013 -0.093,0.038 -0.0219,0.021 -0.0325,0.05 -0.0325,0.087 v 0.1861 c 0,0.037 0.0107,0.068 0.0325,0.093 0.0255,0.022 0.0566,0.033 0.093,0.033 h 0.42633 v 1.4429 c 0,0.1968 0.029,0.3683 0.0873,0.5141 0.0583,0.1422 0.15151,0.2532 0.27906,0.3333 0.12754,0.077 0.29304,0.1148 0.49712,0.1148 l 0.37724,-6e-4 c 0.0365,0 0.066,-0.011 0.0879,-0.033 0.0255,-0.025 0.0382,-0.056 0.0382,-0.093 v -0.1964 c 0,-0.036 -0.0127,-0.065 -0.0382,-0.087 -0.0219,-0.025 -0.0514,-0.038 -0.0879,-0.038 h -0.33331 c -0.14939,0 -0.25328,-0.049 -0.31161,-0.1478 -0.0583,-0.098 -0.0873,-0.2333 -0.0873,-0.4046 v -1.4046 h 0.67799 c 0.0401,0 0.0706,-0.011 0.0925,-0.033 0.0219,-0.025 0.0331,-0.056 0.0331,-0.093 v -0.1861 c 0,-0.036 -0.0112,-0.065 -0.0331,-0.087 -0.0219,-0.025 -0.0524,-0.038 -0.0925,-0.038 h -0.67799 v -0.9126 c 0,-0.037 -0.0127,-0.066 -0.0382,-0.088 -0.0219,-0.025 -0.0514,-0.038 -0.0879,-0.038 z m 9.76839,0 c -0.0364,0 -0.067,0.013 -0.0925,0.038 -0.0219,0.022 -0.0331,0.051 -0.0331,0.088 v 0.9131 h -0.42633 c -0.0364,0 -0.0675,0.012 -0.093,0.038 -0.0219,0.021 -0.0326,0.051 -0.0326,0.087 v 0.1856 c 0,0.037 0.0107,0.068 0.0326,0.093 0.0255,0.022 0.0565,0.033 0.093,0.033 h 0.42633 v 1.4434 c 0,0.1968 0.029,0.3678 0.0873,0.5136 0.0583,0.1422 0.1515,0.2532 0.27905,0.3333 0.12755,0.077 0.29357,0.1153 0.49765,0.1153 l 0.37723,-5e-4 c 0.0365,0 0.0655,-0.011 0.0873,-0.033 0.0255,-0.025 0.0382,-0.056 0.0382,-0.093 v -0.1969 c 0,-0.036 -0.0127,-0.065 -0.0382,-0.087 -0.0219,-0.025 -0.0509,-0.038 -0.0873,-0.038 h -0.33382 c -0.1494,0 -0.25328,-0.049 -0.31161,-0.1472 -0.0583,-0.098 -0.0873,-0.2334 -0.0873,-0.4047 v -1.4051 h 0.678 c 0.0401,0 0.0706,-0.011 0.0925,-0.033 0.0219,-0.025 0.0331,-0.056 0.0331,-0.093 v -0.1856 c 0,-0.036 -0.0112,-0.065 -0.0331,-0.087 -0.0219,-0.025 -0.0524,-0.038 -0.0925,-0.038 h -0.678 v -0.9131 c 0,-0.037 -0.0127,-0.066 -0.0382,-0.088 -0.0219,-0.025 -0.0509,-0.038 -0.0873,-0.038 z m 9.65936,5e-4 c -0.0364,0 -0.0675,0.013 -0.093,0.038 -0.0219,0.022 -0.0326,0.051 -0.0326,0.088 v 0.9126 h -0.42634 c -0.0364,0 -0.0675,0.013 -0.093,0.038 -0.0219,0.021 -0.0331,0.05 -0.0331,0.087 v 0.1861 c 0,0.037 0.0112,0.068 0.0331,0.093 0.0255,0.022 0.0566,0.033 0.093,0.033 h 0.42634 v 1.4428 c 0,0.1968 0.029,0.3683 0.0873,0.5141 0.0583,0.1422 0.1515,0.2532 0.27905,0.3334 0.12755,0.077 0.29305,0.1147 0.49713,0.1147 l 0.37724,-5e-4 c 0.0365,0 0.0655,-0.011 0.0873,-0.033 0.0255,-0.025 0.0388,-0.056 0.0388,-0.093 v -0.1969 c 0,-0.036 -0.0132,-0.065 -0.0388,-0.087 -0.0219,-0.025 -0.0509,-0.038 -0.0873,-0.038 h -0.33332 c -0.14938,0 -0.25327,-0.049 -0.31161,-0.1477 -0.0583,-0.098 -0.0873,-0.2329 -0.0873,-0.4042 v -1.405 h 0.67748 c 0.0401,0 0.0712,-0.011 0.093,-0.033 0.0219,-0.025 0.0326,-0.056 0.0326,-0.093 v -0.1861 c 0,-0.036 -0.0107,-0.065 -0.0326,-0.087 -0.0219,-0.025 -0.053,-0.038 -0.093,-0.038 h -0.67748 v -0.9126 c 0,-0.037 -0.0132,-0.066 -0.0388,-0.088 -0.0219,-0.025 -0.0509,-0.038 -0.0873,-0.038 z m -84.44497,0.053 c -0.0291,0 -0.0546,0.01 -0.0765,0.032 -0.0219,0.022 -0.0331,0.048 -0.0331,0.077 0,0.018 0.004,0.038 0.0109,0.061 l 1.21904,3.5145 c 0.0183,0.044 0.0422,0.079 0.0713,0.1039 0.0328,0.025 0.0766,0.038 0.13125,0.038 h 0.35502 c 0.0547,0 0.097,-0.013 0.12609,-0.038 0.0328,-0.025 0.0562,-0.06 0.0708,-0.1039 l 1.22473,-3.5145 c 0.007,-0.022 0.0109,-0.043 0.0109,-0.061 0,-0.029 -0.0127,-0.055 -0.0382,-0.077 -0.0219,-0.022 -0.0473,-0.032 -0.0765,-0.032 h -0.28422 c -0.0437,0 -0.0768,0.012 -0.0987,0.038 -0.0219,0.022 -0.0361,0.042 -0.0434,0.06 l -1.07177,3.0995 -1.06608,-3.0995 c -0.007,-0.018 -0.0236,-0.038 -0.0491,-0.06 -0.0219,-0.025 -0.0545,-0.038 -0.0982,-0.038 z m 10.23865,0.9291 c -0.17857,0 -0.33185,0.035 -0.4594,0.1039 -0.12755,0.066 -0.23296,0.1553 -0.31678,0.2682 v -0.1917 c 0,-0.036 -0.0127,-0.065 -0.0382,-0.087 -0.0219,-0.025 -0.0514,-0.038 -0.0878,-0.038 h -0.24598 c -0.0364,0 -0.067,0.012 -0.0925,0.038 -0.0219,0.021 -0.0331,0.05 -0.0331,0.087 v 2.591 c 0,0.037 0.0112,0.068 0.0331,0.093 0.0255,0.022 0.056,0.033 0.0925,0.033 h 0.26251 c 0.0365,0 0.0655,-0.011 0.0873,-0.033 0.0255,-0.025 0.0382,-0.056 0.0382,-0.093 v -1.5358 c 0,-0.2004 0.0311,-0.3588 0.093,-0.4754 0.0656,-0.1167 0.14758,-0.1987 0.24598,-0.246 0.0984,-0.047 0.19515,-0.071 0.2899,-0.071 0.10933,0 0.21322,0.024 0.31161,0.071 0.0984,0.047 0.17836,0.1293 0.24029,0.246 0.0619,0.1166 0.093,0.277 0.093,0.4811 v 1.5301 c 0,0.037 0.0107,0.068 0.0326,0.093 0.0255,0.022 0.0565,0.033 0.093,0.033 h 0.25683 c 0.0365,0 0.066,-0.011 0.0879,-0.033 0.0255,-0.025 0.0382,-0.056 0.0382,-0.093 v -1.5301 c 0,-0.2041 0.0311,-0.3645 0.093,-0.4811 0.0656,-0.1167 0.14758,-0.1987 0.24598,-0.246 0.0984,-0.047 0.19464,-0.071 0.28938,-0.071 0.11662,0 0.22407,0.024 0.32246,0.071 0.0984,0.047 0.1768,0.1293 0.23513,0.246 0.0583,0.1166 0.0879,0.277 0.0879,0.4811 v 1.5301 c 0,0.037 0.0107,0.068 0.0326,0.093 0.0255,0.022 0.0566,0.033 0.093,0.033 h 0.25683 c 0.0365,0 0.0655,-0.011 0.0873,-0.033 0.0255,-0.025 0.0382,-0.056 0.0382,-0.093 v -1.5797 c 0,-0.2661 -0.0453,-0.4861 -0.13642,-0.6609 -0.0875,-0.1786 -0.20968,-0.312 -0.36639,-0.3995 -0.15305,-0.087 -0.32416,-0.1313 -0.51366,-0.1313 -0.20408,0 -0.38639,0.046 -0.54674,0.137 -0.16035,0.091 -0.28257,0.2128 -0.36639,0.3658 -0.17128,-0.3419 -0.46256,-0.5094 -0.87436,-0.5028 z m 8.88266,0 c -0.22595,0 -0.4113,0.04 -0.55707,0.1204 -0.14213,0.077 -0.26079,0.1769 -0.35554,0.3008 v -0.2408 c 0,-0.036 -0.0127,-0.065 -0.0382,-0.087 -0.0219,-0.025 -0.0514,-0.038 -0.0879,-0.038 h -0.25683 c -0.0364,0 -0.067,0.012 -0.0925,0.038 -0.0219,0.021 -0.0331,0.05 -0.0331,0.087 v 2.591 c 0,0.037 0.0112,0.068 0.0331,0.093 0.0255,0.022 0.056,0.033 0.0925,0.033 h 0.27337 c 0.0365,0 0.0655,-0.011 0.0873,-0.033 0.0255,-0.025 0.0388,-0.056 0.0388,-0.093 v -1.5141 c 0,-0.2551 0.0672,-0.4537 0.20206,-0.5958 0.13848,-0.1458 0.32079,-0.2186 0.54673,-0.2186 0.24053,0 0.42284,0.073 0.54674,0.2186 0.12391,0.1421 0.18552,0.3407 0.18552,0.5958 v 1.5141 c 0,0.037 0.0112,0.068 0.0331,0.093 0.0255,0.022 0.0566,0.033 0.093,0.033 h 0.27285 c 0.0365,0 0.066,-0.011 0.0879,-0.033 0.0255,-0.025 0.0382,-0.056 0.0382,-0.093 v -1.5409 c 0,-0.2442 -0.0438,-0.4576 -0.13126,-0.6398 -0.0838,-0.1859 -0.2096,-0.33 -0.37724,-0.432 -0.16399,-0.1057 -0.36464,-0.1587 -0.60151,-0.1587 z m -14.23996,6e-4 c -0.19679,0 -0.36433,0.027 -0.50281,0.082 -0.13484,0.051 -0.24585,0.1147 -0.33331,0.1912 -0.0875,0.077 -0.15316,0.1549 -0.19689,0.2351 -0.0401,0.08 -0.0599,0.1479 -0.0599,0.2026 0,0.033 0.009,0.062 0.0269,0.087 0.0219,0.022 0.053,0.033 0.093,0.033 h 0.24598 c 0.0547,0 0.0928,-0.028 0.11472,-0.082 0.0401,-0.1022 0.11138,-0.1858 0.21342,-0.2511 0.10204,-0.065 0.23343,-0.098 0.39378,-0.098 0.22594,0 0.38788,0.049 0.48627,0.1478 0.10204,0.098 0.15296,0.2349 0.15296,0.4098 v 0.1586 l -0.81442,0.1148 c -0.32798,0.047 -0.5938,0.1456 -0.79788,0.295 -0.20408,0.1495 -0.30644,0.3501 -0.30644,0.6015 0,0.1567 0.0458,0.2967 0.13694,0.4207 0.0911,0.1238 0.21128,0.2222 0.3607,0.2951 0.14927,0.073 0.31564,0.1094 0.49764,0.1095 0.17467,0 0.32223,-0.02 0.44236,-0.06 0.12026,-0.044 0.22058,-0.096 0.30075,-0.1582 0.0802,-0.066 0.1438,-0.1315 0.1912,-0.1969 v 0.2352 c 0,0.037 0.0112,0.068 0.0331,0.093 0.0219,0.022 0.053,0.033 0.093,0.033 h 0.25114 c 0.0365,0 0.0655,-0.01 0.0873,-0.033 0.0255,-0.025 0.0388,-0.056 0.0388,-0.093 v -1.7715 c 0,-0.1239 -0.0204,-0.2456 -0.0605,-0.3659 -0.0364,-0.1202 -0.0981,-0.2282 -0.18552,-0.3229 -0.0838,-0.095 -0.20043,-0.1691 -0.34985,-0.2238 -0.14941,-0.059 -0.33376,-0.088 -0.55242,-0.088 z m 25.58862,0 c -0.27332,0 -0.50299,0.053 -0.68885,0.1586 -0.18586,0.1057 -0.32997,0.2518 -0.43201,0.4377 -0.0984,0.1858 -0.15288,0.4007 -0.16381,0.6449 -0.003,0.058 -0.005,0.1368 -0.005,0.2351 0,0.095 0.002,0.1727 0.005,0.2347 0.0109,0.2405 0.0654,0.4559 0.16381,0.6454 0.0984,0.1859 0.24048,0.3314 0.42633,0.4372 0.18586,0.1056 0.41757,0.1586 0.69453,0.1586 0.27697,0 0.50816,-0.053 0.69402,-0.1586 0.18585,-0.1058 0.32793,-0.2513 0.42633,-0.4372 0.0984,-0.1895 0.15288,-0.4049 0.16381,-0.6454 0.003,-0.062 0.005,-0.1399 0.005,-0.2347 0,-0.098 -0.002,-0.1764 -0.005,-0.2351 -0.0109,-0.2442 -0.0675,-0.4591 -0.1695,-0.6449 -0.0984,-0.1859 -0.24047,-0.332 -0.42633,-0.4377 -0.18586,-0.1057 -0.41501,-0.1586 -0.68833,-0.1586 z m 15.81402,0 c -0.22594,0 -0.41181,0.04 -0.55759,0.1204 -0.14212,0.077 -0.26027,0.1768 -0.35501,0.3007 v -0.2403 c 0,-0.036 -0.0127,-0.065 -0.0382,-0.087 -0.0219,-0.025 -0.0514,-0.038 -0.0879,-0.038 H 375.853 c -0.0364,0 -0.0675,0.012 -0.093,0.038 -0.0219,0.021 -0.0326,0.051 -0.0326,0.087 v 2.5911 c 0,0.037 0.0107,0.068 0.0326,0.093 0.0255,0.022 0.0566,0.033 0.093,0.033 h 0.27337 c 0.0365,0 0.0655,-0.01 0.0873,-0.033 0.0255,-0.025 0.0382,-0.056 0.0382,-0.093 v -1.5141 c 0,-0.2552 0.0677,-0.4538 0.20257,-0.5959 0.13848,-0.1458 0.32079,-0.2191 0.54673,-0.2191 0.24052,0 0.42232,0.073 0.54622,0.2191 0.12391,0.1421 0.18604,0.3407 0.18604,0.5959 v 1.5141 c 0,0.037 0.0107,0.068 0.0326,0.093 0.0255,0.022 0.0566,0.033 0.093,0.033 h 0.27337 c 0.0365,0 0.0655,-0.01 0.0873,-0.033 0.0255,-0.025 0.0388,-0.056 0.0388,-0.093 v -1.5415 c 0,-0.2442 -0.0438,-0.4576 -0.13126,-0.6398 -0.0838,-0.1859 -0.2096,-0.3299 -0.37723,-0.432 -0.164,-0.1057 -0.36464,-0.1586 -0.60152,-0.1586 z m -7.23211,5e-4 c -0.24781,0 -0.46475,0.053 -0.65061,0.1586 -0.18221,0.1057 -0.32582,0.2569 -0.4315,0.4537 -0.10567,0.1932 -0.16575,0.4193 -0.18035,0.678 -0.003,0.047 -0.005,0.1091 -0.005,0.1855 0,0.073 0.002,0.1331 0.005,0.1804 0.0219,0.4009 0.14357,0.7181 0.36587,0.9514 0.2223,0.2296 0.52326,0.3441 0.90227,0.3441 v 5e-4 c 0.18586,0 0.35136,-0.023 0.49713,-0.071 0.14941,-0.051 0.27367,-0.1146 0.37207,-0.1912 0.10203,-0.077 0.17994,-0.1534 0.23461,-0.2299 0.055,-0.08 0.0845,-0.1474 0.0879,-0.2021 0.004,-0.037 -0.008,-0.064 -0.0331,-0.082 -0.0219,-0.022 -0.0488,-0.033 -0.0816,-0.033 h -0.2682 c -0.0401,0 -0.0691,0.01 -0.0873,0.016 -0.0182,0.01 -0.0437,0.033 -0.0765,0.077 -0.0182,0.029 -0.0549,0.07 -0.10955,0.1204 -0.0547,0.048 -0.12545,0.091 -0.21291,0.1313 -0.0875,0.04 -0.19695,0.06 -0.32814,0.06 -0.14942,0 -0.28081,-0.04 -0.39378,-0.1204 -0.1093,-0.08 -0.19281,-0.1841 -0.25115,-0.3116 -0.0583,-0.1312 -0.0914,-0.2712 -0.0987,-0.4206 v -0.027 -0.022 h 1.89188 c 0.0365,0 0.0655,-0.011 0.0873,-0.033 0.0255,-0.022 0.0382,-0.053 0.0382,-0.093 v -0.093 c 0,-0.288 -0.0494,-0.5395 -0.14779,-0.7545 -0.0984,-0.215 -0.242,-0.3805 -0.4315,-0.4971 -0.18586,-0.1166 -0.41757,-0.1752 -0.69453,-0.1752 z m 3.4711,0 c -0.2478,0 -0.46423,0.053 -0.65009,0.1586 -0.18221,0.1057 -0.32633,0.2569 -0.43201,0.4537 -0.10566,0.1932 -0.16575,0.4193 -0.18035,0.678 -0.003,0.047 -0.005,0.1091 -0.005,0.1855 0,0.073 0.002,0.1331 0.005,0.1804 0.0219,0.4009 0.14408,0.7181 0.36638,0.9514 0.2223,0.2296 0.52275,0.3441 0.90176,0.3441 v 5e-4 c 0.18586,0 0.35136,-0.023 0.49712,-0.071 0.14942,-0.051 0.27368,-0.1146 0.37207,-0.1912 0.10204,-0.077 0.18046,-0.1534 0.23513,-0.2299 0.055,-0.08 0.084,-0.1474 0.0873,-0.2021 0.004,-0.037 -0.008,-0.064 -0.0331,-0.082 -0.0219,-0.022 -0.0489,-0.033 -0.0817,-0.033 h -0.2682 c -0.0401,0 -0.0691,0.01 -0.0873,0.016 -0.0182,0.01 -0.0437,0.033 -0.0765,0.077 -0.0182,0.029 -0.0549,0.07 -0.10956,0.1204 -0.0547,0.048 -0.12544,0.091 -0.2129,0.1313 -0.0875,0.04 -0.19696,0.06 -0.32815,0.06 -0.14941,0 -0.28028,-0.04 -0.39326,-0.1204 -0.1093,-0.08 -0.19333,-0.1841 -0.25166,-0.3116 -0.0583,-0.1312 -0.0909,-0.2712 -0.0982,-0.4206 v -0.027 -0.022 h 1.89136 c 0.0365,0 0.0655,-0.011 0.0873,-0.033 0.0255,-0.022 0.0382,-0.053 0.0382,-0.093 v -0.093 c 0,-0.288 -0.0494,-0.5395 -0.1478,-0.7545 -0.0984,-0.215 -0.242,-0.3805 -0.4315,-0.4971 -0.18586,-0.1166 -0.41756,-0.1752 -0.69453,-0.1752 z m 8.76846,0 c -0.23323,0 -0.42828,0.04 -0.58498,0.1199 -0.15306,0.08 -0.26967,0.184 -0.34985,0.3116 -0.0802,0.1238 -0.1204,0.2532 -0.1204,0.3881 0,0.1312 0.0275,0.2498 0.0822,0.3555 0.0547,0.1021 0.14582,0.1911 0.27337,0.2677 0.12755,0.072 0.30069,0.1347 0.51935,0.186 0.21866,0.047 0.38976,0.093 0.51366,0.137 0.12753,0.044 0.21512,0.093 0.26252,0.1472 0.051,0.055 0.0765,0.1276 0.0765,0.2186 0,0.1385 -0.0601,0.2444 -0.18035,0.3173 -0.12026,0.069 -0.27355,0.1039 -0.45941,0.1039 -0.12754,0 -0.23499,-0.016 -0.32246,-0.049 -0.0838,-0.033 -0.15457,-0.074 -0.2129,-0.1256 -0.0583,-0.051 -0.11125,-0.1021 -0.15865,-0.1535 -0.0219,-0.023 -0.0402,-0.037 -0.0548,-0.044 -0.0109,-0.01 -0.0257,-0.011 -0.0439,-0.011 h -0.24598 c -0.0292,0 -0.0582,0.011 -0.0873,0.033 -0.0289,0.022 -0.0416,0.053 -0.0383,0.093 0.004,0.044 0.0276,0.1018 0.0713,0.1746 0.0474,0.073 0.11663,0.1457 0.20774,0.2186 0.0911,0.072 0.20925,0.1347 0.35501,0.186 0.14578,0.051 0.32096,0.077 0.52504,0.077 v 6e-4 c 0.25509,0 0.46999,-0.037 0.64492,-0.1096 0.17493,-0.077 0.30631,-0.1783 0.39377,-0.3059 0.0875,-0.1276 0.13074,-0.2681 0.13074,-0.4212 0,-0.1384 -0.029,-0.2602 -0.0873,-0.3659 -0.0583,-0.1057 -0.15659,-0.1989 -0.29507,-0.279 -0.13849,-0.08 -0.32792,-0.1439 -0.56844,-0.1912 -0.2223,-0.051 -0.38984,-0.098 -0.50281,-0.1421 -0.113,-0.044 -0.1899,-0.093 -0.22996,-0.1478 -0.0401,-0.055 -0.06,-0.1163 -0.06,-0.1855 0,-0.1166 0.0453,-0.2134 0.13643,-0.2899 0.0911,-0.077 0.2281,-0.1148 0.41031,-0.1148 0.12755,0 0.2294,0.017 0.30592,0.049 0.0802,0.029 0.14381,0.067 0.19121,0.1148 0.051,0.047 0.0948,0.095 0.13125,0.1421 0.0145,0.015 0.0293,0.027 0.0439,0.038 0.0182,0.011 0.0401,0.016 0.0656,0.016 h 0.22944 c 0.0328,0 0.0618,-0.011 0.0873,-0.033 0.0252,-0.025 0.0364,-0.056 0.0331,-0.093 -0.004,-0.047 -0.0276,-0.1059 -0.0713,-0.1751 -0.0437,-0.069 -0.10942,-0.1386 -0.19688,-0.2078 -0.0875,-0.073 -0.19848,-0.133 -0.33332,-0.1803 -0.13483,-0.047 -0.29677,-0.071 -0.48627,-0.071 z m 3.32331,0 c -0.19679,0 -0.36433,0.028 -0.50281,0.082 -0.13484,0.051 -0.24586,0.1147 -0.33331,0.1912 -0.0875,0.077 -0.15316,0.155 -0.19689,0.2352 -0.0401,0.08 -0.0599,0.1479 -0.0599,0.2025 0,0.033 0.009,0.062 0.0274,0.087 0.0219,0.022 0.0524,0.033 0.0925,0.033 h 0.24598 c 0.0547,0 0.0929,-0.028 0.11472,-0.082 0.0401,-0.1023 0.11139,-0.1859 0.21343,-0.2512 0.10204,-0.065 0.23343,-0.098 0.39377,-0.098 0.22595,0 0.38788,0.049 0.48628,0.1478 0.10204,0.098 0.15296,0.2349 0.15296,0.4098 v 0.1587 l -0.81442,0.1147 c -0.32799,0.047 -0.59381,0.1457 -0.79789,0.2951 -0.20407,0.1494 -0.30644,0.35 -0.30644,0.6015 0,0.1566 0.0458,0.2967 0.13695,0.4206 0.0911,0.1239 0.21128,0.2222 0.3607,0.2951 0.14926,0.073 0.31564,0.1095 0.49764,0.1095 0.17466,0 0.32222,-0.02 0.44235,-0.06 0.12026,-0.044 0.22059,-0.097 0.30076,-0.1586 0.0802,-0.066 0.1438,-0.1316 0.1912,-0.1969 v 0.2351 c 0,0.037 0.0112,0.068 0.0331,0.093 0.0219,0.022 0.053,0.033 0.093,0.033 h 0.25115 c 0.0365,0 0.0655,-0.011 0.0873,-0.033 0.0255,-0.025 0.0388,-0.056 0.0388,-0.093 v -1.771 c 0,-0.1239 -0.0204,-0.2461 -0.0605,-0.3663 -0.0364,-0.1203 -0.0981,-0.2278 -0.18552,-0.3225 -0.0838,-0.095 -0.20043,-0.1691 -0.34985,-0.2238 -0.14941,-0.059 -0.33377,-0.088 -0.55242,-0.088 z m 7.71322,0 c -0.19678,0 -0.36432,0.028 -0.50281,0.082 -0.13483,0.051 -0.24584,0.1147 -0.33331,0.1912 -0.0875,0.077 -0.15315,0.155 -0.19689,0.2352 -0.0401,0.08 -0.0605,0.1479 -0.0605,0.2025 0,0.033 0.009,0.062 0.0274,0.087 0.0219,0.022 0.053,0.033 0.093,0.033 h 0.24598 c 0.0547,0 0.0928,-0.028 0.11472,-0.082 0.0401,-0.1023 0.11139,-0.1859 0.21342,-0.2512 0.10204,-0.065 0.23291,-0.098 0.39326,-0.098 0.22594,0 0.38839,0.049 0.48679,0.1478 0.10203,0.098 0.15296,0.2349 0.15296,0.4098 v 0.1587 l -0.81442,0.1147 c -0.32798,0.047 -0.59432,0.1457 -0.7984,0.2951 -0.20408,0.1494 -0.30592,0.35 -0.30592,0.6015 0,0.1566 0.0458,0.2967 0.13694,0.4206 0.0911,0.1239 0.21129,0.2222 0.3607,0.2951 0.14941,0.073 0.31492,0.1095 0.49713,0.1095 0.17493,0 0.32261,-0.02 0.44287,-0.06 0.12026,-0.044 0.22058,-0.097 0.30075,-0.1586 0.0802,-0.066 0.14381,-0.1316 0.19121,-0.1969 v 0.2351 c 0,0.037 0.0112,0.068 0.0331,0.093 0.0219,0.022 0.0524,0.033 0.0925,0.033 h 0.25166 c 0.0365,0 0.0655,-0.011 0.0873,-0.033 0.0255,-0.025 0.0382,-0.056 0.0382,-0.093 v -1.771 c 0,-0.1239 -0.0199,-0.2461 -0.06,-0.3663 -0.0364,-0.1203 -0.0986,-0.2278 -0.18603,-0.3225 -0.0838,-0.095 -0.20044,-0.1691 -0.34985,-0.2238 -0.14942,-0.059 -0.33325,-0.088 -0.55191,-0.088 z m 9.73016,5e-4 c -0.27332,0 -0.50299,0.053 -0.68885,0.1586 -0.18585,0.1058 -0.32997,0.2513 -0.43201,0.4372 -0.0984,0.1858 -0.15288,0.4013 -0.16382,0.6455 -0.003,0.058 -0.005,0.1362 -0.005,0.2346 0,0.095 0.002,0.1731 0.005,0.2351 0.0109,0.2405 0.0654,0.4554 0.16382,0.6449 0.0984,0.1859 0.24098,0.332 0.42684,0.4377 0.18586,0.1057 0.41705,0.1581 0.69402,0.1581 0.27697,0 0.50816,-0.052 0.69401,-0.1581 0.18586,-0.1057 0.32846,-0.2518 0.42685,-0.4377 0.0984,-0.1895 0.15288,-0.4044 0.16381,-0.6449 0.003,-0.062 0.005,-0.1403 0.005,-0.2351 0,-0.098 -0.002,-0.176 -0.005,-0.2346 -0.0109,-0.2442 -0.0675,-0.4597 -0.16949,-0.6455 -0.0984,-0.1859 -0.24048,-0.3314 -0.42633,-0.4372 -0.18586,-0.1056 -0.41553,-0.1586 -0.68885,-0.1586 z m 5.98568,0 c -0.19679,0 -0.36433,0.027 -0.50281,0.082 -0.13484,0.051 -0.24585,0.1146 -0.33331,0.1912 -0.0875,0.077 -0.15316,0.1549 -0.19689,0.2351 -0.0401,0.08 -0.06,0.1479 -0.06,0.2026 0,0.033 0.009,0.061 0.0269,0.087 0.0219,0.022 0.053,0.033 0.093,0.033 h 0.24598 c 0.0547,0 0.0929,-0.028 0.11472,-0.082 0.0401,-0.1023 0.11139,-0.1858 0.21343,-0.2512 0.10204,-0.065 0.23291,-0.098 0.39326,-0.098 0.22594,0 0.38839,0.049 0.48679,0.1478 0.10204,0.098 0.15296,0.235 0.15296,0.4098 v 0.1587 l -0.81442,0.1147 c -0.32798,0.047 -0.59381,0.1457 -0.79789,0.2951 -0.20407,0.1494 -0.30644,0.35 -0.30644,0.6015 0,0.1567 0.0458,0.2967 0.13695,0.4206 0.0911,0.1239 0.21128,0.2222 0.3607,0.2951 0.14941,0.073 0.31491,0.1096 0.49712,0.1096 0.17493,0 0.32261,-0.02 0.44287,-0.06 0.12026,-0.044 0.22058,-0.097 0.30076,-0.1586 0.0802,-0.066 0.1438,-0.1311 0.1912,-0.1964 v 0.2351 c 0,0.037 0.0112,0.068 0.0331,0.093 0.0219,0.022 0.0524,0.033 0.0925,0.033 h 0.25166 c 0.0365,0 0.0655,-0.011 0.0873,-0.033 0.0255,-0.025 0.0382,-0.056 0.0382,-0.093 v -1.7714 c 0,-0.124 -0.0199,-0.2462 -0.0599,-0.3664 -0.0365,-0.1203 -0.0981,-0.2278 -0.18552,-0.3225 -0.0838,-0.095 -0.20044,-0.1691 -0.34985,-0.2237 -0.14941,-0.059 -0.33376,-0.088 -0.55242,-0.088 z m 3.76669,0 c -0.22594,0 -0.41182,0.04 -0.55758,0.1204 -0.14213,0.077 -0.26078,0.1769 -0.35554,0.3007 v -0.2408 c 0,-0.036 -0.0127,-0.065 -0.0382,-0.087 -0.0219,-0.025 -0.0509,-0.038 -0.0873,-0.038 h -0.25735 c -0.0364,0 -0.067,0.013 -0.0925,0.038 -0.0219,0.021 -0.0331,0.05 -0.0331,0.087 v 2.5911 c 0,0.037 0.0112,0.068 0.0331,0.093 0.0255,0.022 0.056,0.033 0.0925,0.033 h 0.27337 c 0.0365,0 0.066,-0.011 0.0879,-0.033 0.0255,-0.025 0.0382,-0.056 0.0382,-0.093 v -1.5141 c 0,-0.2552 0.0672,-0.4538 0.20205,-0.5959 0.13848,-0.1458 0.32079,-0.2185 0.54674,-0.2185 0.24052,0 0.42283,0.073 0.54674,0.2185 0.1239,0.1421 0.18552,0.3407 0.18552,0.5959 v 1.5141 c 0,0.037 0.0112,0.068 0.0331,0.093 0.0255,0.022 0.0565,0.033 0.093,0.033 h 0.27285 c 0.0365,0 0.066,-0.011 0.0879,-0.033 0.0255,-0.025 0.0382,-0.056 0.0382,-0.093 v -1.5415 c 0,-0.2442 -0.0438,-0.4571 -0.13126,-0.6393 -0.0838,-0.1858 -0.2096,-0.3299 -0.37724,-0.432 -0.16398,-0.1056 -0.36412,-0.1586 -0.601,-0.1586 z m 5.97432,5e-4 c -0.27332,0 -0.503,0.053 -0.68885,0.1586 -0.18586,0.1058 -0.32946,0.2519 -0.4315,0.4377 -0.0984,0.1858 -0.1534,0.4008 -0.16433,0.645 -0.003,0.058 -0.005,0.1362 -0.005,0.2346 0,0.095 10e-4,0.1731 0.005,0.2351 0.0109,0.2405 0.0659,0.456 0.16433,0.6454 0.0984,0.1859 0.24047,0.3315 0.42633,0.4372 0.18586,0.1057 0.41706,0.1587 0.69402,0.1587 0.27696,0 0.50867,-0.053 0.69453,-0.1587 0.18585,-0.1057 0.32793,-0.2513 0.42633,-0.4372 0.0984,-0.1894 0.15288,-0.4049 0.16381,-0.6454 0.003,-0.062 0.005,-0.1403 0.005,-0.2351 0,-0.098 -0.002,-0.176 -0.005,-0.2346 -0.0109,-0.2442 -0.0675,-0.4592 -0.1695,-0.645 -0.0984,-0.1858 -0.24047,-0.3319 -0.42633,-0.4377 -0.18586,-0.1056 -0.41552,-0.1586 -0.68884,-0.1586 z m -73.42446,0.054 c -0.0364,0 -0.0675,0.012 -0.093,0.038 -0.0219,0.021 -0.0331,0.05 -0.0331,0.087 v 2.591 c 0,0.037 0.0112,0.068 0.0331,0.093 0.0255,0.022 0.0566,0.033 0.093,0.033 h 0.262 c 0.0365,0 0.066,-0.011 0.0879,-0.033 0.0255,-0.025 0.0382,-0.056 0.0382,-0.093 v -2.591 c 0,-0.036 -0.0127,-0.065 -0.0382,-0.087 -0.0219,-0.025 -0.0514,-0.038 -0.0879,-0.038 z m 1.73271,0 c -0.0364,0 -0.0675,0.012 -0.093,0.038 -0.0219,0.021 -0.0326,0.05 -0.0326,0.087 v 2.591 c 0,0.037 0.0107,0.068 0.0326,0.093 0.0255,0.022 0.0566,0.033 0.093,0.033 h 0.26252 c 0.0365,0 0.0655,-0.011 0.0873,-0.033 0.0255,-0.025 0.0382,-0.056 0.0382,-0.093 v -2.591 c 0,-0.036 -0.0127,-0.065 -0.0382,-0.087 -0.0219,-0.025 -0.0509,-0.038 -0.0873,-0.038 z m 40.99285,0 c -0.0364,0 -0.0675,0.013 -0.093,0.038 -0.0219,0.025 -0.0331,0.056 -0.0331,0.093 v 2.5854 c 0,0.037 0.0112,0.068 0.0331,0.093 0.0255,0.022 0.0566,0.033 0.093,0.033 h 0.26768 c 0.0364,0 0.0675,-0.011 0.093,-0.033 0.0255,-0.025 0.0382,-0.056 0.0382,-0.093 v -1.6071 c 0,-0.1968 0.0565,-0.3516 0.1695,-0.4646 0.11296,-0.1166 0.26778,-0.1751 0.46457,-0.1751 h 0.32763 c 0.0365,0 0.066,-0.011 0.0879,-0.033 0.0255,-0.021 0.0382,-0.051 0.0382,-0.087 v -0.2238 c 0,-0.036 -0.0127,-0.065 -0.0382,-0.087 -0.0219,-0.025 -0.0514,-0.038 -0.0879,-0.038 h -0.21291 c -0.18221,0 -0.33702,0.031 -0.46457,0.093 -0.12755,0.062 -0.22787,0.1546 -0.30076,0.2785 v -0.2403 c 0,-0.037 -0.0127,-0.068 -0.0382,-0.093 -0.0255,-0.025 -0.0565,-0.038 -0.093,-0.038 z m -31.3831,6e-4 c -0.0364,0 -0.067,0.012 -0.0925,0.038 -0.0219,0.021 -0.0331,0.051 -0.0331,0.087 v 1.5415 c 0,0.2406 0.0417,0.4534 0.12557,0.6393 0.0838,0.1858 0.20604,0.3315 0.36639,0.4371 0.16399,0.1021 0.36259,0.1535 0.59583,0.1535 0.22959,0 0.41394,-0.038 0.55242,-0.1147 0.14212,-0.077 0.2623,-0.1789 0.3607,-0.3064 v 0.2408 c 0,0.037 0.0107,0.068 0.0326,0.093 0.0255,0.022 0.0566,0.033 0.093,0.033 h 0.25683 c 0.0365,0 0.066,-0.01 0.0879,-0.033 0.0219,-0.025 0.0326,-0.056 0.0326,-0.093 v -2.5911 c 0,-0.036 -0.0107,-0.065 -0.0326,-0.087 -0.0219,-0.025 -0.0514,-0.038 -0.0879,-0.038 h -0.27336 c -0.0364,0 -0.067,0.012 -0.0925,0.038 -0.0219,0.021 -0.0331,0.051 -0.0331,0.087 v 1.5141 c 0,0.2552 -0.0693,0.4553 -0.20774,0.601 -0.13484,0.1422 -0.31511,0.2135 -0.54105,0.2135 -0.47376,0 -0.71055,-0.2715 -0.71055,-0.8145 v -1.5141 c 0,-0.036 -0.0127,-0.065 -0.0382,-0.087 -0.0219,-0.025 -0.0514,-0.038 -0.0879,-0.038 z m 33.92454,5e-4 c -0.0364,0 -0.0675,0.012 -0.093,0.038 -0.0219,0.021 -0.0326,0.051 -0.0326,0.087 v 2.7766 c 0,0.098 -0.0107,0.188 -0.0326,0.2682 -0.0182,0.084 -0.0585,0.149 -0.1204,0.1964 -0.062,0.051 -0.15871,0.077 -0.28991,0.077 h -0.0765 c -0.0365,0 -0.0655,0.011 -0.0873,0.033 -0.0255,0.025 -0.0382,0.056 -0.0382,0.093 v 0.186 c 0,0.036 0.0127,0.065 0.0382,0.087 0.0219,0.025 0.0509,0.038 0.0873,0.038 h 0.10387 c 0.23323,0 0.41758,-0.042 0.55242,-0.1261 0.13482,-0.08 0.23106,-0.1928 0.28939,-0.3385 0.0619,-0.1458 0.093,-0.3154 0.093,-0.5085 v -2.7823 c 0,-0.036 -0.0127,-0.065 -0.0382,-0.087 -0.0219,-0.025 -0.0509,-0.038 -0.0873,-0.038 z m 7.66413,0 c -0.0364,0 -0.0675,0.013 -0.093,0.038 -0.0219,0.021 -0.0326,0.05 -0.0326,0.087 v 1.5415 c 0,0.2406 0.0418,0.4539 0.12557,0.6398 0.0838,0.1859 0.20604,0.3315 0.36639,0.4372 0.16399,0.102 0.3626,0.1529 0.59583,0.1529 0.22959,0 0.41342,-0.038 0.5519,-0.1147 0.14213,-0.077 0.26231,-0.1784 0.36071,-0.3059 v 0.2403 c 0,0.037 0.0112,0.068 0.0331,0.093 0.0255,0.022 0.056,0.033 0.0925,0.033 h 0.25735 c 0.0365,0 0.0655,-0.011 0.0873,-0.033 0.0219,-0.025 0.0326,-0.056 0.0326,-0.093 v -2.5911 c 0,-0.036 -0.0107,-0.065 -0.0326,-0.087 -0.0219,-0.025 -0.0509,-0.038 -0.0873,-0.038 h -0.27337 c -0.0364,0 -0.0675,0.013 -0.093,0.038 -0.0219,0.021 -0.0325,0.05 -0.0325,0.087 v 1.5142 c 0,0.2551 -0.0693,0.4557 -0.20774,0.6015 -0.13484,0.1421 -0.31563,0.2134 -0.54157,0.2134 -0.47376,0 -0.71055,-0.2719 -0.71055,-0.8149 v -1.5142 c 0,-0.036 -0.0127,-0.065 -0.0382,-0.087 -0.0219,-0.025 -0.0509,-0.038 -0.0873,-0.038 z m -28.23961,0.3436 c 0.1567,0 0.29165,0.038 0.40462,0.1147 0.11295,0.073 0.1985,0.1733 0.25683,0.3008 0.0619,0.1275 0.093,0.2732 0.093,0.4372 v 0.016 h -1.49758 v -0.016 c 0,-0.164 0.029,-0.3097 0.0873,-0.4372 0.0583,-0.1275 0.14234,-0.2279 0.25167,-0.3008 0.11297,-0.077 0.24741,-0.1147 0.40411,-0.1147 z m 3.4711,0 c 0.15671,0 0.29165,0.038 0.40463,0.1147 0.11294,0.073 0.1985,0.1733 0.25683,0.3008 0.0619,0.1275 0.093,0.2732 0.093,0.4372 v 0.016 h -1.49759 v -0.016 c 0,-0.164 0.029,-0.3097 0.0873,-0.4372 0.0583,-0.1275 0.14234,-0.2279 0.25166,-0.3008 0.11298,-0.077 0.24741,-0.1147 0.40411,-0.1147 z m -12.05301,0.021 c 0.22595,0 0.40621,0.073 0.54105,0.2186 0.13484,0.1421 0.20766,0.352 0.21859,0.6289 0.003,0.055 0.005,0.1239 0.005,0.2077 0,0.084 -0.002,0.1531 -0.005,0.2078 -0.0109,0.2769 -0.0838,0.4883 -0.21859,0.6341 -0.13484,0.1421 -0.3151,0.2129 -0.54105,0.2129 -0.22594,0 -0.40825,-0.071 -0.54674,-0.2129 -0.13486,-0.1458 -0.20615,-0.3572 -0.21342,-0.6341 -0.003,-0.055 -0.005,-0.1239 -0.005,-0.2078 0,-0.084 10e-4,-0.153 0.005,-0.2077 0.007,-0.2769 0.0786,-0.4868 0.21342,-0.6289 0.13849,-0.1458 0.3208,-0.2186 0.54674,-0.2186 z m 41.58816,10e-4 c 0.22595,0 0.40622,0.073 0.54105,0.2186 0.13484,0.1422 0.20766,0.3515 0.21859,0.6284 0.003,0.055 0.005,0.124 0.005,0.2078 0,0.084 -0.002,0.153 -0.005,0.2077 -0.0109,0.2769 -0.0838,0.4883 -0.21859,0.6341 -0.13483,0.1421 -0.3151,0.2134 -0.54105,0.2134 -0.22595,0 -0.40826,-0.071 -0.54674,-0.2134 -0.13486,-0.1458 -0.20564,-0.3572 -0.2129,-0.6341 -0.003,-0.055 -0.005,-0.1239 -0.005,-0.2077 0,-0.084 0.002,-0.1531 0.005,-0.2078 0.007,-0.2769 0.0781,-0.4862 0.2129,-0.6284 0.13848,-0.1458 0.32079,-0.2186 0.54674,-0.2186 z m 15.72669,6e-4 c 0.22594,0 0.40673,0.073 0.54157,0.2186 0.13483,0.1421 0.20765,0.3514 0.21859,0.6283 0.003,0.055 0.005,0.124 0.005,0.2078 0,0.084 -0.001,0.1536 -0.005,0.2082 -0.0109,0.277 -0.0838,0.4883 -0.21859,0.6341 -0.13484,0.1421 -0.31563,0.2129 -0.54157,0.2129 -0.22594,0 -0.40825,-0.071 -0.54674,-0.2129 -0.13486,-0.1458 -0.20564,-0.3571 -0.21291,-0.6341 -0.003,-0.055 -0.005,-0.1244 -0.005,-0.2082 0,-0.084 0.002,-0.1531 0.005,-0.2078 0.007,-0.2769 0.0781,-0.4862 0.21291,-0.6283 0.13849,-0.1458 0.3208,-0.2186 0.54674,-0.2186 z m -82.2694,1.064 v 0.1529 c 0,0.2042 -0.0362,0.3737 -0.10903,0.5085 -0.0692,0.1352 -0.166,0.2355 -0.28991,0.3008 -0.1239,0.062 -0.26037,0.093 -0.40979,0.093 v -5e-4 c -0.0984,0 -0.19515,-0.016 -0.28991,-0.049 -0.0911,-0.033 -0.16751,-0.082 -0.22944,-0.1478 -0.0583,-0.069 -0.0879,-0.1548 -0.0879,-0.2568 0,-0.1312 0.0657,-0.2387 0.19689,-0.3225 0.13119,-0.087 0.32623,-0.1493 0.58497,-0.186 z m 49.7334,10e-4 v 0.153 c 0,0.2041 -0.0361,0.3737 -0.10904,0.5085 -0.0692,0.1351 -0.166,0.2354 -0.2899,0.3007 -0.12391,0.062 -0.26038,0.093 -0.4098,0.093 v -5e-4 c -0.0984,0 -0.19515,-0.016 -0.2899,-0.049 -0.0911,-0.033 -0.16751,-0.082 -0.22944,-0.1472 -0.0583,-0.069 -0.0873,-0.1549 -0.0873,-0.2569 0,-0.1312 0.0652,-0.2391 0.19637,-0.3229 0.1312,-0.087 0.32623,-0.1489 0.58498,-0.1856 z m 7.71322,0 v 0.153 c 0,0.2041 -0.0367,0.3737 -0.10955,0.5085 -0.0693,0.1351 -0.16549,0.2354 -0.28939,0.3007 -0.12391,0.062 -0.2609,0.093 -0.41031,0.093 l 5.2e-4,-5e-4 c -0.0984,0 -0.19516,-0.016 -0.28991,-0.049 -0.0911,-0.033 -0.16751,-0.082 -0.22944,-0.1472 -0.0583,-0.069 -0.0879,-0.1549 -0.0879,-0.2569 0,-0.1312 0.0657,-0.2391 0.19689,-0.3229 0.13119,-0.087 0.32623,-0.1489 0.58497,-0.1856 z m 15.71584,5e-4 v 0.153 c 0,0.2041 -0.0362,0.3737 -0.10904,0.5085 -0.0692,0.1351 -0.166,0.2354 -0.2899,0.3007 -0.12391,0.062 -0.26038,0.093 -0.4098,0.093 v -6e-4 c -0.0984,0 -0.19515,-0.016 -0.2899,-0.049 -0.0911,-0.033 -0.16751,-0.082 -0.22944,-0.1473 -0.0583,-0.069 -0.0879,-0.1549 -0.0879,-0.2569 0,-0.1312 0.0657,-0.2386 0.19688,-0.3224 0.1312,-0.087 0.32624,-0.1494 0.58498,-0.186 z m -19.97397,4.5899 c -0.0364,0 -0.0675,0.013 -0.093,0.038 -0.0219,0.025 -0.0331,0.056 -0.0331,0.093 v 0.2951 c 0,0.037 0.0112,0.068 0.0331,0.093 0.0255,0.022 0.0566,0.033 0.093,0.033 h 0.34416 c 0.0364,0 0.0675,-0.011 0.093,-0.033 0.0255,-0.025 0.0382,-0.056 0.0382,-0.093 v -0.2951 c 0,-0.037 -0.0127,-0.068 -0.0382,-0.093 -0.0255,-0.025 -0.0566,-0.038 -0.093,-0.038 z m 14.14125,0 c -0.0364,0 -0.067,0.012 -0.0925,0.038 -0.0219,0.025 -0.0331,0.056 -0.0331,0.093 v 0.295 c 0,0.037 0.0112,0.068 0.0331,0.093 0.0255,0.022 0.056,0.033 0.0925,0.033 h 0.34468 c 0.0364,0 0.0675,-0.011 0.093,-0.033 0.0255,-0.025 0.0382,-0.056 0.0382,-0.093 v -0.295 c 0,-0.037 -0.0127,-0.068 -0.0382,-0.093 -0.0255,-0.025 -0.0565,-0.038 -0.093,-0.038 z m -63.48139,6e-4 c -0.0364,0 -0.067,0.012 -0.0925,0.038 -0.0219,0.025 -0.0331,0.056 -0.0331,0.093 v 0.2951 c 0,0.037 0.0112,0.068 0.0331,0.093 0.0255,0.022 0.056,0.033 0.0925,0.033 h 0.34468 c 0.0364,0 0.067,-0.011 0.0925,-0.033 0.0255,-0.025 0.0388,-0.056 0.0388,-0.093 v -0.2951 c 0,-0.037 -0.0132,-0.068 -0.0388,-0.093 -0.0255,-0.025 -0.056,-0.038 -0.0925,-0.038 z m 10.42985,0 c -0.0364,0 -0.067,0.013 -0.0925,0.038 -0.0219,0.025 -0.0331,0.056 -0.0331,0.093 v 0.2951 c 0,0.037 0.0112,0.068 0.0331,0.093 0.0255,0.022 0.056,0.033 0.0925,0.033 h 0.34468 c 0.0364,0 0.0675,-0.011 0.093,-0.033 0.0255,-0.025 0.0382,-0.056 0.0382,-0.093 v -0.2951 c 0,-0.037 -0.0127,-0.068 -0.0382,-0.093 -0.0255,-0.025 -0.0566,-0.038 -0.093,-0.038 z m 14.14177,0 c -0.0364,0 -0.0675,0.012 -0.093,0.038 -0.0219,0.025 -0.0326,0.056 -0.0326,0.093 v 0.2951 c 0,0.037 0.0107,0.068 0.0326,0.093 0.0255,0.022 0.0566,0.033 0.093,0.033 h 0.34468 c 0.0364,0 0.067,-0.011 0.0925,-0.033 0.0255,-0.025 0.0382,-0.056 0.0382,-0.093 v -0.2951 c 0,-0.037 -0.0127,-0.068 -0.0382,-0.093 -0.0255,-0.025 -0.056,-0.038 -0.0925,-0.038 z m 3.53674,0 c -0.0364,0 -0.0675,0.012 -0.093,0.038 -0.0219,0.025 -0.0326,0.056 -0.0326,0.093 v 0.2951 c 0,0.037 0.0107,0.068 0.0326,0.093 0.0255,0.022 0.0566,0.033 0.093,0.033 h 0.34985 c 0.0364,0 0.0675,-0.011 0.093,-0.033 0.0255,-0.025 0.0382,-0.056 0.0382,-0.093 v -0.2951 c 0,-0.037 -0.0127,-0.068 -0.0382,-0.093 -0.0255,-0.025 -0.0566,-0.038 -0.093,-0.038 z m -37.22615,0.044 c -0.0364,0 -0.0675,0.012 -0.093,0.038 -0.0219,0.021 -0.0326,0.051 -0.0326,0.087 v 3.6293 c 0,0.037 0.0107,0.068 0.0326,0.093 0.0255,0.022 0.0565,0.033 0.093,0.033 h 0.25683 c 0.0365,0 0.0655,-0.011 0.0873,-0.033 0.0255,-0.025 0.0388,-0.056 0.0388,-0.093 v -1.1312 l 1.21853,1.1642 c 0.0401,0.037 0.0732,0.062 0.0987,0.077 0.0255,0.011 0.0657,0.016 0.12041,0.016 h 0.28422 c 0.0328,0 0.0598,-0.011 0.0817,-0.033 0.0219,-0.022 0.0331,-0.049 0.0331,-0.082 0,-0.029 -0.0219,-0.061 -0.0656,-0.098 l -1.3994,-1.3612 1.26246,-1.0496 c 0.0255,-0.019 0.0423,-0.037 0.0496,-0.055 0.0109,-0.018 0.016,-0.034 0.016,-0.049 0,-0.033 -0.0107,-0.06 -0.0326,-0.082 -0.0219,-0.022 -0.0494,-0.033 -0.0822,-0.033 h -0.28939 c -0.0546,0 -0.0949,0.01 -0.12041,0.022 -0.0219,0.011 -0.055,0.035 -0.0987,0.071 l -1.07642,0.8965 v -1.9022 c 0,-0.036 -0.0132,-0.065 -0.0388,-0.087 -0.0219,-0.025 -0.0509,-0.038 -0.0873,-0.038 z m 55.03023,0 c -0.0364,0 -0.0675,0.012 -0.093,0.038 -0.0219,0.021 -0.0326,0.051 -0.0326,0.087 v 3.6293 c 0,0.037 0.0107,0.068 0.0326,0.093 0.0255,0.022 0.0566,0.033 0.093,0.033 h 0.25683 c 0.0401,0 0.0712,-0.011 0.093,-0.033 0.0219,-0.025 0.0331,-0.056 0.0331,-0.093 v -3.6293 c 0,-0.036 -0.0112,-0.065 -0.0331,-0.087 -0.0219,-0.025 -0.053,-0.038 -0.093,-0.038 z m 1.73839,0 c -0.0364,0 -0.0675,0.012 -0.093,0.038 -0.0219,0.021 -0.0326,0.051 -0.0326,0.087 v 3.6293 c 0,0.037 0.0107,0.068 0.0326,0.093 0.0255,0.022 0.0566,0.033 0.093,0.033 h 0.25683 c 0.0401,0 0.0712,-0.011 0.093,-0.033 0.0219,-0.025 0.0326,-0.056 0.0326,-0.093 v -3.6293 c 0,-0.036 -0.0107,-0.065 -0.0326,-0.087 -0.0219,-0.025 -0.053,-0.038 -0.093,-0.038 z m 13.57282,0 c -0.0364,0 -0.067,0.013 -0.0925,0.038 -0.0219,0.021 -0.0331,0.05 -0.0331,0.087 v 0.9132 h -0.42633 c -0.0364,0 -0.0675,0.012 -0.093,0.038 -0.0219,0.021 -0.0326,0.051 -0.0326,0.087 v 0.186 c 0,0.037 0.0107,0.067 0.0326,0.092 0.0255,0.022 0.0566,0.033 0.093,0.033 h 0.42633 v 1.4433 c 0,0.1968 0.0295,0.3679 0.0879,0.5137 0.0583,0.1421 0.15099,0.2537 0.27854,0.3338 0.12755,0.077 0.29357,0.1148 0.49764,0.1148 l 0.37724,-6e-4 c 0.0365,0 0.0655,-0.011 0.0873,-0.033 0.0255,-0.025 0.0383,-0.056 0.0383,-0.093 v -0.1969 c 0,-0.036 -0.0127,-0.065 -0.0383,-0.087 -0.0219,-0.025 -0.0509,-0.038 -0.0873,-0.038 h -0.33383 c -0.14938,0 -0.25327,-0.049 -0.31161,-0.1473 -0.0583,-0.098 -0.0873,-0.2333 -0.0873,-0.4046 v -1.4051 h 0.67799 c 0.0401,0 0.0706,-0.011 0.0925,-0.033 0.0219,-0.025 0.0331,-0.056 0.0331,-0.092 v -0.186 c 0,-0.036 -0.0112,-0.065 -0.0331,-0.087 -0.0219,-0.025 -0.0524,-0.038 -0.0925,-0.038 h -0.67799 v -0.9132 c 0,-0.036 -0.0127,-0.065 -0.0382,-0.087 -0.0219,-0.025 -0.0509,-0.038 -0.0873,-0.038 z m -20.75584,5e-4 c -0.0364,0 -0.067,0.012 -0.0925,0.038 -0.0219,0.021 -0.0331,0.051 -0.0331,0.087 v 1.2573 c -0.0911,-0.113 -0.20773,-0.2077 -0.34985,-0.2842 -0.14213,-0.077 -0.32088,-0.1152 -0.53589,-0.1152 -0.20044,0 -0.37358,0.037 -0.51935,0.1095 -0.14577,0.069 -0.26595,0.166 -0.3607,0.2899 -0.0911,0.1239 -0.16034,0.2639 -0.20774,0.4207 -0.0437,0.1567 -0.0692,0.3207 -0.0765,0.4919 -0.003,0.058 -0.005,0.113 -0.005,0.1644 0,0.051 0.001,0.1058 0.005,0.1638 0.007,0.1749 0.0327,0.3409 0.0765,0.4976 0.0474,0.1568 0.11664,0.2968 0.20774,0.4207 0.0947,0.1202 0.21493,0.217 0.3607,0.2899 0.14577,0.069 0.31891,0.1039 0.51935,0.1039 0.21865,0 0.40097,-0.038 0.54674,-0.1148 0.14576,-0.08 0.26443,-0.179 0.35553,-0.2956 v 0.23 c 0,0.037 0.0107,0.068 0.0326,0.093 0.0219,0.022 0.053,0.033 0.093,0.033 h 0.24598 c 0.0365,0 0.0655,-0.011 0.0873,-0.033 0.0255,-0.025 0.0382,-0.056 0.0382,-0.093 v -3.6298 c 0,-0.036 -0.0127,-0.065 -0.0382,-0.087 -0.0219,-0.025 -0.0509,-0.038 -0.0873,-0.038 z m -42.72556,5e-4 c -0.0364,0 -0.067,0.012 -0.0925,0.038 -0.0219,0.021 -0.0331,0.05 -0.0331,0.087 v 0.9132 h -0.42633 c -0.0364,0 -0.0675,0.013 -0.093,0.038 -0.0219,0.021 -0.0326,0.05 -0.0326,0.087 v 0.1861 c 0,0.037 0.0107,0.068 0.0326,0.093 0.0255,0.022 0.0566,0.033 0.093,0.033 h 0.42633 v 1.4428 c 0,0.1968 0.029,0.3683 0.0873,0.5141 0.0583,0.1422 0.15151,0.2532 0.27906,0.3334 0.12755,0.077 0.29356,0.1147 0.49764,0.1147 l 0.37724,-5e-4 c 0.0365,0 0.0655,-0.011 0.0873,-0.033 0.0255,-0.025 0.0382,-0.056 0.0382,-0.093 v -0.1969 c 0,-0.036 -0.0127,-0.065 -0.0382,-0.087 -0.0219,-0.025 -0.0509,-0.038 -0.0873,-0.038 h -0.33383 c -0.1494,0 -0.25328,-0.049 -0.31161,-0.1478 -0.0583,-0.098 -0.0873,-0.2333 -0.0873,-0.4046 v -1.4045 h 0.67799 c 0.0401,0 0.0706,-0.011 0.0925,-0.033 0.0219,-0.025 0.0331,-0.056 0.0331,-0.093 v -0.1861 c 0,-0.036 -0.0112,-0.065 -0.0331,-0.087 -0.0219,-0.025 -0.0524,-0.038 -0.0925,-0.038 h -0.67799 v -0.9132 c 0,-0.036 -0.0127,-0.065 -0.0382,-0.087 -0.0219,-0.025 -0.0509,-0.038 -0.0873,-0.038 z m 24.57163,0 c -0.0364,0 -0.0675,0.012 -0.093,0.038 -0.0219,0.021 -0.0326,0.05 -0.0326,0.087 v 0.9132 h -0.42634 c -0.0364,0 -0.0675,0.013 -0.093,0.038 -0.0219,0.021 -0.0326,0.05 -0.0326,0.087 v 0.1861 c 0,0.037 0.0107,0.068 0.0326,0.093 0.0255,0.022 0.0565,0.033 0.093,0.033 h 0.42634 v 1.4428 c 0,0.1968 0.029,0.3683 0.0873,0.5141 0.0583,0.1422 0.1515,0.2532 0.27905,0.3334 0.12755,0.077 0.29305,0.1147 0.49713,0.1147 l 0.37724,-5e-4 c 0.0365,0 0.066,-0.011 0.0879,-0.033 0.0255,-0.025 0.0382,-0.056 0.0382,-0.093 v -0.1969 c 0,-0.036 -0.0127,-0.065 -0.0382,-0.087 -0.0219,-0.025 -0.0514,-0.038 -0.0879,-0.038 H 363.324 c -0.14939,0 -0.25327,-0.049 -0.31161,-0.1478 -0.0583,-0.098 -0.0873,-0.2333 -0.0873,-0.4046 v -1.4045 h 0.678 c 0.0401,0 0.0706,-0.011 0.0925,-0.033 0.0219,-0.025 0.0331,-0.056 0.0331,-0.093 v -0.1861 c 0,-0.036 -0.0112,-0.065 -0.0331,-0.087 -0.0219,-0.025 -0.0524,-0.038 -0.0925,-0.038 h -0.678 v -0.9132 c 0,-0.036 -0.0127,-0.065 -0.0382,-0.087 -0.0219,-0.025 -0.0514,-0.038 -0.0879,-0.038 z m 29.63385,0.9819 c -0.23323,0 -0.42827,0.04 -0.58498,0.1199 -0.15306,0.08 -0.26968,0.184 -0.34985,0.3116 -0.0802,0.1238 -0.1204,0.2532 -0.1204,0.388 0,0.1312 0.0275,0.2499 0.0822,0.3556 0.0547,0.102 0.14582,0.1911 0.27337,0.2677 0.12755,0.072 0.30069,0.1347 0.51935,0.186 0.21866,0.047 0.38975,0.093 0.51366,0.1369 0.12752,0.044 0.21512,0.093 0.26252,0.1473 0.051,0.055 0.0765,0.1275 0.0765,0.2186 0,0.1385 -0.0601,0.2444 -0.18035,0.3173 -0.12026,0.069 -0.27355,0.1039 -0.45941,0.1039 -0.12754,0 -0.235,-0.016 -0.32246,-0.049 -0.0838,-0.032 -0.15509,-0.075 -0.21342,-0.1261 -0.0583,-0.051 -0.11073,-0.1016 -0.15813,-0.153 -0.0219,-0.023 -0.0402,-0.037 -0.0548,-0.044 -0.0109,-0.01 -0.0257,-0.011 -0.0439,-0.011 h -0.24598 c -0.0292,0 -0.0582,0.011 -0.0873,0.033 -0.0289,0.022 -0.0416,0.053 -0.0383,0.093 0.004,0.044 0.0271,0.1018 0.0708,0.1747 0.0474,0.073 0.11663,0.1457 0.20774,0.2186 0.0911,0.073 0.20977,0.1347 0.35553,0.186 0.14578,0.051 0.32044,0.077 0.52452,0.077 l 5.2e-4,6e-4 c 0.2551,0 0.47,-0.037 0.64492,-0.1096 0.17493,-0.077 0.3058,-0.1784 0.39326,-0.3059 0.0875,-0.1276 0.13125,-0.2681 0.13125,-0.4212 0,-0.1385 -0.029,-0.2602 -0.0873,-0.3659 -0.0583,-0.1056 -0.15659,-0.1988 -0.29507,-0.279 -0.13848,-0.08 -0.32792,-0.1439 -0.56844,-0.1912 -0.2223,-0.051 -0.39036,-0.098 -0.50333,-0.1421 -0.11299,-0.044 -0.18938,-0.093 -0.22944,-0.1478 -0.0401,-0.055 -0.06,-0.1163 -0.06,-0.1855 0,-0.1166 0.0453,-0.2134 0.13643,-0.2899 0.0911,-0.077 0.2281,-0.1148 0.41031,-0.1148 0.12754,0 0.2294,0.017 0.30592,0.049 0.0802,0.029 0.14381,0.067 0.19121,0.1148 0.051,0.047 0.0948,0.095 0.13125,0.1421 0.0145,0.015 0.0293,0.027 0.0439,0.038 0.0182,0.011 0.0401,0.016 0.0656,0.016 h 0.22944 c 0.0328,0 0.0618,-0.011 0.0873,-0.033 0.0252,-0.025 0.0364,-0.056 0.0331,-0.093 -0.004,-0.047 -0.0276,-0.1059 -0.0713,-0.1752 -0.0437,-0.069 -0.10942,-0.1384 -0.19688,-0.2077 -0.0875,-0.073 -0.19848,-0.133 -0.33332,-0.1803 -0.13484,-0.047 -0.29677,-0.071 -0.48627,-0.071 z m 6.66884,0 c -0.23323,0 -0.42828,0.04 -0.58498,0.1199 -0.15306,0.08 -0.26967,0.184 -0.34984,0.3116 -0.0802,0.1238 -0.12041,0.2532 -0.12041,0.388 0,0.1312 0.0275,0.2499 0.0822,0.3556 0.0547,0.102 0.14583,0.1911 0.27337,0.2677 0.12756,0.072 0.3007,0.1347 0.51935,0.186 0.21865,0.047 0.38976,0.093 0.51366,0.1369 0.12753,0.044 0.21512,0.093 0.26252,0.1473 0.051,0.055 0.0765,0.1275 0.0765,0.2186 0,0.1385 -0.0601,0.2444 -0.18035,0.3173 -0.12026,0.069 -0.27354,0.1039 -0.4594,0.1039 -0.12755,0 -0.235,-0.016 -0.32246,-0.049 -0.0838,-0.032 -0.15458,-0.075 -0.21291,-0.1261 -0.0583,-0.051 -0.11125,-0.1016 -0.15865,-0.153 -0.0219,-0.023 -0.0402,-0.037 -0.0548,-0.044 -0.0109,-0.01 -0.0252,-0.011 -0.0434,-0.011 h -0.2465 c -0.0292,0 -0.0582,0.011 -0.0873,0.033 -0.0289,0.022 -0.0416,0.053 -0.0382,0.093 0.004,0.044 0.0276,0.1018 0.0713,0.1747 0.0474,0.073 0.11663,0.1457 0.20774,0.2186 0.0911,0.073 0.20924,0.1347 0.35502,0.186 0.14577,0.051 0.32096,0.077 0.52503,0.077 v 6e-4 c 0.2551,0 0.47,-0.037 0.64492,-0.1096 0.17493,-0.077 0.30632,-0.1784 0.39378,-0.3059 0.0875,-0.1276 0.13125,-0.2681 0.13125,-0.4212 0,-0.1385 -0.0295,-0.2602 -0.0879,-0.3659 -0.0583,-0.1056 -0.15659,-0.1988 -0.29507,-0.279 -0.13848,-0.08 -0.32792,-0.1439 -0.56844,-0.1912 -0.2223,-0.051 -0.38984,-0.098 -0.50281,-0.1421 -0.11299,-0.044 -0.18989,-0.093 -0.22996,-0.1478 -0.0401,-0.055 -0.0599,-0.1163 -0.0599,-0.1855 0,-0.1166 0.0458,-0.2134 0.13694,-0.2899 0.0911,-0.077 0.22758,-0.1148 0.40979,-0.1148 0.12755,0 0.2294,0.017 0.30593,0.049 0.0801,0.029 0.14432,0.067 0.19172,0.1148 0.051,0.047 0.0943,0.095 0.13074,0.1421 0.0145,0.015 0.0293,0.027 0.0439,0.038 0.0182,0.011 0.0401,0.016 0.0656,0.016 h 0.22944 c 0.0328,0 0.0623,-0.011 0.0879,-0.033 0.0252,-0.025 0.0359,-0.056 0.0326,-0.093 -0.004,-0.047 -0.0276,-0.1059 -0.0713,-0.1752 -0.0437,-0.069 -0.10891,-0.1384 -0.19637,-0.2077 -0.0875,-0.073 -0.19899,-0.133 -0.33383,-0.1803 -0.13484,-0.047 -0.29678,-0.071 -0.48628,-0.071 z m -63.6018,5e-4 c -0.27332,0 -0.50299,0.053 -0.68885,0.1586 -0.18586,0.1057 -0.32997,0.2519 -0.43201,0.4377 -0.0984,0.1859 -0.15288,0.4008 -0.16381,0.6449 -0.003,0.058 -0.005,0.1368 -0.005,0.2352 0,0.095 0.002,0.1726 0.005,0.2346 0.0109,0.2405 0.0654,0.4559 0.16381,0.6454 0.0984,0.1858 0.24099,0.3315 0.42685,0.4372 0.18586,0.1057 0.41704,0.1587 0.69401,0.1587 0.27696,0 0.50816,-0.053 0.69402,-0.1587 0.18586,-0.1057 0.32793,-0.2514 0.42633,-0.4372 0.0984,-0.1895 0.15339,-0.4049 0.16433,-0.6454 0.003,-0.062 0.005,-0.1399 0.005,-0.2346 0,-0.099 -0.002,-0.1772 -0.005,-0.2352 -0.0109,-0.2441 -0.0675,-0.459 -0.1695,-0.6449 -0.0984,-0.1858 -0.24047,-0.332 -0.42633,-0.4377 -0.18585,-0.1057 -0.41553,-0.1586 -0.68885,-0.1586 z m 7.91011,0 c -0.17857,0 -0.33185,0.035 -0.4594,0.1038 -0.12755,0.066 -0.23296,0.1547 -0.31678,0.2677 v -0.1912 c 0,-0.036 -0.0127,-0.065 -0.0382,-0.087 -0.0219,-0.025 -0.0514,-0.038 -0.0879,-0.038 h -0.24598 c -0.0364,0 -0.0675,0.013 -0.093,0.038 -0.0219,0.021 -0.0325,0.05 -0.0325,0.087 v 2.5911 c 0,0.037 0.0107,0.068 0.0325,0.093 0.0255,0.022 0.0566,0.033 0.093,0.033 h 0.26252 c 0.0365,0 0.0655,-0.011 0.0873,-0.033 0.0255,-0.025 0.0382,-0.056 0.0382,-0.093 v -1.5364 c 0,-0.2004 0.0311,-0.3588 0.093,-0.4754 0.0656,-0.1166 0.14759,-0.1986 0.24598,-0.246 0.0984,-0.047 0.19516,-0.071 0.2899,-0.071 0.10934,0 0.21322,0.024 0.31161,0.071 0.0984,0.047 0.17837,0.1294 0.2403,0.246 0.0619,0.1166 0.093,0.2771 0.093,0.4811 v 1.5307 c 0,0.037 0.0107,0.068 0.0325,0.093 0.0255,0.022 0.0566,0.033 0.093,0.033 h 0.25683 c 0.0365,0 0.066,-0.011 0.0879,-0.033 0.0255,-0.025 0.0382,-0.056 0.0382,-0.093 v -1.5307 c 0,-0.204 0.0311,-0.3645 0.093,-0.4811 0.0656,-0.1166 0.14759,-0.1986 0.24598,-0.246 0.0984,-0.047 0.19463,-0.071 0.28939,-0.071 0.11661,0 0.22406,0.024 0.32246,0.071 0.0984,0.047 0.17679,0.1294 0.23513,0.246 0.0583,0.1166 0.0873,0.2771 0.0873,0.4811 v 1.5307 c 0,0.037 0.0112,0.068 0.0331,0.093 0.0255,0.022 0.0566,0.033 0.093,0.033 h 0.25683 c 0.0365,0 0.0655,-0.011 0.0873,-0.033 0.0255,-0.025 0.0382,-0.056 0.0382,-0.093 v -1.5798 c 0,-0.266 -0.0453,-0.4865 -0.13643,-0.6614 -0.0875,-0.1786 -0.20968,-0.3115 -0.36639,-0.399 -0.15306,-0.087 -0.32416,-0.1312 -0.51366,-0.1312 -0.20408,0 -0.38639,0.045 -0.54674,0.1364 -0.16034,0.091 -0.28256,0.2134 -0.36638,0.3664 -0.17128,-0.3419 -0.46257,-0.5095 -0.87437,-0.5028 z m 10.11256,0 c -0.23323,0 -0.42827,0.04 -0.58497,0.1204 -0.15306,0.08 -0.26968,0.1841 -0.34985,0.3116 -0.0802,0.1239 -0.11989,0.2532 -0.11989,0.3881 0,0.1312 0.027,0.2493 0.0817,0.355 0.0547,0.1021 0.14582,0.1917 0.27336,0.2682 0.12755,0.072 0.30069,0.1342 0.51935,0.1855 0.21866,0.047 0.39028,0.093 0.51418,0.137 0.12753,0.044 0.2146,0.093 0.262,0.1472 0.051,0.055 0.0765,0.1276 0.0765,0.2186 0,0.1386 -0.0601,0.2445 -0.18035,0.3173 -0.12026,0.069 -0.27303,0.1039 -0.45888,0.1039 -0.12756,0 -0.235,-0.016 -0.32246,-0.049 -0.0838,-0.033 -0.1551,-0.074 -0.21343,-0.1256 -0.0583,-0.051 -0.11125,-0.1021 -0.15865,-0.1535 -0.0219,-0.023 -0.0402,-0.037 -0.0548,-0.044 -0.0109,-0.01 -0.0252,-0.011 -0.0434,-0.011 h -0.24598 c -0.0292,0 -0.0582,0.011 -0.0873,0.033 -0.0289,0.022 -0.0421,0.053 -0.0388,0.093 0.004,0.044 0.0276,0.1022 0.0713,0.1751 0.0474,0.073 0.11664,0.1458 0.20774,0.2186 0.0911,0.073 0.20976,0.1342 0.35554,0.1856 0.14576,0.051 0.32043,0.077 0.52451,0.077 v 5e-4 c 0.2551,0 0.47051,-0.036 0.64544,-0.1091 0.17492,-0.077 0.30579,-0.1789 0.39326,-0.3064 0.0875,-0.1276 0.13126,-0.2676 0.13126,-0.4207 0,-0.1384 -0.029,-0.2607 -0.0873,-0.3663 -0.0583,-0.1057 -0.1571,-0.1989 -0.29559,-0.2791 -0.13848,-0.08 -0.32792,-0.1439 -0.56844,-0.1912 -0.2223,-0.051 -0.38984,-0.098 -0.50281,-0.1421 -0.11299,-0.044 -0.18938,-0.093 -0.22944,-0.1473 -0.0401,-0.055 -0.06,-0.1168 -0.06,-0.186 0,-0.1166 0.0453,-0.2134 0.13643,-0.2899 0.0911,-0.077 0.22758,-0.1147 0.40979,-0.1147 0.12755,0 0.22991,0.016 0.30644,0.049 0.0802,0.029 0.14381,0.067 0.19121,0.1148 0.051,0.047 0.0948,0.095 0.13126,0.1421 0.0145,0.015 0.0288,0.028 0.0434,0.038 0.0182,0.011 0.0401,0.016 0.0656,0.016 h 0.22996 c 0.0328,0 0.0618,-0.011 0.0873,-0.033 0.0252,-0.025 0.0359,-0.056 0.0325,-0.093 -0.004,-0.047 -0.0271,-0.1059 -0.0708,-0.1751 -0.0437,-0.069 -0.10943,-0.1385 -0.19689,-0.2078 -0.0875,-0.073 -0.19847,-0.133 -0.33331,-0.1803 -0.13484,-0.047 -0.2973,-0.071 -0.4868,-0.071 z m 6.66936,0 c -0.23323,0 -0.42827,0.04 -0.58497,0.1204 -0.15306,0.08 -0.26968,0.1841 -0.34985,0.3116 -0.0802,0.1239 -0.12041,0.2532 -0.12041,0.3881 0,0.1312 0.0275,0.2493 0.0822,0.355 0.0547,0.1021 0.14581,0.1917 0.27336,0.2682 0.12755,0.072 0.30069,0.1342 0.51935,0.1855 0.21866,0.047 0.38976,0.093 0.51367,0.137 0.12752,0.044 0.21511,0.093 0.26251,0.1472 0.051,0.055 0.0765,0.1276 0.0765,0.2186 0,0.1386 -0.0601,0.2445 -0.18035,0.3173 -0.12026,0.069 -0.27354,0.1039 -0.4594,0.1039 -0.12755,0 -0.235,-0.016 -0.32246,-0.049 -0.0838,-0.033 -0.15509,-0.074 -0.21343,-0.1256 -0.0583,-0.051 -0.11073,-0.1021 -0.15812,-0.1535 -0.0219,-0.023 -0.0402,-0.037 -0.0548,-0.044 -0.0109,-0.01 -0.0257,-0.011 -0.0439,-0.011 h -0.24598 c -0.0292,0 -0.0582,0.011 -0.0873,0.033 -0.0289,0.022 -0.0416,0.053 -0.0382,0.093 0.004,0.044 0.0271,0.1022 0.0708,0.1751 0.0474,0.073 0.11663,0.1458 0.20774,0.2186 0.0911,0.073 0.20976,0.1342 0.35553,0.1856 0.14577,0.051 0.32044,0.077 0.52452,0.077 l 5.1e-4,5e-4 c 0.2551,0 0.47,-0.036 0.64492,-0.1091 0.17493,-0.077 0.3058,-0.1789 0.39326,-0.3064 0.0875,-0.1276 0.13126,-0.2676 0.13126,-0.4207 0,-0.1384 -0.029,-0.2607 -0.0873,-0.3663 -0.0583,-0.1057 -0.1566,-0.1989 -0.29508,-0.2791 -0.13848,-0.08 -0.32791,-0.1439 -0.56844,-0.1912 -0.2223,-0.051 -0.39036,-0.098 -0.50333,-0.1421 -0.11299,-0.044 -0.18937,-0.093 -0.22944,-0.1473 -0.0401,-0.055 -0.0599,-0.1168 -0.0599,-0.186 0,-0.1166 0.0453,-0.2134 0.13642,-0.2899 0.0911,-0.077 0.2281,-0.1147 0.41031,-0.1147 0.12755,0 0.2294,0.016 0.30593,0.049 0.0802,0.029 0.1438,0.067 0.1912,0.1148 0.051,0.047 0.0948,0.095 0.13126,0.1421 0.0145,0.015 0.0293,0.028 0.0439,0.038 0.0182,0.011 0.0401,0.016 0.0656,0.016 h 0.22945 c 0.0328,0 0.0618,-0.011 0.0873,-0.033 0.0252,-0.025 0.0364,-0.056 0.0331,-0.093 -0.004,-0.047 -0.0276,-0.1059 -0.0713,-0.1751 -0.0437,-0.069 -0.10943,-0.1385 -0.19689,-0.2078 -0.0875,-0.073 -0.19848,-0.133 -0.33331,-0.1803 -0.13484,-0.047 -0.29678,-0.071 -0.48628,-0.071 z m 11.14558,0 c -0.19679,0 -0.36433,0.028 -0.50282,0.082 -0.13483,0.051 -0.24584,0.1147 -0.33331,0.1912 -0.0875,0.077 -0.15315,0.155 -0.19689,0.2352 -0.0401,0.08 -0.0599,0.1474 -0.0599,0.202 0,0.033 0.009,0.062 0.0274,0.087 0.0219,0.022 0.053,0.033 0.093,0.033 h 0.24598 c 0.0547,0 0.0928,-0.028 0.11472,-0.082 0.0401,-0.1023 0.11086,-0.1864 0.2129,-0.2517 0.10204,-0.065 0.23343,-0.098 0.39378,-0.098 0.22594,0 0.38788,0.049 0.48627,0.1473 0.10204,0.098 0.15297,0.2354 0.15297,0.4103 v 0.1582 l -0.81442,0.1152 c -0.32799,0.047 -0.59382,0.1456 -0.79789,0.2951 -0.20408,0.1494 -0.30592,0.3495 -0.30592,0.601 0,0.1566 0.0453,0.2972 0.13642,0.4211 0.0911,0.1239 0.21129,0.2222 0.3607,0.2951 0.14942,0.073 0.31543,0.1096 0.49765,0.1096 v 0 c 0.17492,0 0.32209,-0.02 0.44235,-0.06 0.12026,-0.044 0.22058,-0.097 0.30075,-0.1587 0.0802,-0.066 0.14432,-0.131 0.19172,-0.1963 v 0.2346 c 0,0.037 0.0107,0.068 0.0326,0.093 0.0219,0.022 0.053,0.033 0.093,0.033 h 0.25115 c 0.0365,0 0.066,-0.011 0.0879,-0.033 0.0255,-0.025 0.0382,-0.056 0.0382,-0.093 v -1.771 c 0,-0.1239 -0.0199,-0.2461 -0.06,-0.3664 -0.0364,-0.1202 -0.0986,-0.2276 -0.18603,-0.3224 -0.0838,-0.095 -0.20044,-0.1696 -0.34985,-0.2243 -0.14942,-0.058 -0.33377,-0.087 -0.55242,-0.087 z m 5.22603,0 c -0.2478,0 -0.46474,0.053 -0.6506,0.1586 -0.18222,0.1057 -0.32582,0.2569 -0.4315,0.4537 -0.10566,0.1932 -0.16575,0.4193 -0.18035,0.678 -0.003,0.047 -0.005,0.1095 -0.005,0.1861 0,0.073 0.002,0.133 0.005,0.1803 0.0219,0.4009 0.14357,0.7177 0.36587,0.9509 0.2223,0.2296 0.52326,0.3447 0.90227,0.3447 0.18586,0 0.35136,-0.024 0.49712,-0.071 0.14942,-0.051 0.27316,-0.1147 0.37156,-0.1912 0.10203,-0.077 0.18046,-0.1535 0.23513,-0.23 0.055,-0.08 0.0845,-0.1474 0.0879,-0.2021 0.004,-0.037 -0.008,-0.064 -0.0331,-0.082 -0.0219,-0.022 -0.0494,-0.033 -0.0822,-0.033 h -0.26769 c -0.0401,0 -0.0691,0.01 -0.0873,0.016 -0.0182,0.01 -0.0437,0.033 -0.0765,0.077 -0.0182,0.029 -0.0549,0.069 -0.10955,0.1199 -0.0547,0.048 -0.12545,0.091 -0.21291,0.1313 -0.0875,0.04 -0.19695,0.06 -0.32815,0.06 -0.14941,0 -0.2808,-0.04 -0.39377,-0.1199 -0.1093,-0.08 -0.19282,-0.184 -0.25115,-0.3116 -0.0583,-0.1312 -0.0914,-0.2717 -0.0987,-0.4211 v -0.027 -0.022 h 1.89136 c 0.0365,0 0.066,-0.011 0.0879,-0.033 0.0255,-0.022 0.0382,-0.053 0.0382,-0.093 v -0.093 c 0,-0.288 -0.0494,-0.539 -0.1478,-0.754 -0.0984,-0.215 -0.242,-0.381 -0.4315,-0.4976 -0.18586,-0.1167 -0.41756,-0.1752 -0.69453,-0.1752 z m 19.24172,0 c -0.24781,0 -0.46474,0.053 -0.6506,0.1586 -0.18222,0.1057 -0.32582,0.2569 -0.4315,0.4537 -0.10566,0.1932 -0.16575,0.4188 -0.18035,0.6775 -0.003,0.047 -0.005,0.1095 -0.005,0.1861 0,0.073 0.002,0.133 0.005,0.1803 0.0219,0.4009 0.14357,0.7182 0.36587,0.9514 0.2223,0.2296 0.52327,0.3441 0.90227,0.3441 v 6e-4 c 0.18586,0 0.35136,-0.024 0.49712,-0.071 0.14942,-0.051 0.27316,-0.1146 0.37156,-0.1912 0.10203,-0.077 0.18046,-0.1529 0.23513,-0.2294 0.055,-0.08 0.0845,-0.1474 0.0878,-0.2021 0.004,-0.037 -0.008,-0.064 -0.0331,-0.082 -0.0219,-0.022 -0.0494,-0.033 -0.0822,-0.033 h -0.26769 c -0.0401,0 -0.0691,0.01 -0.0873,0.016 -0.0182,0.01 -0.0437,0.033 -0.0765,0.077 -0.0182,0.029 -0.0549,0.069 -0.10956,0.1204 -0.0547,0.048 -0.12544,0.091 -0.2129,0.1313 -0.0875,0.04 -0.19695,0.06 -0.32815,0.06 -0.14942,0 -0.2808,-0.04 -0.39377,-0.1204 -0.1093,-0.08 -0.19282,-0.184 -0.25115,-0.3116 -0.0583,-0.1312 -0.0914,-0.2718 -0.0987,-0.4212 v -0.027 -0.022 h 1.89136 c 0.0365,0 0.066,-0.011 0.0879,-0.033 0.0255,-0.022 0.0382,-0.053 0.0382,-0.093 v -0.093 c 0,-0.288 -0.0494,-0.5395 -0.1478,-0.7545 -0.0984,-0.215 -0.242,-0.3811 -0.4315,-0.4977 -0.18586,-0.1166 -0.41757,-0.1746 -0.69453,-0.1746 z m -47.317,5e-4 c -0.19679,0 -0.36433,0.027 -0.50282,0.082 -0.13483,0.051 -0.24636,0.1152 -0.33383,0.1918 -0.0875,0.077 -0.15315,0.1544 -0.19688,0.2346 -0.0401,0.08 -0.06,0.1479 -0.06,0.2025 0,0.033 0.009,0.062 0.0274,0.087 0.0219,0.022 0.0529,0.033 0.093,0.033 h 0.24598 c 0.0547,0 0.0928,-0.028 0.11472,-0.082 0.0401,-0.1023 0.11087,-0.1858 0.21291,-0.2512 0.10204,-0.065 0.23342,-0.098 0.39377,-0.098 0.22595,0 0.3884,0.049 0.48679,0.1478 0.10204,0.098 0.15297,0.2349 0.15297,0.4098 v 0.1587 l -0.81443,0.1147 c -0.32798,0.047 -0.59432,0.1456 -0.7984,0.2951 -0.20408,0.1494 -0.30592,0.35 -0.30592,0.6015 0,0.1566 0.0453,0.2972 0.13643,0.4211 0.0911,0.1239 0.21128,0.2222 0.3607,0.2951 0.14941,0.073 0.31543,0.1091 0.49764,0.1091 v -6e-4 c 0.17493,0 0.32261,-0.02 0.44287,-0.06 0.12026,-0.044 0.22058,-0.097 0.30075,-0.1587 0.0802,-0.066 0.14381,-0.1315 0.19121,-0.1968 v 0.2351 c 0,0.037 0.0107,0.068 0.0326,0.093 0.0219,0.022 0.0529,0.033 0.093,0.033 h 0.25167 c 0.0365,0 0.0655,-0.011 0.0873,-0.033 0.0255,-0.025 0.0382,-0.056 0.0382,-0.093 v -1.771 c 0,-0.1239 -0.0199,-0.2461 -0.06,-0.3664 -0.0364,-0.1202 -0.0986,-0.2276 -0.18603,-0.3224 -0.0838,-0.095 -0.20044,-0.1696 -0.34985,-0.2243 -0.14941,-0.058 -0.33324,-0.087 -0.5519,-0.087 z m 8.40723,0 c -0.2478,0 -0.46474,0.053 -0.6506,0.1586 -0.18222,0.1057 -0.32633,0.257 -0.43202,0.4538 -0.10566,0.1931 -0.16575,0.4192 -0.18035,0.678 -0.003,0.047 -0.005,0.1089 -0.005,0.1855 0,0.073 0.001,0.133 0.005,0.1803 0.0219,0.4009 0.14409,0.7182 0.36639,0.9514 0.2223,0.2296 0.52326,0.3442 0.90227,0.3442 l -5.2e-4,5e-4 c 0.18585,0 0.35187,-0.024 0.49765,-0.071 0.14941,-0.051 0.27316,-0.1147 0.37155,-0.1912 0.10204,-0.077 0.18046,-0.153 0.23513,-0.2295 0.055,-0.08 0.084,-0.1474 0.0873,-0.202 0.004,-0.037 -0.007,-0.064 -0.0326,-0.082 -0.0219,-0.022 -0.0494,-0.033 -0.0822,-0.033 h -0.26769 c -0.0401,0 -0.0691,0.01 -0.0873,0.016 -0.0182,0.01 -0.0437,0.033 -0.0765,0.077 -0.0182,0.029 -0.0549,0.069 -0.10955,0.1204 -0.0547,0.048 -0.12596,0.091 -0.21343,0.1313 -0.0875,0.04 -0.19643,0.06 -0.32763,0.06 -0.14941,0 -0.2808,-0.04 -0.39377,-0.1204 -0.1093,-0.08 -0.19281,-0.184 -0.25115,-0.3116 -0.0583,-0.1312 -0.0914,-0.2712 -0.0987,-0.4206 v -0.027 -0.022 h 1.89136 c 0.0365,0 0.066,-0.011 0.0879,-0.033 0.0255,-0.022 0.0382,-0.053 0.0382,-0.093 v -0.093 c 0,-0.288 -0.0494,-0.5395 -0.1478,-0.7545 -0.0984,-0.215 -0.24251,-0.3805 -0.43201,-0.4971 -0.18585,-0.1167 -0.41705,-0.1752 -0.69402,-0.1752 z m 32.97318,0.054 c -0.0364,0 -0.0675,0.013 -0.093,0.038 -0.0219,0.021 -0.0326,0.05 -0.0326,0.087 v 2.5911 c 0,0.037 0.0107,0.068 0.0326,0.093 0.0255,0.022 0.0566,0.033 0.093,0.033 h 0.26252 c 0.0365,0 0.0655,-0.011 0.0873,-0.033 0.0255,-0.025 0.0382,-0.056 0.0382,-0.093 v -2.5911 c 0,-0.036 -0.0127,-0.065 -0.0382,-0.087 -0.0219,-0.025 -0.0509,-0.038 -0.0873,-0.038 z m 14.14178,0 c -0.0364,0 -0.0675,0.012 -0.093,0.038 -0.0219,0.021 -0.0326,0.051 -0.0326,0.087 v 2.5911 c 0,0.037 0.0107,0.068 0.0326,0.093 0.0255,0.022 0.0566,0.033 0.093,0.033 h 0.26251 c 0.0365,0 0.0655,-0.011 0.0873,-0.033 0.0255,-0.025 0.0382,-0.056 0.0382,-0.093 v -2.5911 c 0,-0.036 -0.0127,-0.065 -0.0382,-0.087 -0.0219,-0.025 -0.0509,-0.038 -0.0873,-0.038 z m -63.4814,5e-4 c -0.0364,0 -0.0675,0.013 -0.093,0.038 -0.0219,0.021 -0.0326,0.05 -0.0326,0.087 v 2.5911 c 0,0.037 0.0107,0.068 0.0326,0.093 0.0255,0.022 0.0566,0.033 0.093,0.033 h 0.26252 c 0.0365,0 0.0655,-0.011 0.0873,-0.033 0.0255,-0.025 0.0382,-0.056 0.0382,-0.093 v -2.5911 c 0,-0.036 -0.0127,-0.065 -0.0382,-0.087 -0.0219,-0.025 -0.0509,-0.038 -0.0873,-0.038 z m 24.57163,0 c -0.0364,0 -0.0675,0.013 -0.093,0.038 -0.0219,0.021 -0.0331,0.05 -0.0331,0.087 v 2.5911 c 0,0.037 0.0112,0.068 0.0331,0.093 0.0255,0.022 0.0565,0.033 0.093,0.033 h 0.262 c 0.0365,0 0.066,-0.011 0.0879,-0.033 0.0255,-0.025 0.0382,-0.056 0.0382,-0.093 v -2.5911 c 0,-0.036 -0.0127,-0.065 -0.0382,-0.087 -0.0219,-0.025 -0.0514,-0.038 -0.0879,-0.038 z m -14.14177,5e-4 c -0.0364,0 -0.0675,0.012 -0.093,0.038 -0.0219,0.021 -0.0326,0.051 -0.0326,0.087 v 2.5911 c 0,0.037 0.0107,0.068 0.0326,0.093 0.0255,0.022 0.0566,0.033 0.093,0.033 h 0.26251 c 0.0365,0 0.0655,-0.011 0.0873,-0.033 0.0255,-0.025 0.0383,-0.056 0.0383,-0.093 v -2.5911 c 0,-0.036 -0.0127,-0.065 -0.0383,-0.087 -0.0219,-0.025 -0.0509,-0.038 -0.0873,-0.038 z m 17.6785,0 c -0.0364,0 -0.0675,0.012 -0.093,0.038 -0.0219,0.021 -0.0331,0.051 -0.0331,0.087 v 2.7766 c 0,0.098 -0.0107,0.1881 -0.0325,0.2682 -0.0182,0.084 -0.0585,0.1491 -0.12041,0.1964 -0.0619,0.051 -0.1582,0.077 -0.28939,0.077 h -0.0765 c -0.0365,0 -0.066,0.011 -0.0879,0.033 -0.0255,0.025 -0.0382,0.056 -0.0382,0.093 v 0.186 c 0,0.036 0.0127,0.065 0.0382,0.087 0.0219,0.025 0.0514,0.038 0.0879,0.038 h 0.10387 c 0.23323,0 0.41707,-0.042 0.5519,-0.1261 0.13482,-0.08 0.23158,-0.1927 0.28991,-0.3385 0.0619,-0.1458 0.093,-0.3154 0.093,-0.5085 v -2.7823 c 0,-0.036 -0.0132,-0.065 -0.0388,-0.087 -0.0219,-0.025 -0.0509,-0.038 -0.0873,-0.038 z m 14.02654,0 c -0.0364,0 -0.0675,0.012 -0.093,0.038 -0.0219,0.021 -0.0326,0.051 -0.0326,0.087 v 1.5416 c 0,0.2404 0.0418,0.4533 0.12558,0.6392 0.0838,0.1859 0.20604,0.3315 0.36638,0.4372 0.16399,0.102 0.3626,0.1535 0.59583,0.1535 0.22959,0 0.41343,-0.038 0.55191,-0.1148 0.14212,-0.077 0.26281,-0.1789 0.36121,-0.3064 v 0.2408 c 0,0.037 0.0107,0.068 0.0326,0.093 0.0255,0.022 0.0566,0.033 0.093,0.033 h 0.25683 c 0.0365,0 0.0655,-0.011 0.0873,-0.033 0.0219,-0.025 0.0331,-0.056 0.0331,-0.093 v -2.5911 c 0,-0.036 -0.0112,-0.065 -0.0331,-0.087 -0.0219,-0.025 -0.0509,-0.038 -0.0873,-0.038 h -0.27337 c -0.0364,0 -0.0675,0.012 -0.093,0.038 -0.0219,0.021 -0.0326,0.051 -0.0326,0.087 v 1.5142 c 0,0.2551 -0.0693,0.4552 -0.20774,0.601 -0.13484,0.1421 -0.31511,0.2134 -0.54105,0.2134 -0.47376,0 -0.71056,-0.2714 -0.71056,-0.8144 v -1.5142 c 0,-0.036 -0.0132,-0.065 -0.0388,-0.087 -0.0219,-0.025 -0.0509,-0.038 -0.0873,-0.038 z m 13.14131,0.3436 c 0.1567,0 0.29166,0.038 0.40463,0.1148 0.11295,0.073 0.1985,0.1732 0.25683,0.3007 0.0619,0.1276 0.093,0.2733 0.093,0.4372 v 0.016 h -1.49758 v -0.016 c 0,-0.1639 0.029,-0.3096 0.0873,-0.4372 0.0583,-0.1275 0.14182,-0.2279 0.25115,-0.3007 0.11297,-0.077 0.24792,-0.1148 0.40462,-0.1148 z m -38.90977,6e-4 c 0.15671,0 0.29166,0.038 0.40463,0.1147 0.11295,0.073 0.1985,0.1732 0.25683,0.3007 0.0619,0.1276 0.093,0.2733 0.093,0.4372 v 0.016 h -1.4981 v -0.016 c 0,-0.1639 0.0295,-0.3096 0.0879,-0.4372 0.0583,-0.1275 0.14181,-0.2279 0.25115,-0.3007 0.11297,-0.077 0.24792,-0.1147 0.40462,-0.1147 z m 19.66805,0 c 0.15671,0 0.29166,0.038 0.40463,0.1147 0.11295,0.073 0.1985,0.1727 0.25683,0.3002 0.0619,0.1276 0.093,0.2738 0.093,0.4377 v 0.016 h -1.4981 v -0.016 c 0,-0.1639 0.0295,-0.3101 0.0879,-0.4377 0.0583,-0.1275 0.14182,-0.2274 0.25115,-0.3002 0.11297,-0.077 0.24792,-0.1147 0.40462,-0.1147 z m -41.06364,0.021 c 0.22594,0 0.40621,0.073 0.54105,0.2186 0.13484,0.1422 0.20766,0.352 0.21859,0.6289 0.003,0.055 0.005,0.1239 0.005,0.2078 0,0.084 -0.002,0.153 -0.005,0.2077 -0.0109,0.2769 -0.0838,0.4883 -0.21859,0.6341 -0.13484,0.1421 -0.31511,0.2129 -0.54105,0.2129 -0.22595,0 -0.40826,-0.071 -0.54674,-0.2129 -0.13486,-0.1458 -0.20564,-0.3572 -0.2129,-0.6341 -0.003,-0.055 -0.005,-0.1239 -0.005,-0.2077 0,-0.084 0.002,-0.1531 0.005,-0.2078 0.007,-0.2769 0.0781,-0.4867 0.2129,-0.6289 0.13848,-0.1457 0.32079,-0.2186 0.54674,-0.2186 z m 44.55697,0.022 c 0.17493,0 0.317,0.04 0.42633,0.1205 0.11297,0.08 0.19648,0.1819 0.25115,0.3059 0.0586,0.1239 0.0897,0.2497 0.093,0.3772 0.003,0.058 0.005,0.1296 0.005,0.2134 0,0.08 -0.002,0.1491 -0.005,0.2078 -0.004,0.1348 -0.0327,0.2677 -0.0873,0.3989 -0.0547,0.1276 -0.13665,0.2335 -0.24598,0.3173 -0.10932,0.084 -0.25497,0.1256 -0.43718,0.1256 -0.18586,0 -0.33354,-0.04 -0.44287,-0.1204 -0.1093,-0.084 -0.18772,-0.1913 -0.23512,-0.3225 -0.0474,-0.1348 -0.0749,-0.2789 -0.0822,-0.432 -0.003,-0.1057 -0.003,-0.211 0,-0.3168 0.007,-0.153 0.0348,-0.2951 0.0822,-0.4263 0.0474,-0.1349 0.1258,-0.2423 0.23512,-0.3225 0.10933,-0.084 0.25701,-0.1261 0.44287,-0.1261 z m -30.93454,1.0444 v 0.153 c 0,0.2041 -0.0367,0.3737 -0.10956,0.5085 -0.0693,0.1351 -0.16549,0.2354 -0.28939,0.3007 -0.1239,0.062 -0.26089,0.093 -0.41031,0.093 -0.0984,0 -0.19464,-0.016 -0.28939,-0.049 -0.0911,-0.033 -0.16802,-0.082 -0.22996,-0.1478 -0.0583,-0.069 -0.0873,-0.1548 -0.0873,-0.2569 0,-0.1312 0.0657,-0.2386 0.19689,-0.3224 0.13119,-0.087 0.32624,-0.1494 0.58498,-0.1861 z m 22.84925,0 v 0.153 c 0,0.2041 -0.0362,0.3732 -0.10904,0.508 -0.0693,0.1351 -0.16601,0.2354 -0.28991,0.3007 -0.1239,0.062 -0.26038,0.093 -0.40979,0.093 -0.0984,0 -0.19516,-0.016 -0.28991,-0.049 -0.0911,-0.033 -0.16751,-0.082 -0.22944,-0.1477 -0.0583,-0.069 -0.0873,-0.1548 -0.0873,-0.2569 0,-0.1312 0.0657,-0.2386 0.19689,-0.3224 0.13119,-0.087 0.32572,-0.1489 0.58446,-0.1856 z" /></g></svg>
