<?xml version="1.0" encoding="UTF-8" standalone="no"?>
<!-- Created with Inkscape (http://www.inkscape.org/) -->

<svg
   sodipodi:docname="printical.fi new design.svg"
   xml:space="preserve"
   inkscape:version="1.3.2 (091e20e, 2023-11-25, custom)"
   id="svg5"
   version="1.1"
   viewBox="0 0 370.91844 32.296218"
   height="122.06445"
   width="1401.8965"
   inkscape:export-filename="tausta.png"
   inkscape:export-xdpi="96"
   inkscape:export-ydpi="96"
   xmlns:inkscape="http://www.inkscape.org/namespaces/inkscape"
   xmlns:sodipodi="http://sodipodi.sourceforge.net/DTD/sodipodi-0.dtd"
   xmlns="http://www.w3.org/2000/svg"
   xmlns:svg="http://www.w3.org/2000/svg"><sodipodi:namedview
     id="namedview7"
     pagecolor="#262626"
     bordercolor="#ffffff"
     borderopacity="1"
     inkscape:pageshadow="0"
     inkscape:pageopacity="0"
     inkscape:pagecheckerboard="false"
     inkscape:document-units="px"
     showgrid="false"
     units="px"
     inkscape:snap-page="true"
     inkscape:showpageshadow="false"
     inkscape:deskcolor="#262626"
     borderlayer="true"
     inkscape:zoom="0.50000001"
     inkscape:cx="1047"
     inkscape:cy="564.99999"
     inkscape:window-width="1920"
     inkscape:window-height="1057"
     inkscape:window-x="-8"
     inkscape:window-y="-8"
     inkscape:window-maximized="1"
     inkscape:current-layer="layer6"
     showguides="true"><inkscape:grid
       id="grid274"
       units="px"
       originx="-67.993782"
       originy="-158.61098"
       spacingx="5.08"
       spacingy="2.8575"
       empcolor="#004ebc"
       empopacity="0.30196078"
       color="#e56900"
       opacity="0.14901961"
       empspacing="10"
       dotted="false"
       gridanglex="30"
       gridanglez="30"
       visible="false" /><sodipodi:guide
       position="186.00622,1301.6111"
       orientation="1,0"
       id="guide2"
       inkscape:locked="false" /><sodipodi:guide
       position="-17.193776,1356.6444"
       orientation="0,-1"
       id="guide16"
       inkscape:locked="false" /><sodipodi:guide
       position="-67.993777,1121.6944"
       orientation="0,-1"
       id="guide84"
       inkscape:locked="false" /><sodipodi:guide
       position="6.354134,1172.4944"
       orientation="0,-1"
       id="guide139"
       inkscape:locked="false" /><sodipodi:guide
       position="-29.893786,1295.2082"
       orientation="1,0"
       id="guide161"
       inkscape:locked="false" /><sodipodi:guide
       position="401.90625,1295.2611"
       orientation="1,0"
       id="guide162"
       inkscape:locked="false" /><sodipodi:guide
       position="-67.993751,1369.5097"
       orientation="0,-1"
       id="guide200"
       inkscape:locked="false" /><sodipodi:guide
       position="213.91977,1375.8706"
       orientation="0,-1"
       id="guide52"
       inkscape:locked="false" /><sodipodi:guide
       position="-211.53697,1348.7069"
       orientation="1,0"
       id="guide133"
       inkscape:locked="false" /><sodipodi:guide
       position="-430.61195,1319.4893"
       orientation="0,-1"
       id="guide134"
       inkscape:locked="false" /><sodipodi:guide
       position="0.22252099,1105.466"
       orientation="1,0"
       id="guide173"
       inkscape:locked="false" /><sodipodi:guide
       position="371.78992,1105.466"
       orientation="1,0"
       id="guide174"
       inkscape:locked="false" /></sodipodi:namedview><defs
     id="defs2" /><g
     inkscape:groupmode="layer"
     id="layer6"
     inkscape:label="Layer 6"
     transform="translate(-67.993781,-158.61098)"><path
       id="text10"
       style="font-weight:800;font-size:17.8835px;line-height:1.3;font-family:Rubik;-inkscape-font-specification:'Rubik Ultra-Bold';letter-spacing:0.335316px;fill:#ffffff;stroke-width:0.6;paint-order:fill markers stroke"
       d="m 86.822088,158.61098 c -1.132621,0 -2.122327,0.19055 -2.968811,0.57206 -0.846485,0.3696 -1.514163,0.91812 -2.002979,1.64538 -0.476893,0.72726 -0.733178,1.62144 -0.768945,2.68252 -0.01192,0.52459 -0.01809,1.05513 -0.01809,1.59164 0,0.52458 0.0062,1.03715 0.01809,1.53789 0.03577,1.073 0.292052,1.97335 0.768945,2.70061 0.488816,0.71534 1.150329,1.25153 1.984892,1.6092 0.846484,0.35767 1.842355,0.5364 2.986898,0.5364 1.13262,0 2.116161,-0.17873 2.950724,-0.5364 0.846485,-0.35767 1.507999,-0.89386 1.984892,-1.6092 0.488815,-0.72726 0.751265,-1.62761 0.787032,-2.70061 0.02385,-0.50074 0.03566,-1.01331 0.03566,-1.53789 0,-0.53651 -0.01181,-1.06705 -0.03566,-1.59164 -0.02384,-1.06108 -0.28013,-1.95526 -0.768946,-2.68252 -0.488815,-0.72726 -1.156493,-1.27578 -2.002978,-1.64538 -0.846485,-0.38151 -1.830026,-0.57206 -2.950724,-0.57206 z m 32.266242,0 c -1.03723,0 -1.94939,0.16693 -2.73626,0.50075 -0.77496,0.33383 -1.38305,0.79863 -1.82418,1.39475 -0.42921,0.59611 -0.64389,1.28177 -0.64389,2.05672 0,0.76302 0.17308,1.40656 0.51883,1.93115 0.35767,0.51266 0.87024,0.92405 1.53789,1.23403 0.66765,0.29806 1.46065,0.52456 2.37867,0.67954 0.65572,0.11923 1.17446,0.23274 1.55598,0.34004 0.38151,0.1073 0.64961,0.22645 0.8046,0.3576 0.16691,0.13114 0.25011,0.29806 0.25011,0.50074 0,0.26229 -0.14895,0.47081 -0.447,0.6258 -0.29806,0.14307 -0.72126,0.21446 -1.26969,0.21446 -0.29806,0 -0.5605,-0.0298 -0.78703,-0.0894 -0.22652,-0.0715 -0.4109,-0.1609 -0.55397,-0.2682 -0.14307,-0.11923 -0.26839,-0.24455 -0.37569,-0.37569 -0.1073,-0.0954 -0.20848,-0.16679 -0.30386,-0.21446 -0.0954,-0.0596 -0.22686,-0.0894 -0.39377,-0.0894 h -2.84324 c -0.1073,0 -0.19667,0.036 -0.2682,0.10749 -0.0715,0.0715 -0.10749,0.1609 -0.10749,0.2682 0.0238,0.63189 0.23853,1.23383 0.64389,1.80609 0.41728,0.56036 1.0372,1.01951 1.85984,1.37718 0.83456,0.34575 1.87768,0.51831 3.12952,0.51831 1.09685,0 2.06858,-0.16075 2.91507,-0.48265 0.8584,-0.33383 1.53225,-0.8048 2.02106,-1.41284 0.48882,-0.60803 0.73278,-1.33529 0.73278,-2.18178 0,-0.7511 -0.16076,-1.37718 -0.48266,-1.87792 -0.3219,-0.50074 -0.83447,-0.90596 -1.53789,-1.21594 -0.6915,-0.30998 -1.60365,-0.54829 -2.73627,-0.71521 -0.59612,-0.11922 -1.06092,-0.22656 -1.39475,-0.32194 -0.33382,-0.1073 -0.56649,-0.22645 -0.69763,-0.3576 -0.13115,-0.13115 -0.19689,-0.28626 -0.19689,-0.46509 0,-0.26229 0.10735,-0.459 0.32195,-0.59014 0.2146,-0.14307 0.52481,-0.21446 0.93017,-0.21446 0.3696,0 0.67365,0.0652 0.91209,0.19637 0.23846,0.13115 0.3874,0.2806 0.447,0.44752 0.0954,0.10732 0.19092,0.18436 0.28629,0.23202 0.0954,0.0477 0.21454,0.0718 0.3576,0.0718 h 2.98638 c 0.0954,0 0.1791,-0.036 0.25063,-0.10749 0.0835,-0.0835 0.12506,-0.17899 0.12506,-0.28629 -0.0119,-0.38151 -0.13724,-0.78057 -0.37569,-1.19786 -0.23844,-0.41728 -0.5841,-0.80505 -1.03714,-1.16272 -0.45306,-0.36959 -1.01339,-0.66747 -1.68104,-0.894 -0.65573,-0.22652 -1.41277,-0.33952 -2.27118,-0.33952 z m 102.80354,0 c -1.13261,0 -2.12232,0.19055 -2.96881,0.57206 -0.84648,0.3696 -1.51416,0.91812 -2.00297,1.64538 -0.47687,0.72726 -0.73315,1.62144 -0.76895,2.68252 -0.0119,0.52459 -0.0181,1.05513 -0.0181,1.59164 0,0.52458 0.006,1.03715 0.0181,1.53789 0.0358,1.073 0.29205,1.97335 0.76895,2.70061 0.48881,0.71534 1.15033,1.25153 1.98489,1.6092 0.84648,0.35767 1.84235,0.5364 2.98689,0.5364 1.13262,0 2.11616,-0.17873 2.95073,-0.5364 0.84648,-0.35767 1.508,-0.89386 1.98489,-1.6092 0.48879,-0.72726 0.75123,-1.62761 0.78703,-2.70061 0.0239,-0.50074 0.0357,-1.01331 0.0357,-1.53789 0,-0.53651 -0.0118,-1.06705 -0.0357,-1.59164 -0.0238,-1.06108 -0.28013,-1.95526 -0.76894,-2.68252 -0.48882,-0.72726 -1.1565,-1.27578 -2.00298,-1.64538 -0.84649,-0.38151 -1.83003,-0.57206 -2.95073,-0.57206 z m 25.00985,0 c -1.13262,0 -2.12233,0.19055 -2.96881,0.57206 -0.84649,0.3696 -1.51417,0.91812 -2.00298,1.64538 -0.47686,0.72726 -0.73315,1.62144 -0.76895,2.68252 -0.0119,0.52459 -0.0176,1.05513 -0.0176,1.59164 0,0.52458 0.006,1.03715 0.0176,1.53789 0.0358,1.073 0.29205,1.97335 0.76895,2.70061 0.48881,0.71534 1.15085,1.25153 1.98541,1.6092 0.84648,0.35767 1.84183,0.5364 2.98638,0.5364 1.13262,0 2.11615,-0.17873 2.95072,-0.5364 0.84648,-0.35767 1.508,-0.89386 1.98489,-1.6092 0.48879,-0.72726 0.75123,-1.62761 0.78703,-2.70061 0.0239,-0.50074 0.0357,-1.01331 0.0357,-1.53789 0,-0.53651 -0.0118,-1.06705 -0.0357,-1.59164 -0.0238,-1.06108 -0.28013,-1.95526 -0.76894,-2.68252 -0.48882,-0.72726 -1.1565,-1.27578 -2.00298,-1.64538 -0.84648,-0.38151 -1.83002,-0.57206 -2.95072,-0.57206 z m 149.35418,0 c -1.13262,0 -2.12232,0.19055 -2.96881,0.57206 -0.84648,0.3696 -1.51416,0.91812 -2.00298,1.64538 -0.47686,0.72726 -0.73314,1.62144 -0.76894,2.68252 -0.0119,0.52459 -0.0181,1.05513 -0.0181,1.59164 0,0.52458 0.006,1.03715 0.0181,1.53789 0.0358,1.073 0.29205,1.97335 0.76894,2.70061 0.48882,0.71534 1.15034,1.25153 1.98489,1.6092 0.84649,0.35767 1.84236,0.5364 2.9869,0.5364 1.13262,0 2.11616,-0.17873 2.95073,-0.5364 0.84648,-0.35767 1.508,-0.89386 1.98489,-1.6092 0.48878,-0.72726 0.75123,-1.62761 0.78703,-2.70061 0.0239,-0.50074 0.0357,-1.01331 0.0357,-1.53789 0,-0.53651 -0.0118,-1.06705 -0.0357,-1.59164 -0.0238,-1.06108 -0.28013,-1.95526 -0.76894,-2.68252 -0.48882,-0.72726 -1.1565,-1.27578 -2.00298,-1.64538 -0.84649,-0.38151 -1.83003,-0.57206 -2.95073,-0.57206 z m 12.76408,0 c -1.03724,0 -1.94939,0.16693 -2.73627,0.50075 -0.77495,0.33383 -1.38253,0.79863 -1.82366,1.39475 -0.4292,0.59611 -0.64389,1.28177 -0.64389,2.05672 0,0.76302 0.17257,1.40656 0.51832,1.93115 0.35767,0.51266 0.87024,0.92405 1.53789,1.23403 0.66765,0.29806 1.46065,0.52456 2.37867,0.67954 0.65572,0.11923 1.17446,0.23274 1.55597,0.34004 0.38152,0.1073 0.64961,0.22645 0.8046,0.3576 0.16692,0.13114 0.25064,0.29806 0.25064,0.50074 0,0.26229 -0.14895,0.47081 -0.44701,0.6258 -0.29806,0.14307 -0.72126,0.21446 -1.26969,0.21446 -0.29806,0 -0.56051,-0.0298 -0.78703,-0.0894 -0.22652,-0.0715 -0.41142,-0.1609 -0.55449,-0.2682 -0.14306,-0.11923 -0.26838,-0.24455 -0.37568,-0.37569 -0.1073,-0.0954 -0.20848,-0.16679 -0.30386,-0.21446 -0.0954,-0.0596 -0.22635,-0.0894 -0.39326,-0.0894 h -2.84375 c -0.1073,0 -0.19667,0.036 -0.2682,0.10749 -0.0715,0.0715 -0.10749,0.1609 -0.10749,0.2682 0.0238,0.63189 0.23854,1.23383 0.64389,1.80609 0.41728,0.56036 1.03719,1.01951 1.85983,1.37718 0.83456,0.34575 1.8782,0.51831 3.13004,0.51831 1.09686,0 2.06807,-0.16075 2.91456,-0.48265 0.8584,-0.33383 1.53224,-0.8048 2.02106,-1.41284 0.48881,-0.60803 0.73329,-1.33529 0.73329,-2.18178 0,-0.7511 -0.16128,-1.37718 -0.48318,-1.87792 -0.3219,-0.50074 -0.83447,-0.90596 -1.53789,-1.21594 -0.69149,-0.30998 -1.60364,-0.54829 -2.73626,-0.71521 -0.59612,-0.11922 -1.06093,-0.22656 -1.39475,-0.32194 -0.33383,-0.1073 -0.56649,-0.22645 -0.69763,-0.3576 -0.13115,-0.13115 -0.19637,-0.28626 -0.19637,-0.46509 0,-0.26229 0.10734,-0.459 0.32194,-0.59014 0.21461,-0.14307 0.5243,-0.21446 0.92966,-0.21446 0.36959,0 0.67364,0.0652 0.91209,0.19637 0.23846,0.13115 0.3874,0.2806 0.447,0.44752 0.0954,0.10732 0.19091,0.18436 0.28629,0.23202 0.0954,0.0477 0.21453,0.0718 0.3576,0.0718 h 2.9869 c 0.0954,0 0.17858,-0.036 0.25011,-0.10749 0.0835,-0.0835 0.12506,-0.17899 0.12506,-0.28629 -0.0119,-0.38151 -0.13673,-0.78057 -0.37517,-1.19786 -0.23845,-0.41728 -0.58462,-0.80505 -1.03767,-1.16272 -0.45304,-0.36959 -1.01338,-0.66747 -1.68103,-0.894 -0.65573,-0.22652 -1.41277,-0.33952 -2.27118,-0.33952 z m -339.164815,0.17881 c -0.119223,0 -0.226565,0.0478 -0.321944,0.14314 -0.09538,0.0834 -0.143144,0.19028 -0.143144,0.32143 v 11.58895 c 0,0.13115 0.04776,0.24414 0.143144,0.33952 0.09538,0.0834 0.202721,0.12505 0.321944,0.12505 h 2.843237 c 0.131146,0 0.238488,-0.0416 0.321945,-0.12505 0.09538,-0.0954 0.143143,-0.20837 0.143143,-0.33952 v -4.07778 l 2.861324,4.1491 c 0.02384,0.0477 0.08959,0.12524 0.196887,0.23254 0.119224,0.1073 0.297955,0.16071 0.536402,0.16071 h 3.362068 c 0.107301,0 0.196667,-0.0354 0.268201,-0.10697 0.08346,-0.0835 0.125057,-0.17898 0.125057,-0.28628 0,-0.0835 -0.02363,-0.14922 -0.07131,-0.19689 l -4.077788,-5.93711 3.755843,-5.4007 c 0.04769,-0.0596 0.07131,-0.12535 0.07131,-0.19689 0,-0.1073 -0.0416,-0.19666 -0.125057,-0.2682 -0.07153,-0.0834 -0.1609,-0.12505 -0.268201,-0.12505 h -3.272668 c -0.190757,0 -0.3397,0.0416 -0.447001,0.12505 -0.107299,0.0835 -0.191018,0.16666 -0.250631,0.25012 l -2.664437,3.84524 v -3.75584 c 0,-0.13115 -0.04776,-0.23798 -0.143143,-0.32143 -0.08346,-0.0954 -0.190799,-0.14314 -0.321945,-0.14314 z m 25.367443,0 c -0.119223,0 -0.226565,0.0478 -0.321944,0.14314 -0.09538,0.0834 -0.143144,0.19028 -0.143144,0.32143 v 11.58895 c 0,0.13115 0.04776,0.24414 0.143144,0.33952 0.09538,0.0834 0.202721,0.12505 0.321944,0.12505 h 2.915068 c 0.131145,0 0.238488,-0.0416 0.321944,-0.12505 0.09538,-0.0954 0.143143,-0.20837 0.143143,-0.33952 v -3.7021 h 1.287777 l 1.788,3.68402 c 0.0358,0.0954 0.11332,0.20271 0.23255,0.32194 0.11922,0.1073 0.2923,0.16071 0.51883,0.16071 h 3.02204 c 0.1073,0 0.19666,-0.0354 0.2682,-0.10697 0.0715,-0.0835 0.10749,-0.17898 0.10749,-0.28628 0,-0.0596 -0.0179,-0.12535 -0.0538,-0.19689 l -2.32492,-4.22042 c 0.61996,-0.33382 1.12072,-0.79298 1.50223,-1.37717 0.38152,-0.58419 0.57258,-1.29347 0.57258,-2.12804 0,-1.32338 -0.46533,-2.35469 -1.39527,-3.09387 -0.91801,-0.73918 -2.18763,-1.10845 -3.80907,-1.10845 z m 12.979052,0 c -0.11922,0 -0.22656,0.0478 -0.32194,0.14314 -0.0954,0.0834 -0.14315,0.19028 -0.14315,0.32143 v 11.58895 c 0,0.13115 0.0478,0.24414 0.14315,0.33952 0.0954,0.0834 0.20272,0.12505 0.32194,0.12505 h 3.04012 c 0.13114,0 0.23849,-0.0416 0.32195,-0.12505 0.0954,-0.0954 0.14314,-0.20837 0.14314,-0.33952 v -11.58895 c 0,-0.13115 -0.0478,-0.23798 -0.14314,-0.32143 -0.0835,-0.0954 -0.19081,-0.14314 -0.32195,-0.14314 z m 18.12499,0 c -0.13114,0 -0.24465,0.0478 -0.34003,0.14314 -0.0834,0.0834 -0.12506,0.19028 -0.12506,0.32143 v 2.39675 c 0,0.13115 0.0416,0.24413 0.12506,0.33951 0.0954,0.0835 0.20889,0.12558 0.34003,0.12558 h 3.07578 v 8.72711 c 0,0.13115 0.0416,0.24414 0.12506,0.33952 0.0954,0.0834 0.20888,0.12505 0.34003,0.12505 h 2.96881 c 0.13115,0 0.23849,-0.0416 0.32195,-0.12505 0.0954,-0.0954 0.14262,-0.20837 0.14262,-0.33952 v -8.72711 h 3.0763 c 0.13115,0 0.23848,-0.0421 0.32194,-0.12558 0.0954,-0.0954 0.14315,-0.20836 0.14315,-0.33951 v -2.39675 c 0,-0.13115 -0.0478,-0.23798 -0.14315,-0.32143 -0.0835,-0.0954 -0.19079,-0.14314 -0.32194,-0.14314 z m 12.76408,0 c -0.11922,0 -0.22605,0.0478 -0.32143,0.14314 -0.0954,0.0834 -0.14314,0.19028 -0.14314,0.32143 v 11.58895 c 0,0.13115 0.0478,0.24414 0.14314,0.33952 0.0954,0.0834 0.20221,0.12505 0.32143,0.12505 h 8.90643 c 0.13115,0 0.24414,-0.0416 0.33952,-0.12505 0.0954,-0.0954 0.14314,-0.20837 0.14314,-0.33952 v -2.09238 c 0,-0.13114 -0.0478,-0.24465 -0.14314,-0.34003 -0.0954,-0.0954 -0.20837,-0.14314 -0.33952,-0.14314 h -5.66942 v -1.80609 h 5.1325 c 0.13115,0 0.24466,-0.0416 0.34004,-0.12506 0.0954,-0.0954 0.14314,-0.20888 0.14314,-0.34003 v -1.93115 c 0,-0.13114 -0.0478,-0.23849 -0.14314,-0.32194 -0.0954,-0.0954 -0.20889,-0.14315 -0.34004,-0.14315 h -5.1325 v -1.77043 h 5.52628 c 0.13115,0 0.24414,-0.0478 0.33951,-0.14314 0.0954,-0.0954 0.14315,-0.20272 0.14315,-0.32195 v -2.11046 c 0,-0.13115 -0.0478,-0.23798 -0.14315,-0.32143 -0.0954,-0.0954 -0.20836,-0.14314 -0.33951,-0.14314 z m 12.01322,0 c -0.11923,0 -0.22605,0.0478 -0.32143,0.14314 -0.0954,0.0834 -0.14314,0.19028 -0.14314,0.32143 v 11.58895 c 0,0.13115 0.0478,0.24414 0.14314,0.33952 0.0954,0.0834 0.2022,0.12505 0.32143,0.12505 h 8.90643 c 0.13115,0 0.24414,-0.0416 0.33952,-0.12505 0.0954,-0.0954 0.14314,-0.20837 0.14314,-0.33952 v -2.09238 c 0,-0.13114 -0.0478,-0.24465 -0.14314,-0.34003 -0.0954,-0.0954 -0.20837,-0.14314 -0.33952,-0.14314 h -5.66942 v -1.80609 h 5.1325 c 0.13115,0 0.24466,-0.0416 0.34004,-0.12506 0.0954,-0.0954 0.14314,-0.20888 0.14314,-0.34003 v -1.93115 c 0,-0.13114 -0.0478,-0.23849 -0.14314,-0.32194 -0.0954,-0.0954 -0.20889,-0.14315 -0.34004,-0.14315 h -5.1325 v -1.77043 h 5.52628 c 0.13115,0 0.24413,-0.0478 0.33951,-0.14314 0.0954,-0.0954 0.14315,-0.20272 0.14315,-0.32195 v -2.11046 c 0,-0.13115 -0.0478,-0.23798 -0.14315,-0.32143 -0.0954,-0.0954 -0.20836,-0.14314 -0.33951,-0.14314 z m 11.24427,0 c -0.13114,0 -0.24413,0.0478 -0.33951,0.14314 -0.0835,0.0834 -0.12506,0.19028 -0.12506,0.32143 v 2.39675 c 0,0.13115 0.0416,0.24413 0.12506,0.33951 0.0954,0.0835 0.20837,0.12558 0.33951,0.12558 h 3.0763 v 8.72711 c 0,0.13115 0.0416,0.24414 0.12506,0.33952 0.0954,0.0834 0.20888,0.12505 0.34003,0.12505 h 2.96829 c 0.13115,0 0.2385,-0.0416 0.32195,-0.12505 0.0954,-0.0954 0.14314,-0.20837 0.14314,-0.33952 v -8.72711 h 3.07578 c 0.13115,0 0.23849,-0.0421 0.32195,-0.12558 0.0954,-0.0954 0.14314,-0.20836 0.14314,-0.33951 v -2.39675 c 0,-0.13115 -0.0478,-0.23798 -0.14314,-0.32143 -0.0835,-0.0954 -0.1908,-0.14314 -0.32195,-0.14314 z m 29.00754,0 c -0.11923,0 -0.22658,0.0478 -0.32195,0.14314 -0.0954,0.0834 -0.14314,0.19028 -0.14314,0.32143 v 11.58895 c 0,0.13115 0.0478,0.24414 0.14314,0.33952 0.0954,0.0834 0.20272,0.12505 0.32195,0.12505 h 3.05769 c 0.13115,0 0.23849,-0.0416 0.32194,-0.12505 0.0954,-0.0954 0.14315,-0.20837 0.14315,-0.33952 v -3.66644 h 1.69912 c 1.03724,0 1.93707,-0.14278 2.70009,-0.42891 0.77495,-0.28614 1.37741,-0.73349 1.80661,-1.34152 0.42921,-0.61996 0.64337,-1.4068 0.64337,-2.36058 0,-0.95379 -0.21416,-1.74679 -0.64337,-2.37867 -0.4292,-0.63189 -1.03166,-1.10285 -1.80661,-1.41283 -0.76302,-0.30998 -1.66285,-0.46457 -2.70009,-0.46457 z m 12.69276,0 c -0.11923,0 -0.22656,0.0478 -0.32194,0.14314 -0.0954,0.0834 -0.14315,0.19028 -0.14315,0.32143 v 11.58895 c 0,0.13115 0.0478,0.24414 0.14315,0.33952 0.0954,0.0834 0.20271,0.12505 0.32194,0.12505 h 2.91507 c 0.13114,0 0.23849,-0.0416 0.32194,-0.12505 0.0954,-0.0954 0.14263,-0.20837 0.14263,-0.33952 v -3.7021 h 1.28778 l 1.78852,3.68402 c 0.0358,0.0954 0.11331,0.20271 0.23254,0.32194 0.11922,0.1073 0.29179,0.16071 0.51831,0.16071 h 3.02256 c 0.1073,0 0.19667,-0.0354 0.2682,-0.10697 0.0715,-0.0835 0.10749,-0.17898 0.10749,-0.28628 0,-0.0596 -0.0179,-0.12535 -0.0538,-0.19689 l -2.32492,-4.22042 c 0.61996,-0.33382 1.12072,-0.79298 1.50223,-1.37717 0.38152,-0.58419 0.57206,-1.29347 0.57206,-2.12804 0,-1.32338 -0.4648,-2.35469 -1.39474,-3.09387 -0.91802,-0.73918 -2.18764,-1.10845 -3.80907,-1.10845 z m 25.3137,0 c -0.13115,0 -0.24413,0.0478 -0.33951,0.14314 -0.0835,0.0834 -0.12506,0.19028 -0.12506,0.32143 v 2.39675 c 0,0.13115 0.0416,0.24413 0.12506,0.33951 0.0954,0.0835 0.20836,0.12558 0.33951,0.12558 h 3.0763 v 8.72711 c 0,0.13115 0.0416,0.24414 0.12505,0.33952 0.0954,0.0834 0.20889,0.12505 0.34004,0.12505 h 2.96829 c 0.13115,0 0.23849,-0.0416 0.32194,-0.12505 0.0954,-0.0954 0.14315,-0.20837 0.14315,-0.33952 v -8.72711 h 3.07578 c 0.13114,0 0.23848,-0.0421 0.32194,-0.12558 0.0954,-0.0954 0.14315,-0.20836 0.14315,-0.33951 v -2.39675 c 0,-0.13115 -0.0478,-0.23798 -0.14315,-0.32143 -0.0835,-0.0954 -0.1908,-0.14314 -0.32194,-0.14314 z m 25.01036,0 c -0.13115,0 -0.24465,0.0478 -0.34003,0.14314 -0.0835,0.0834 -0.12506,0.19028 -0.12506,0.32143 v 2.39675 c 0,0.13115 0.0416,0.24413 0.12506,0.33951 0.0954,0.0835 0.20888,0.12558 0.34003,0.12558 h 3.07578 v 8.72711 c 0,0.13115 0.0416,0.24414 0.12506,0.33952 0.0954,0.0834 0.20888,0.12505 0.34003,0.12505 h 2.96881 c 0.13114,0 0.23849,-0.0416 0.32194,-0.12505 0.0954,-0.0954 0.14263,-0.20837 0.14263,-0.33952 v -8.72711 h 3.0763 c 0.13114,0 0.23848,-0.0421 0.32194,-0.12558 0.0954,-0.0954 0.14315,-0.20836 0.14315,-0.33951 v -2.39675 c 0,-0.13115 -0.0478,-0.23798 -0.14315,-0.32143 -0.0835,-0.0954 -0.1908,-0.14314 -0.32194,-0.14314 z m 11.74502,0 c -0.1073,0 -0.20283,0.0416 -0.28629,0.12505 -0.0715,0.0715 -0.10749,0.1609 -0.10749,0.2682 0,0.0238 0.006,0.0536 0.0181,0.0894 0.0119,0.0238 0.0237,0.0474 0.0357,0.0713 l 4.07778,7.81554 v 3.68401 c 0,0.13115 0.0416,0.24414 0.12506,0.33952 0.0954,0.0834 0.20837,0.12505 0.33951,0.12505 h 2.91507 c 0.13115,0 0.23849,-0.0416 0.32195,-0.12505 0.0954,-0.0954 0.14314,-0.20837 0.14314,-0.33952 v -3.68401 l 4.09536,-7.81554 c 0.0119,-0.0238 0.0176,-0.0474 0.0176,-0.0713 0.0119,-0.0357 0.0181,-0.0655 0.0181,-0.0894 0,-0.1073 -0.0416,-0.19666 -0.12505,-0.2682 -0.0715,-0.0834 -0.15526,-0.12505 -0.25063,-0.12505 h -2.80758 c -0.20268,0 -0.36344,0.0534 -0.48266,0.16071 -0.10728,0.10731 -0.17302,0.19103 -0.19689,0.25063 l -2.18178,4.11293 -2.18178,-4.11293 c -0.0358,-0.0596 -0.10715,-0.14333 -0.21445,-0.25063 -0.1073,-0.1073 -0.26857,-0.16071 -0.48318,-0.16071 z m 12.76408,0 c -0.1073,0 -0.20284,0.0416 -0.28629,0.12505 -0.0715,0.0715 -0.10697,0.1609 -0.10697,0.2682 0,0.0238 0.006,0.0536 0.0176,0.0894 0.0119,0.0238 0.0242,0.0474 0.0362,0.0713 l 4.07727,7.81554 v 3.68401 c 0,0.13115 0.0416,0.24414 0.12506,0.33952 0.0954,0.0834 0.20889,0.12505 0.34003,0.12505 h 2.91507 c 0.13114,0 0.23796,-0.0416 0.32142,-0.12505 0.0954,-0.0954 0.14315,-0.20837 0.14315,-0.33952 v -3.68401 l 4.09536,-7.81554 c 0.0119,-0.0238 0.0181,-0.0474 0.0181,-0.0713 0.0119,-0.0357 0.0181,-0.0655 0.0181,-0.0894 0,-0.1073 -0.0421,-0.19666 -0.12557,-0.2682 -0.0715,-0.0834 -0.15474,-0.12505 -0.25012,-0.12505 h -2.80758 c -0.20268,0 -0.36395,0.0534 -0.48317,0.16071 -0.10728,0.10731 -0.17251,0.19103 -0.19637,0.25063 l -2.18178,4.11293 -2.1823,-4.11293 c -0.0358,-0.0596 -0.10716,-0.14333 -0.21446,-0.25063 -0.1073,-0.1073 -0.26805,-0.16071 -0.48265,-0.16071 z m 13.78365,0 c -0.11922,0 -0.22656,0.0478 -0.32194,0.14314 -0.0954,0.0834 -0.14263,0.19028 -0.14263,0.32143 v 11.58895 c 0,0.13115 0.0473,0.24414 0.14263,0.33952 0.0954,0.0834 0.20272,0.12505 0.32194,0.12505 h 3.05821 c 0.13115,0 0.23849,-0.0416 0.32195,-0.12505 0.0954,-0.0954 0.14314,-0.20837 0.14314,-0.33952 v -3.66644 h 1.69912 c 1.03724,0 1.93707,-0.14278 2.70009,-0.42891 0.77496,-0.28614 1.37689,-0.73349 1.80609,-1.34152 0.4292,-0.61996 0.64389,-1.4068 0.64389,-2.36058 0,-0.95379 -0.21469,-1.74679 -0.64389,-2.37867 -0.4292,-0.63189 -1.03113,-1.10285 -1.80609,-1.41283 -0.76302,-0.30998 -1.66285,-0.46457 -2.70009,-0.46457 z m 12.69276,0 c -0.11922,0 -0.22605,0.0478 -0.32142,0.14314 -0.0954,0.0834 -0.14315,0.19028 -0.14315,0.32143 v 11.58895 c 0,0.13115 0.0478,0.24414 0.14315,0.33952 0.0954,0.0834 0.2022,0.12505 0.32142,0.12505 h 3.04065 c 0.13114,0 0.23848,-0.0416 0.32194,-0.12505 0.0954,-0.0954 0.14263,-0.20837 0.14263,-0.33952 v -11.58895 c 0,-0.13115 -0.0473,-0.23798 -0.14263,-0.32143 -0.0835,-0.0954 -0.1908,-0.14314 -0.32194,-0.14314 z m 5.75418,0 c -0.13115,0 -0.24414,0.0478 -0.33952,0.14314 -0.0834,0.0834 -0.12557,0.19028 -0.12557,0.32143 v 2.39675 c 0,0.13115 0.0421,0.24413 0.12557,0.33951 0.0954,0.0835 0.20837,0.12558 0.33952,0.12558 h 3.07629 v 8.72711 c 0,0.13115 0.0416,0.24414 0.12506,0.33952 0.0954,0.0834 0.20837,0.12505 0.33951,0.12505 h 2.96882 c 0.13114,0 0.23848,-0.0416 0.32194,-0.12505 0.0954,-0.0954 0.14314,-0.20837 0.14314,-0.33952 v -8.72711 h 3.07578 c 0.13114,0 0.23849,-0.0421 0.32195,-0.12558 0.0954,-0.0954 0.14314,-0.20836 0.14314,-0.33951 v -2.39675 c 0,-0.13115 -0.0478,-0.23798 -0.14314,-0.32143 -0.0835,-0.0954 -0.19081,-0.14314 -0.32195,-0.14314 z m 27.71975,0 c -0.10731,0 -0.20283,0.0416 -0.28629,0.12505 -0.0715,0.0715 -0.10748,0.1609 -0.10748,0.2682 0,0.0358 0.006,0.0774 0.0181,0.12506 l 3.52278,11.44581 c 0.0358,0.13115 0.11332,0.25595 0.23255,0.37517 0.13114,0.11923 0.3104,0.1788 0.53692,0.1788 h 3.39772 c 0.22652,0 0.39909,-0.0596 0.51832,-0.1788 0.13111,-0.11922 0.21483,-0.24402 0.25063,-0.37517 l 3.50521,-11.44581 c 0.0119,-0.0477 0.0176,-0.0893 0.0176,-0.12506 0,-0.1073 -0.0354,-0.19666 -0.10697,-0.2682 -0.0715,-0.0834 -0.1609,-0.12505 -0.2682,-0.12505 h -2.77193 c -0.2146,0 -0.38151,0.0596 -0.50074,0.1788 -0.11919,0.11922 -0.19674,0.23837 -0.23254,0.3576 l -2.11047,7.45742 -2.10995,-7.45742 c -0.0358,-0.11923 -0.11332,-0.23838 -0.23254,-0.3576 -0.11923,-0.11923 -0.28615,-0.1788 -0.50075,-0.1788 z m 16.19798,0 c -0.2146,0 -0.38152,0.0596 -0.50075,0.1788 -0.11924,0.11922 -0.20296,0.24402 -0.25063,0.37517 l -4.07727,11.44581 c -0.0119,0.0358 -0.0181,0.0774 -0.0181,0.12506 0,0.1073 0.036,0.20282 0.10749,0.28628 0.0715,0.0715 0.1609,0.10697 0.2682,0.10697 h 2.75384 c 0.21461,0 0.36406,-0.0478 0.44752,-0.14314 0.0953,-0.0954 0.16057,-0.18475 0.19637,-0.2682 l 0.55449,-1.50223 h 4.30981 l 0.55449,1.50223 c 0.0358,0.0834 0.1015,0.17282 0.19688,0.2682 0.0954,0.0954 0.24433,0.14314 0.44701,0.14314 h 2.75383 c 0.10731,0 0.19667,-0.0354 0.2682,-0.10697 0.0835,-0.0835 0.12558,-0.17898 0.12558,-0.28628 0,-0.0477 -0.006,-0.0893 -0.0181,-0.12506 l -4.09536,-11.44581 c -0.0358,-0.13115 -0.11331,-0.25595 -0.23254,-0.37517 -0.11922,-0.11923 -0.29179,-0.1788 -0.51832,-0.1788 z m 10.11721,0 c -0.11923,0 -0.22657,0.0478 -0.32195,0.14314 -0.0954,0.0834 -0.14262,0.19028 -0.14262,0.32143 v 11.58895 c 0,0.13115 0.0473,0.24414 0.14262,0.33952 0.0954,0.0834 0.20272,0.12505 0.32195,0.12505 h 2.91507 c 0.13114,0 0.23849,-0.0416 0.32194,-0.12505 0.0954,-0.0954 0.14314,-0.20837 0.14314,-0.33952 v -3.7021 h 1.28778 l 1.788,3.68402 c 0.0358,0.0954 0.11332,0.20271 0.23255,0.32194 0.11922,0.1073 0.2923,0.16071 0.51883,0.16071 h 3.02204 c 0.1073,0 0.19666,-0.0354 0.2682,-0.10697 0.0715,-0.0835 0.10749,-0.17898 0.10749,-0.28628 0,-0.0596 -0.018,-0.12535 -0.0537,-0.19689 l -2.32492,-4.22042 c 0.61996,-0.33382 1.12072,-0.79298 1.50223,-1.37717 0.38152,-0.58419 0.57258,-1.29347 0.57258,-2.12804 0,-1.32338 -0.46481,-2.35469 -1.39475,-3.09387 -0.91802,-0.73918 -2.18815,-1.10845 -3.80959,-1.10845 z m 16.34112,0 c -0.2146,0 -0.38152,0.0596 -0.50075,0.1788 -0.11924,0.11922 -0.20244,0.24402 -0.25011,0.37517 l -4.07779,11.44581 c -0.0119,0.0358 -0.0176,0.0774 -0.0176,0.12506 0,0.1073 0.0354,0.20282 0.10697,0.28628 0.0715,0.0715 0.16142,0.10697 0.26872,0.10697 h 2.75384 c 0.2146,0 0.36355,-0.0478 0.447,-0.14314 0.0953,-0.0954 0.16109,-0.18475 0.19689,-0.2682 l 0.55448,-1.50223 h 4.30982 l 0.55449,1.50223 c 0.0358,0.0834 0.10099,0.17282 0.19637,0.2682 0.0954,0.0954 0.24484,0.14314 0.44752,0.14314 h 2.75383 c 0.1073,0 0.19666,-0.0354 0.2682,-0.10697 0.0835,-0.0835 0.12506,-0.17898 0.12506,-0.28628 0,-0.0477 -0.006,-0.0893 -0.0176,-0.12506 l -4.09536,-11.44581 c -0.0358,-0.13115 -0.11332,-0.25595 -0.23254,-0.37517 -0.11923,-0.11923 -0.29231,-0.1788 -0.51883,-0.1788 z m 38.81158,0 c -0.2146,0 -0.38152,0.0596 -0.50074,0.1788 -0.11925,0.11922 -0.20245,0.24402 -0.25012,0.37517 l -4.07727,11.44581 c -0.0119,0.0358 -0.0181,0.0774 -0.0181,0.12506 0,0.1073 0.0359,0.20282 0.10748,0.28628 0.0715,0.0715 0.1609,0.10697 0.2682,0.10697 h 2.75384 c 0.2146,0 0.36354,-0.0478 0.447,-0.14314 0.0953,-0.0954 0.16109,-0.18475 0.19689,-0.2682 l 0.55449,-1.50223 h 4.30981 l 0.55449,1.50223 c 0.0358,0.0834 0.10151,0.17282 0.19689,0.2682 0.0954,0.0954 0.24432,0.14314 0.447,0.14314 h 2.75384 c 0.1073,0 0.19666,-0.0354 0.2682,-0.10697 0.0835,-0.0835 0.12557,-0.17898 0.12557,-0.28628 0,-0.0477 -0.006,-0.0893 -0.0181,-0.12506 l -4.09535,-11.44581 c -0.0358,-0.13115 -0.11333,-0.25595 -0.23255,-0.37517 -0.11922,-0.11923 -0.2923,-0.1788 -0.51883,-0.1788 z m 8.09718,0 c -0.13114,0 -0.24465,0.0478 -0.34003,0.14314 -0.0834,0.0834 -0.12506,0.19028 -0.12506,0.32143 v 2.39675 c 0,0.13115 0.0416,0.24413 0.12506,0.33951 0.0954,0.0835 0.20889,0.12558 0.34003,0.12558 h 3.07578 v 8.72711 c 0,0.13115 0.0416,0.24414 0.12506,0.33952 0.0954,0.0834 0.20888,0.12505 0.34003,0.12505 h 2.9683 c 0.13114,0 0.23848,-0.0416 0.32194,-0.12505 0.0954,-0.0954 0.14314,-0.20837 0.14314,-0.33952 v -8.72711 h 3.0763 c 0.13115,0 0.23849,-0.0421 0.32195,-0.12558 0.0954,-0.0954 0.14262,-0.20836 0.14262,-0.33951 v -2.39675 c 0,-0.13115 -0.0472,-0.23798 -0.14262,-0.32143 -0.0835,-0.0954 -0.1908,-0.14314 -0.32195,-0.14314 z m -341.575002,2.86132 c 0.333825,0 0.625547,0.0652 0.875915,0.19637 0.262291,0.13115 0.465164,0.34018 0.608232,0.62632 0.154992,0.28614 0.23871,0.64977 0.25063,1.09089 0.02385,0.50074 0.03566,0.99533 0.03566,1.48414 0,0.4769 -0.01181,0.97149 -0.03566,1.48415 -0.01192,0.66765 -0.178841,1.1566 -0.500744,1.46658 -0.321903,0.29806 -0.733296,0.447 -1.234033,0.447 -0.512661,0 -0.930218,-0.14894 -1.25212,-0.447 -0.309979,-0.30998 -0.476898,-0.79893 -0.500745,-1.46658 -0.01192,-0.51266 -0.01757,-1.00725 -0.01757,-1.48415 0,-0.48881 0.0057,-0.9834 0.01757,-1.48414 0.01192,-0.44112 0.08948,-0.80475 0.232544,-1.09089 0.154991,-0.28614 0.363511,-0.49517 0.625802,-0.62632 0.262291,-0.13115 0.560694,-0.19637 0.894519,-0.19637 z m 135.069782,0 c 0.33383,0 0.62555,0.0652 0.87592,0.19637 0.26229,0.13115 0.46517,0.34018 0.60823,0.62632 0.15498,0.28614 0.23818,0.64977 0.25012,1.09089 0.0239,0.50074 0.0362,0.99533 0.0362,1.48414 0,0.4769 -0.0123,0.97149 -0.0362,1.48415 -0.0119,0.66765 -0.17885,1.1566 -0.50075,1.46658 -0.32191,0.29806 -0.73278,0.447 -1.23352,0.447 -0.51265,0 -0.93021,-0.14894 -1.25212,-0.447 -0.30995,-0.30998 -0.47687,-0.79893 -0.50074,-1.46658 -0.0119,-0.51266 -0.0181,-1.00725 -0.0181,-1.48415 0,-0.48881 0.006,-0.9834 0.0181,-1.48414 0.0119,-0.44112 0.0895,-0.80475 0.23254,-1.09089 0.155,-0.28614 0.36352,-0.49517 0.62581,-0.62632 0.26229,-0.13115 0.56069,-0.19637 0.89451,-0.19637 z m 25.00985,0 c 0.33382,0 0.62606,0.0652 0.87643,0.19637 0.26229,0.13115 0.46465,0.34018 0.60771,0.62632 0.15498,0.28614 0.2387,0.64977 0.25063,1.09089 0.0239,0.50074 0.0357,0.99533 0.0357,1.48414 0,0.4769 -0.0118,0.97149 -0.0357,1.48415 -0.0119,0.66765 -0.17884,1.1566 -0.50074,1.46658 -0.3219,0.29806 -0.73329,0.447 -1.23403,0.447 -0.51266,0 -0.93022,-0.14894 -1.25212,-0.447 -0.30996,-0.30998 -0.47688,-0.79893 -0.50075,-1.46658 -0.0119,-0.51266 -0.0176,-1.00725 -0.0176,-1.48415 0,-0.48881 0.006,-0.9834 0.0176,-1.48414 0.0119,-0.44112 0.0895,-0.80475 0.23255,-1.09089 0.15499,-0.28614 0.36403,-0.49517 0.62631,-0.62632 0.2623,-0.13115 0.56018,-0.19637 0.89401,-0.19637 z m 149.35418,0 c 0.33383,0 0.62555,0.0652 0.87592,0.19637 0.26229,0.13115 0.46516,0.34018 0.60823,0.62632 0.15498,0.28614 0.2387,0.64977 0.25063,1.09089 0.0239,0.50074 0.0357,0.99533 0.0357,1.48414 0,0.4769 -0.0118,0.97149 -0.0357,1.48415 -0.0119,0.66765 -0.17884,1.1566 -0.50074,1.46658 -0.3219,0.29806 -0.7333,0.447 -1.23404,0.447 -0.51266,0 -0.93021,-0.14894 -1.25212,-0.447 -0.30995,-0.30998 -0.47688,-0.79893 -0.50074,-1.46658 -0.0119,-0.51266 -0.0176,-1.00725 -0.0176,-1.48415 0,-0.48881 0.006,-0.9834 0.0176,-1.48414 0.0119,-0.44112 0.0895,-0.80475 0.23254,-1.09089 0.155,-0.28614 0.36352,-0.49517 0.6258,-0.62632 0.2623,-0.13115 0.5607,-0.19637 0.89452,-0.19637 z m -297.653137,0.0357 h 1.698607 c 0.4292,0 0.73942,0.12532 0.93017,0.37568 0.20268,0.25037 0.30386,0.55442 0.30386,0.91209 0,0.34575 -0.10118,0.63747 -0.30386,0.87592 -0.20268,0.22652 -0.51289,0.34003 -0.93017,0.34003 h -1.698607 z m 96.204457,0 h 1.68104 c 0.45305,0 0.77456,0.13713 0.96531,0.41134 0.19076,0.26229 0.28629,0.56634 0.28629,0.91209 0,0.44113 -0.12532,0.7688 -0.37569,0.9834 -0.23844,0.20268 -0.53016,0.30438 -0.87591,0.30438 h -1.68104 z m 12.62094,0 h 1.69912 c 0.42921,0 0.73942,0.12532 0.93018,0.37568 0.20268,0.25037 0.30385,0.55442 0.30385,0.91209 0,0.34575 -0.10117,0.63747 -0.30385,0.87592 -0.20268,0.22652 -0.5129,0.34003 -0.93018,0.34003 h -1.69912 z m 88.68864,0 h 1.68103 c 0.45305,0 0.77508,0.13713 0.96584,0.41134 0.19075,0.26229 0.28628,0.56634 0.28628,0.91209 0,0.44113 -0.12532,0.7688 -0.37568,0.9834 -0.23845,0.20268 -0.53069,0.30438 -0.87644,0.30438 h -1.68103 z m 72.41056,0 h 1.69912 c 0.42921,0 0.73891,0.12532 0.92966,0.37568 0.20268,0.25037 0.30438,0.55442 0.30438,0.91209 0,0.34575 -0.1017,0.63747 -0.30438,0.87592 -0.20268,0.22652 -0.51238,0.34003 -0.92966,0.34003 h -1.69912 z m -11.87007,0.66145 1.341,4.02405 h -2.66444 z m 26.45833,0 1.34152,4.02405 h -2.66444 z m 38.8121,0 1.341,4.02405 h -2.66443 z m -243.49314,2.07481 c -0.11923,0 -0.22656,0.0478 -0.32194,0.14315 -0.0954,0.0835 -0.14315,0.1908 -0.14315,0.32194 v 2.10995 c 0,0.13114 0.0478,0.24465 0.14315,0.34003 0.0954,0.0835 0.20271,0.12506 0.32194,0.12506 h 5.72265 c 0.13114,0 0.23849,-0.0416 0.32194,-0.12506 0.0954,-0.0954 0.14315,-0.20889 0.14315,-0.34003 v -2.10995 c 0,-0.13114 -0.0478,-0.23848 -0.14315,-0.32194 -0.0834,-0.0954 -0.1908,-0.14315 -0.32194,-0.14315 z m 148.76404,0 c -0.11922,0 -0.22656,0.0478 -0.32194,0.14315 -0.0954,0.0835 -0.14315,0.1908 -0.14315,0.32194 v 2.10995 c 0,0.13114 0.0478,0.24465 0.14315,0.34003 0.0954,0.0835 0.20272,0.12506 0.32194,0.12506 h 5.72265 c 0.13115,0 0.23848,-0.0416 0.32194,-0.12506 0.0954,-0.0954 0.14315,-0.20889 0.14315,-0.34003 v -2.10995 c 0,-0.13114 -0.0478,-0.23848 -0.14315,-0.32194 -0.0835,-0.0954 -0.19079,-0.14315 -0.32194,-0.14315 z M 172.375,179.64536 c -0.0904,0 -0.16054,0.0288 -0.2098,0.0863 -0.0493,0.0493 -0.0739,0.11474 -0.0739,0.19689 v 1.33118 c 0,0.0904 0.0246,0.16002 0.0739,0.20929 0.0493,0.0493 0.11945,0.0739 0.2098,0.0739 h 1.31827 c 0.0822,0 0.14762,-0.0246 0.19689,-0.0739 0.0575,-0.0493 0.0863,-0.11894 0.0863,-0.20929 v -1.33118 c 0,-0.0822 -0.0288,-0.14762 -0.0863,-0.19689 -0.0493,-0.0575 -0.11475,-0.0863 -0.19689,-0.0863 z m 3.10472,0 c -0.0822,0 -0.14762,0.0288 -0.19689,0.0863 -0.0493,0.0493 -0.0739,0.11474 -0.0739,0.19689 v 1.33118 c 0,0.0904 0.0246,0.16002 0.0739,0.20929 0.0493,0.0493 0.11475,0.0739 0.19689,0.0739 h 1.33067 c 0.0822,0 0.14814,-0.0246 0.1974,-0.0739 0.0575,-0.0493 0.0863,-0.11894 0.0863,-0.20929 v -1.33118 c 0,-0.0822 -0.0288,-0.14762 -0.0863,-0.19689 -0.0493,-0.0575 -0.11525,-0.0863 -0.1974,-0.0863 z m -94.194245,2.39055 c -0.714641,0 -1.343016,0.11468 -1.885156,0.34468 -0.533927,0.23 -0.952843,0.55047 -1.256771,0.96118 -0.295713,0.41072 -0.443384,0.88304 -0.443384,1.41697 0,0.52571 0.118871,0.96924 0.357084,1.33067 0.246428,0.35321 0.599885,0.63651 1.059884,0.85008 0.459998,0.20536 1.006161,0.3614 1.638659,0.46819 0.451785,0.0821 0.808913,0.16016 1.07177,0.23409 0.262856,0.0739 0.447702,0.15614 0.554488,0.2465 0.114999,0.0904 0.172599,0.20556 0.172599,0.3452 0,0.18071 -0.102635,0.32419 -0.307992,0.43098 -0.205356,0.0986 -0.497026,0.14779 -0.874881,0.14779 -0.205357,0 -0.386015,-0.0204 -0.542086,-0.0615 -0.156071,-0.0493 -0.283318,-0.11056 -0.381889,-0.18449 -0.09857,-0.0822 -0.184971,-0.16854 -0.258899,-0.2589 -0.07393,-0.0657 -0.143576,-0.11493 -0.20929,-0.14779 -0.06571,-0.0411 -0.156301,-0.0615 -0.271301,-0.0615 h -1.959053 c -0.07393,0 -0.135199,0.0246 -0.184485,0.0739 -0.04929,0.0493 -0.0739,0.11056 -0.0739,0.18449 0.01643,0.43535 0.164099,0.85008 0.443383,1.24436 0.287499,0.38607 0.714792,0.70236 1.281576,0.94878 0.574998,0.23822 1.293443,0.3576 2.155941,0.3576 0.755711,0 1.42545,-0.11101 2.008662,-0.33279 0.591427,-0.23 1.055379,-0.55466 1.392163,-0.97359 0.336785,-0.41893 0.505396,-0.92005 0.505396,-1.50326 0,-0.5175 -0.111011,-0.94847 -0.332796,-1.29346 -0.221785,-0.345 -0.575243,-0.62411 -1.059884,-0.83768 -0.476427,-0.21357 -1.104802,-0.37799 -1.885156,-0.49299 -0.410713,-0.0821 -0.731183,-0.15596 -0.961182,-0.22169 -0.229999,-0.0739 -0.389717,-0.15614 -0.480074,-0.2465 -0.09036,-0.0903 -0.135909,-0.19718 -0.135909,-0.3204 0,-0.18071 0.07435,-0.31633 0.222209,-0.40669 0.147857,-0.0986 0.360986,-0.14779 0.640271,-0.14779 0.254642,0 0.4641,0.045 0.628385,0.13539 0.164283,0.0904 0.266918,0.19299 0.307992,0.30799 0.06571,0.0739 0.13169,0.12733 0.197404,0.1602 0.06571,0.0329 0.147925,0.0496 0.246496,0.0496 h 2.057756 c 0.06571,0 0.122796,-0.0246 0.172082,-0.0739 0.0575,-0.0575 0.0863,-0.12348 0.0863,-0.1974 -0.0082,-0.26286 -0.0941,-0.53778 -0.258382,-0.82528 -0.164285,-0.2875 -0.402544,-0.55456 -0.714685,-0.80098 -0.312143,-0.25464 -0.698588,-0.45991 -1.158586,-0.61598 -0.451784,-0.15607 -0.973335,-0.2341 -1.564762,-0.2341 z m 18.131192,0 c -0.71464,0 -1.343015,0.11468 -1.885156,0.34468 -0.533927,0.23 -0.952843,0.55047 -1.256771,0.96118 -0.295713,0.41072 -0.4439,0.88304 -0.4439,1.41697 0,0.52571 0.119387,0.96924 0.357601,1.33067 0.246427,0.35321 0.599368,0.63651 1.059366,0.85008 0.459999,0.20536 1.006679,0.3614 1.639177,0.46819 0.451784,0.0821 0.808913,0.16016 1.071769,0.23409 0.262857,0.0739 0.447697,0.15614 0.554487,0.2465 0.115,0.0904 0.1726,0.20556 0.1726,0.3452 0,0.18071 -0.10264,0.32419 -0.30799,0.43098 -0.20536,0.0986 -0.497029,0.14779 -0.874883,0.14779 -0.205357,0 -0.386015,-0.0204 -0.542086,-0.0615 -0.15607,-0.0493 -0.283317,-0.11056 -0.381889,-0.18449 -0.09857,-0.0822 -0.184971,-0.16854 -0.258899,-0.2589 -0.07393,-0.0657 -0.144093,-0.11493 -0.209806,-0.14779 -0.06571,-0.0411 -0.155785,-0.0615 -0.270784,-0.0615 h -1.959054 c -0.07393,0 -0.135715,0.0246 -0.185001,0.0739 -0.04929,0.0493 -0.0739,0.11056 -0.0739,0.18449 0.01643,0.43535 0.164099,0.85008 0.443384,1.24436 0.287499,0.38607 0.714792,0.70236 1.281575,0.94878 0.574999,0.23822 1.293961,0.3576 2.156458,0.3576 0.755715,0 1.424935,-0.11101 2.008145,-0.33279 0.59143,-0.23 1.0559,-0.55466 1.39268,-0.97359 0.33679,-0.41893 0.50488,-0.92005 0.50488,-1.50326 0,-0.5175 -0.11101,-0.94847 -0.33279,-1.29346 -0.22178,-0.345 -0.57473,-0.62411 -1.05937,-0.83768 -0.47643,-0.21357 -1.10481,-0.37799 -1.88516,-0.49299 -0.410713,-0.0821 -0.731182,-0.15596 -0.961181,-0.22169 -0.229999,-0.0739 -0.390235,-0.15614 -0.480591,-0.2465 -0.09036,-0.0903 -0.135392,-0.19718 -0.135392,-0.3204 0,-0.18071 0.07384,-0.31633 0.221692,-0.40669 0.147857,-0.0986 0.361503,-0.14779 0.640787,-0.14779 0.254643,0 0.4641,0.045 0.628385,0.13539 0.16429,0.0904 0.26693,0.19299 0.30799,0.30799 0.0657,0.0739 0.13167,0.12733 0.19741,0.1602 0.0657,0.0329 0.1474,0.0496 0.24598,0.0496 h 2.05775 c 0.0657,0 0.12334,-0.0246 0.1726,-0.0739 0.0575,-0.0575 0.0863,-0.12348 0.0863,-0.1974 -0.008,-0.26286 -0.0946,-0.53778 -0.2589,-0.82528 -0.16428,-0.2875 -0.40254,-0.55456 -0.71468,-0.80098 -0.31215,-0.25464 -0.69808,-0.45991 -1.15807,-0.61598 -0.45179,-0.15607 -0.97334,-0.2341 -1.564765,-0.2341 z m 66.159783,0 c -0.71464,0 -1.34301,0.11468 -1.88516,0.34468 -0.53392,0.23 -0.95284,0.55047 -1.25677,0.96118 -0.29571,0.41072 -0.44338,0.88304 -0.44338,1.41697 0,0.52571 0.11887,0.96924 0.35708,1.33067 0.24643,0.35321 0.59989,0.63651 1.05989,0.85008 0.46,0.20536 1.00616,0.3614 1.63866,0.46819 0.45178,0.0821 0.80891,0.16016 1.07177,0.23409 0.26285,0.0739 0.4477,0.15614 0.55448,0.2465 0.115,0.0904 0.1726,0.20556 0.1726,0.3452 0,0.18071 -0.10263,0.32419 -0.30799,0.43098 -0.20536,0.0986 -0.49703,0.14779 -0.87488,0.14779 -0.20536,0 -0.38602,-0.0204 -0.54209,-0.0615 -0.15607,-0.0493 -0.28331,-0.11056 -0.38188,-0.18449 -0.0986,-0.0822 -0.18497,-0.16854 -0.2589,-0.2589 -0.0739,-0.0657 -0.14356,-0.11493 -0.20929,-0.14779 -0.0657,-0.0411 -0.1563,-0.0615 -0.2713,-0.0615 h -1.95906 c -0.0739,0 -0.13573,0.0246 -0.185,0.0739 -0.0493,0.0493 -0.0739,0.11056 -0.0739,0.18449 0.0164,0.43535 0.16462,0.85008 0.4439,1.24436 0.2875,0.38607 0.71428,0.70236 1.28106,0.94878 0.575,0.23822 1.29396,0.3576 2.15646,0.3576 0.75571,0 1.42493,-0.11101 2.00815,-0.33279 0.59142,-0.23 1.0559,-0.55466 1.39268,-0.97359 0.33678,-0.41893 0.50488,-0.92005 0.50488,-1.50326 0,-0.5175 -0.11101,-0.94847 -0.3328,-1.29346 -0.22178,-0.345 -0.57472,-0.62411 -1.05937,-0.83768 -0.47642,-0.21357 -1.1048,-0.37799 -1.88515,-0.49299 -0.41072,-0.0821 -0.73119,-0.15596 -0.96119,-0.22169 -0.23,-0.0739 -0.39023,-0.15614 -0.48059,-0.2465 -0.0904,-0.0903 -0.13539,-0.19718 -0.13539,-0.3204 0,-0.18071 0.0738,-0.31633 0.22169,-0.40669 0.14786,-0.0986 0.3615,-0.14779 0.64079,-0.14779 0.25464,0 0.4641,0.045 0.62839,0.13539 0.16428,0.0904 0.26692,0.19299 0.30799,0.30799 0.0657,0.0739 0.13115,0.12733 0.19689,0.1602 0.0657,0.0329 0.14793,0.0496 0.24649,0.0496 h 2.05776 c 0.0657,0 0.12333,-0.0246 0.1726,-0.0739 0.0575,-0.0575 0.0863,-0.12348 0.0863,-0.1974 -0.008,-0.26286 -0.0946,-0.53778 -0.2589,-0.82528 -0.16429,-0.2875 -0.40255,-0.55456 -0.71469,-0.80098 -0.31214,-0.25464 -0.69807,-0.45991 -1.15807,-0.61598 -0.45178,-0.15607 -0.97333,-0.2341 -1.56476,-0.2341 z m 18.16788,0 c -0.78035,0 -1.46214,0.13144 -2.04535,0.39429 -0.58321,0.25464 -1.04297,0.63219 -1.37976,1.13327 -0.32855,0.50106 -0.50553,1.11739 -0.5302,1.84846 -0.008,0.36143 -0.0119,0.72694 -0.0119,1.09658 0,0.36143 0.004,0.71437 0.0119,1.05936 0.0246,0.73929 0.20163,1.3598 0.5302,1.86087 0.33679,0.49285 0.79237,0.86255 1.36736,1.10898 0.58321,0.24642 1.26918,0.36948 2.05775,0.36948 0.78036,0 1.45795,-0.12306 2.03295,-0.36948 0.58322,-0.24643 1.03931,-0.61613 1.36788,-1.10898 0.33677,-0.50107 0.51742,-1.12158 0.54209,-1.86087 0.0164,-0.34499 0.0248,-0.69793 0.0248,-1.05936 0,-0.36964 -0.008,-0.73515 -0.0248,-1.09658 -0.0164,-0.73107 -0.19291,-1.3474 -0.52969,-1.84846 -0.33678,-0.50108 -0.79706,-0.87863 -1.38028,-1.13327 -0.58321,-0.26285 -1.26081,-0.39429 -2.03295,-0.39429 z m 8.9054,0 c -0.71464,0 -1.34301,0.11468 -1.88515,0.34468 -0.53393,0.23 -0.95285,0.55047 -1.25677,0.96118 -0.29572,0.41072 -0.4439,0.88304 -0.4439,1.41697 0,0.52571 0.11938,0.96924 0.3576,1.33067 0.24642,0.35321 0.59936,0.63651 1.05936,0.85008 0.46,0.20536 1.00668,0.3614 1.63918,0.46819 0.45179,0.0821 0.80892,0.16016 1.07177,0.23409 0.26286,0.0739 0.4477,0.15614 0.55449,0.2465 0.115,0.0904 0.1726,0.20556 0.1726,0.3452 0,0.18071 -0.10264,0.32419 -0.308,0.43098 -0.20535,0.0986 -0.49702,0.14779 -0.87488,0.14779 -0.20535,0 -0.38601,-0.0204 -0.54208,-0.0615 -0.15608,-0.0493 -0.28384,-0.11056 -0.38241,-0.18449 -0.0986,-0.0822 -0.18445,-0.16854 -0.25838,-0.2589 -0.0739,-0.0657 -0.14407,-0.11493 -0.20981,-0.14779 -0.0657,-0.0411 -0.15578,-0.0615 -0.27078,-0.0615 h -1.95906 c -0.0739,0 -0.13573,0.0246 -0.185,0.0739 -0.0493,0.0493 -0.0739,0.11056 -0.0739,0.18449 0.0164,0.43535 0.16409,0.85008 0.44338,1.24436 0.2875,0.38607 0.71479,0.70236 1.28158,0.94878 0.57499,0.23822 1.29395,0.3576 2.15645,0.3576 0.75572,0 1.42494,-0.11101 2.00815,-0.33279 0.59142,-0.23 1.05538,-0.55466 1.39216,-0.97359 0.33679,-0.41893 0.5054,-0.92005 0.5054,-1.50326 0,-0.5175 -0.11101,-0.94847 -0.3328,-1.29346 -0.22179,-0.345 -0.57473,-0.62411 -1.05937,-0.83768 -0.47642,-0.21357 -1.10479,-0.37799 -1.88515,-0.49299 -0.41072,-0.0821 -0.73118,-0.15596 -0.96118,-0.22169 -0.23,-0.0739 -0.39024,-0.15614 -0.48059,-0.2465 -0.0904,-0.0903 -0.1354,-0.19718 -0.1354,-0.3204 0,-0.18071 0.0738,-0.31633 0.2217,-0.40669 0.14785,-0.0986 0.3615,-0.14779 0.64078,-0.14779 0.25465,0 0.46411,0.045 0.62839,0.13539 0.16429,0.0904 0.26692,0.19299 0.30799,0.30799 0.0657,0.0739 0.13115,0.12733 0.19689,0.1602 0.0657,0.0329 0.14792,0.0496 0.24649,0.0496 h 2.05776 c 0.0657,0 0.12333,-0.0246 0.1726,-0.0739 0.0575,-0.0575 0.0863,-0.12348 0.0863,-0.1974 -0.008,-0.26286 -0.0946,-0.53778 -0.2589,-0.82528 -0.16429,-0.2875 -0.40255,-0.55456 -0.71469,-0.80098 -0.31214,-0.25464 -0.69807,-0.45991 -1.15806,-0.61598 -0.45179,-0.15607 -0.97334,-0.2341 -1.56477,-0.2341 z m 68.58703,0 c -0.78036,0 -1.46215,0.13144 -2.04535,0.39429 -0.58322,0.25464 -1.04298,0.63219 -1.37977,1.13327 -0.32854,0.50106 -0.50553,1.11739 -0.5302,1.84846 -0.008,0.36143 -0.0119,0.72694 -0.0119,1.09658 0,0.36143 0.004,0.71437 0.0119,1.05936 0.0246,0.73929 0.20163,1.3598 0.5302,1.86087 0.33679,0.49285 0.79237,0.86255 1.36736,1.10898 0.58322,0.24642 1.26919,0.36948 2.05776,0.36948 0.78035,0 1.45795,-0.12306 2.03295,-0.36948 0.58321,-0.24643 1.03931,-0.61613 1.36787,-1.10898 0.33677,-0.50107 0.51742,-1.12158 0.54209,-1.86087 0.0164,-0.34499 0.0248,-0.69793 0.0248,-1.05936 0,-0.36964 -0.008,-0.73515 -0.0248,-1.09658 -0.0164,-0.73107 -0.1929,-1.3474 -0.52968,-1.84846 -0.33679,-0.50108 -0.79707,-0.87863 -1.38028,-1.13327 -0.58321,-0.26285 -1.26081,-0.39429 -2.03295,-0.39429 z m 13.51028,0 c -0.71463,0 -1.34301,0.11468 -1.88515,0.34468 -0.53393,0.23 -0.95284,0.55047 -1.25677,0.96118 -0.29572,0.41072 -0.44339,0.88304 -0.44339,1.41697 0,0.52571 0.11887,0.96924 0.35709,1.33067 0.24642,0.35321 0.59988,0.63651 1.05988,0.85008 0.45999,0.20536 1.00616,0.3614 1.63866,0.46819 0.45179,0.0821 0.80892,0.16016 1.07177,0.23409 0.26286,0.0739 0.4477,0.15614 0.55449,0.2465 0.115,0.0904 0.1726,0.20556 0.1726,0.3452 0,0.18071 -0.10263,0.32419 -0.30799,0.43098 -0.20536,0.0986 -0.49703,0.14779 -0.87489,0.14779 -0.20535,0 -0.38601,-0.0204 -0.54208,-0.0615 -0.15607,-0.0493 -0.28332,-0.11056 -0.38189,-0.18449 -0.0986,-0.0822 -0.18497,-0.16854 -0.2589,-0.2589 -0.0739,-0.0657 -0.14356,-0.11493 -0.20929,-0.14779 -0.0657,-0.0411 -0.1563,-0.0615 -0.2713,-0.0615 h -1.95905 c -0.0739,0 -0.13522,0.0246 -0.18449,0.0739 -0.0493,0.0493 -0.0739,0.11056 -0.0739,0.18449 0.0164,0.43535 0.1641,0.85008 0.44339,1.24436 0.2875,0.38607 0.71479,0.70236 1.28157,0.94878 0.575,0.23822 1.29344,0.3576 2.15594,0.3576 0.75572,0 1.42545,-0.11101 2.00867,-0.33279 0.59142,-0.23 1.05537,-0.55466 1.39216,-0.97359 0.33679,-0.41893 0.50488,-0.92005 0.50488,-1.50326 0,-0.5175 -0.11049,-0.94847 -0.33228,-1.29346 -0.22179,-0.345 -0.57524,-0.62411 -1.05988,-0.83768 -0.47643,-0.21357 -1.1048,-0.37799 -1.88516,-0.49299 -0.41071,-0.0821 -0.73118,-0.15596 -0.96118,-0.22169 -0.23,-0.0739 -0.39024,-0.15614 -0.48059,-0.2465 -0.0904,-0.0903 -0.1354,-0.19718 -0.1354,-0.3204 0,-0.18071 0.0738,-0.31633 0.2217,-0.40669 0.14785,-0.0986 0.3615,-0.14779 0.64078,-0.14779 0.25465,0 0.46411,0.045 0.62839,0.13539 0.16429,0.0904 0.26692,0.19299 0.30799,0.30799 0.0657,0.0739 0.13167,0.12733 0.19741,0.1602 0.0657,0.0329 0.14792,0.0496 0.24649,0.0496 h 2.05776 c 0.0657,0 0.12281,-0.0246 0.17208,-0.0739 0.0575,-0.0575 0.0863,-0.12348 0.0863,-0.1974 -0.008,-0.26286 -0.0941,-0.53778 -0.25838,-0.82528 -0.16429,-0.2875 -0.40255,-0.55456 -0.71469,-0.80098 -0.31214,-0.25464 -0.69858,-0.45991 -1.15858,-0.61598 -0.45179,-0.15607 -0.97334,-0.2341 -1.56477,-0.2341 z m 77.87483,0 c -0.78035,0 -1.46214,0.13144 -2.04535,0.39429 -0.58321,0.25464 -1.0435,0.63219 -1.38028,1.13327 -0.32854,0.50106 -0.50501,1.11739 -0.52968,1.84846 -0.008,0.36143 -0.0124,0.72694 -0.0124,1.09658 0,0.36143 0.004,0.71437 0.0124,1.05936 0.0246,0.73929 0.20111,1.3598 0.52968,1.86087 0.33678,0.49285 0.79288,0.86255 1.36788,1.10898 0.58321,0.24642 1.26919,0.36948 2.05775,0.36948 0.78036,0 1.45796,-0.12306 2.03296,-0.36948 0.58321,-0.24643 1.03879,-0.61613 1.36735,-1.10898 0.33676,-0.50107 0.51742,-1.12158 0.54209,-1.86087 0.0165,-0.34499 0.0248,-0.69793 0.0248,-1.05936 0,-0.36964 -0.008,-0.73515 -0.0248,-1.09658 -0.0164,-0.73107 -0.1929,-1.3474 -0.52968,-1.84846 -0.33678,-0.50108 -0.79655,-0.87863 -1.37976,-1.13327 -0.58322,-0.26285 -1.26081,-0.39429 -2.03296,-0.39429 z m 44.24278,0 c -0.78036,0 -1.46214,0.13144 -2.04535,0.39429 -0.58321,0.25464 -1.04298,0.63219 -1.37976,1.13327 -0.32855,0.50106 -0.50554,1.11739 -0.5302,1.84846 -0.008,0.36143 -0.0119,0.72694 -0.0119,1.09658 0,0.36143 0.004,0.71437 0.0119,1.05936 0.0246,0.73929 0.20162,1.3598 0.5302,1.86087 0.33678,0.49285 0.79236,0.86255 1.36736,1.10898 0.58321,0.24642 1.26918,0.36948 2.05775,0.36948 0.78035,0 1.45795,-0.12306 2.03295,-0.36948 0.58321,-0.24643 1.03931,-0.61613 1.36788,-1.10898 0.33676,-0.50107 0.51742,-1.12158 0.54208,-1.86087 0.0165,-0.34499 0.0248,-0.69793 0.0248,-1.05936 0,-0.36964 -0.008,-0.73515 -0.0248,-1.09658 -0.0164,-0.73107 -0.19289,-1.3474 -0.52968,-1.84846 -0.33678,-0.50108 -0.79707,-0.87863 -1.38028,-1.13327 -0.58321,-0.26285 -1.26081,-0.39429 -2.03295,-0.39429 z M 71.333111,182.1589 c -0.147856,0 -0.263056,0.0409 -0.345198,0.12299 -0.08214,0.0821 -0.13974,0.16855 -0.1726,0.2589 l -2.80913,7.88582 c -0.0082,0.0247 -0.0124,0.0534 -0.0124,0.0863 0,0.0739 0.02461,0.13936 0.0739,0.19689 0.04929,0.0493 0.111074,0.0739 0.185002,0.0739 h 1.897559 c 0.147856,0 0.250491,-0.0325 0.307991,-0.0982 0.06572,-0.0657 0.110752,-0.12747 0.135392,-0.185 l 0.381889,-1.03508 h 2.969845 l 0.381889,1.03508 c 0.02464,0.0575 0.06968,0.11927 0.135392,0.185 0.06571,0.0657 0.168349,0.0982 0.307991,0.0982 h 1.897559 c 0.07393,0 0.135715,-0.0246 0.185001,-0.0739 0.0575,-0.0575 0.0863,-0.12296 0.0863,-0.19689 0,-0.0329 -0.0042,-0.0616 -0.0124,-0.0863 l -2.821533,-7.88582 c -0.02464,-0.0904 -0.07806,-0.17675 -0.160197,-0.2589 -0.08214,-0.0821 -0.20153,-0.12299 -0.357601,-0.12299 z m 15.592846,0 c -0.08214,0 -0.156495,0.033 -0.222208,0.0987 -0.06571,0.0575 -0.09819,0.13133 -0.09819,0.22169 v 5.03949 c 0,0.77214 0.160235,1.41256 0.480591,1.92185 0.328571,0.50106 0.779958,0.87076 1.354956,1.10897 0.583212,0.23822 1.257139,0.3576 2.021065,0.3576 0.755712,0 1.420746,-0.11938 1.995744,-0.3576 0.574998,-0.23821 1.022715,-0.60791 1.343071,-1.10897 0.320356,-0.50929 0.48059,-1.14971 0.48059,-1.92185 v -5.03949 c 0,-0.0903 -0.03299,-0.16415 -0.0987,-0.22169 -0.0575,-0.0657 -0.131335,-0.0987 -0.221691,-0.0987 h -1.995744 c -0.09036,0 -0.168381,0.033 -0.234094,0.0987 -0.06571,0.0575 -0.0987,0.13133 -0.0987,0.22169 v 5.00228 c 0,0.41894 -0.102636,0.73522 -0.307992,0.94878 -0.197142,0.21358 -0.488812,0.3204 -0.874882,0.3204 -0.38607,0 -0.681928,-0.10682 -0.887284,-0.3204 -0.205357,-0.21356 -0.307992,-0.52984 -0.307992,-0.94878 v -5.00228 c 0,-0.0903 -0.03299,-0.16415 -0.0987,-0.22169 -0.0575,-0.0657 -0.131335,-0.0987 -0.221692,-0.0987 z m 17.588593,0 c -0.0903,0 -0.16836,0.033 -0.2341,0.0987 -0.0575,0.0575 -0.0863,0.13133 -0.0863,0.22169 v 1.65107 c 0,0.0903 0.0288,0.16836 0.0863,0.23409 0.0657,0.0575 0.14374,0.0863 0.2341,0.0863 h 2.11925 v 6.01255 c 0,0.0903 0.0288,0.16836 0.0863,0.2341 0.0657,0.0575 0.14374,0.0863 0.23409,0.0863 h 2.04535 c 0.0904,0 0.16423,-0.0288 0.2217,-0.0863 0.0657,-0.0657 0.0987,-0.14374 0.0987,-0.2341 v -6.01255 h 2.11925 c 0.0903,0 0.16416,-0.0288 0.22169,-0.0863 0.0657,-0.0657 0.0987,-0.14373 0.0987,-0.23409 v -1.65107 c 0,-0.0903 -0.033,-0.16415 -0.0987,-0.22169 -0.0575,-0.0657 -0.13133,-0.0987 -0.22169,-0.0987 z m 8.9054,0 c -0.0821,0 -0.15596,0.033 -0.2217,0.0987 -0.0657,0.0575 -0.0987,0.13133 -0.0987,0.22169 v 7.98401 c 0,0.0903 0.033,0.16836 0.0987,0.2341 0.0657,0.0575 0.13956,0.0863 0.2217,0.0863 l 6.13606,5.1e-4 c 0.0903,0 0.16836,-0.0288 0.23409,-0.0863 0.0657,-0.0657 0.0987,-0.14373 0.0987,-0.23409 v -1.44177 c 0,-0.0903 -0.033,-0.16836 -0.0987,-0.2341 -0.0657,-0.0657 -0.14374,-0.0987 -0.23409,-0.0987 h -3.90571 v -1.24437 h 3.53622 c 0.0903,0 0.16836,-0.0288 0.23409,-0.0863 0.0657,-0.0657 0.0982,-0.14373 0.0982,-0.23409 v -1.33067 c 0,-0.0904 -0.0324,-0.16422 -0.0982,-0.22169 -0.0657,-0.0657 -0.14374,-0.0987 -0.23409,-0.0987 h -3.53622 v -1.22008 h 3.807 c 0.0903,0 0.16836,-0.0325 0.2341,-0.0982 0.0657,-0.0657 0.0987,-0.14006 0.0987,-0.22221 v -1.45366 c 0,-0.0903 -0.033,-0.16415 -0.0987,-0.22169 -0.0657,-0.0657 -0.14374,-0.0987 -0.2341,-0.0987 z m 8.3876,0 c -0.0821,0 -0.15596,0.033 -0.22169,0.0987 -0.0657,0.0575 -0.0987,0.13133 -0.0987,0.22169 v 7.98401 c 0,0.0903 0.033,0.16836 0.0987,0.2341 0.0657,0.0575 0.13954,0.0863 0.22169,0.0863 l 6.13606,5.1e-4 c 0.0903,0 0.16836,-0.0288 0.23409,-0.0863 0.0657,-0.0657 0.0987,-0.14373 0.0987,-0.23409 v -1.44177 c 0,-0.0903 -0.033,-0.16836 -0.0987,-0.2341 -0.0657,-0.0657 -0.14373,-0.0987 -0.23409,-0.0987 h -3.90571 v -1.24437 h 3.53622 c 0.0903,0 0.16836,-0.0288 0.23409,-0.0863 0.0657,-0.0657 0.0987,-0.14373 0.0987,-0.23409 v -1.33067 c 0,-0.0904 -0.033,-0.16422 -0.0987,-0.22169 -0.0657,-0.0657 -0.14373,-0.0987 -0.23409,-0.0987 h -3.53622 v -1.22008 h 3.80752 c 0.0903,0 0.16836,-0.0325 0.2341,-0.0982 0.0657,-0.0657 0.0982,-0.14006 0.0982,-0.22221 v -1.45366 c 0,-0.0903 -0.0324,-0.16415 -0.0982,-0.22169 -0.0657,-0.0657 -0.14374,-0.0987 -0.2341,-0.0987 z m 7.85792,0 c -0.0903,0 -0.16837,0.033 -0.2341,0.0987 -0.0575,0.0575 -0.0863,0.13133 -0.0863,0.22169 v 1.65107 c 0,0.0903 0.0288,0.16836 0.0863,0.23409 0.0657,0.0575 0.14374,0.0863 0.2341,0.0863 h 2.11925 v 6.01255 c 0,0.0903 0.0288,0.16836 0.0863,0.2341 0.0657,0.0575 0.14373,0.0863 0.23409,0.0863 h 2.04535 c 0.0904,0 0.16423,-0.0288 0.2217,-0.0863 0.0657,-0.0657 0.0987,-0.14374 0.0987,-0.2341 v -6.01255 h 2.11925 c 0.0903,0 0.16416,-0.0288 0.22169,-0.0863 0.0657,-0.0657 0.0987,-0.14373 0.0987,-0.23409 v -1.65107 c 0,-0.0903 -0.033,-0.16415 -0.0987,-0.22169 -0.0575,-0.0657 -0.13134,-0.0987 -0.22169,-0.0987 z m 20.42924,0 c -0.0821,0 -0.15596,0.033 -0.22169,0.0987 -0.0657,0.0575 -0.0987,0.13133 -0.0987,0.22169 v 7.98401 c 0,0.0903 0.033,0.16836 0.0987,0.2341 0.0657,0.0575 0.13955,0.0863 0.22169,0.0863 h 5.93865 c 0.0903,0 0.16837,-0.0288 0.2341,-0.0863 0.0657,-0.0657 0.0987,-0.14374 0.0987,-0.2341 v -1.55236 c 0,-0.0903 -0.033,-0.16416 -0.0987,-0.22169 -0.0657,-0.0657 -0.14374,-0.0987 -0.2341,-0.0987 h -3.5605 v -6.11126 c 0,-0.0903 -0.033,-0.16415 -0.0987,-0.22169 -0.0657,-0.0657 -0.14374,-0.0987 -0.2341,-0.0987 z m 7.87032,0 c -0.0821,0 -0.15596,0.033 -0.22169,0.0987 -0.0657,0.0575 -0.0987,0.13133 -0.0987,0.22169 v 7.98401 c 0,0.0903 0.033,0.16836 0.0987,0.2341 0.0657,0.0575 0.13955,0.0863 0.22169,0.0863 h 2.09445 c 0.0903,0 0.16415,-0.0288 0.22169,-0.0863 0.0657,-0.0657 0.0987,-0.14374 0.0987,-0.2341 v -7.98401 c 0,-0.0903 -0.033,-0.16415 -0.0987,-0.22169 -0.0575,-0.0657 -0.13133,-0.0987 -0.22169,-0.0987 z m 15.49414,0 c -0.14785,0 -0.26305,0.0409 -0.34519,0.12299 -0.0821,0.0821 -0.13974,0.16855 -0.1726,0.2589 l -2.80913,7.88582 c -0.008,0.0247 -0.0124,0.0534 -0.0124,0.0863 0,0.0739 0.0246,0.13936 0.0739,0.19689 0.0493,0.0493 0.11108,0.0739 0.185,0.0739 h 1.89756 c 0.14782,0 0.25046,-0.0325 0.30799,-0.0982 0.0657,-0.0657 0.11073,-0.12747 0.13539,-0.185 l 0.38189,-1.03508 h 2.96933 l 0.38241,1.03508 c 0.0246,0.0575 0.0697,0.11927 0.13539,0.185 0.0657,0.0657 0.16835,0.0982 0.30799,0.0982 h 1.89756 c 0.0739,0 0.13522,-0.0246 0.18448,-0.0739 0.0575,-0.0575 0.0863,-0.12296 0.0863,-0.19689 0,-0.0329 -0.004,-0.0616 -0.0119,-0.0863 l -2.82154,-7.88582 c -0.0246,-0.0904 -0.078,-0.17675 -0.16019,-0.2589 -0.0821,-0.0821 -0.20153,-0.12299 -0.3576,-0.12299 z m 27.07329,0 c -0.14786,0 -0.26306,0.0409 -0.3452,0.12299 -0.0821,0.0821 -0.13974,0.16855 -0.1726,0.2589 l -2.80913,7.88582 c -0.008,0.0247 -0.0124,0.0534 -0.0124,0.0863 0,0.0739 0.0246,0.13936 0.0739,0.19689 0.0493,0.0493 0.11107,0.0739 0.185,0.0739 h 1.89756 c 0.1479,0 0.25053,-0.0325 0.30799,-0.0982 0.0657,-0.0657 0.11073,-0.12747 0.1354,-0.185 l 0.38188,-1.03508 h 2.96933 l 0.38189,1.03508 c 0.0246,0.0575 0.0702,0.11927 0.13591,0.185 0.0657,0.0657 0.16835,0.0982 0.30799,0.0982 h 1.89756 c 0.074,0 0.13522,-0.0246 0.18449,-0.0739 0.0575,-0.0575 0.0863,-0.12296 0.0863,-0.19689 0,-0.0329 -0.004,-0.0616 -0.0119,-0.0863 l -2.82205,-7.88582 c -0.0246,-0.0904 -0.0781,-0.17675 -0.1602,-0.2589 -0.0821,-0.0821 -0.20101,-0.12299 -0.35708,-0.12299 z m 5.68905,0 c -0.0903,0 -0.16836,0.033 -0.23409,0.0987 -0.0575,0.0575 -0.0863,0.13133 -0.0863,0.22169 v 1.65107 c 0,0.0903 0.0288,0.16836 0.0863,0.23409 0.0657,0.0575 0.14374,0.0863 0.23409,0.0863 h 2.11925 v 6.01255 c 0,0.0903 0.0288,0.16836 0.0863,0.2341 0.0657,0.0575 0.14374,0.0863 0.2341,0.0863 h 2.04535 c 0.0903,0 0.16416,-0.0288 0.22169,-0.0863 0.0657,-0.0657 0.0987,-0.14374 0.0987,-0.2341 v -6.01255 h 2.11925 c 0.0903,0 0.16415,-0.0288 0.22169,-0.0863 0.0657,-0.0657 0.0987,-0.14373 0.0987,-0.23409 v -1.65107 c 0,-0.0903 -0.033,-0.16415 -0.0987,-0.22169 -0.0575,-0.0657 -0.13134,-0.0987 -0.22169,-0.0987 z m 20.42925,0 c -0.0821,0 -0.15596,0.033 -0.22169,0.0987 -0.0657,0.0575 -0.0987,0.13133 -0.0987,0.22169 v 7.98401 c 0,0.0903 0.033,0.16836 0.0987,0.2341 0.0657,0.0575 0.13955,0.0863 0.22169,0.0863 h 2.10685 c 0.0904,0 0.16422,-0.0288 0.22169,-0.0863 0.0657,-0.0657 0.0987,-0.14374 0.0987,-0.2341 v -2.52594 h 1.17047 c 0.71464,0 1.33464,-0.0984 1.86035,-0.29559 0.53393,-0.19714 0.94917,-0.50505 1.24489,-0.92397 0.29571,-0.42714 0.44338,-0.96912 0.44338,-1.62626 0,-0.65714 -0.14767,-1.20383 -0.44338,-1.63918 -0.29572,-0.43536 -0.71096,-0.7595 -1.24489,-0.97307 -0.52571,-0.21357 -1.14571,-0.32039 -1.86035,-0.32039 z m 8.85579,0 c -0.0821,0 -0.15596,0.033 -0.22169,0.0987 -0.0657,0.0575 -0.0987,0.13133 -0.0987,0.22169 v 7.98401 c 0,0.0903 0.033,0.16836 0.0987,0.2341 0.0657,0.0575 0.13954,0.0863 0.22169,0.0863 h 2.09496 c 0.0903,0 0.16416,-0.0288 0.22169,-0.0863 0.0657,-0.0657 0.0987,-0.14374 0.0987,-0.2341 v -7.98401 c 0,-0.0903 -0.033,-0.16415 -0.0987,-0.22169 -0.0575,-0.0657 -0.13134,-0.0987 -0.22169,-0.0987 z m 4.6054,0 c -0.0821,0 -0.15647,0.033 -0.22221,0.0987 -0.0657,0.0575 -0.0982,0.13133 -0.0982,0.22169 v 7.98401 c 0,0.0903 0.0324,0.16836 0.0982,0.2341 0.0657,0.0575 0.14007,0.0863 0.22221,0.0863 l 6.13606,5.1e-4 c 0.0903,0 0.16836,-0.0288 0.23409,-0.0863 0.0657,-0.0657 0.0987,-0.14373 0.0987,-0.23409 v -1.44177 c 0,-0.0903 -0.033,-0.16836 -0.0987,-0.2341 -0.0657,-0.0657 -0.14374,-0.0987 -0.23409,-0.0987 h -3.90622 v -1.24437 h 3.53622 c 0.0903,0 0.16836,-0.0288 0.23409,-0.0863 0.0657,-0.0657 0.0987,-0.14373 0.0987,-0.23409 v -1.33067 c 0,-0.0904 -0.033,-0.16422 -0.0987,-0.22169 -0.0657,-0.0657 -0.14374,-0.0987 -0.23409,-0.0987 h -3.53622 v -1.22008 h 3.80752 c 0.0903,0 0.16836,-0.0325 0.23409,-0.0982 0.0657,-0.0657 0.0987,-0.14006 0.0987,-0.22221 v -1.45366 c 0,-0.0903 -0.033,-0.16415 -0.0987,-0.22169 -0.0657,-0.0657 -0.14374,-0.0987 -0.23409,-0.0987 z m 8.3876,0 c -0.0821,0 -0.15596,0.033 -0.22169,0.0987 -0.0657,0.0575 -0.0987,0.13133 -0.0987,0.22169 v 7.98401 c 0,0.0903 0.033,0.16836 0.0987,0.2341 0.0657,0.0575 0.13955,0.0863 0.22169,0.0863 h 1.86035 c 0.0904,0 0.16475,-0.0288 0.22221,-0.0863 0.0657,-0.0657 0.0982,-0.14374 0.0982,-0.2341 v -3.7946 l 2.53834,3.85661 c 0.0246,0.0329 0.0697,0.0863 0.1354,0.1602 0.0739,0.0657 0.18493,0.0982 0.33279,0.0982 h 1.62626 c 0.0903,0 0.16467,-0.0288 0.22221,-0.0863 0.0657,-0.0657 0.0982,-0.14374 0.0982,-0.2341 v -7.98401 c 0,-0.0903 -0.0324,-0.16415 -0.0982,-0.22169 -0.0575,-0.0657 -0.13185,-0.0987 -0.22221,-0.0987 h -1.84795 c -0.0903,0 -0.16836,0.033 -0.23409,0.0987 -0.0657,0.0575 -0.0987,0.13133 -0.0987,0.22169 v 4.01681 l -2.53834,-4.0783 c -0.0246,-0.0411 -0.0697,-0.0945 -0.13539,-0.1602 -0.0657,-0.0657 -0.17255,-0.0987 -0.3204,-0.0987 z m 18.63607,0 c -0.0821,0 -0.15596,0.033 -0.22169,0.0987 -0.0657,0.0575 -0.0987,0.13133 -0.0987,0.22169 v 7.98401 c 0,0.0903 0.033,0.16836 0.0987,0.2341 0.0657,0.0575 0.13955,0.0863 0.22169,0.0863 h 2.09445 c 0.0904,0 0.16474,-0.0288 0.22221,-0.0863 0.0657,-0.0657 0.0982,-0.14374 0.0982,-0.2341 v -7.98401 c 0,-0.0903 -0.0324,-0.16415 -0.0982,-0.22169 -0.0575,-0.0657 -0.13186,-0.0987 -0.22221,-0.0987 z m 13.33821,0 c -0.0903,0 -0.16836,0.033 -0.2341,0.0987 -0.0657,0.0575 -0.0987,0.13133 -0.0987,0.22169 v 7.98401 c 0,0.0903 0.033,0.16836 0.0987,0.2341 0.0657,0.0575 0.14374,0.0863 0.2341,0.0863 h 1.84795 c 0.0903,0 0.16415,-0.0288 0.22169,-0.0863 0.0657,-0.0657 0.0987,-0.14374 0.0987,-0.2341 v -3.992 l 1.10898,1.94665 c 0.041,0.0657 0.0945,0.13167 0.16019,0.1974 0.0657,0.0657 0.15579,0.0987 0.27079,0.0987 h 0.75189 c 0.12319,0 0.21745,-0.033 0.28319,-0.0987 0.0657,-0.0657 0.11913,-0.13167 0.16019,-0.1974 l 1.10898,-1.94665 v 3.992 c 0,0.0903 0.0288,0.16836 0.0863,0.2341 0.0657,0.0575 0.14373,0.0863 0.23409,0.0863 h 1.84847 c 0.0903,0 0.16416,-0.0288 0.22169,-0.0863 0.0657,-0.0657 0.0987,-0.14374 0.0987,-0.2341 v -7.98401 c 0,-0.0903 -0.033,-0.16415 -0.0987,-0.22169 -0.0575,-0.0657 -0.13134,-0.0987 -0.22169,-0.0987 h -1.63918 c -0.14786,0 -0.25835,0.0409 -0.33228,0.12299 -0.0739,0.0821 -0.12364,0.13973 -0.14831,0.1726 l -1.97094,3.42563 -1.97145,-3.42563 c -0.0247,-0.0328 -0.0739,-0.0905 -0.1478,-0.1726 -0.0739,-0.0821 -0.18493,-0.12299 -0.33279,-0.12299 z m 13.02039,0 c -0.14785,0 -0.26305,0.0409 -0.3452,0.12299 -0.0821,0.0821 -0.13921,0.16855 -0.17208,0.2589 l -2.80965,7.88582 c -0.008,0.0247 -0.0119,0.0534 -0.0119,0.0863 0,0.0739 0.0246,0.13936 0.0739,0.19689 0.0493,0.0493 0.11056,0.0739 0.18449,0.0739 h 1.89756 c 0.14782,0 0.25045,-0.0325 0.30799,-0.0982 0.0657,-0.0657 0.11072,-0.12747 0.13539,-0.185 l 0.38241,-1.03508 h 2.96932 l 0.38189,1.03508 c 0.0246,0.0575 0.0697,0.11927 0.13539,0.185 0.0657,0.0657 0.16836,0.0982 0.308,0.0982 h 1.89755 c 0.0739,0 0.13574,-0.0246 0.18501,-0.0739 0.0575,-0.0575 0.0863,-0.12296 0.0863,-0.19689 0,-0.0329 -0.004,-0.0616 -0.0124,-0.0863 l -2.82153,-7.88582 c -0.0247,-0.0904 -0.0781,-0.17675 -0.1602,-0.2589 -0.0821,-0.0821 -0.20153,-0.12299 -0.3576,-0.12299 z m 7.08174,0 c -0.0821,0 -0.15596,0.033 -0.22169,0.0987 -0.0657,0.0575 -0.0987,0.13133 -0.0987,0.22169 v 7.98401 c 0,0.0903 0.033,0.16836 0.0987,0.2341 0.0657,0.0575 0.13955,0.0863 0.22169,0.0863 h 5.93917 c 0.0903,0 0.16836,-0.0288 0.23409,-0.0863 0.0657,-0.0657 0.0982,-0.14374 0.0982,-0.2341 v -1.55236 c 0,-0.0903 -0.0325,-0.16416 -0.0982,-0.22169 -0.0657,-0.0657 -0.14373,-0.0987 -0.23409,-0.0987 h -3.56102 v -6.11126 c 0,-0.0903 -0.033,-0.16415 -0.0987,-0.22169 -0.0657,-0.0657 -0.14374,-0.0987 -0.2341,-0.0987 z m 7.87032,0 c -0.0821,0 -0.15596,0.033 -0.22169,0.0987 -0.0657,0.0575 -0.0987,0.13133 -0.0987,0.22169 v 7.98401 c 0,0.0903 0.033,0.16836 0.0987,0.2341 0.0657,0.0575 0.13954,0.0863 0.22169,0.0863 h 5.93917 c 0.0903,0 0.16836,-0.0288 0.23409,-0.0863 0.0657,-0.0657 0.0982,-0.14374 0.0982,-0.2341 v -1.55236 c 0,-0.0903 -0.0325,-0.16416 -0.0982,-0.22169 -0.0657,-0.0657 -0.14373,-0.0987 -0.23409,-0.0987 h -3.56102 v -6.11126 c 0,-0.0903 -0.033,-0.16415 -0.0987,-0.22169 -0.0657,-0.0657 -0.14375,-0.0987 -0.2341,-0.0987 z m 7.87032,0 c -0.0821,0 -0.15596,0.033 -0.22169,0.0987 -0.0657,0.0575 -0.0987,0.13133 -0.0987,0.22169 v 7.98401 c 0,0.0903 0.033,0.16836 0.0987,0.2341 0.0657,0.0575 0.13954,0.0863 0.22169,0.0863 h 2.09444 c 0.0903,0 0.16468,-0.0288 0.22221,-0.0863 0.0657,-0.0657 0.0982,-0.14374 0.0982,-0.2341 v -7.98401 c 0,-0.0903 -0.0325,-0.16415 -0.0982,-0.22169 -0.0575,-0.0657 -0.13185,-0.0987 -0.22221,-0.0987 z m 4.0752,0 c -0.0903,0 -0.16836,0.033 -0.23409,0.0987 -0.0575,0.0575 -0.0863,0.13133 -0.0863,0.22169 v 1.65107 c 0,0.0903 0.0288,0.16836 0.0863,0.23409 0.0657,0.0575 0.14373,0.0863 0.23409,0.0863 h 2.11925 v 6.01255 c 0,0.0903 0.0288,0.16836 0.0863,0.2341 0.0657,0.0575 0.14374,0.0863 0.2341,0.0863 h 2.04535 c 0.0903,0 0.16416,-0.0288 0.22169,-0.0863 0.0657,-0.0657 0.0987,-0.14374 0.0987,-0.2341 v -6.01255 h 2.11925 c 0.0903,0 0.16416,-0.0288 0.2217,-0.0863 0.0657,-0.0657 0.0987,-0.14373 0.0987,-0.23409 v -1.65107 c 0,-0.0903 -0.033,-0.16415 -0.0987,-0.22169 -0.0575,-0.0657 -0.13134,-0.0987 -0.2217,-0.0987 z m 20.42925,0 c -0.0821,0 -0.15648,0.033 -0.22221,0.0987 -0.0657,0.0575 -0.0982,0.13133 -0.0982,0.22169 v 7.98401 c 0,0.0903 0.0324,0.16836 0.0982,0.2341 0.0657,0.0575 0.14007,0.0863 0.22221,0.0863 h 1.95905 c 0.0903,0 0.16416,-0.0288 0.22169,-0.0863 0.0657,-0.0657 0.0987,-0.14374 0.0987,-0.2341 v -2.80913 l 1.97146,2.85874 c 0.0164,0.0329 0.0615,0.0863 0.13539,0.1602 0.0821,0.0739 0.2052,0.11059 0.36949,0.11059 h 2.31665 c 0.0739,0 0.13522,-0.0246 0.18449,-0.0739 0.0575,-0.0575 0.0863,-0.12296 0.0863,-0.19689 0,-0.0575 -0.0162,-0.10304 -0.0491,-0.13591 l -2.80913,-4.0907 2.58744,-3.72071 c 0.0329,-0.0411 0.0491,-0.0866 0.0491,-0.1359 0,-0.0739 -0.0288,-0.13522 -0.0863,-0.18449 -0.0493,-0.0575 -0.11055,-0.0863 -0.18448,-0.0863 h -2.25516 c -0.13143,0 -0.23406,0.0288 -0.30799,0.0863 -0.0739,0.0575 -0.13153,0.11507 -0.1726,0.1726 l -1.83555,2.64893 v -2.58744 c 0,-0.0903 -0.033,-0.16415 -0.0987,-0.22169 -0.0575,-0.0657 -0.13134,-0.0987 -0.22169,-0.0987 z m 17.69969,0 c -0.0821,0 -0.15648,0.033 -0.22221,0.0987 -0.0657,0.0575 -0.0982,0.13133 -0.0982,0.22169 v 7.98401 c 0,0.0903 0.0324,0.16836 0.0982,0.2341 0.0657,0.0575 0.14007,0.0863 0.22221,0.0863 h 2.00815 c 0.0903,0 0.16415,-0.0288 0.22169,-0.0863 0.0657,-0.0657 0.0987,-0.14374 0.0987,-0.2341 v -2.55023 h 0.88728 l 1.23197,2.53783 c 0.0247,0.0657 0.0781,0.14006 0.1602,0.22221 0.0821,0.0739 0.20153,0.11059 0.3576,0.11059 h 2.08204 c 0.0739,0 0.13574,-0.0246 0.185,-0.0739 0.0493,-0.0575 0.0739,-0.12296 0.0739,-0.19689 0,-0.0411 -0.0125,-0.0866 -0.0372,-0.13591 l -1.60145,-2.90783 c 0.42715,-0.23 0.77171,-0.54629 1.03456,-0.94878 0.26286,-0.4025 0.39429,-0.89106 0.39429,-1.46606 0,-0.91178 -0.31995,-1.62237 -0.96066,-2.13165 -0.6325,-0.50929 -1.50751,-0.76378 -2.62465,-0.76378 z m 8.1902,0 c -0.0739,0 -0.13936,0.0288 -0.19689,0.0863 -0.0493,0.0493 -0.0739,0.11056 -0.0739,0.18449 0,0.0247 0.004,0.0534 0.0124,0.0863 l 2.42725,7.88583 c 0.0246,0.0904 0.0781,0.17675 0.16019,0.2589 0.0904,0.0821 0.21342,0.12299 0.36949,0.12299 h 2.34094 c 0.15608,0 0.27546,-0.0409 0.3576,-0.12299 0.0903,-0.0821 0.14794,-0.16855 0.1726,-0.2589 l 2.41484,-7.88583 c 0.008,-0.0329 0.0124,-0.0616 0.0124,-0.0863 0,-0.0739 -0.0246,-0.13522 -0.0739,-0.18449 -0.0493,-0.0575 -0.11108,-0.0863 -0.185,-0.0863 H 372.539 c -0.14785,0 -0.26253,0.0409 -0.34468,0.12299 -0.0821,0.0821 -0.13553,0.16436 -0.16019,0.2465 l -1.45418,5.13818 -1.45366,-5.13818 c -0.0246,-0.0821 -0.078,-0.16435 -0.16019,-0.2465 -0.0821,-0.0821 -0.19735,-0.12299 -0.3452,-0.12299 z m 11.27114,0 c -0.14786,0 -0.26254,0.0409 -0.34468,0.12299 -0.0821,0.0821 -0.13973,0.16855 -0.1726,0.2589 l -2.80965,7.88582 c -0.008,0.0247 -0.0119,0.0534 -0.0119,0.0863 0,0.0739 0.0246,0.13936 0.0739,0.19689 0.0493,0.0493 0.11055,0.0739 0.18448,0.0739 h 1.89756 c 0.14783,0 0.25046,-0.0325 0.30799,-0.0982 0.0657,-0.0657 0.11124,-0.12747 0.13591,-0.185 l 0.38189,-1.03508 h 2.96933 l 0.38189,1.03508 c 0.0246,0.0575 0.0696,0.11927 0.13539,0.185 0.0657,0.0657 0.16834,0.0982 0.30799,0.0982 h 1.89756 c 0.0739,0 0.13573,-0.0246 0.185,-0.0739 0.0575,-0.0575 0.0863,-0.12296 0.0863,-0.19689 0,-0.0329 -0.004,-0.0616 -0.0124,-0.0863 l -2.82154,-7.88582 c -0.0246,-0.0904 -0.0781,-0.17675 -0.16019,-0.2589 -0.0821,-0.0821 -0.20153,-0.12299 -0.3576,-0.12299 z m 7.08174,0 c -0.0821,0 -0.15596,0.033 -0.22169,0.0987 -0.0657,0.0575 -0.0987,0.13133 -0.0987,0.22169 v 7.98401 c 0,0.0903 0.033,0.16836 0.0987,0.2341 0.0657,0.0575 0.13955,0.0863 0.22169,0.0863 h 1.95905 c 0.0903,0 0.16416,-0.0288 0.2217,-0.0863 0.0657,-0.0657 0.0987,-0.14374 0.0987,-0.2341 v -2.80913 l 1.97145,2.85874 c 0.0164,0.0329 0.0615,0.0863 0.1354,0.1602 0.0821,0.0739 0.20572,0.11059 0.37,0.11059 h 2.31614 c 0.0739,0 0.13573,-0.0246 0.185,-0.0739 0.0575,-0.0575 0.0863,-0.12296 0.0863,-0.19689 0,-0.0575 -0.0162,-0.10304 -0.0491,-0.13591 l -2.80965,-4.0907 2.58744,-3.72071 c 0.0329,-0.0411 0.0496,-0.0866 0.0496,-0.1359 0,-0.0739 -0.0288,-0.13522 -0.0863,-0.18449 -0.0493,-0.0575 -0.11107,-0.0863 -0.185,-0.0863 h -2.25465 c -0.13143,0 -0.23406,0.0288 -0.30799,0.0863 -0.0739,0.0575 -0.13153,0.11507 -0.1726,0.1726 l -1.83606,2.64893 v -2.58744 c 0,-0.0903 -0.033,-0.16415 -0.0987,-0.22169 -0.0575,-0.0657 -0.13134,-0.0987 -0.2217,-0.0987 z m 17.6997,0 c -0.0821,0 -0.15596,0.033 -0.2217,0.0987 -0.0657,0.0575 -0.0987,0.13133 -0.0987,0.22169 v 7.98401 c 0,0.0903 0.033,0.16836 0.0987,0.2341 0.0657,0.0575 0.13956,0.0863 0.2217,0.0863 h 2.00866 c 0.0903,0 0.16416,-0.0288 0.22169,-0.0863 0.0657,-0.0657 0.0987,-0.14374 0.0987,-0.2341 v -2.55023 h 0.88677 l 1.23248,2.53783 c 0.0246,0.0657 0.0781,0.14006 0.1602,0.22221 0.0821,0.0739 0.20101,0.11059 0.35708,0.11059 h 2.08256 c 0.0739,0 0.13522,-0.0246 0.18449,-0.0739 0.0493,-0.0575 0.0739,-0.12296 0.0739,-0.19689 0,-0.0411 -0.012,-0.0866 -0.0367,-0.13591 l -1.60197,-2.90783 c 0.42714,-0.23 0.77222,-0.54629 1.03508,-0.94878 0.26285,-0.4025 0.39429,-0.89106 0.39429,-1.46606 0,-0.91178 -0.32047,-1.62237 -0.96119,-2.13165 -0.63249,-0.50929 -1.5075,-0.76378 -2.62464,-0.76378 z m 8.97929,0 c -0.0821,0 -0.15596,0.033 -0.22169,0.0987 -0.0657,0.0575 -0.0987,0.13133 -0.0987,0.22169 v 5.03949 c 0,0.77214 0.16024,1.41256 0.48059,1.92185 0.32857,0.50106 0.78047,0.87076 1.35547,1.10897 0.58321,0.23822 1.25662,0.3576 2.02055,0.3576 0.75571,0 1.42126,-0.11938 1.99626,-0.3576 0.575,-0.23821 1.02271,-0.60791 1.34307,-1.10897 0.32035,-0.50929 0.48059,-1.14971 0.48059,-1.92185 v -5.03949 c 0,-0.0903 -0.033,-0.16415 -0.0987,-0.22169 -0.0575,-0.0657 -0.13133,-0.0987 -0.22169,-0.0987 h -1.99626 c -0.0903,0 -0.16836,0.033 -0.2341,0.0987 -0.0657,0.0575 -0.0987,0.13133 -0.0987,0.22169 v 5.00228 c 0,0.41894 -0.10263,0.73522 -0.30799,0.94878 -0.19714,0.21358 -0.48881,0.3204 -0.87488,0.3204 -0.38607,0 -0.68141,-0.10682 -0.88677,-0.3204 -0.20535,-0.21356 -0.30851,-0.52984 -0.30851,-0.94878 v -5.00228 c 0,-0.0903 -0.0324,-0.16415 -0.0982,-0.22169 -0.0575,-0.0657 -0.13185,-0.0987 -0.22221,-0.0987 z m 8.95449,0 c -0.0903,0 -0.16836,0.033 -0.23409,0.0987 -0.0575,0.0575 -0.0863,0.13133 -0.0863,0.22169 v 1.65107 c 0,0.0903 0.0288,0.16836 0.0863,0.23409 0.0657,0.0575 0.14374,0.0863 0.23409,0.0863 h 2.11925 v 6.01255 c 0,0.0903 0.0288,0.16836 0.0863,0.2341 0.0657,0.0575 0.14374,0.0863 0.2341,0.0863 h 2.04535 c 0.0903,0 0.16416,-0.0288 0.22169,-0.0863 0.0657,-0.0657 0.0987,-0.14374 0.0987,-0.2341 v -6.01255 h 2.11925 c 0.0903,0 0.16415,-0.0288 0.22169,-0.0863 0.0657,-0.0657 0.0987,-0.14373 0.0987,-0.23409 v -1.65107 c 0,-0.0903 -0.033,-0.16415 -0.0987,-0.22169 -0.0575,-0.0657 -0.13133,-0.0987 -0.22169,-0.0987 z m -236.95297,1.97146 c 0.23,0 0.43108,0.045 0.60358,0.13539 0.18072,0.0904 0.32053,0.23435 0.4191,0.4315 0.1068,0.19714 0.1644,0.44745 0.1726,0.75137 0.0165,0.345 0.0248,0.68589 0.0248,1.02268 0,0.32857 -0.008,0.66946 -0.0248,1.02268 -0.008,0.45999 -0.12342,0.7967 -0.3452,1.01027 -0.22179,0.20536 -0.50508,0.30799 -0.85008,0.30799 -0.35321,0 -0.64069,-0.10263 -0.86248,-0.30799 -0.2136,-0.21357 -0.32879,-0.55028 -0.34519,-1.01027 -0.008,-0.35322 -0.0119,-0.69411 -0.0119,-1.02268 0,-0.33679 0.004,-0.67768 0.0119,-1.02268 0.008,-0.30392 0.0616,-0.55423 0.16019,-0.75137 0.10679,-0.19715 0.25079,-0.34115 0.4315,-0.4315 0.18071,-0.0904 0.38598,-0.13539 0.61598,-0.13539 z m 77.49243,0 c 0.23,0 0.43108,0.045 0.60358,0.13539 0.18071,0.0904 0.32053,0.23435 0.4191,0.4315 0.10679,0.19714 0.16439,0.44745 0.17259,0.75137 0.0165,0.345 0.0248,0.68589 0.0248,1.02268 0,0.32857 -0.008,0.66946 -0.0248,1.02268 -0.008,0.45999 -0.12341,0.7967 -0.34519,1.01027 -0.22178,0.20536 -0.50508,0.30799 -0.85008,0.30799 -0.35321,0 -0.64069,-0.10263 -0.86248,-0.30799 -0.2136,-0.21357 -0.3288,-0.55028 -0.3452,-1.01027 -0.008,-0.35322 -0.0119,-0.69411 -0.0119,-1.02268 0,-0.33679 0.004,-0.67768 0.0119,-1.02268 0.008,-0.30392 0.0616,-0.55423 0.1602,-0.75137 0.10678,-0.19715 0.25078,-0.34115 0.4315,-0.4315 0.18071,-0.0904 0.38598,-0.13539 0.61598,-0.13539 z m 91.38511,0 c 0.23,0 0.43109,0.045 0.60359,0.13539 0.18071,0.0904 0.32052,0.23435 0.41909,0.4315 0.1068,0.19714 0.16388,0.44745 0.17208,0.75137 0.0164,0.345 0.0248,0.68589 0.0248,1.02268 0,0.32857 -0.008,0.66946 -0.0248,1.02268 -0.008,0.45999 -0.12289,0.7967 -0.34468,1.01027 -0.22178,0.20536 -0.50508,0.30799 -0.85008,0.30799 -0.35321,0 -0.64069,-0.10263 -0.86247,-0.30799 -0.2136,-0.21357 -0.3288,-0.55028 -0.3452,-1.01027 -0.008,-0.35322 -0.0124,-0.69411 -0.0124,-1.02268 0,-0.33679 0.004,-0.67768 0.0124,-1.02268 0.008,-0.30392 0.0616,-0.55423 0.16019,-0.75137 0.10678,-0.19715 0.25027,-0.34115 0.43099,-0.4315 0.18071,-0.0904 0.3865,-0.13539 0.61649,-0.13539 z m 44.24278,0 c 0.23,0 0.43108,0.045 0.60358,0.13539 0.18071,0.0904 0.32053,0.23435 0.4191,0.4315 0.1068,0.19714 0.1644,0.44745 0.1726,0.75137 0.0164,0.345 0.0248,0.68589 0.0248,1.02268 0,0.32857 -0.008,0.66946 -0.0248,1.02268 -0.008,0.45999 -0.12342,0.7967 -0.3452,1.01027 -0.22178,0.20536 -0.50508,0.30799 -0.85008,0.30799 -0.35321,0 -0.64069,-0.10263 -0.86248,-0.30799 -0.2136,-0.21357 -0.3288,-0.55028 -0.3452,-1.01027 -0.008,-0.35322 -0.0119,-0.69411 -0.0119,-1.02268 0,-0.33679 0.004,-0.67768 0.0119,-1.02268 0.008,-0.30392 0.0616,-0.55423 0.1602,-0.75137 0.10679,-0.19715 0.25078,-0.34115 0.4315,-0.4315 0.18071,-0.0904 0.38598,-0.13539 0.61598,-0.13539 z m -167.83574,0.0248 h 1.15807 c 0.31214,0 0.53364,0.0943 0.66507,0.28319 0.13143,0.18071 0.1974,0.39017 0.1974,0.62838 0,0.30393 -0.0864,0.52962 -0.25889,0.67748 -0.16429,0.13964 -0.36537,0.20981 -0.60358,0.20981 h -1.15807 z m 131.82037,0 h 1.17047 c 0.29571,0 0.50936,0.0859 0.64079,0.25838 0.13964,0.1725 0.20929,0.38196 0.20929,0.62839 0,0.23821 -0.0696,0.43981 -0.20929,0.6041 -0.13964,0.15606 -0.35329,0.23409 -0.64079,0.23409 h -1.17047 z m 44.24278,0 h 1.17098 c 0.29572,0 0.50885,0.0859 0.64027,0.25838 0.13965,0.1725 0.20981,0.38196 0.20981,0.62839 0,0.23821 -0.0702,0.43981 -0.20981,0.6041 -0.13964,0.15606 -0.35277,0.23409 -0.64027,0.23409 h -1.17098 z m -332.63757,0.45579 0.923974,2.77244 h -1.836063 z m 102.12606,0 0.92398,2.77244 h -1.83607 z m 27.07277,0 0.92449,2.77244 h -1.83606 z m 92.96228,0 0.92397,2.77244 h -1.83606 z m 84.48786,0 0.92398,2.77244 h -1.83607 z m -238.13274,1.42937 c -0.0821,0 -0.15596,0.0324 -0.22169,0.0982 -0.0657,0.0575 -0.0987,0.13185 -0.0987,0.22221 v 1.45366 c 0,0.0903 0.033,0.16836 0.0987,0.23409 0.0657,0.0575 0.13955,0.0863 0.22169,0.0863 h 3.94291 c 0.0903,0 0.16416,-0.0288 0.22169,-0.0863 0.0657,-0.0657 0.0987,-0.14373 0.0987,-0.23409 v -1.45366 c 0,-0.0903 -0.033,-0.16467 -0.0987,-0.22221 -0.0575,-0.0657 -0.13134,-0.0982 -0.22169,-0.0982 z m 76.55605,0 c -0.0821,0 -0.15596,0.0324 -0.2217,0.0982 -0.0657,0.0575 -0.0987,0.13185 -0.0987,0.22221 v 1.45366 c 0,0.0903 0.033,0.16836 0.0987,0.23409 0.0657,0.0575 0.13955,0.0863 0.2217,0.0863 h 3.94291 c 0.0903,0 0.16416,-0.0288 0.22169,-0.0863 0.0657,-0.0657 0.0987,-0.14373 0.0987,-0.23409 v -1.45366 c 0,-0.0903 -0.033,-0.16467 -0.0987,-0.22221 -0.0575,-0.0657 -0.13133,-0.0982 -0.22169,-0.0982 z m 114.17028,0 c -0.0821,0 -0.15647,0.0324 -0.2222,0.0982 -0.0657,0.0575 -0.0982,0.13185 -0.0982,0.22221 v 1.45366 c 0,0.0903 0.0324,0.16836 0.0982,0.23409 0.0657,0.0575 0.14006,0.0863 0.2222,0.0863 h 3.9424 c 0.0903,0 0.16467,-0.0288 0.22221,-0.0863 0.0657,-0.0657 0.0982,-0.14373 0.0982,-0.23409 v -1.45366 c 0,-0.0903 -0.0324,-0.16467 -0.0982,-0.22221 -0.0575,-0.0657 -0.13185,-0.0982 -0.22221,-0.0982 z m 97.00597,2.24224 c -0.0903,0 -0.16836,0.033 -0.2341,0.0987 -0.0575,0.0657 -0.0863,0.14374 -0.0863,0.23409 v 1.84795 c 0,0.0903 0.0288,0.16836 0.0863,0.2341 0.0657,0.0575 0.14374,0.0863 0.2341,0.0863 h 1.84846 c 0.0903,0 0.16836,-0.0288 0.2341,-0.0863 0.0657,-0.0657 0.0987,-0.14374 0.0987,-0.2341 v -1.84795 c 0,-0.0903 -0.033,-0.16836 -0.0987,-0.23409 -0.0657,-0.0657 -0.14374,-0.0987 -0.2341,-0.0987 z m 4.0137,0 c -0.0903,0 -0.16836,0.033 -0.23409,0.0987 -0.0575,0.0657 -0.0858,0.14374 -0.0858,0.23409 v 1.84795 c 0,0.0903 0.0283,0.16836 0.0858,0.2341 0.0657,0.0575 0.14373,0.0863 0.23409,0.0863 h 1.84847 c 0.0903,0 0.16836,-0.0288 0.23409,-0.0863 0.0657,-0.0657 0.0987,-0.14374 0.0987,-0.2341 v -1.84795 c 0,-0.0903 -0.033,-0.16836 -0.0987,-0.23409 -0.0657,-0.0657 -0.14374,-0.0987 -0.23409,-0.0987 z m 4.01371,0 c -0.0903,0 -0.16836,0.033 -0.23409,0.0987 -0.0575,0.0657 -0.0863,0.14374 -0.0863,0.23409 v 1.84795 c 0,0.0903 0.0288,0.16836 0.0863,0.2341 0.0657,0.0575 0.14373,0.0863 0.23409,0.0863 h 1.84847 c 0.0903,0 0.16836,-0.0288 0.23409,-0.0863 0.0657,-0.0657 0.0987,-0.14374 0.0987,-0.2341 v -1.84795 c 0,-0.0903 -0.033,-0.16836 -0.0987,-0.23409 -0.0657,-0.0657 -0.14374,-0.0987 -0.23409,-0.0987 z" /></g></svg>
