<?xml version="1.0" encoding="UTF-8" standalone="no"?>
<!-- Created with Inkscape (http://www.inkscape.org/) -->

<svg
   sodipodi:docname="printical.fi new design.svg"
   xml:space="preserve"
   inkscape:version="1.3.2 (091e20e, 2023-11-25, custom)"
   id="svg5"
   version="1.1"
   viewBox="0 0 134.69107 82.349782"
   height="311.24329"
   width="509.06863"
   inkscape:export-filename="tausta.png"
   inkscape:export-xdpi="96"
   inkscape:export-ydpi="96"
   xmlns:inkscape="http://www.inkscape.org/namespaces/inkscape"
   xmlns:sodipodi="http://sodipodi.sourceforge.net/DTD/sodipodi-0.dtd"
   xmlns="http://www.w3.org/2000/svg"
   xmlns:svg="http://www.w3.org/2000/svg"><sodipodi:namedview
     id="namedview7"
     pagecolor="#262626"
     bordercolor="#ffffff"
     borderopacity="1"
     inkscape:pageshadow="0"
     inkscape:pageopacity="0"
     inkscape:pagecheckerboard="false"
     inkscape:document-units="px"
     showgrid="false"
     units="px"
     inkscape:snap-page="true"
     inkscape:showpageshadow="false"
     inkscape:deskcolor="#262626"
     borderlayer="true"
     inkscape:zoom="0.25"
     inkscape:cx="788"
     inkscape:cy="686"
     inkscape:window-width="1920"
     inkscape:window-height="1057"
     inkscape:window-x="-8"
     inkscape:window-y="-8"
     inkscape:window-maximized="1"
     inkscape:current-layer="layer3"
     showguides="false"><inkscape:grid
       id="grid274"
       units="px"
       originx="-186.54086"
       originy="-431.91937"
       spacingx="5.08"
       spacingy="2.8575"
       empcolor="#004ebc"
       empopacity="0.30196078"
       color="#e56900"
       opacity="0.14901961"
       empspacing="10"
       dotted="false"
       gridanglex="30"
       gridanglez="30"
       visible="false" /><sodipodi:guide
       position="67.45914,1574.9195"
       orientation="1,0"
       id="guide2"
       inkscape:locked="false" /><sodipodi:guide
       position="-135.74086,1629.9528"
       orientation="0,-1"
       id="guide16"
       inkscape:locked="false" /><sodipodi:guide
       position="-186.54086,1395.0028"
       orientation="0,-1"
       id="guide84"
       inkscape:locked="false" /><sodipodi:guide
       position="-112.19295,1445.8028"
       orientation="0,-1"
       id="guide139"
       inkscape:locked="false" /><sodipodi:guide
       position="-148.44087,1568.5166"
       orientation="1,0"
       id="guide161"
       inkscape:locked="false" /><sodipodi:guide
       position="283.35917,1568.5695"
       orientation="1,0"
       id="guide162"
       inkscape:locked="false" /><sodipodi:guide
       position="-186.54083,1642.8181"
       orientation="0,-1"
       id="guide200"
       inkscape:locked="false" /><sodipodi:guide
       position="95.37269,1649.179"
       orientation="0,-1"
       id="guide52"
       inkscape:locked="false" /><sodipodi:guide
       position="-330.08405,1622.0153"
       orientation="1,0"
       id="guide133"
       inkscape:locked="false" /><sodipodi:guide
       position="-549.15903,1592.7977"
       orientation="0,-1"
       id="guide134"
       inkscape:locked="false" /><sodipodi:guide
       position="-118.32456,1378.7744"
       orientation="1,0"
       id="guide173"
       inkscape:locked="false" /><sodipodi:guide
       position="253.24284,1378.7744"
       orientation="1,0"
       id="guide174"
       inkscape:locked="false" /></sodipodi:namedview><defs
     id="defs2" /><g
     inkscape:groupmode="layer"
     id="layer6"
     inkscape:label="Layer 6"
     transform="translate(-186.54086,-431.91938)"><g
       id="g298"
       transform="matrix(0.77471317,0,0,0.77471317,57.197259,121.69543)"
       style="stroke-width:1.2908"><path
         id="path274"
         style="color:#000000;fill:#020d1b;stroke-width:1.2908;stroke-linecap:round;stroke-linejoin:round;-inkscape-stroke:none;paint-order:fill markers stroke"
         d="m 220.11963,478.06191 a 0.70760098,0.70760098 0 0 0 -0.5003,0.20731 0.70760098,0.70760098 0 0 0 0,0.99921 l 2.73181,2.73228 h -13.94839 a 0.70760098,0.70760098 0 0 0 -0.70852,0.70852 0.70760098,0.70760098 0 0 0 0.70852,0.70668 h 15.65659 a 0.70767173,0.70767173 0 0 0 0.50122,-1.20835 l -3.94018,-3.93834 a 0.70760098,0.70760098 0 0 0 -0.50075,-0.20731 z m 1.89108,5.91465 a 0.70760098,0.70760098 0 0 0 -0.4206,0.20223 l -0.98539,0.98355 -0.98539,0.98539 a 0.70760098,0.70760098 0 0 0 0,1.00152 0.70760098,0.70760098 0 0 0 1.00105,0 l 0.98539,-0.98586 0.98401,-0.98539 a 0.70760098,0.70760098 0 0 0 0,-0.99921 0.70760098,0.70760098 0 0 0 -0.57907,-0.20223 z" /><path
         id="path276"
         style="color:#000000;fill:#020d1b;stroke-width:1.2908;stroke-linecap:round;stroke-linejoin:round;-inkscape-stroke:none;paint-order:fill markers stroke"
         d="m 294.63379,478.04625 a 0.70760098,0.70760098 0 0 0 -0.50076,0.20731 0.70760098,0.70760098 0 0 0 0,0.99921 l 2.73044,2.73228 h -13.9484 a 0.70760098,0.70760098 0 0 0 -0.70715,0.70852 0.70760098,0.70760098 0 0 0 0.70715,0.70668 h 15.65797 a 0.70767173,0.70767173 0 0 0 0.49984,-1.20836 l -3.93834,-3.93833 a 0.70760098,0.70760098 0 0 0 -0.50075,-0.20731 z m 1.89015,5.91372 a 0.70760098,0.70760098 0 0 0 -0.42152,0.20316 l -0.98539,0.98355 -0.984,0.98539 a 0.70760098,0.70760098 0 0 0 0,1.00151 0.70760098,0.70760098 0 0 0 1.00151,0 l 0.98355,-0.98585 0.98539,-0.98539 a 0.70760098,0.70760098 0 0 0 0,-0.99921 0.70760098,0.70760098 0 0 0 -0.57954,-0.20316 z" /><g
         id="g277"
         transform="matrix(0.76359093,0,0,0.76359093,58.072521,111.69874)"
         style="stroke-width:1.69044"><path
           style="fill:#020d1b;fill-opacity:1;stroke-width:1.69043"
           d="m 232.08047,517.02663 c -0.43599,-0.21924 -0.79021,-0.77292 -1.13549,-1.77487 -0.46623,-1.35292 -0.55781,-1.45616 -1.29145,-1.45616 -0.98647,0 -1.62863,-0.68142 -1.62863,-1.7282 0,-1.03155 1.68175,-8.63448 2.08033,-9.40475 0.16745,-0.32365 0.62336,-0.65234 1.01312,-0.73049 l 0.70866,-0.14201 v -19.06849 -19.0684 l 1.73061,-1.7348 1.73062,-1.73478 h 20.7455 20.74553 l 1.73061,1.73478 1.73058,1.7348 v 7.63524 c 0,6.44786 -0.0588,7.684 -0.37697,7.94887 -0.20732,0.17242 -0.54952,0.24725 -0.76042,0.16615 -0.3304,-0.12699 -0.38343,-1.19538 -0.38343,-7.72404 v -7.57656 l -1.21272,-1.19733 -1.21272,-1.19738 h -20.27871 -20.27868 l -1.1945,1.21566 -1.19446,1.21561 v 18.85707 18.85708 h 1.52084 1.52082 v -18.02159 -18.02158 l 0.67284,-0.53048 c 0.65096,-0.51329 0.9039,-0.52831 7.79429,-0.46309 l 7.12152,0.0675 v 0.63519 0.6352 l -5.38633,0.0686 -5.38631,0.0686 v 1.7427 c 0,1.70113 0.019,1.75035 0.76903,2.06204 0.89848,0.37304 1.76573,1.38651 1.76573,2.06339 0,0.43311 0.23474,0.47388 2.72807,0.47388 2.57904,0 2.74183,-0.031 2.97834,-0.56719 0.4721,-1.07012 1.20419,-1.20393 6.58705,-1.20393 5.38286,0 6.11498,0.13383 6.58706,1.20393 0.24453,0.55434 0.34654,0.56719 4.49914,0.56719 h 4.24894 v -0.87087 c 0,-1.04353 0.94367,-1.92409 2.06198,-1.92409 h 0.72625 v -1.77553 -1.77559 l -9.69538,-0.0665 -9.69537,-0.0665 v -0.63523 -0.63519 l 9.7842,-0.0665 c 9.58313,-0.065 9.79798,-0.0555 10.45578,0.4631 l 0.67161,0.52955 v 18.02159 18.02156 h 1.52084 1.52085 v -9.88213 c 0,-8.46329 0.0537,-9.90271 0.37286,-10.02555 0.20509,-0.0789 0.5473,0.0316 0.76042,0.24504 0.3341,0.33489 0.38754,1.71374 0.38754,9.99382 v 9.60531 l 0.70867,0.14201 c 0.38975,0.0781 0.84566,0.40683 1.01312,0.73048 0.4079,0.7883 2.08031,8.38455 2.08031,9.4489 0,0.99045 -0.64669,1.68403 -1.57021,1.68403 -0.55461,0 -0.71856,0.20741 -1.19135,1.50723 -0.479,1.31689 -0.66252,1.54503 -1.45315,1.80658 -0.49768,0.16482 -1.65027,0.25181 -2.56129,0.19356 -1.91243,-0.12224 -2.42631,-0.54841 -2.89104,-2.39837 l -0.2786,-1.10909 h -17.93257 -17.93259 l -0.54614,1.50144 c -0.45105,1.2401 -0.6842,1.54976 -1.33916,1.77862 -1.06613,0.37256 -3.48281,0.34481 -4.26599,-0.049 z m 4.17191,-2.02162 c 0.18998,-0.45281 0.29176,-0.91015 0.2263,-1.01633 -0.0654,-0.10607 -1.09423,-0.19314 -2.28611,-0.19314 h -2.16702 l 0.17448,0.69731 c 0.28687,1.14569 0.60005,1.33536 2.20488,1.33536 1.45365,0 1.5132,-0.0266 1.84737,-0.82324 z m 43.59745,0 c 0.18999,-0.45281 0.29177,-0.91015 0.2263,-1.01633 -0.0654,-0.10607 -1.09421,-0.19314 -2.28609,-0.19314 h -2.16705 l 0.17466,0.69731 c 0.28688,1.14569 0.60008,1.33536 2.20491,1.33536 1.45363,0 1.51317,-0.0266 1.84735,-0.82324 z m 2.76557,-2.68033 c 0.1045,-0.16919 -1.34282,-7.1435 -1.76423,-8.50192 -0.13009,-0.41947 -1.53523,-0.44468 -24.82968,-0.44468 h -24.69176 l -0.14167,0.57173 c -0.81934,3.30561 -1.83758,8.21003 -1.73811,8.37139 0.1629,0.2644 53.00247,0.26786 53.16549,0.002 z m -37.75114,-1.91113 c -0.0713,-0.18611 -0.0967,-1.4736 -0.0565,-2.86112 l 0.0732,-2.52276 h 11.15284 11.15287 v 2.79493 2.79494 l -11.09643,0.0662 c -9.0526,0.054 -11.12026,0.002 -11.22593,-0.27219 z m 20.9282,-2.46192 v -1.5245 h -9.75872 -9.75873 v 1.5245 1.52451 h 9.75873 9.75872 z m -29.92937,1.54405 c -0.90252,-0.90468 -0.99214,-2.17173 -0.223,-3.15188 1.06053,-1.35149 3.3752,-1.02852 4.0327,0.56272 1.01394,2.45373 -1.94122,4.46214 -3.8097,2.58916 z m 2.47578,-1.19746 c 0.23049,-0.60205 -0.26167,-1.23589 -0.95959,-1.23589 -0.62061,0 -0.90893,0.57997 -0.63893,1.28528 0.19268,0.50334 1.40123,0.466 1.59852,-0.0492 z m 32.41446,0.0171 c -0.20725,-0.20772 -0.31009,-0.55196 -0.22856,-0.76489 0.21911,-0.5724 1.20923,-0.33949 1.30111,0.30604 0.0965,0.67871 -0.56912,0.9635 -1.07255,0.45885 z m 3.46714,0.231 c -0.17428,-0.0705 -0.31682,-0.40448 -0.31682,-0.74222 0,-0.47826 0.13408,-0.61403 0.60654,-0.61403 0.7505,0 1.02429,0.61567 0.50518,1.13603 -0.21315,0.21366 -0.40791,0.37945 -0.43279,0.36844 -0.025,-0.01 -0.18794,-0.0777 -0.36211,-0.14828 z m 3.24723,-0.0762 c -0.45516,-0.282 -0.22418,-1.13018 0.3373,-1.23856 0.5267,-0.10151 0.93433,0.37376 0.74485,0.86869 -0.16537,0.43209 -0.69148,0.61188 -1.08215,0.36987 z m -37.72643,-10.36352 0.0704,-3.74776 h 0.63368 0.6337 l 0.0704,3.74776 0.0704,3.74775 h 1.76755 1.76753 v -0.86911 c 0,-0.74976 -0.0998,-0.89104 -0.72539,-1.02883 -0.85985,-0.18915 -1.30243,-1.01621 -1.30243,-2.43348 0,-1.65772 0.58299,-2.02071 3.24521,-2.02071 h 2.23132 l -0.0152,-1.37647 c -0.0224,-2.31257 1.2742,-3.19272 4.70818,-3.19561 1.79326,-0.002 2.09011,-0.16805 2.38264,-1.33629 0.14337,-0.57299 0.0345,-0.82789 -0.61331,-1.43447 -0.5428,-0.50824 -0.78779,-0.97469 -0.78779,-1.49993 0,-0.60182 -0.18661,-0.8727 -0.88712,-1.28695 -0.84993,-0.50265 -0.92364,-0.66433 -0.9988,-2.19083 -0.0133,-0.29624 -0.23286,-0.53888 -0.52693,-0.58595 -1.11799,-0.17889 -1.90953,-0.65192 -2.05364,-1.22736 -0.14736,-0.5885 -0.2176,-0.60304 -2.9117,-0.60304 -2.55504,0 -2.76073,0.0365 -2.76073,0.48866 0,0.67423 -1.13302,1.96328 -1.89391,2.15469 l -0.62801,0.15816 -0.0696,3.99861 -0.0696,3.99861 h -0.6337 -0.63368 l -0.0696,-4.00182 -0.07,-4.00184 h -0.88071 -0.88073 v 9.14703 9.14707 h 0.88038 0.88035 z m 8.30804,2.85844 c 0,-0.84695 -0.0421,-0.88928 -0.88714,-0.88928 -0.84492,0 -0.88716,0.0424 -0.88716,0.88928 0,0.84696 0.0421,0.88931 0.88716,0.88931 0.84491,0 0.88714,-0.0424 0.88714,-0.88931 z m 14.448,0 v -0.88928 h -6.46357 -6.46359 v 0.88928 0.88931 h 6.46359 6.46357 z m 3.29515,0 c 0,-0.84695 -0.0423,-0.88928 -0.88714,-0.88928 -0.84492,0 -0.88714,0.0424 -0.88714,0.88928 0,0.84696 0.0423,0.88931 0.88714,0.88931 0.84491,0 0.88714,-0.0424 0.88714,-0.88931 z m 8.36465,-8.25775 v -9.14705 h -0.80743 c -1.10301,0 -1.9808,-0.86413 -1.9808,-1.94992 v -0.845 h -4.28154 -4.28159 l -0.15096,0.60304 c -0.14413,0.57544 -0.93563,1.04853 -2.05361,1.22736 -0.2941,0.0471 -0.51236,0.28971 -0.52696,0.58595 -0.0753,1.5265 -0.14888,1.68818 -0.99879,2.19083 -0.70041,0.41425 -0.88714,0.68513 -0.88714,1.28695 0,0.51932 -0.24236,0.9892 -0.76042,1.47432 -0.57982,0.54295 -0.76043,0.93527 -0.76043,1.65184 0,0.73003 -0.19247,1.13266 -0.86181,1.8037 -0.84293,0.84497 -0.9083,0.8639 -2.98527,0.8639 -2.45765,0 -3.25017,0.36563 -3.25017,1.49955 0,1.37295 0.49491,1.52935 5.08221,1.60644 l 4.16957,0.0702 v 0.6352 0.63521 l -7.28737,0.0675 -7.28737,0.0675 v 0.75836 0.75839 h 11.78653 11.78652 v -0.75446 -0.75442 l -3.10506,-0.0713 -3.10505,-0.0713 v -0.63523 -0.63523 l 3.35123,-0.0709 c 3.0816,-0.065 3.3926,-0.0293 3.86546,0.44466 1.04065,1.04313 0.51778,3.66582 -0.78811,3.95333 -0.62581,0.13782 -0.72543,0.27905 -0.72543,1.02881 v 0.86911 h 3.42191 3.4219 z M 256.9209,486.2192 c 0,-0.54638 -0.11341,-0.62628 -0.88716,-0.62628 -0.77254,0 -0.88716,0.0804 -0.88716,0.62259 0,0.34241 0.1966,0.73292 0.43702,0.86776 0.62571,0.35098 1.3373,-0.10874 1.3373,-0.86407 z m 1.77431,-2.91305 v -0.76224 h -2.66147 -2.66148 v 0.76224 0.76227 h 2.66148 2.66147 z m -16.54951,-2.03269 c 0.21631,-0.42972 0.31975,-1.90904 0.31975,-4.57351 0,-5.15639 -0.0152,-5.18502 -2.59729,-5.28294 l -1.95778,-0.0741 v 0.77294 c 0,0.73934 0.047,0.77312 1.07726,0.77685 1.73798,0.008 1.73421,-0.002 1.65503,3.95401 l -0.0709,3.53759 -1.33076,0.0766 c -1.29152,0.0745 -1.33072,0.0992 -1.33072,0.83647 v 0.75963 l 1.95778,-0.0741 c 1.79888,-0.0683 1.98378,-0.12566 2.27754,-0.70944 z m 32.01141,-4.57351 v -5.33579 h -0.6337 -0.63368 v 5.33579 5.3358 h 0.63368 0.6337 z m -12.80042,0 v -4.1924 h -5.32295 -5.32297 l -0.0704,3.92762 c -0.0387,2.16021 -0.0114,4.07771 0.0571,4.2611 0.10089,0.26354 1.23211,0.31905 5.39322,0.26478 l 5.26554,-0.0688 z m -8.42801,2.37257 c -0.22021,-0.089 -0.31682,-0.81902 -0.31682,-2.39375 v -2.26558 h 3.42188 3.42189 v 2.25957 c 0,1.82607 -0.077,2.28919 -0.40093,2.41382 -0.47553,0.18307 -5.6685,0.17091 -6.12602,-0.0152 z m 5.13285,-2.37257 v -0.8893 h -2.02779 c -1.92877,0 -2.03184,0.0289 -2.1112,0.59017 -0.17087,1.20966 0.0573,1.34245 2.17073,1.26268 l 1.96826,-0.0741 z m -8.79216,1.71506 -0.0793,-0.82575 -2.72486,-0.0722 -2.72481,-0.0722 v 0.89787 0.89789 h 2.80424 2.80428 z m 22.09951,-0.0696 v -0.89545 l -4.24568,0.0696 -4.24567,0.0696 -0.0793,0.82577 -0.0793,0.82578 h 4.32514 4.3251 z M 239.17774,476.7 c 0,-2.26984 -0.004,-2.28679 -0.6337,-2.28679 -0.62897,0 -0.63366,0.0171 -0.63366,2.28679 0,2.2698 0.004,2.28676 0.63366,2.28676 0.629,0 0.6337,-0.0171 0.6337,-2.28676 z m 10.13895,-1.65155 v -0.88929 h -2.7882 -2.78821 v 0.88929 0.8893 h 2.78821 2.7882 z m 22.05219,0 v -0.88929 h -4.30904 -4.30905 v 0.88929 0.8893 h 4.30905 4.30904 z m -31.6842,-6.98733 v -1.7786 h -0.88714 -0.88716 v 1.7786 1.77859 h 0.88716 0.88714 z"
           id="path270" /><path
           style="fill:#020d1b;fill-opacity:1;stroke:#020d1b;stroke-width:0.22363;stroke-dasharray:none;stroke-opacity:1"
           d="m 298.16555,441.46316 c -0.50246,-3.17326 -1.91797,-5.92646 -4.24764,-8.26173 -2.96114,-2.96829 -6.24886,-4.33267 -10.44031,-4.33267 -4.19146,0 -7.47916,1.36438 -10.44031,4.33267 -2.96114,2.96829 -4.32224,6.26394 -4.32224,10.46548 0,4.19879 1.35959,7.49233 4.32224,10.47032 1.43108,1.4385 2.11558,1.93503 3.80977,2.76353 1.13588,0.55548 2.65221,1.13204 3.36961,1.28123 1.67846,0.34903 4.85476,0.34753 6.52185,-0.004 1.59186,-0.33479 4.41871,-1.66442 5.81533,-2.73527 l 1.03261,-0.79173 v 3.96984 c 0,3.34207 -0.0554,4.0311 -0.34968,4.35718 -0.21269,0.23559 -1.3308,0.61606 -2.85366,0.97104 -3.10902,0.72473 -3.80697,1.22721 -3.84027,2.76466 -0.0171,0.82983 0.0889,1.11924 0.6168,1.67174 0.35116,0.36748 0.76351,0.66817 0.91629,0.66817 0.40841,0 0.78406,0.83538 0.63798,1.4188 -0.10393,0.4153 -0.62615,0.70072 -2.89897,1.58456 -2.24687,0.87375 -2.78531,1.16637 -2.84173,1.54435 -0.0383,0.25717 0.0702,0.5201 0.24187,0.58618 0.17125,0.066 1.61253,-0.40223 3.20269,-1.04031 2.68161,-1.076 2.92235,-1.22021 3.32041,-1.98913 0.61386,-1.18575 0.26336,-2.29115 -0.99429,-3.13559 -1.11346,-0.74765 -1.33515,-1.59224 -0.55109,-2.09948 0.27624,-0.1787 1.43165,-0.54027 2.56751,-0.80349 4.0203,-0.9316 3.91311,-0.74488 3.91311,-6.81771 v -4.77101 l 0.73412,-1.00984 c 2.21414,-3.04582 3.32286,-7.49141 2.758,-11.0587 z m -1.41241,5.16729 c -1.28885,6.09489 -6.96611,10.64884 -13.27554,10.64884 -7.48828,0 -13.57962,-6.106 -13.57962,-13.61238 0,-6.04382 3.75746,-11.08255 9.77523,-13.10845 1.68283,-0.56652 5.92596,-0.56652 7.6088,0 3.93755,1.32558 6.75581,3.74963 8.47957,7.2935 1.24913,2.56807 1.6167,5.82222 0.99156,8.77849 z m -1.91665,-3.6721 c -0.71069,-0.665 -1.52065,-0.80419 -2.30714,-0.39652 -1.30159,0.67473 -1.52367,2.14728 -0.48136,3.19208 0.71024,0.71195 1.44451,0.80961 2.3925,0.31818 0.71677,-0.37154 0.88513,-0.72161 0.88513,-1.84021 0,-0.56519 -0.1502,-0.95648 -0.48913,-1.27353 z m -0.78879,1.8717 c -0.10146,0.16026 -0.41781,0.25839 -0.70322,0.21794 -0.4147,-0.0587 -0.51889,-0.20421 -0.51889,-0.72433 0,-0.7232 0.55084,-0.9938 1.0974,-0.53909 0.35634,0.29644 0.39475,0.61844 0.1246,1.04548 z m -1.67621,-9.10047 c -0.46864,-0.55825 -0.7201,-0.67045 -1.50245,-0.67045 -0.78989,0 -1.03276,0.11102 -1.52402,0.69617 -1.64031,1.9541 1.1486,4.39893 2.95381,2.58936 0.81011,-0.81206 0.83497,-1.7069 0.0725,-2.61508 z m -1.14633,1.92845 c -0.52027,0.27911 -1.19566,-0.17945 -1.08631,-0.73763 0.11967,-0.61061 0.73165,-0.91426 1.14675,-0.56892 0.46505,0.38688 0.4348,1.04089 -0.0605,1.30655 z m 0.10184,12.29115 c -0.69626,-0.81139 -2.02232,-0.85025 -2.83694,-0.0831 -0.84075,0.79175 -0.78744,2.17446 0.11322,2.93409 0.85483,0.721 1.72057,0.721 2.57538,0 0.86622,-0.73064 0.92926,-1.94104 0.14849,-2.85096 z m -0.82742,1.84614 c -0.36302,0.36389 -0.93662,0.32629 -1.27601,-0.0836 -0.56247,-0.67934 0.52769,-1.53064 1.22122,-0.95368 0.38388,0.31935 0.40334,0.68796 0.0548,1.03735 z m -2.03868,-10.58658 c -0.98614,-1.98368 -2.76941,-3.08918 -4.98319,-3.08918 -3.14171,0 -5.54356,2.40348 -5.54356,5.54735 0,3.14663 2.39538,5.54068 5.55524,5.55217 4.11632,0.0152 6.80638,-4.31935 4.97151,-8.01034 z m -1.24339,4.62222 c -0.70355,1.27667 -2.22021,2.14764 -3.7398,2.14764 -2.74791,0 -4.93429,-2.70468 -4.2489,-5.25617 0.76915,-2.86328 3.81676,-4.2485 6.2949,-2.86117 2.22772,1.24713 2.93079,3.72503 1.6938,5.9697 z m -1.88704,-13.4401 c -0.53414,-0.6807 -1.4223,-0.86801 -2.32433,-0.4902 -1.35391,0.56705 -1.61519,2.299 -0.49,3.24805 0.95968,0.80949 2.21833,0.68697 2.96559,-0.28862 0.41266,-0.53879 0.33216,-1.85321 -0.15134,-2.46923 z m -0.99826,1.88954 c -0.34483,0.34564 -0.97773,0.19441 -1.28723,-0.30753 -0.20514,-0.33274 0.29774,-1.09294 0.723,-1.09294 0.82723,0 1.15348,0.8098 0.56423,1.40047 z m -0.13047,18.29158 c -0.40783,-0.84428 -1.8842,-1.21863 -2.82196,-0.71554 -0.57726,0.30967 -1.04418,1.46259 -0.89954,2.22107 0.15779,0.82735 1.03277,1.46755 1.99417,1.45908 1.55566,-0.0133 2.42884,-1.51236 1.72733,-2.96461 z m -1.52101,1.73809 c -0.26181,0.16443 -0.45767,0.14809 -0.70654,-0.0587 -0.48005,-0.39935 -0.42947,-1.04372 0.1043,-1.33015 0.9058,-0.48592 1.47967,0.83784 0.60216,1.38906 z m -4.61914,-19.14304 c -1.10569,-1.10831 -2.75158,-0.86365 -3.3171,0.49311 -0.64845,1.55574 0.58365,3.0972 2.22838,2.78792 1.50116,-0.28232 2.14489,-2.22229 1.08872,-3.28103 z m -1.13525,2.00383 c -0.46865,0.18022 -1.05745,-0.20685 -1.05745,-0.69526 0,-0.48843 0.5888,-0.87555 1.05745,-0.69528 0.46506,0.17889 0.46506,1.21165 0,1.39054 z m 1.16394,11.81618 c -0.7787,-1.01667 -2.10481,-1.11212 -2.99899,-0.21579 -1.31276,1.31593 -0.50529,3.38462 1.32111,3.38462 0.73201,0 1.02014,-0.12167 1.43614,-0.60649 0.57478,-0.66984 0.69723,-1.96765 0.24174,-2.56234 z m -1.06916,1.71867 c -0.659,0.66057 -1.83959,-0.2381 -1.24938,-0.95098 0.45731,-0.55235 1.51022,-0.23877 1.51022,0.44976 0,0.13174 -0.11739,0.35739 -0.26084,0.50122 z m -1.92252,-8.30881 c -1.40025,-1.78443 -4.19978,-0.16254 -3.44849,1.99776 0.71477,2.05535 3.89271,1.46124 3.89271,-0.72775 0,-0.38716 -0.19991,-0.95868 -0.44422,-1.27001 z m -1.2158,1.96528 c -0.46865,0.18021 -1.05742,-0.20684 -1.05742,-0.69527 0,-0.48841 0.58877,-0.87555 1.05742,-0.69527 0.46505,0.17888 0.46505,1.21167 0,1.39054 z"
           id="path272" /></g><path
         id="path273"
         style="display:inline;fill:#020d1b;stroke-width:1.2908"
         d="m 322.96422,455.95895 c -1.40134,0 -2.31304,0.15907 -3.33474,0.58313 -2.18693,0.90769 -3.94737,2.99193 -4.64269,5.50322 -0.15232,0.55013 -0.27024,0.75845 -0.607,1.08574 -0.32966,0.3204 -0.4126,0.47184 -0.5026,0.90526 -0.0661,0.3183 -0.0865,0.90619 -0.0685,1.45412 0.009,0.27348 0.0274,0.53781 0.0537,0.75165 0.0136,0.10937 0.0323,0.20723 0.0493,0.28188 0.009,0.0374 0.0168,0.069 0.0238,0.0939 0.007,0.0249 0.004,0.0285 0.0238,0.0671 0.0816,0.15691 0.22098,0.32867 0.37135,0.48471 0.15038,0.15604 0.30438,0.29149 0.44295,0.3639 0.0979,0.0512 0.19366,0.14129 0.24905,0.27143 0.061,0.143 0.10666,0.34592 0.1745,0.69499 0.57012,2.93358 1.04256,3.96637 2.53685,5.54499 l 0.72929,0.77104 c 0.0161,0.0171 3.8e-4,-0.006 0.0104,0.0149 0.0101,0.0212 0.002,-0.007 0.004,0.0164 0.003,0.0233 0.004,-0.005 0,0.0179 -0.004,0.0231 0.005,-0.004 -0.006,0.0164 l -0.21029,0.38328 c -0.11918,0.21813 -0.49808,0.82482 -0.85009,1.36164 -0.26073,0.39763 -0.44153,0.65402 -0.60252,0.83667 -0.15981,0.1813 -0.30235,0.29045 -0.47725,0.38479 -0.93245,0.50285 -3.04692,1.12551 -5.46742,1.61815 -0.37616,0.0766 -0.76186,0.16217 -1.07976,0.23863 -0.31859,0.0766 -0.56636,0.14359 -0.66965,0.18194 -0.3972,0.14761 -0.71823,0.48267 -0.91869,0.87693 -0.20045,0.39427 -0.28294,0.85391 -0.17151,1.26768 h -0.002 c 0.009,0.0336 0.01,0.0284 0.0164,0.0432 0.006,0.0147 0.0148,0.0333 0.0253,0.0552 0.021,0.0439 0.0512,0.10174 0.088,0.16555 0.0723,0.12526 0.17137,0.28038 0.28635,0.45488 0.23048,0.34978 0.53271,0.78117 0.85157,1.21546 0.31897,0.43443 0.65832,0.87529 0.953,1.23936 0.29469,0.36407 0.53759,0.64549 0.68903,0.78148 0.46021,0.41335 1.14351,0.74356 1.80756,0.86948 0.58557,0.11106 1.33361,0.64871 2.07302,1.39445 0.73837,0.74466 1.45575,1.6943 1.92986,2.63081 l 0.2431,0.48023 c 0.009,0.0176 0.007,0.009 0.006,0.0283 -7.7e-4,0.0198 0.002,0.01 -0.009,0.0268 -0.0103,0.0169 -0.004,0.0113 -0.0209,0.0209 -0.0173,0.01 -0.007,0.006 -0.0269,0.006 a 0.14286554,0.14286554 0 0 0 -0.002,0 h -0.50559 c -0.54887,0 -1.04409,0.17331 -1.36164,0.4698 -0.18833,0.17585 -0.30261,0.32932 -0.36837,0.54733 -0.0673,0.22314 -0.0865,0.51731 -0.0865,0.97835 v 0.87396 c 9e-5,0.022 0.004,0.003 -0.004,0.0224 -0.008,0.0204 0.004,0.003 -0.012,0.0179 -0.0156,0.0156 0.003,0.004 -0.0178,0.0119 -0.0203,0.008 -3.7e-4,0.004 -0.0224,0.004 h -1.90301 c -1.15764,1e-5 -1.81881,0.0179 -2.2535,0.11186 -0.42884,0.0926 -0.64002,0.25773 -0.90676,0.56076 -0.24647,0.28001 -0.38557,0.54311 -0.45039,0.84562 -0.0161,0.0747 -0.0263,0.1904 -0.0388,0.35793 -0.0125,0.16753 -0.0248,0.37989 -0.0328,0.61445 -0.016,0.46798 -0.0242,1.04355 -0.0238,1.61816 3.4e-4,0.57455 0.009,1.14808 0.0253,1.61666 0.008,0.23486 0.0201,0.44758 0.0328,0.61595 0.0128,0.16837 0.0242,0.28587 0.0402,0.36092 0.13055,0.60872 0.64999,1.1852 1.22294,1.36163 a 0.14286554,0.14286554 0 0 0 0.11781,-0.0283 c -0.006,0.008 -0.0179,0.021 -0.0179,0.021 0,0 -0.0149,0.006 -0.0149,0.006 0,0 -0.0238,0.006 -0.0238,0.006 0,0 -0.004,0 -0.004,0 10e-5,0 -0.0258,2.5e-4 -0.0283,0 0.008,0.002 0.0207,0.004 0.0373,0.006 0.0332,0.005 0.0804,0.0115 0.13571,0.0164 0.10555,0.009 0.24656,0.0199 0.4161,0.0283 0.33883,0.0169 0.79277,0.0309 1.32435,0.0432 1.0633,0.0247 2.43413,0.0401 3.79857,0.0448 1.36438,0.004 2.72422,-6.8e-4 3.76426,-0.0178 0.5199,-0.009 0.95972,-0.0195 1.28111,-0.0343 0.16051,-0.007 0.29144,-0.0167 0.38626,-0.0253 0.0489,-0.004 0.0874,-0.008 0.11484,-0.0119 0.021,-0.003 0.0334,-0.008 0.0402,-0.0104 7e-5,-2e-5 -0.0373,0.004 -0.0373,0.004 0,0 -0.004,-0.021 -0.006,-0.0253 a 0.14286554,0.14286554 0 0 0 0.0507,0.0194 0.14286554,0.14286554 0 0 0 0.002,0 c 0.21178,-0.0965 0.31801,-0.31105 0.33258,-0.51752 0.0146,-0.20646 -0.0608,-0.43059 -0.25652,-0.54436 a 0.14286554,0.14286554 0 0 0 -0.0477,-0.0164 c -0.0236,-0.004 -0.0426,-0.006 -0.0686,-0.009 a 0.14286554,0.14286554 0 0 0 -0.003,0 c -0.0657,-0.006 -0.16129,-0.0148 -0.28486,-0.0209 -0.24581,-0.012 -0.60012,-0.0218 -1.06633,-0.0299 -0.93265,-0.016 -2.30908,-0.0224 -4.14011,-0.0224 -2.66098,0 -4.02264,-0.003 -4.7441,-0.0253 -0.36077,-0.0117 -0.55775,-0.0291 -0.68753,-0.0567 -0.11504,-0.0244 -0.20095,-0.0861 -0.23265,-0.11782 -0.0413,-0.0414 -0.0922,-0.10553 -0.11782,-0.17898 -0.0289,-0.0828 -0.0444,-0.18824 -0.0567,-0.3624 -0.0247,-0.3472 -0.0283,-0.95424 -0.0283,-2.10435 0,-1.15012 0.003,-1.75475 0.0283,-2.10137 0.0124,-0.17403 0.028,-0.28163 0.0567,-0.36389 0.0256,-0.0732 0.0758,-0.13539 0.11782,-0.17747 0.0163,-0.0162 0.0649,-0.0566 0.10738,-0.0731 0.0555,-0.0216 0.12339,-0.0361 0.2401,-0.0493 0.23242,-0.0261 0.64518,-0.0407 1.43621,-0.0522 1.58159,-0.0231 4.66721,-0.0253 10.77529,-0.0253 6.10809,0 9.19377,7.7e-4 10.77528,0.0238 0.79086,0.0115 1.20164,0.0275 1.43472,0.0537 0.1168,0.0131 0.18475,0.0276 0.24011,0.0493 0.0434,0.0169 0.0948,0.059 0.10888,0.0731 0.0411,0.0412 0.0904,0.10333 0.11632,0.17748 0.0287,0.0822 0.0444,0.18986 0.0567,0.36389 0.0247,0.34688 0.0283,0.95128 0.0283,2.10137 0,1.15013 -0.003,1.75741 -0.0283,2.10435 -0.0124,0.17416 -0.0278,0.27952 -0.0567,0.3624 -0.026,0.0747 -0.076,0.13861 -0.11632,0.17898 -0.0319,0.032 -0.11903,0.095 -0.23415,0.1193 -0.12941,0.0274 -0.32963,0.0435 -0.6935,0.0552 -0.72689,0.0232 -2.09849,0.0253 -4.7814,0.0253 h -5.40479 a 0.14286554,0.14286554 0 0 0 -0.0999,0.0418 l -0.16703,0.16406 a 0.14286554,0.14286554 0 0 0 -0.002,0 c -0.0604,0.0605 -0.11143,0.12901 -0.14915,0.18941 -0.0229,0.0366 -0.03,0.0637 -0.0358,0.0805 0.003,-0.005 0.018,-0.0241 0.0178,-0.0238 -7e-5,9e-5 0.0254,-0.0225 0.0253,-0.0224 -7e-5,4e-5 0.0567,-0.0224 0.0567,-0.0224 a 0.14286554,0.14286554 0 0 0 -0.1223,0.1208 c 0,0.12095 0.0446,0.24876 0.12081,0.37135 0.0763,0.12262 0.16264,0.21294 0.27143,0.26249 l 0.0477,-0.10588 c 0.004,0.0381 0.0134,0.11036 0.0135,0.11036 9e-5,-10e-6 -0.0165,0.002 -0.0164,0.002 4.2e-4,1e-5 -0.011,-7.6e-4 -0.0164,-0.002 0.0129,0.003 0.0453,0.0103 0.0851,0.0149 0.0652,0.008 0.15839,0.0159 0.2774,0.0224 0.23652,0.0128 0.57734,0.0231 1.02905,0.0313 0.90363,0.0164 2.25186,0.0224 4.1058,0.0224 3.05365,0 4.55694,0.003 5.36602,-0.082 0.40406,-0.0422 0.63073,-0.10401 0.7949,-0.19686 0.16406,-0.0928 0.26669,-0.21719 0.42207,-0.39373 0.24509,-0.27841 0.38192,-0.50217 0.45786,-0.97089 0.0766,-0.47272 0.0895,-1.19523 0.0895,-2.4593 0,-1.26407 -0.0129,-1.9855 -0.0895,-2.45781 -0.076,-0.46833 -0.21286,-0.69105 -0.45786,-0.96941 -0.26674,-0.30299 -0.4779,-0.46809 -0.90676,-0.56075 -0.43471,-0.0939 -1.09586,-0.11185 -2.2535,-0.11186 h -1.90121 c -0.022,1e-4 -0.003,0.004 -0.0224,-0.004 -0.0203,-0.008 -0.003,0.004 -0.0178,-0.012 -0.0156,-0.0156 -0.004,0.003 -0.0119,-0.0179 -0.008,-0.0203 -0.004,-3.6e-4 -0.004,-0.0224 v -0.87396 c 0,-0.46134 -0.021,-0.75584 -0.088,-0.97835 -0.0656,-0.21736 -0.17824,-0.37121 -0.36688,-0.54733 -0.31752,-0.29649 -0.81151,-0.4698 -1.36015,-0.4698 h -0.50857 c -0.0199,3e-5 -0.01,0.003 -0.0268,-0.008 -0.0173,-0.01 -0.0105,-0.003 -0.021,-0.0193 -0.0103,-0.0168 -0.008,-0.007 -0.009,-0.0268 -7.4e-4,-0.0189 -0.002,-0.0125 0.006,-0.0268 v -0.002 l 0.26845,-0.52497 a 0.14286554,0.14286554 0 0 0 0,-0.002 c 0.46015,-0.90494 1.17796,-1.84228 1.91793,-2.58459 0.74112,-0.74347 1.48975,-1.28729 2.06259,-1.39593 0.66157,-0.12548 1.34496,-0.45519 1.80458,-0.86799 0.15153,-0.13609 0.39322,-0.41743 0.68753,-0.78149 0.2943,-0.36406 0.63406,-0.80495 0.953,-1.23934 0.31864,-0.43401 0.62232,-0.86381 0.85308,-1.21399 0.11547,-0.17526 0.21328,-0.33225 0.28485,-0.45637 0.0368,-0.0638 0.0669,-0.1216 0.088,-0.16554 0.0105,-0.022 0.0189,-0.0405 0.0253,-0.0552 0.006,-0.0147 0.008,-0.0105 0.0164,-0.0432 h -0.002 c 0.0988,-0.36678 0.0449,-0.79665 -0.1208,-1.17968 -0.16557,-0.38283 -0.43826,-0.71308 -0.76956,-0.8844 -0.0265,-0.0136 -0.0408,-0.0184 -0.0686,-0.0283 -0.0278,-0.01 -0.063,-0.021 -0.1044,-0.0343 -0.0826,-0.0265 -0.18915,-0.0594 -0.30723,-0.091 -0.23395,-0.0626 -0.52291,-0.13249 -0.81579,-0.19686 -0.29182,-0.0642 -0.58836,-0.12364 -0.83666,-0.16704 h -0.002 c -0.24879,-0.0434 -0.44297,-0.07 -0.54435,-0.0701 -0.0839,-1.3e-4 -0.15957,0.0222 -0.22818,0.0507 -0.0686,0.0285 -0.12483,0.0567 -0.17748,0.11483 -0.10269,0.11356 -0.14675,0.27217 -0.14019,0.44146 0.006,0.16977 0.0566,0.3093 0.17002,0.40118 l 0.0865,-0.10589 c 0.003,0.0158 0.0209,0.13125 0.0209,0.13124 7e-5,-1e-5 -0.0329,0.002 -0.0328,0.002 1.1e-4,10e-6 -0.018,-0.002 -0.0178,-0.002 2.1e-4,4e-5 -0.007,-0.002 -0.0119,-0.003 0.02,0.009 0.0567,0.0274 0.0999,0.0432 0.0765,0.0279 0.17598,0.0594 0.29379,0.0925 0.23473,0.0659 0.53515,0.13762 0.84264,0.19687 0.46921,0.0904 0.8216,0.16303 1.06933,0.26099 0.12414,0.0491 0.21837,0.10182 0.29082,0.173 0.0673,0.0662 0.11424,0.16068 0.1223,0.25354 0.0179,0.20646 -0.0845,0.4305 -0.29083,0.75762 -0.20471,0.32463 -0.51369,0.73681 -0.92765,1.2811 -0.92599,1.21756 -1.32382,1.66907 -1.6778,1.88811 a 0.14286554,0.14286554 0 0 0 -0.002,0 l -0.44443,0.27591 a 0.14286554,0.14286554 0 0 0 -0.002,0 c -0.0451,0.0289 0.0379,-0.008 -0.0135,0.008 -0.0514,0.0154 0.0386,7.4e-4 -0.0149,0.002 l -10.29655,0.0224 -10.29655,0.0238 c -0.0543,-7.7e-4 0.0391,0.0123 -0.0135,-0.002 -0.0525,-0.0138 0.0359,0.0213 -0.0119,-0.004 a 0.14286554,0.14286554 0 0 0 -0.003,-0.002 l -0.49365,-0.25503 c -0.21779,-0.11309 -0.39098,-0.23692 -0.63831,-0.50558 -0.24842,-0.26984 -0.57612,-0.68597 -1.12749,-1.40638 -0.43547,-0.56899 -0.76261,-0.99757 -0.97537,-1.32883 -0.2148,-0.33441 -0.32088,-0.55735 -0.28485,-0.76806 0.0159,-0.0935 0.0768,-0.18641 0.15957,-0.25354 0.0873,-0.0709 0.19913,-0.12577 0.34451,-0.17747 0.29109,-0.10354 0.70561,-0.18857 1.25874,-0.30425 3.45802,-0.72322 5.51797,-1.39936 6.46665,-2.1118 0.0318,-0.024 0.0317,-0.0294 0.0507,-0.0493 0.0189,-0.0198 0.0421,-0.0461 0.0701,-0.0776 0.056,-0.0628 0.12897,-0.14649 0.20432,-0.24309 0.14821,-0.19003 0.32754,-0.43338 0.51304,-0.69946 0.37062,-0.53171 0.7658,-1.14763 1.00071,-1.57491 l 0.15511,-0.28038 c 0.0106,-0.0194 -0.004,-0.003 0.0135,-0.0164 0.0171,-0.0141 -0.002,-0.004 0.0194,-0.0104 0.0211,-0.007 -0.002,-0.004 0.0209,-0.003 0.0221,0.003 0.002,-0.004 0.0209,0.006 l 0.43846,0.22371 c 0.77481,0.39632 1.38202,0.49664 3.02007,0.49663 1.63714,0 2.24296,-0.10089 3.01708,-0.49663 l 0.43996,-0.22371 a 0.14286554,0.14286554 0 0 0 0.002,0 c 0.0197,-0.0101 -0.002,-0.004 0.0209,-0.006 0.0221,-0.003 -2.8e-4,-0.004 0.0209,0.003 0.0211,0.007 0.003,-0.004 0.0194,0.0104 0.0171,0.0141 0.003,-0.003 0.0135,0.0164 l 0.15362,0.28038 c 0.23492,0.42728 0.63009,1.0432 1.00071,1.57491 0.18549,0.26608 0.36483,0.50943 0.51304,0.69946 0.0754,0.0968 0.14791,0.18172 0.20432,0.24459 0.0282,0.0315 0.0525,0.0562 0.0716,0.076 0.0191,0.0198 0.0194,0.0257 0.0507,0.0493 0.33127,0.24876 0.93148,0.55005 1.50481,0.77999 0.28677,0.11501 0.56533,0.20973 0.79938,0.27442 0.11924,0.033 0.22922,0.0562 0.31768,0.0701 0.0884,0.0139 0.139,0.023 0.2073,0.0149 0.17027,-0.0202 0.31714,-0.12343 0.41311,-0.26249 0.0947,-0.13741 0.13411,-0.29892 0.082,-0.44742 -0.0204,-0.0582 -0.0523,-0.1245 -0.10739,-0.18194 -0.055,-0.0574 -0.12544,-0.10566 -0.22967,-0.16556 -0.21472,-0.12339 -0.56033,-0.2654 -1.11705,-0.47276 -0.42738,-0.15918 -0.88947,-0.39254 -1.08275,-0.56226 -0.16411,-0.14409 -0.43291,-0.50329 -0.73973,-0.9515 -0.30592,-0.44693 -0.63418,-0.9682 -0.87246,-1.40041 l -0.21326,-0.38478 c -0.0113,-0.0206 -0.002,0.007 -0.006,-0.0164 -0.004,-0.0231 -0.003,0.005 0,-0.0178 0.003,-0.0232 -0.006,0.003 0.004,-0.0179 0.0102,-0.021 -0.006,0.003 0.0104,-0.0135 a 0.14286554,0.14286554 0 0 0 0,-0.002 l 0.68603,-0.71886 c 1.5133,-1.58393 2.01375,-2.66473 2.58309,-5.59419 0.0679,-0.34947 0.1124,-0.55263 0.17299,-0.69499 0.0554,-0.13021 0.15122,-0.2203 0.24907,-0.27143 0.13853,-0.0724 0.29145,-0.20789 0.44145,-0.3639 0.15,-0.15601 0.28972,-0.32778 0.37135,-0.48471 0.0193,-0.0372 0.0167,-0.0422 0.0238,-0.0671 0.007,-0.0249 0.0167,-0.0566 0.0253,-0.094 0.0173,-0.0748 0.0356,-0.17225 0.0493,-0.28187 0.0266,-0.21407 0.0447,-0.47833 0.0537,-0.75166 0.0181,-0.54731 -0.003,-1.13393 -0.0686,-1.45261 v -0.002 c -0.0898,-0.43169 -0.17157,-0.58499 -0.50111,-0.90526 -0.33689,-0.32743 -0.45624,-0.53584 -0.60848,-1.08574 -0.6953,-2.51125 -2.45425,-4.59552 -4.64121,-5.50322 -1.02169,-0.42406 -1.93339,-0.58313 -3.33474,-0.58313 z m 0,1.23039 c 0.79712,0 1.58567,0.0571 2.02084,0.17897 0.96644,0.27087 1.90814,0.78513 2.60545,1.43025 1.10937,1.0263 1.72546,2.06095 2.2341,3.72996 0.19974,0.65541 0.31905,0.87862 0.63831,1.21995 l 0.40119,0.42952 c 0.0354,0.0378 -0.007,-0.0302 0.0119,0.0178 0.019,0.0481 0.003,-0.0308 0.003,0.0209 v 1.01414 1.01116 c 4e-5,0.0248 0.004,-0.0106 -0.002,0.0135 -0.006,0.0241 0.007,-0.009 -0.004,0.0135 -0.0116,0.0219 0.009,-0.008 -0.008,0.0104 -0.0167,0.0184 0.0102,-0.004 -0.0104,0.009 l -0.38626,0.25951 c -0.2941,0.19752 -0.47413,0.36854 -0.60999,0.6398 -0.13754,0.27464 -0.2329,0.65826 -0.34898,1.28558 -0.27891,1.50744 -0.48863,2.17165 -0.99773,3.14534 -0.68572,1.31145 -2.08756,2.69267 -3.30791,3.25569 -0.24632,0.11364 -0.41379,0.17887 -0.68305,0.21477 -0.27175,0.0363 -0.64588,0.0464 -1.32883,0.0567 -0.40259,0.006 -0.8103,3.3e-4 -1.14538,-0.0104 -0.33623,-0.0109 -0.58326,-0.0245 -0.70693,-0.0507 -0.69313,-0.14661 -1.48278,-0.62912 -2.21172,-1.28856 -0.72855,-0.65907 -1.39162,-1.49472 -1.81801,-2.35342 -0.41005,-0.82581 -0.63396,-1.56758 -0.89334,-2.96935 -0.11607,-0.62733 -0.21146,-1.01094 -0.34898,-1.28557 -0.13555,-0.27066 -0.31557,-0.44136 -0.60848,-0.63832 l -0.002,-0.002 -0.38328,-0.25802 a 0.14286554,0.14286554 0 0 0 -0.002,-0.002 c -0.0207,-0.0136 0.006,0.009 -0.0104,-0.009 -0.0168,-0.0183 0.003,0.01 -0.009,-0.012 -0.0118,-0.0217 0.002,0.012 -0.004,-0.012 -0.006,-0.0241 -0.002,0.0114 -0.002,-0.0135 v -1.01116 -1.01265 -0.002 c -0.002,-0.0327 -0.0136,0.0252 0.004,-0.0194 0.0194,-0.0479 -0.0253,0.0194 0.0104,-0.0178 a 0.14286554,0.14286554 0 0 0 0.002,-0.002 l 0.3997,-0.42952 c 0.31919,-0.34125 0.43704,-0.56445 0.63682,-1.21995 0.5086,-1.66898 1.12767,-2.70363 2.23708,-3.72996 0.69737,-0.64519 1.63757,-1.15939 2.60396,-1.43025 0.43508,-0.12195 1.22522,-0.17896 2.02233,-0.17896 z m 11.17199,22.97782 c 0.0631,0.10065 0.0706,0.0685 0.0373,0.16108 0,0 -0.11411,-0.0475 -0.12528,-0.0522 z m -18.77807,6.77687 h 7.60608 7.6046 c 0.037,2e-5 0.0375,3.2e-4 0.0522,0.0343 0.0146,0.034 0.0136,0.0327 -0.012,0.0596 l -0.67709,0.71885 c -0.81197,0.86314 -1.47671,1.84642 -1.94925,2.87987 l -0.35196,0.77254 c -0.01,0.0219 0.007,-0.004 -0.009,0.0135 -0.0158,0.0182 0.008,-0.003 -0.012,0.0104 -0.0202,0.013 0.008,6.3e-4 -0.0149,0.008 -0.0231,0.007 0.009,0.002 -0.0149,0.002 h -4.61584 -4.61585 c -0.0241,1.1e-4 0.007,0.005 -0.0164,-0.002 -0.0231,-0.007 0.005,0.005 -0.0149,-0.008 -0.0202,-0.0129 0.004,0.008 -0.0119,-0.0104 -0.0158,-0.0182 7.6e-4,0.008 -0.009,-0.0135 l -0.35197,-0.77254 c -0.47254,-1.03345 -1.13728,-2.01673 -1.94924,-2.87987 l -0.6771,-0.71885 c -0.0254,-0.0268 -0.0266,-0.0257 -0.0119,-0.0596 0.0147,-0.034 0.0152,-0.0343 0.0522,-0.0343 z m 7.60608,5.75826 c 3.15752,0 4.91259,0.004 5.88652,0.0238 0.48686,0.01 0.77715,0.0245 0.95448,0.0447 0.0905,0.0103 0.14447,0.0194 0.1909,0.0358 0.0401,0.0142 0.081,0.041 0.094,0.0746 0.0159,0.0413 0.016,0.0622 0.0238,0.1208 0.006,0.0513 0.0114,0.11537 0.0164,0.18643 0.01,0.14349 0.0179,0.31628 0.0179,0.49066 v 0.63384 c 1e-4,0.022 0.004,0.003 -0.004,0.0224 -0.008,0.0204 0.004,0.003 -0.0119,0.0178 -0.0156,0.0156 0.003,0.004 -0.0178,0.0119 -0.0203,0.008 -3.7e-4,0.004 -0.0224,0.004 h -7.12736 -7.13033 c -0.022,1e-4 -0.003,0.004 -0.0224,-0.004 -0.0203,-0.008 -0.003,0.004 -0.0178,-0.0119 -0.0156,-0.0156 -0.004,0.003 -0.012,-0.0178 -0.008,-0.0203 -0.004,-3.7e-4 -0.004,-0.0224 v -0.63384 c 0,-0.17513 0.007,-0.3498 0.0178,-0.49215 0.005,-0.071 0.0109,-0.13317 0.0179,-0.18494 a 0.14286554,0.14286554 0 0 0 0,-0.002 c 0.007,-0.0568 0.008,-0.0779 0.0238,-0.1193 0.0125,-0.0324 0.0548,-0.0603 0.0954,-0.0746 0.0471,-0.0167 0.0991,-0.0254 0.1894,-0.0358 0.17735,-0.0202 0.46765,-0.0348 0.95449,-0.0448 0.97399,-0.02 2.7305,-0.0238 5.888,-0.0238 z m 1.13943,9.02738 c 0.11696,0.0569 0.0957,1.7e-4 0.11483,0.11185 a 0.14286554,0.14286554 0 0 0 -0.11483,-0.11185 z m -13.74911,0.431 c 0.0659,0.008 0.0828,0.11741 0.0731,0.082 a 0.14286554,0.14286554 0 0 0 -0.0731,-0.082 z m 14.09063,0.0567 c 0.0669,0.0846 0.0176,-0.0699 0.0642,0.0865 0,0 -0.0876,0.022 -0.11783,0.0299 z m -14.00712,0.082 c 0.003,0.0125 -0.0135,0.0611 -0.0238,0.0731 a 0.14286554,0.14286554 0 0 0 0.0238,-0.0731 z" /><path
         id="path264"
         d="m 196.34824,460.63479 c -0.41369,-0.0146 -0.87674,0.0413 -1.38872,0.16408 -2.5396,0.61039 -6.0999,3.02171 -10.57746,7.2203 l -1.37847,1.29285 a 0.14716395,0.14751877 0 0 1 -0.20133,0 l -0.46402,-0.46174 c -0.90106,-0.88889 -2.1445,-1.33893 -3.78403,-1.35444 -0.5702,-0.004 -0.91635,0.0273 -1.07822,0.0958 -0.0809,0.0341 -0.11425,0.0674 -0.13989,0.11628 -0.0257,0.0487 -0.041,0.12395 -0.041,0.23599 0,0.25897 0.096,0.40649 0.41629,0.59172 0.11179,0.0646 0.15494,0.16776 0.19447,0.28731 0.0396,0.1196 0.0643,0.26146 0.0785,0.41725 0.0284,0.31166 0.0116,0.67659 -0.0649,0.9919 -0.0823,0.33359 -0.31198,0.79129 -0.54593,1.17316 -0.11687,0.19097 -0.23543,0.36164 -0.34119,0.48569 -0.0529,0.062 -0.10022,0.11105 -0.15356,0.15037 -0.0266,0.0197 -0.0552,0.0389 -0.0921,0.0513 -0.037,0.0116 -0.0899,0.019 -0.14322,-0.003 -0.65843,-0.27914 -1.26733,-0.40331 -2.17691,-0.44122 -0.61668,-0.0259 -1.02539,-0.0186 -1.29318,0.0309 -0.26779,0.0495 -0.38329,0.12745 -0.48451,0.26336 -0.1131,0.15189 -0.127,0.24579 -0.0784,0.35573 0.0485,0.10989 0.19156,0.25097 0.45379,0.38991 0.30069,0.15935 0.52486,0.34878 0.66195,0.58829 0.13713,0.23952 0.18142,0.52147 0.15356,0.84481 -0.0336,0.39011 -0.19395,0.73476 -0.74382,1.66912 -1.32516,2.25171 -2.61086,5.08423 -3.47692,7.65807 -1.852,5.5041 -2.11912,10.16255 -0.79844,13.05875 l 0.32076,0.70456 a 0.14716395,0.14751877 0 0 1 -0.0145,0.14714 l -0.94173,1.32023 c -0.50314,0.70517 -0.77521,1.12134 -0.86668,1.36472 -0.0457,0.12179 -0.0457,0.18981 -0.0308,0.24282 0.0158,0.053 0.0527,0.10713 0.13308,0.18128 0.0304,0.0283 0.25987,0.20351 0.55959,0.42411 0.29974,0.22064 0.68486,0.50194 1.08505,0.78668 0.69816,0.4971 1.10189,0.77196 1.35119,0.89954 0.12453,0.0637 0.20629,0.0895 0.26612,0.0958 0.0599,0.008 0.10486,-0.002 0.17068,-0.0273 -0.0471,0.0179 -0.0207,0.0102 -0.003,-0.008 0.0176,-0.0177 0.041,-0.0433 0.0717,-0.0787 0.0617,-0.071 0.14493,-0.17302 0.24226,-0.29758 0.19459,-0.24925 0.44717,-0.58914 0.7063,-0.95428 l 0.94512,-1.33393 a 0.14716395,0.14751877 0 0 1 0.15014,-0.0582 l 0.32416,0.0685 c 0.23836,0.0485 0.77791,0.0662 1.34437,0.0477 0.56644,-0.0183 1.17032,-0.0695 1.56271,-0.14357 3.32592,-0.62922 7.36673,-2.84284 11.32813,-6.22154 1.14293,-0.97484 3.63811,-3.47488 4.57559,-4.58322 0.19627,-0.23202 0.40413,-0.45516 0.58007,-0.63274 0.0877,-0.0889 0.16647,-0.16829 0.23541,-0.22917 0.0689,-0.061 0.12049,-0.10204 0.18085,-0.13339 0.18791,-0.0973 0.49027,-0.14356 0.75747,-0.14356 0.20131,0 0.35116,0.0103 0.49818,0.0717 0.14693,0.0619 0.27405,0.16304 0.46061,0.32493 0.23536,0.20416 0.42541,0.296 0.55959,0.3044 0.13423,0.008 0.23627,-0.0441 0.35828,-0.20865 0.043,-0.0578 0.0697,-0.0936 0.082,-0.11975 0.0116,-0.0261 0.0179,-0.0413 0.0175,-0.0856 -0.002,-0.0883 -0.0478,-0.27797 -0.14322,-0.64986 -0.2291,-0.89292 -0.76903,-2.02817 -1.17716,-2.50365 l -0.32757,-0.38306 a 0.14716395,0.14751877 0 0 1 -0.003,-0.18471 l 0.3753,-0.4891 c 0.68143,-0.88536 1.31971,-1.32865 2.16327,-1.48443 0.1483,-0.0273 0.267,-0.0402 0.38215,-0.0102 0.11513,0.03 0.20681,0.10031 0.30369,0.19155 0.16648,0.15672 0.38539,0.18729 0.56299,0.12991 0.1776,-0.0573 0.30025,-0.18718 0.30025,-0.38308 0,-0.2341 -0.13627,-0.72864 -0.34803,-1.245 -0.21171,-0.51636 -0.49774,-1.06931 -0.77795,-1.47757 -0.37167,-0.54153 -1.06844,-1.13888 -1.69239,-1.44678 l -0.56981,-0.28048 a 0.14716395,0.14751877 0 0 1 -0.0684,-0.19838 l 0.29685,-0.5917 c 1.04093,-2.07726 2.54052,-5.84746 3.11865,-7.84961 0.63895,-2.21259 0.78971,-3.15082 0.7882,-4.82946 -6.2e-4,-0.66401 -0.008,-1.05886 -0.034,-1.33394 -0.0259,-0.27508 -0.0659,-0.42864 -0.14676,-0.64643 -0.31536,-0.84837 -0.78698,-1.39831 -1.42625,-1.68965 -0.31964,-0.14576 -0.68502,-0.22918 -1.09869,-0.24284 z m 0.0851,0.97477 c 0.24398,0.0266 0.46389,0.0912 0.66193,0.19158 0.6166,0.31203 0.95407,1.02944 1.03728,2.04875 0.0832,1.01927 -0.078,2.35943 -0.47767,3.9915 -0.30913,1.26203 -0.88052,3.07968 -1.37851,4.37114 l -0.28321,0.73197 a 0.14716395,0.14751877 0 0 1 -0.21152,0.0717 l -0.31049,-0.18468 c -0.12671,-0.0749 -0.19765,-0.1035 -0.24229,-0.10947 -0.0446,-0.004 -0.084,0.003 -0.18423,0.0446 -0.2507,0.10393 -0.3706,0.35755 -0.29344,0.56092 0.009,0.0216 0.0587,0.10264 0.12628,0.18127 0.0677,0.0787 0.15373,0.16007 0.23546,0.22575 l 0.32755,0.26336 a 0.14716395,0.14751877 0 0 1 0.0408,0.17442 l -0.41969,0.95769 h 0.003 c -0.11585,0.265 -0.22964,0.51163 -0.31733,0.69431 -0.0439,0.0915 -0.0824,0.16602 -0.11236,0.22233 -0.0158,0.0283 -0.0252,0.052 -0.0375,0.0718 -0.008,0.0102 -0.0116,0.0205 -0.0204,0.0309 -0.003,0.004 -0.0102,0.0102 -0.0175,0.0177 -0.003,0.003 -0.004,0.004 -0.0102,0.0103 -0.004,0.004 -0.02,0.0177 -0.0204,0.0177 -7.7e-4,6e-4 -0.0498,0.0202 -0.0511,0.0205 -0.002,2.9e-4 -0.0243,0.003 -0.0341,0.003 -0.0199,6e-5 -0.0354,-0.003 -0.0478,-0.008 -0.0247,-0.004 -0.0438,-0.0116 -0.0649,-0.0205 -0.0424,-0.0175 -0.0882,-0.0416 -0.14321,-0.0718 -0.11035,-0.0603 -0.24979,-0.14459 -0.3958,-0.24284 -0.2982,-0.20094 -0.48625,-0.29503 -0.59371,-0.30786 -0.10746,-0.0116 -0.16963,0.0194 -0.30708,0.15727 -0.0956,0.0959 -0.14922,0.17847 -0.1705,0.24284 -0.0215,0.0644 -0.0201,0.11366 0.0145,0.18811 0.0672,0.14882 0.30298,0.3755 0.74043,0.67721 l 0.50157,0.34548 a 0.14716395,0.14751877 0 0 1 0.0511,0.18811 l -0.48791,0.98164 c -0.17208,0.34388 -0.30606,0.58739 -0.41287,0.74904 -0.0534,0.0808 -0.0991,0.14095 -0.15015,0.1881 -0.0255,0.0236 -0.0539,0.0456 -0.0921,0.0615 -0.0381,0.0158 -0.092,0.0231 -0.14323,0.003 -0.045,-0.0177 -0.074,-0.0349 -0.12294,-0.0651 -0.0487,-0.0301 -0.10889,-0.0704 -0.17741,-0.11627 -0.13699,-0.092 -0.30587,-0.20991 -0.4777,-0.33521 -0.33178,-0.24188 -0.56816,-0.36987 -0.72336,-0.40359 -0.15513,-0.0338 -0.23173,-0.008 -0.35144,0.11279 -0.068,0.0682 -0.11919,0.19363 -0.12961,0.31809 -0.0102,0.12455 0.022,0.24406 0.0717,0.30441 0.007,0.008 0.11251,0.10277 0.24224,0.20521 0.12975,0.10249 0.29283,0.22579 0.45722,0.34548 0.16439,0.11961 0.3318,0.23667 0.46403,0.32492 0.0661,0.0441 0.1231,0.0795 0.16718,0.10612 0.0443,0.0264 0.0856,0.0453 0.0717,0.0411 0.0362,0.0103 0.0696,0.039 0.0888,0.0685 0.0188,0.0295 0.0283,0.0567 0.0309,0.0787 0.004,0.0439 -0.002,0.076 -0.0102,0.10945 -0.0158,0.0669 -0.0434,0.14051 -0.0851,0.236 -0.0835,0.19118 -0.22066,0.45921 -0.41287,0.80377 -0.27524,0.4935 -0.46172,0.80222 -0.59711,0.96796 -0.0339,0.0415 -0.0624,0.0745 -0.0988,0.10263 -0.0365,0.0283 -0.0888,0.0628 -0.17069,0.0477 -0.082,-0.0159 -0.1286,-0.0902 -0.14322,-0.13688 -0.0102,-0.0323 -0.009,-0.0619 -0.0102,-0.0923 -3.8e-4,-5.8e-4 -0.003,-0.003 -0.003,-0.003 -0.004,-0.008 -0.0145,-0.0195 -0.0309,-0.0376 -0.037,-0.0395 -0.0976,-0.0948 -0.17068,-0.15743 -0.14569,-0.12498 -0.34556,-0.28005 -0.55273,-0.43096 -0.2072,-0.15097 -0.42111,-0.29697 -0.59372,-0.40361 -0.0863,-0.0533 -0.1649,-0.0983 -0.22178,-0.12657 -0.0569,-0.0283 -0.10976,-0.0341 -0.0717,-0.0341 -0.0935,0 -0.21738,0.0624 -0.31389,0.16758 -0.0967,0.10523 -0.16038,0.24693 -0.16038,0.36255 0,0.1305 -0.003,0.1525 0.082,0.24969 0.0858,0.0973 0.28025,0.24811 0.63806,0.51302 0.57877,0.42847 0.83037,0.55304 0.98609,0.5541 0.10007,7.6e-4 0.17548,0.008 0.24568,0.0341 0.035,0.0145 0.0732,0.0324 0.10571,0.0787 0.0326,0.0461 0.0413,0.12875 0.0204,0.17784 -0.0415,0.0984 -0.1073,0.11962 -0.17744,0.15036 -0.0702,0.0311 -0.15618,0.0541 -0.26271,0.0752 -0.0594,0.0116 -0.25892,0.0672 -0.50842,0.14356 -0.24948,0.0764 -0.55555,0.17634 -0.85642,0.27707 -0.53289,0.17837 -0.80764,0.27207 -1.00657,0.30439 -0.19894,0.0324 -0.34102,-0.0243 -0.46745,-0.099 -0.11353,-0.0675 -0.32978,-0.12992 -0.39238,-0.12992 -0.0746,0 -0.19986,0.0626 -0.29687,0.16409 -0.097,0.10147 -0.16037,0.23519 -0.16037,0.32152 0,0.0677 -0.0193,0.1525 -0.0684,0.22229 -0.0488,0.0697 -0.11744,0.12615 -0.21498,0.19156 -0.19469,0.13093 -0.51608,0.2988 -1.08163,0.58146 -0.62524,0.31248 -0.9413,0.46888 -1.13961,0.53357 -0.0994,0.0324 -0.18574,0.0567 -0.2798,0.003 -0.0471,-0.0266 -0.0793,-0.0715 -0.0956,-0.10611 -0.0158,-0.0347 -0.0239,-0.0653 -0.0309,-0.0923 0.003,0.0159 -0.009,-0.0187 -0.0444,-0.0615 -0.036,-0.0428 -0.0912,-0.10103 -0.16036,-0.16406 -0.13829,-0.12629 -0.33601,-0.28181 -0.56984,-0.44807 -0.43622,-0.31019 -0.72354,-0.46836 -0.89395,-0.49936 -0.0853,-0.0159 -0.13627,-0.004 -0.19109,0.0239 -0.0549,0.0284 -0.11512,0.0846 -0.18426,0.17787 -0.0643,0.0866 -0.096,0.15392 -0.10571,0.20862 -0.009,0.0548 -0.003,0.10045 0.0341,0.17108 0.075,0.14081 0.29536,0.35315 0.69947,0.64985 a 0.14716395,0.14751877 0 0 1 0.003,0 l 0.71997,0.53018 a 0.14716395,0.14751877 0 0 1 -0.0145,0.24625 l -0.30029,0.17784 c -0.16176,0.0967 -0.61283,0.37781 -0.99972,0.6191 l -0.7063,0.43778 a 0.14716395,0.14751877 0 0 1 -0.15689,-0.003 l -0.40264,-0.25653 c -0.23959,-0.15236 -0.36916,-0.21408 -0.4265,-0.2189 -0.0286,-0.002 -0.0462,0.003 -0.0853,0.0239 -0.0391,0.0198 -0.0931,0.0579 -0.16718,0.11626 -0.22058,0.17408 -0.24657,0.4959 -0.0476,0.70803 a 0.14716395,0.14751877 0 0 1 0.003,0.003 l 0.17399,0.18811 a 0.14716395,0.14751877 0 0 1 -0.0204,0.21547 l -0.97245,0.7388 c -0.5311,0.40326 -1.3232,1.04478 -1.75041,1.41942 -0.2992,0.26242 -0.51743,0.45969 -0.67899,0.59857 -0.16159,0.13878 -0.26089,0.2191 -0.33779,0.26679 -0.0191,0.0116 -0.0358,0.0216 -0.0612,0.0309 -0.0116,0.004 -0.0267,0.008 -0.0478,0.0102 -0.0102,7.7e-4 -0.0362,1.8e-4 -0.0375,0 -0.002,-2e-4 -0.0433,-0.0146 -0.0444,-0.0146 -0.002,-5.2e-4 -0.0434,-0.03 -0.0445,-0.0309 -7.7e-4,-7.7e-4 -0.03,-0.0399 -0.0309,-0.0411 -5.9e-4,-7.6e-4 -0.0102,-0.0263 -0.0145,-0.0376 -0.003,-0.0102 -0.003,-0.022 -0.003,-0.0309 -0.002,-0.0353 0.002,-0.0525 0.008,-0.0718 0.0207,-0.0774 0.0575,-0.14989 0.10238,-0.25311 0.38254,-0.87807 0.93369,-2.31063 1.2386,-3.22876 0.13975,-0.42099 0.2276,-0.67011 0.30708,-0.82772 0.0397,-0.0789 0.0758,-0.13776 0.13989,-0.1847 0.0643,-0.0469 0.1705,-0.0534 0.23203,-0.0273 0.1595,0.0677 0.26631,0.0912 0.34803,0.0854 0.0818,-0.004 0.1506,-0.0359 0.25249,-0.11626 0.1818,-0.14343 0.22446,-0.2653 0.18426,-0.41729 -0.0401,-0.15204 -0.19794,-0.35111 -0.49135,-0.54384 l -0.21497,-0.14023 a 0.14716395,0.14751877 0 0 1 -0.0614,-0.15743 l 0.21156,-0.91663 c 0.11629,-0.50346 0.23892,-1.02369 0.27637,-1.16975 l 0.0647,-0.25653 a 0.14716395,0.14751877 0 0 1 0.22862,-0.0822 l 0.68924,0.50619 c 0.39214,0.28722 0.6631,0.43061 0.83253,0.45491 0.0847,0.0116 0.14437,7.6e-4 0.20473,-0.0309 0.0605,-0.0321 0.12367,-0.0925 0.1945,-0.18813 0.0638,-0.0864 0.0951,-0.15127 0.10239,-0.20521 0.008,-0.0538 -0.002,-0.10509 -0.0476,-0.18128 -0.092,-0.1525 -0.34855,-0.37992 -0.80184,-0.70116 -0.21398,-0.15159 -0.42556,-0.2885 -0.59371,-0.38648 -0.084,-0.0489 -0.15793,-0.0875 -0.21155,-0.11308 -0.0536,-0.0251 -0.1086,-0.0309 -0.0649,-0.0309 -0.0733,0 -0.14279,-0.0177 -0.20132,-0.0582 -0.0585,-0.0403 -0.11064,-0.11496 -0.10919,-0.20519 4.2e-4,-0.0257 7.6e-4,-0.0303 0.003,-0.0547 0.002,-0.0241 0.004,-0.0564 0.0102,-0.0958 0.009,-0.0784 0.022,-0.18541 0.0374,-0.31125 0.031,-0.2517 0.074,-0.58085 0.116,-0.90983 0.042,-0.32896 0.0858,-0.65901 0.11947,-0.9132 0.0175,-0.12716 0.0299,-0.23452 0.041,-0.31467 0.0102,-0.0802 0.0158,-0.11585 0.0239,-0.15394 a 0.14716395,0.14751877 0 0 1 0,-0.003 c 1.7e-4,-7.5e-4 0.0336,-0.0642 0.0341,-0.0651 6.3e-4,-7.3e-4 0.0247,-0.0248 0.0341,-0.0309 0.0187,-0.0116 0.03,-0.0146 0.041,-0.0177 0.0218,-0.008 0.0401,-0.0102 0.0581,-0.0146 0.0358,-0.004 0.0735,-0.008 0.11599,-0.008 0.0299,0 0.13323,-0.0503 0.21157,-0.14712 0.0784,-0.097 0.1296,-0.22814 0.1296,-0.30785 0,-0.0738 -0.0826,-0.26812 -0.21838,-0.41042 l -0.2593,-0.26945 a 0.14716395,0.14751877 0 0 1 -0.041,-0.099 l -0.0175,-1.4297 c -0.0102,-0.78002 -0.0116,-1.23735 0,-1.4639 0.003,-0.0564 0.004,-0.0983 0.0145,-0.13689 0.003,-0.0192 0.004,-0.0359 0.0239,-0.0685 0.004,-0.008 0.0197,-0.03 0.0204,-0.0309 7.4e-4,-7.6e-4 0.0434,-0.0302 0.0444,-0.0309 7.6e-4,-4.2e-4 0.0675,-0.0205 0.0684,-0.0205 7.7e-4,-10e-6 0.0675,0.0177 0.0684,0.0177 7.6e-4,3.8e-4 0.0399,0.0231 0.0408,0.0239 7.6e-4,7.5e-4 0.0158,0.0177 0.0204,0.0239 0.0102,0.0146 0.0158,0.0246 0.0204,0.0341 0.009,0.0192 0.0158,0.0365 0.0204,0.0547 0.0102,0.0361 0.0194,0.0774 0.0308,0.12991 0.026,0.1218 0.18675,0.31882 0.66875,0.68751 0.18128,0.13861 0.3707,0.27379 0.52888,0.37964 0.15827,0.10582 0.30218,0.18682 0.32414,0.19493 0.3699,0.13762 0.76388,-0.23442 0.62441,-0.56775 -0.004,-0.0146 -0.106,-0.14516 -0.24908,-0.27364 -0.14307,-0.12832 -0.33108,-0.27612 -0.52205,-0.41383 -0.19098,-0.13762 -0.38696,-0.26719 -0.54935,-0.35915 -0.0812,-0.046 -0.15153,-0.0823 -0.20814,-0.10597 -0.0568,-0.0238 -0.10354,-0.0309 -0.0988,-0.0309 -0.068,0 -0.13135,-0.004 -0.18765,-0.0205 -0.0283,-0.008 -0.0541,-0.0177 -0.0853,-0.0376 -0.0158,-0.0103 -0.0308,-0.0248 -0.0476,-0.0477 -0.009,-0.0116 -0.0177,-0.0239 -0.0239,-0.041 -0.008,-0.0175 -0.0102,-0.0562 -0.0102,-0.0582 0,-5e-4 0.003,-0.0335 0.003,-0.0341 1.6e-4,-6.5e-4 0.004,-0.0159 0.008,-0.0205 0.003,-0.0102 0.008,-0.0178 0.0102,-0.0239 0.007,-0.0116 0.0102,-0.021 0.0175,-0.0309 0.0116,-0.0195 0.0315,-0.0427 0.0511,-0.0685 0.0394,-0.0513 0.0934,-0.11846 0.16038,-0.19839 0.1341,-0.16006 0.31694,-0.37049 0.51861,-0.59514 0.2007,-0.22348 0.38883,-0.43465 0.53231,-0.59513 0.14335,-0.16041 0.25142,-0.28187 0.2559,-0.2873 7.7e-4,-7.7e-4 0.0598,-0.0439 0.0614,-0.0446 0.002,-7.3e-4 0.0341,-0.008 0.0476,-0.0103 0.0274,-0.002 0.0452,7e-5 0.0614,0.003 0.0322,0.008 0.0594,0.0183 0.0888,0.0309 0.0589,0.0251 0.12816,0.0613 0.21154,0.10945 0.16666,0.0962 0.38383,0.23676 0.61419,0.40019 0.22475,0.15954 0.45269,0.30367 0.63463,0.40701 0.0909,0.0515 0.16842,0.0929 0.22863,0.11975 0.0601,0.0267 0.11469,0.0342 0.0886,0.0342 0.2167,0 0.41969,-0.2235 0.41969,-0.52332 0,-0.13238 -0.002,-0.16459 -0.0612,-0.23941 -0.0601,-0.0747 -0.20342,-0.1884 -0.47088,-0.37964 -0.26979,-0.19296 -0.47257,-0.32486 -0.61759,-0.43781 -0.14494,-0.11307 -0.25356,-0.21147 -0.27296,-0.36598 -0.0193,-0.15445 0.0688,-0.27942 0.18425,-0.41042 0.11556,-0.1311 0.2789,-0.28586 0.49475,-0.50964 l 0.76091,-0.79008 a 0.14716395,0.14751877 0 0 1 0.18766,-0.0205 l 0.61417,0.42072 c 0.33461,0.22901 0.57453,0.34871 0.73359,0.37624 0.15915,0.0275 0.23814,-0.004 0.35486,-0.12991 0.0786,-0.0846 0.12178,-0.15638 0.13655,-0.2155 0.0145,-0.059 0.0102,-0.11249 -0.0273,-0.19152 -0.0746,-0.15779 -0.30482,-0.39385 -0.71654,-0.708 l -0.3071,-0.23599 a 0.14716395,0.14751877 0 0 1 -0.0102,-0.22234 l 0.70288,-0.66012 c 0.1943,-0.18265 0.38322,-0.35794 0.53571,-0.49253 0.0762,-0.0672 0.14494,-0.12367 0.19791,-0.16759 0.053,-0.0439 0.08,-0.0711 0.12294,-0.0958 0.0964,-0.0563 0.20563,-0.0439 0.30368,-0.0103 0.098,0.0337 0.20075,0.0935 0.31731,0.17444 0.18444,0.12788 0.3216,0.18291 0.42311,0.19153 0.10151,0.008 0.17863,-0.0179 0.28662,-0.10945 0.14061,-0.11946 0.19225,-0.22212 0.19449,-0.32833 0.002,-0.10626 -0.0482,-0.24096 -0.18767,-0.40019 l -0.27297,-0.31125 a 0.14716395,0.14751877 0 0 1 0.0176,-0.21207 l 1.00314,-0.80719 c 2.06086,-1.66239 3.86317,-2.85308 5.34331,-3.54344 1.11016,-0.51776 2.04551,-0.76369 2.77745,-0.68405 z m -1.78453,2.18219 c -0.0507,7.5e-4 -0.095,0.0178 -0.16718,0.0477 -0.26353,0.10944 -0.36659,0.35052 -0.26273,0.59855 -0.002,-0.003 0.0247,0.0411 0.0684,0.089 0.0434,0.0479 0.10223,0.10612 0.174,0.17091 0.14365,0.12978 0.33387,0.28281 0.52887,0.42072 0.50803,0.35931 0.7983,0.48568 0.92466,0.48568 0.15443,0 0.25726,-0.0499 0.32417,-0.12659 0.0669,-0.0765 0.10411,-0.1905 0.0886,-0.35232 -0.0101,-0.10857 -0.0237,-0.15637 -0.10239,-0.24966 -0.0786,-0.0933 -0.23048,-0.22245 -0.49134,-0.42071 -0.4572,-0.34747 -0.72563,-0.53566 -0.89396,-0.61223 -0.0842,-0.0385 -0.14047,-0.0523 -0.19109,-0.0512 z m -3.54174,1.75119 c -0.20803,0 -0.44123,0.23702 -0.44014,0.45488 7.6e-4,0.16621 -7.7e-4,0.19633 0.0956,0.30443 0.0967,0.108 0.31525,0.27642 0.73703,0.57802 0.20352,0.14546 0.41089,0.27798 0.57665,0.37282 0.0828,0.0474 0.15372,0.0849 0.20813,0.10945 0.0545,0.0246 0.10571,0.0309 0.075,0.0309 0.34403,0 0.58569,-0.51682 0.36508,-0.78324 -0.0933,-0.11249 -0.4792,-0.40916 -0.84619,-0.64644 -0.18348,-0.11874 -0.36492,-0.22677 -0.5118,-0.3044 -0.0734,-0.0389 -0.13872,-0.0725 -0.18768,-0.0923 -0.0488,-0.0198 -0.0882,-0.0239 -0.0717,-0.0239 z m 2.95828,2.18899 c -0.081,0.0286 -0.24203,0.16339 -0.28661,0.24284 -0.0969,0.17286 -0.10976,0.24761 -0.0239,0.39333 0.0858,0.14577 0.31175,0.35174 0.7063,0.64302 0.42255,0.31193 0.71197,0.47742 0.89396,0.51648 0.0909,0.0194 0.15123,0.0102 0.20814,-0.0146 0.0572,-0.0247 0.11484,-0.0732 0.18086,-0.15726 0.0844,-0.10757 0.13235,-0.19107 0.14676,-0.25309 0.0144,-0.062 0.008,-0.10742 -0.0374,-0.18471 -0.0909,-0.15479 -0.37707,-0.39483 -0.90764,-0.7593 -0.33843,-0.23256 -0.53953,-0.36156 -0.65853,-0.41385 -0.11903,-0.0524 -0.13496,-0.0444 -0.22178,-0.0146 z m -5.07377,0.63617 c -0.0901,0.0301 -0.2556,0.1662 -0.29684,0.23943 -0.0957,0.17005 -0.1073,0.24412 -0.0204,0.3899 0.0869,0.14577 0.30953,0.35203 0.70288,0.63961 0.51896,0.37932 0.81012,0.51646 0.94516,0.51988 0.21372,0.004 0.36159,-0.0944 0.43675,-0.22915 0.075,-0.135 0.0814,-0.30516 -0.0375,-0.47541 -1.9e-4,-2.9e-4 -0.0384,-0.0403 -0.0888,-0.0855 -0.0501,-0.045 -0.11599,-0.10191 -0.19448,-0.16408 -0.15705,-0.12454 -0.35739,-0.2724 -0.56299,-0.41387 -0.3376,-0.23222 -0.53481,-0.3599 -0.65171,-0.41044 -0.11686,-0.0505 -0.13409,-0.0429 -0.23204,-0.0102 z m -9.78925,0.0958 c 0.17699,-2.5e-4 0.44657,0.0689 0.75748,0.16076 0.3109,0.0918 0.63851,0.20699 0.85985,0.31125 0.23159,0.10902 0.53128,0.33797 0.78818,0.56777 0.12844,0.11482 0.24344,0.23058 0.33098,0.33178 0.0439,0.0507 0.08,0.0974 0.10919,0.14356 0.029,0.0461 0.0581,0.0849 0.0581,0.1641 0,7.4e-4 -0.002,0.0228 -0.003,0.0309 -0.002,0.008 -0.002,0.0159 -0.003,0.0205 -0.003,0.0103 -0.007,0.0177 -0.0102,0.0239 -0.008,0.0145 -0.0145,0.0261 -0.0204,0.0376 -0.0145,0.0229 -0.0333,0.0473 -0.0546,0.0752 -0.0428,0.0559 -0.10195,0.12513 -0.17401,0.20863 -0.14451,0.16671 -0.3422,0.38458 -0.55957,0.61223 -0.42953,0.44988 -1.1377,1.2242 -1.56956,1.71359 -0.43368,0.4914 -0.82116,0.92772 -0.85642,0.96793 -0.036,0.0412 -0.10167,0.0682 -0.15356,0.0651 -0.052,-0.003 -0.0893,-0.0233 -0.11947,-0.0446 -0.0603,-0.0423 -0.0998,-0.0988 -0.13641,-0.16758 -0.0392,-0.0734 -0.22926,-0.32871 -0.3924,-0.50964 l -0.3105,-0.34203 a 0.14716395,0.14751877 0 0 1 -0.0145,-0.17785 l 0.40943,-0.6396 c 0.6691,-1.0465 0.76764,-1.3518 0.77454,-2.44552 0.002,-0.40261 0.008,-0.64429 0.0308,-0.80378 0.0116,-0.0797 0.0274,-0.14095 0.0684,-0.20178 0.0408,-0.061 0.12859,-0.10248 0.19108,-0.10263 z m 12.98979,2.08298 c -0.34914,0 -0.5877,0.33502 -0.47087,0.643 -0.004,-0.0146 0.0209,0.0311 0.0649,0.0787 0.0441,0.0477 0.10557,0.10785 0.18084,0.17441 0.1506,0.13283 0.35336,0.29116 0.56299,0.43779 0.21022,0.14698 0.42351,0.28077 0.59371,0.37624 0.085,0.0477 0.15916,0.0848 0.21495,0.10945 0.0557,0.0247 0.10586,0.0309 0.075,0.0309 0.15197,0 0.29701,-0.11729 0.37535,-0.28389 0.0784,-0.16653 0.0762,-0.35572 -0.0205,-0.47885 -0.0267,-0.0341 -0.14602,-0.14357 -0.29687,-0.25995 -0.15091,-0.11628 -0.33953,-0.25074 -0.52545,-0.37621 -0.18592,-0.12528 -0.36849,-0.24372 -0.51522,-0.32837 -0.0735,-0.0423 -0.13728,-0.0774 -0.18426,-0.099 -0.047,-0.022 -0.0946,-0.0239 -0.0546,-0.0239 z m -4.99189,0.65327 c -0.35652,-0.0954 -0.68995,0.27187 -0.55955,0.61567 -0.004,-0.0146 0.0205,0.0309 0.0649,0.0787 0.044,0.0477 0.10557,0.10785 0.18084,0.17442 0.1506,0.13283 0.35334,0.29118 0.563,0.43781 0.21029,0.14712 0.42068,0.28074 0.59029,0.37622 0.0847,0.0477 0.15967,0.0848 0.21497,0.10945 0.0553,0.0247 0.10716,0.0309 0.075,0.0309 0.14178,0 0.24436,-0.0481 0.31733,-0.12657 0.0732,-0.0785 0.11947,-0.19398 0.11947,-0.35231 0,-0.16039 0.002,-0.19077 -0.0717,-0.28044 -0.0737,-0.0897 -0.25381,-0.23073 -0.60394,-0.4891 -0.19952,-0.14728 -0.40278,-0.28712 -0.56983,-0.39333 -0.0835,-0.053 -0.15705,-0.098 -0.21495,-0.12993 -0.058,-0.0321 -0.10744,-0.0516 -0.10585,-0.0513 z m -12.4575,1.41259 c 0.0513,-0.004 0.2127,0.0351 0.15706,0.0175 0.0854,0.0116 0.20203,0.0275 0.33097,0.0477 0.69158,0.10959 1.54975,0.54944 1.98241,1.0295 0.20315,0.22543 0.47339,0.65765 0.63466,0.99876 l 0.27978,0.5917 a 0.14716395,0.14751877 0 0 1 0.0145,0.0615 l -0.0102,1.69647 c -0.0102,1.88903 -0.11455,3.1155 -0.44356,5.11677 -0.71286,4.33683 -2.38761,8.9569 -4.55513,12.56281 -0.23144,0.38502 -0.55408,0.86686 -0.82914,1.25524 -0.13743,0.19422 -0.26306,0.36468 -0.36167,0.48911 -0.0494,0.0623 -0.0899,0.11512 -0.12628,0.15393 -0.0183,0.0192 -0.0354,0.0355 -0.0546,0.0513 -0.0102,0.008 -0.0187,0.0159 -0.0341,0.0239 -0.008,0.003 -0.0179,0.008 -0.0309,0.0145 -0.008,0.002 -0.0197,0.003 -0.0205,0.003 -7.1e-4,1.5e-4 -0.03,0.003 -0.0308,0.003 -6.3e-4,0 -0.0539,-0.0102 -0.0546,-0.0102 -6.3e-4,-2.3e-4 -0.0402,-0.0235 -0.041,-0.0239 -6e-4,-4.8e-4 -0.0234,-0.0234 -0.0239,-0.0239 -5.5e-4,-7e-4 -0.0102,-0.0145 -0.0145,-0.0205 -0.0145,-0.0254 -0.0204,-0.0433 -0.0239,-0.0582 -0.007,-0.0299 -0.009,-0.0536 -0.0102,-0.0856 -0.003,-0.0638 -0.002,-0.14651 0,-0.24967 0.004,-0.20617 0.0202,-0.49021 0.0444,-0.81405 0.0487,-0.64763 0.12858,-1.4551 0.21838,-2.10005 0.36853,-2.64717 1.02949,-5.30613 2.47377,-9.98731 0.36085,-1.1696 0.65759,-2.20251 0.86325,-2.9996 0.20566,-0.79709 0.31732,-1.3798 0.31732,-1.55283 0,-0.2053 -0.0533,-0.35848 -0.13308,-0.45489 -0.0798,-0.0964 -0.18617,-0.14714 -0.34122,-0.14714 -0.27427,0 -0.47768,0.21099 -0.47768,0.51308 0,0.12005 -0.0294,0.28791 -0.0819,0.53012 -0.0525,0.24226 -0.12874,0.55106 -0.22862,0.92349 -0.1997,0.74489 -0.4917,1.73923 -0.85642,2.92096 -1.49649,4.84866 -2.14295,7.50828 -2.53519,10.40457 -0.077,0.56863 -0.17084,1.57131 -0.20471,2.21636 -0.0299,0.56757 -0.0439,0.8497 -0.0785,1.00899 -0.009,0.0398 -0.0116,0.0751 -0.0444,0.11976 -0.0158,0.0222 -0.044,0.05 -0.0851,0.0651 -0.0414,0.0146 -0.0895,0.008 -0.11948,-0.003 -0.0601,-0.0239 -0.0759,-0.0539 -0.0956,-0.0787 -0.0199,-0.0247 -0.0365,-0.0474 -0.0546,-0.0752 -0.49242,-0.75561 -0.86526,-2.14902 -0.99293,-3.60842 -0.39057,-4.46599 1.64011,-11.33671 5.00895,-17.05024 0.17243,-0.29257 0.33842,-0.59312 0.46746,-0.8414 0.12918,-0.24827 0.22212,-0.46203 0.23543,-0.50962 0.11136,-0.39907 0.087,-1.19393 -0.0444,-1.55967 -0.0355,-0.0984 -0.0652,-0.18989 -0.0888,-0.25651 -0.0116,-0.0333 -0.0237,-0.0624 -0.0308,-0.0821 -0.003,-0.0103 -0.004,-0.0177 -0.008,-0.0239 -7.6e-4,-0.003 -0.002,-0.003 -0.003,-0.008 -4.9e-4,-0.002 7.6e-4,-0.003 0,-0.008 -6.4e-4,-0.002 -0.004,-0.0116 -0.008,-0.0175 0,0 0.14678,-0.0239 0.14678,-0.0239 8e-5,0 -0.0308,-0.14356 -0.0308,-0.14356 3.9e-4,-8e-5 0.0253,-0.003 0.0308,-0.003 z m 15.37828,0.76957 c -0.14308,0 -0.24906,0.0523 -0.32076,0.13341 -0.0716,0.0813 -0.11179,0.19568 -0.0988,0.34887 0.0102,0.12831 0.0189,0.17161 0.1092,0.27361 0.0904,0.1022 0.27528,0.24783 0.60735,0.49595 0.5486,0.40987 0.80132,0.53358 0.94514,0.53358 0.22329,0 0.3683,-0.1244 0.42994,-0.2873 0.0617,-0.16304 0.037,-0.35754 -0.12961,-0.51307 -0.19901,-0.18585 -0.5561,-0.44083 -0.88032,-0.643 -0.16212,-0.10103 -0.31595,-0.19149 -0.44015,-0.2531 -0.12425,-0.0615 -0.23942,-0.089 -0.22177,-0.089 z m -5.07038,0.61567 c -0.11672,-0.0177 -0.18796,0.0159 -0.34802,0.15724 -0.0705,0.062 -0.0982,0.14023 -0.0819,0.33521 0.0102,0.1244 0.0236,0.17179 0.0988,0.26334 0.0756,0.0916 0.22514,0.2215 0.49473,0.42755 0.16911,0.12935 0.35451,0.25984 0.5118,0.366 0.15724,0.1061 0.29362,0.19089 0.34122,0.21203 0.21615,0.096 0.43053,0.0351 0.5664,-0.0889 0.13584,-0.12411 0.19194,-0.29381 0.0921,-0.48226 -0.058,-0.10945 -0.076,-0.14357 -0.20814,-0.2531 -0.13206,-0.1096 -0.3729,-0.2776 -0.83256,-0.59515 -0.31892,-0.22029 -0.51796,-0.3248 -0.63465,-0.34204 z m 3.0504,2.17871 c 7.7e-4,0 -0.0601,0.0159 -0.11947,0.0477 -0.0596,0.0326 -0.12555,0.0777 -0.17399,0.12657 -0.0944,0.0946 -0.14481,0.17322 -0.16371,0.23259 -0.0189,0.0594 -0.0184,0.10683 0.0204,0.18471 0.0776,0.15585 0.34057,0.40216 0.82233,0.75589 0.38998,0.28636 0.64995,0.43599 0.81205,0.47542 0.16214,0.0395 0.23056,0.0102 0.37536,-0.12658 0.11526,-0.10858 0.15808,-0.21868 0.15355,-0.32835 -0.004,-0.1096 -0.0572,-0.22999 -0.18766,-0.35227 -0.19193,-0.17988 -0.55448,-0.44502 -0.88374,-0.6567 -0.16456,-0.10583 -0.32261,-0.20123 -0.44699,-0.26679 -0.0622,-0.0326 -0.117,-0.0557 -0.15688,-0.0717 -0.0399,-0.0159 -0.0714,-0.0205 -0.0511,-0.0205 z m -5.08059,0.62593 c 7.6e-4,0 -0.0601,0.0158 -0.11947,0.0479 -0.0594,0.0326 -0.12555,0.0776 -0.174,0.12658 -0.0946,0.0948 -0.14495,0.17353 -0.16372,0.23257 -0.0189,0.0589 -0.0184,0.10379 0.0206,0.18129 0.0777,0.15499 0.34048,0.4021 0.82231,0.7559 0.38832,0.28514 0.6578,0.43831 0.83256,0.48226 0.17475,0.044 0.25275,0.0177 0.38214,-0.11293 0.10022,-0.10075 0.13801,-0.21594 0.12961,-0.3352 -0.009,-0.11933 -0.0668,-0.24604 -0.1911,-0.36256 -0.19191,-0.17987 -0.55446,-0.44501 -0.88371,-0.6567 -0.16457,-0.10581 -0.3226,-0.20122 -0.447,-0.26679 -0.0622,-0.0326 -0.11701,-0.0556 -0.15687,-0.0717 -0.0399,-0.0159 -0.0712,-0.0205 -0.0511,-0.0205 z m 11.38271,2.124 c 0.0795,-0.008 0.37048,0.11366 0.24909,0.0717 0.11498,0.0464 0.26546,0.11205 0.4265,0.19152 0.6724,0.33182 1.25309,0.91872 1.65486,1.65886 l 0.24569,0.4549 a 0.14716395,0.14751877 0 0 1 -0.0988,0.21548 l -0.44699,0.0958 c -0.94678,0.20353 -1.84316,0.81437 -2.59319,1.78882 -0.10483,0.13616 -0.2051,0.26134 -0.28662,0.3523 -0.0406,0.0455 -0.0775,0.0801 -0.10919,0.10945 -0.0158,0.0146 -0.029,0.0283 -0.0476,0.041 -0.009,0.008 -0.0209,0.0145 -0.0375,0.0205 -0.009,0.003 -0.0294,0.0102 -0.0309,0.0102 -0.002,2.7e-4 -0.057,0.003 -0.0579,0.003 -0.16143,-0.0272 -0.43989,-0.13094 -0.70632,-0.23599 -0.13308,-0.0525 -0.25577,-0.10567 -0.35144,-0.15036 -0.0478,-0.0226 -0.0895,-0.0417 -0.12294,-0.0615 -0.0176,-0.0103 -0.0302,-0.0197 -0.0476,-0.0342 -0.009,-0.008 -0.0187,-0.0158 -0.0308,-0.0309 -0.004,-0.008 -0.0199,-0.0298 -0.0204,-0.0309 -4.8e-4,-7.7e-4 -0.0145,-0.0608 -0.0145,-0.0615 -2e-5,-5.7e-4 0.002,-0.0269 0.003,-0.0341 0.002,-0.008 0.002,-0.0116 0.003,-0.0177 0.002,-0.008 0.004,-0.0146 0.008,-0.0204 0.004,-0.0116 0.0102,-0.0231 0.0176,-0.0376 0.0145,-0.0291 0.0318,-0.0674 0.0546,-0.11294 0.0456,-0.0908 0.11093,-0.21528 0.19108,-0.36598 0.16038,-0.30138 0.37873,-0.70638 0.621,-1.14238 0.48321,-0.86961 0.98938,-1.80572 1.11916,-2.06588 0.0682,-0.13616 0.13612,-0.26564 0.18765,-0.36255 0.0259,-0.0485 0.0473,-0.0887 0.0649,-0.11976 0.009,-0.0159 0.0176,-0.0298 0.0239,-0.041 0.003,-0.004 0.008,-0.008 0.0102,-0.0145 0.003,-0.004 0.0158,-0.0228 0.0176,-0.024 5.5e-4,-6.1e-4 0.0636,-0.0405 0.0647,-0.041 7.6e-4,-3.6e-4 0.0307,-0.008 0.041,-0.0103 z m -8.31525,0.10946 c -0.32343,0 -0.55456,0.37743 -0.40604,0.64643 -0.004,-0.008 0.0189,0.0295 0.0581,0.0685 0.039,0.039 0.0964,0.0883 0.16037,0.14356 0.12758,0.1109 0.29195,0.24424 0.46404,0.37623 0.17208,0.13209 0.35092,0.26329 0.50157,0.366 0.1506,0.10261 0.28456,0.17929 0.32415,0.19492 0.23032,0.091 0.41455,-0.0235 0.52204,-0.21546 0.10746,-0.19206 0.11122,-0.43458 -0.0785,-0.60542 -0.25828,-0.23244 -0.60174,-0.48198 -0.90762,-0.67037 -0.15289,-0.0941 -0.29663,-0.17196 -0.41286,-0.22572 -0.11614,-0.0537 -0.21544,-0.0787 -0.22521,-0.0787 z m -5.23072,0.62934 c -0.0513,0.0146 -0.0909,0.046 -0.13656,0.099 -0.0869,0.10133 -0.13409,0.18573 -0.14999,0.25654 -0.0158,0.0708 -0.009,0.13209 0.0341,0.21888 0.0873,0.17372 0.34932,0.4248 0.81889,0.75933 0.20461,0.14573 0.41109,0.27797 0.57665,0.37281 0.0828,0.0474 0.1574,0.085 0.21154,0.10944 0.054,0.0243 0.10223,0.0309 0.0716,0.0309 0.21438,0 0.4504,-0.23937 0.4504,-0.46177 2e-5,-0.16565 -0.004,-0.21696 -0.11266,-0.3386 -0.10687,-0.1215 -0.33484,-0.29799 -0.75066,-0.5917 -0.36274,-0.25625 -0.62947,-0.40047 -0.80865,-0.44464 -0.0897,-0.022 -0.15339,-0.0246 -0.20473,-0.0102 z m 3.2244,2.1411 c -0.036,0 -0.17787,0.0686 -0.28317,0.18129 -0.10543,0.11279 -0.174,0.2639 -0.174,0.31809 0,0.12629 0.0116,0.17956 0.12295,0.3044 0.11078,0.12483 0.3277,0.29981 0.7063,0.57804 0.26757,0.19667 0.44813,0.3171 0.57664,0.37964 0.12859,0.0626 0.19908,0.0721 0.30025,0.0651 0.29854,-0.0209 0.52235,-0.3109 0.46405,-0.54383 0.004,0.0208 -0.0116,-0.0228 -0.0546,-0.0718 -0.0422,-0.049 -0.10585,-0.11221 -0.18082,-0.18126 -0.14984,-0.13805 -0.34884,-0.30248 -0.55618,-0.45833 -0.20736,-0.15586 -0.4212,-0.3036 -0.59711,-0.41044 -0.0879,-0.0534 -0.16825,-0.0952 -0.22863,-0.1231 -0.0605,-0.0277 -0.11035,-0.0376 -0.0956,-0.0376 z m 6.83443,2.66785 c 0.17621,-0.0103 0.34876,-0.004 0.5391,0.0103 0.80979,0.0628 1.42168,0.31961 1.97901,0.83456 0.18745,0.17319 0.418,0.46273 0.61076,0.73879 0.0964,0.13791 0.18197,0.27244 0.24565,0.38649 0.0318,0.0572 0.0585,0.10931 0.0785,0.15743 0.02,0.0479 0.0374,0.0872 0.0374,0.15035 0,7.7e-4 -0.0201,0.0778 -0.0204,0.0787 -4.6e-4,7.6e-4 -0.0333,0.0369 -0.0341,0.0376 -7.7e-4,7.5e-4 -0.0175,0.0116 -0.0239,0.0175 -0.008,0.003 -0.0145,0.008 -0.0204,0.0102 -0.0227,0.0102 -0.0364,0.0116 -0.0546,0.0177 -0.0366,0.008 -0.0786,0.0182 -0.12961,0.0239 -0.10209,0.0116 -0.23961,0.0194 -0.38898,0.0239 -0.4416,0.0159 -0.7488,0.0869 -1.08844,0.30101 -0.33965,0.21406 -0.71311,0.57924 -1.23859,1.17999 -2.42589,2.77329 -4.89753,5.03184 -7.48952,6.84061 -2.67183,1.86447 -5.52139,3.21417 -7.68061,3.62212 a 0.14716395,0.14751877 0 0 1 -0.0102,-0.003 c -0.37487,0.0705 -0.83861,0.13471 -1.24201,0.17109 -0.2033,0.0183 -0.38844,0.0298 -0.5425,0.0342 -0.15276,0.003 -0.26584,0.003 -0.35827,-0.0177 h -0.003 c -0.0439,-0.0103 -0.35466,-0.054 -0.63807,-0.0854 -0.14937,-0.0159 -0.27403,-0.0385 -0.36852,-0.0651 -0.0471,-0.0145 -0.0863,-0.0237 -0.12961,-0.0513 -0.0102,-0.008 -0.0213,-0.0178 -0.0341,-0.0309 -0.008,-0.008 -0.0145,-0.0145 -0.0204,-0.0239 -0.008,-0.008 -0.02,-0.0328 -0.0204,-0.0341 -5.1e-4,-7.6e-4 -0.0102,-0.05 -0.0102,-0.0513 -7e-5,-7.7e-4 0.008,-0.0534 0.008,-0.0547 3.9e-4,-7.5e-4 0.0231,-0.0433 0.0239,-0.0446 7.7e-4,-7.7e-4 0.0158,-0.0197 0.0239,-0.0273 0.0487,-0.044 0.0727,-0.0456 0.11948,-0.0685 0.0469,-0.0226 0.10484,-0.0492 0.174,-0.0787 0.1383,-0.0589 0.31562,-0.12962 0.50155,-0.19838 1.00081,-0.3703 3.19049,-1.44469 4.52103,-2.21976 1.77939,-1.0365 3.41994,-2.13184 6.52049,-4.35749 0.76627,-0.55007 1.53437,-1.09243 2.153,-1.52203 0.61866,-0.42959 1.07943,-0.7419 1.26589,-0.85166 0.34135,-0.20092 0.72204,-0.43639 0.8155,-0.50279 0.29161,-0.2074 0.0811,-0.76271 -0.30367,-0.76271 -0.13569,0 -0.51035,0.14558 -1.13967,0.53355 -0.6293,0.38808 -1.52923,1.00731 -2.80473,1.92221 -4.63269,3.32305 -6.52821,4.54529 -8.92937,5.74955 -0.51953,0.26054 -1.25495,0.59638 -1.88349,0.86876 -0.31427,0.13618 -0.60187,0.25536 -0.82233,0.34202 -0.11035,0.0434 -0.20287,0.0777 -0.27637,0.10263 -0.0366,0.0116 -0.0675,0.0234 -0.0956,0.0309 -0.0283,0.008 -0.0473,0.0145 -0.0886,0.0145 -7.3e-4,0 -0.0472,-0.008 -0.0476,-0.008 -5.5e-4,-1.7e-4 -0.054,-0.0303 -0.0546,-0.0309 -4.1e-4,-3.3e-4 -0.0339,-0.0473 -0.0341,-0.0477 -2.3e-4,-5.4e-4 -0.0145,-0.0437 -0.0145,-0.0446 -1.1e-4,-7.3e-4 -0.003,-0.03 -0.003,-0.0309 4e-5,-7.7e-4 0.002,-0.0179 0.003,-0.0239 0.002,-0.0116 0.003,-0.0194 0.008,-0.0273 0.0102,-0.0316 0.0227,-0.05 0.0375,-0.0752 0.0297,-0.0503 0.0732,-0.1157 0.12961,-0.19496 0.11339,-0.15867 0.28049,-0.37548 0.47769,-0.62591 0.39437,-0.50087 0.91248,-1.12667 1.36139,-1.63832 3.76078,-4.28634 8.94488,-7.84196 14.35806,-9.85049 0.98569,-0.36576 1.5254,-0.52172 2.05407,-0.55067 z m -21.09007,13.75648 c 0.0737,-0.003 0.34531,0.21012 0.21496,0.12309 0.0874,0.0689 0.20213,0.16707 0.32413,0.27707 0.22667,0.20428 0.65009,0.50461 0.90763,0.64301 l 0.50156,0.2668 a 0.14716395,0.14751877 0 0 1 0.0511,0.21545 l -0.53912,0.7559 c -0.14831,0.20846 -0.28968,0.40507 -0.39922,0.55409 -0.0549,0.0746 -0.10079,0.13776 -0.13655,0.18471 -0.0358,0.0467 -0.0472,0.0651 -0.0819,0.099 -0.002,7.7e-4 -0.0631,0.0372 -0.0647,0.0376 -0.002,5.3e-4 -0.0316,0.008 -0.0445,0.008 -0.0253,4.2e-4 -0.043,-0.003 -0.0581,-0.008 -0.03,-0.008 -0.0535,-0.0177 -0.0819,-0.0309 -0.0571,-0.0261 -0.12714,-0.0645 -0.20814,-0.11294 -0.16177,-0.0967 -0.37018,-0.23532 -0.59369,-0.39675 -0.22036,-0.15918 -0.43625,-0.3121 -0.60395,-0.43095 -0.1677,-0.11888 -0.30276,-0.21234 -0.31389,-0.21889 -0.068,-0.04 -0.093,-0.12497 -0.0921,-0.17786 7.6e-4,-0.0529 0.0116,-0.0957 0.0308,-0.14357 0.0358,-0.0961 0.0959,-0.21053 0.18427,-0.35569 0.17685,-0.29037 0.46677,-0.69789 0.86665,-1.23133 2.3e-4,-2.8e-4 0.0372,-0.034 0.0375,-0.0341 3.2e-4,-1.9e-4 0.0406,-0.0203 0.0408,-0.0204 7.7e-4,-2.2e-4 0.0569,-0.003 0.058,-0.003 z"
         style="display:inline;fill:#020d1b;fill-opacity:1;stroke-width:1.2908" /><text
         xml:space="preserve"
         style="font-style:normal;font-variant:normal;font-weight:900;font-stretch:normal;font-size:9.87778px;line-height:1.5;font-family:Rubik;-inkscape-font-specification:'Rubik Heavy';text-align:center;letter-spacing:0.33852px;text-anchor:middle;opacity:1;fill:#020d1b;fill-opacity:1;stroke:none;stroke-width:2.04915;stroke-linecap:round;stroke-linejoin:round;stroke-dasharray:none;stroke-opacity:1;paint-order:fill markers stroke"
         x="253.68884"
         y="409.01108"
         id="text283"><tspan
           sodipodi:role="line"
           id="tspan283"
           style="font-style:normal;font-variant:normal;font-weight:900;font-stretch:normal;font-size:9.87778px;font-family:Rubik;-inkscape-font-specification:'Rubik Heavy';text-align:center;text-anchor:middle;fill:#020d1b;fill-opacity:1;stroke:none;stroke-width:2.04915"
           x="253.68884"
           y="409.01108"><tspan
             style="font-style:normal;font-variant:normal;font-weight:500;font-stretch:normal;font-family:Rubik;-inkscape-font-specification:'Rubik Medium';stroke-width:2.04915"
             id="tspan294">KYTMME UUDEN SUKUPOLVEN</tspan></tspan><tspan
           sodipodi:role="line"
           style="font-style:normal;font-variant:normal;font-weight:900;font-stretch:normal;font-size:9.87778px;font-family:Rubik;-inkscape-font-specification:'Rubik Heavy';text-align:center;text-anchor:middle;fill:#020d1b;fill-opacity:1;stroke:none;stroke-width:2.04915"
           x="253.85811"
           y="423.82776"
           id="tspan296">KASVIPOHJAISIA <tspan
   style="font-style:normal;font-variant:normal;font-weight:500;font-stretch:normal;font-family:Rubik;-inkscape-font-specification:'Rubik Medium';stroke-width:2.04915"
   id="tspan295">MATERIAALEJA</tspan></tspan></text></g></g></svg>
