<?xml version="1.0" encoding="UTF-8" standalone="no"?>
<!-- Created with Inkscape (http://www.inkscape.org/) -->

<svg
   sodipodi:docname="printical.fi new design.svg"
   xml:space="preserve"
   inkscape:version="1.3.2 (091e20e, 2023-11-25, custom)"
   id="svg5"
   version="1.1"
   viewBox="0 0 64.626222 32.469348"
   height="122.7188"
   width="244.25659"
   inkscape:export-filename="tausta.png"
   inkscape:export-xdpi="96"
   inkscape:export-ydpi="96"
   xmlns:inkscape="http://www.inkscape.org/namespaces/inkscape"
   xmlns:sodipodi="http://sodipodi.sourceforge.net/DTD/sodipodi-0.dtd"
   xmlns="http://www.w3.org/2000/svg"
   xmlns:svg="http://www.w3.org/2000/svg"><sodipodi:namedview
     id="namedview7"
     pagecolor="#262626"
     bordercolor="#ffffff"
     borderopacity="1"
     inkscape:pageshadow="0"
     inkscape:pageopacity="0"
     inkscape:pagecheckerboard="false"
     inkscape:document-units="px"
     showgrid="false"
     units="px"
     inkscape:snap-page="true"
     inkscape:showpageshadow="false"
     inkscape:deskcolor="#262626"
     borderlayer="true"
     inkscape:zoom="0.50000001"
     inkscape:cx="-1477"
     inkscape:cy="310.99999"
     inkscape:window-width="1920"
     inkscape:window-height="1057"
     inkscape:window-x="-8"
     inkscape:window-y="-8"
     inkscape:window-maximized="1"
     inkscape:current-layer="layer6"
     showguides="false"><inkscape:grid
       id="grid274"
       units="px"
       originx="314.48767"
       originy="-74.539779"
       spacingx="5.08"
       spacingy="2.8575"
       empcolor="#004ebc"
       empopacity="0.30196078"
       color="#e56900"
       opacity="0.14901961"
       empspacing="10"
       dotted="false"
       gridanglex="30"
       gridanglez="30"
       visible="false" /><sodipodi:guide
       position="568.48767,1217.5399"
       orientation="1,0"
       id="guide2"
       inkscape:locked="false" /><sodipodi:guide
       position="771.68767,1272.5732"
       orientation="1,0"
       id="guide14"
       inkscape:locked="false" /><sodipodi:guide
       position="365.28767,1272.5732"
       orientation="1,0"
       id="guide15"
       inkscape:locked="false" /><sodipodi:guide
       position="365.28767,1272.5732"
       orientation="0,-1"
       id="guide16"
       inkscape:locked="false" /><sodipodi:guide
       position="314.48767,1037.6232"
       orientation="0,-1"
       id="guide84"
       inkscape:locked="false" /><sodipodi:guide
       position="466.95381,1180.5643"
       orientation="1,0"
       id="guide136"
       inkscape:locked="false" /><sodipodi:guide
       position="670.02151,1180.5643"
       orientation="1,0"
       id="guide137"
       inkscape:locked="false" /><sodipodi:guide
       position="388.83558,1088.4232"
       orientation="0,-1"
       id="guide139"
       inkscape:locked="false" /><sodipodi:guide
       position="352.58766,1211.137"
       orientation="1,0"
       id="guide161"
       inkscape:locked="false" /><sodipodi:guide
       position="784.3877,1211.1899"
       orientation="1,0"
       id="guide162"
       inkscape:locked="false" /><sodipodi:guide
       position="314.4877,1285.4385"
       orientation="0,-1"
       id="guide200"
       inkscape:locked="false" /><sodipodi:guide
       position="803.43764,1088.4232"
       orientation="1,0"
       id="guide6"
       inkscape:locked="false" /><sodipodi:guide
       position="333.53764,1088.4232"
       orientation="1,0"
       id="guide7"
       inkscape:locked="false" /><sodipodi:guide
       position="596.40122,1291.7994"
       orientation="0,-1"
       id="guide52"
       inkscape:locked="false" /><sodipodi:guide
       position="170.94448,1264.6357"
       orientation="1,0"
       id="guide133"
       inkscape:locked="false" /><sodipodi:guide
       position="-48.130504,1235.4181"
       orientation="0,-1"
       id="guide134"
       inkscape:locked="false" /></sodipodi:namedview><defs
     id="defs2" /><g
     inkscape:groupmode="layer"
     id="layer6"
     inkscape:label="Layer 6"
     transform="translate(314.48767,-74.539781)"><g
       id="g172"
       inkscape:export-filename="yhteystiedot.png"
       inkscape:export-xdpi="96"
       inkscape:export-ydpi="96"><text
         xml:space="preserve"
         style="font-style:normal;font-variant:normal;font-weight:normal;font-stretch:normal;font-size:7.37153px;line-height:1.2;font-family:Rubik;-inkscape-font-specification:Rubik;text-align:end;letter-spacing:1.10573px;text-anchor:end;fill:#020d1b;fill-opacity:1;stroke:none;stroke-width:0.264583;stroke-linejoin:bevel;stroke-dasharray:none;stroke-opacity:1;paint-order:fill markers stroke"
         x="-282.19299"
         y="106.93542"
         id="text136"
         inkscape:export-filename=".\yhteystiedot.png"
         inkscape:export-xdpi="96"
         inkscape:export-ydpi="96"><tspan
           sodipodi:role="line"
           id="tspan136"
           style="font-style:normal;font-variant:normal;font-weight:normal;font-stretch:normal;font-size:7.37153px;font-family:Rubik;-inkscape-font-specification:Rubik;text-align:center;letter-spacing:1.10573px;text-anchor:middle;fill:#020d1b;fill-opacity:1;stroke-width:0.264583"
           x="-281.64014"
           y="106.93542">YHTEYSTIEDOT</tspan></text><path
         id="path136"
         style="fill:#020d1b;fill-opacity:1;stroke-width:1.05833;stroke-linecap:round;stroke-linejoin:round;paint-order:stroke fill markers"
         d="m -279.70003,74.539965 a 5.1048447,5.1048447 0 0 0 -5.10427,5.10536 5.1048447,5.1048447 0 0 0 2.82804,4.557893 6.2687017,6.2687017 0 0 0 -5.30514,6.174376 v 6.706723 h 15.16276 v -6.562025 c 0.29362,0.226554 0.61701,0.431245 0.9729,0.613334 1.00507,0.508309 2.28781,0.762357 3.84738,0.762357 1.01661,0 1.90004,-0.109911 2.65095,-0.329361 0.76245,-0.219482 1.4101,-0.513615 1.9415,-0.883279 0.53142,-0.358126 0.964,-0.73918 1.29902,-1.143513 0.0347,-0.04622 0.0633,-0.08734 0.0863,-0.122034 0.0232,-0.04622 0.0356,-0.09194 0.0356,-0.138325 0.0125,-0.150245 -0.0353,-0.265751 -0.13937,-0.346619 -0.0924,-0.09236 -0.20227,-0.138123 -0.32934,-0.138123 h -1.69748 c -0.11555,0 -0.21391,0.02303 -0.29478,0.06917 -0.0809,0.0347 -0.18493,0.09758 -0.31207,0.19015 -0.2426,0.18493 -0.49665,0.330109 -0.76234,0.434069 -0.25415,0.115553 -0.57225,0.195581 -0.95349,0.241889 -0.38122,0.04614 -0.88932,0.06917 -1.52469,0.06917 -1.59422,0 -2.76141,-0.322734 -3.50076,-0.969663 -0.73935,-0.64693 -1.17193,-1.537187 -1.299,-2.669318 -0.0232,-0.219489 -0.0403,-0.507865 -0.0518,-0.865999 v -1.091696 c 0.0125,-0.358126 0.0289,-0.635057 0.0518,-0.831455 0.0809,-0.693136 0.27657,-1.316803 0.58848,-1.87131 0.32347,-0.554516 0.79722,-0.993907 1.42104,-1.317371 0.62384,-0.323465 1.43855,-0.484844 2.44362,-0.484844 1.1899,0 2.12593,0.127044 2.80752,0.381179 0.68158,0.254158 1.1725,0.652384 1.47287,1.195361 0.30036,0.542954 0.46744,1.24212 0.5021,2.096985 0.0232,0.28882 0.0289,0.577195 0.0167,0.866022 v 0.901648 c 0,0.17322 -0.0286,0.323193 -0.0863,0.450276 -0.0461,0.127052 -0.12745,0.225464 -0.24295,0.294779 -0.10406,0.0694 -0.24245,0.103641 -0.41574,0.103641 -0.25416,0 -0.44414,-0.07539 -0.57123,-0.225675 -0.12704,-0.150237 -0.19119,-0.363082 -0.19119,-0.640324 v -3.345252 c 0,-0.127044 -0.0457,-0.236917 -0.13813,-0.329339 -0.0924,-0.09236 -0.20227,-0.138115 -0.32934,-0.138115 h -1.24825 c -0.12706,0 -0.23694,0.04575 -0.32937,0.138115 -0.0924,0.09236 -0.13811,0.202271 -0.13811,0.329339 v 0.156508 c -0.18493,-0.254151 -0.41027,-0.445226 -0.67597,-0.572294 -0.25413,-0.127044 -0.60087,-0.190149 -1.03985,-0.190149 -0.8549,0 -1.5129,0.328459 -1.97499,0.98695 -0.45055,0.64693 -0.67597,1.501725 -0.67597,2.564541 0,1.051263 0.23687,1.90717 0.71051,2.565654 0.48521,0.646914 1.16147,0.969663 2.0279,0.969663 0.54296,0 0.96411,-0.05158 1.26447,-0.155458 0.30035,-0.104061 0.52578,-0.231004 0.67595,-0.381179 0.15024,-0.150245 0.26576,-0.294382 0.34662,-0.433003 0.11555,0.127044 0.27691,0.254096 0.48484,0.381179 0.20792,0.115552 0.46199,0.212845 0.76236,0.293713 0.31191,0.08086 0.65864,0.122025 1.03985,0.122025 0.43901,0 0.87266,-0.09841 1.3001,-0.294794 0.43898,-0.207912 0.80288,-0.514595 1.09168,-0.918928 0.30038,-0.404333 0.46746,-0.895237 0.50212,-1.472852 0.0125,-0.207912 0.0167,-0.439103 0.0167,-0.693253 0.0125,-0.254135 0.0167,-0.502458 0.0167,-0.745062 0,-0.254151 -0.0104,-0.47851 -0.0345,-0.674884 -0.0694,-0.762467 -0.22497,-1.484515 -0.46756,-2.166113 -0.2426,-0.681591 -0.62367,-1.288071 -1.14353,-1.819487 -0.50831,-0.5314 -1.19601,-0.947894 -2.06243,-1.248267 -0.86644,-0.300357 -1.95811,-0.450283 -3.27509,-0.450283 -1.08592,0 -2.03339,0.167167 -2.84205,0.502123 -0.80867,0.335003 -1.48387,0.780144 -2.02683,1.334651 -0.54295,0.542954 -0.95944,1.14945 -1.24826,1.819495 -0.2888,0.670013 -0.46163,1.346282 -0.51938,2.027881 -0.0125,0.150237 -0.0229,0.357355 -0.0345,0.623044 v 0.849831 0.848719 c 1.3e-4,0.0023 -1.1e-4,0.0039 0,0.0062 a 6.2687017,6.2687017 0 0 0 -3.09473,-1.417791 5.1048447,5.1048447 0 0 0 2.81614,-4.551412 5.1048447,5.1048447 0 0 0 -5.10537,-5.105352 z m 12.05505,8.72815 c 0.33502,0 0.60052,0.104061 0.79689,0.312051 0.20792,0.196421 0.31209,0.577452 0.31209,1.143521 0,0.566061 -0.10406,0.94822 -0.31209,1.144602 -0.19641,0.196413 -0.46187,0.293705 -0.79689,0.293705 -0.20791,0 -0.399,-0.04015 -0.57229,-0.120983 -0.16173,-0.08087 -0.28876,-0.225044 -0.38118,-0.433003 -0.0924,-0.219489 -0.13812,-0.514681 -0.13812,-0.884368 0,-0.566061 0.10406,-0.947139 0.31208,-1.143513 0.20791,-0.207912 0.46771,-0.312075 0.77961,-0.312075 z" /></g></g></svg>
