<?xml version="1.0" encoding="UTF-8" standalone="no"?>
<!-- Created with Inkscape (http://www.inkscape.org/) -->

<svg
   sodipodi:docname="printical websiteicon.svg"
   xml:space="preserve"
   inkscape:version="1.3.2 (091e20e, 2023-11-25, custom)"
   id="svg5"
   version="1.1"
   viewBox="0 0 4.3833796 4.3833799"
   height="16.567104"
   width="16.567104"
   xmlns:inkscape="http://www.inkscape.org/namespaces/inkscape"
   xmlns:sodipodi="http://sodipodi.sourceforge.net/DTD/sodipodi-0.dtd"
   xmlns="http://www.w3.org/2000/svg"
   xmlns:svg="http://www.w3.org/2000/svg"><sodipodi:namedview
     id="namedview7"
     pagecolor="#262626"
     bordercolor="#ffffff"
     borderopacity="1"
     inkscape:pageshadow="0"
     inkscape:pageopacity="0"
     inkscape:pagecheckerboard="false"
     inkscape:document-units="px"
     showgrid="false"
     units="px"
     inkscape:snap-page="true"
     inkscape:showpageshadow="false"
     inkscape:deskcolor="#262626"
     borderlayer="true"
     inkscape:zoom="0.64022072"
     inkscape:cx="930.14796"
     inkscape:cy="635.71826"
     inkscape:window-width="1920"
     inkscape:window-height="1057"
     inkscape:window-x="-8"
     inkscape:window-y="-8"
     inkscape:window-maximized="1"
     inkscape:current-layer="layer1"><inkscape:page
       x="0"
       y="0"
       width="4.3833795"
       height="4.3833799"
       id="page2"
       margin="0"
       bleed="0" /></sodipodi:namedview><defs
     id="defs2" /><g
     inkscape:label="Layer 1"
     inkscape:groupmode="layer"
     id="layer1"
     transform="translate(-260.50057,-149.27233)"><circle
       style="fill:#020d1b;fill-opacity:1;stroke-width:1.2;stroke-linecap:round;stroke-linejoin:round;paint-order:stroke markers fill"
       id="path1"
       cx="262.69226"
       cy="151.46402"
       r="2.1916897" /><path
       id="path214"
       style="color:#000000;fill:#ff671a;fill-opacity:1;stroke-width:0.999999;stroke-linecap:round;stroke-linejoin:round;-inkscape-stroke:none;paint-order:fill markers stroke"
       d="m 262.7014,149.39657 a 0.21266144,0.21266144 0 0 0 -0.21263,0.21262 v 0.46796 h -0.46796 a 0.21266144,0.21266144 0 0 0 -0.21259,0.21259 0.21266144,0.21266144 0 0 0 0.21259,0.21264 h 1.31857 v 0.37976 l -0.63798,0.63799 -0.70029,-0.70026 a 0.21268269,0.21268269 0 0 0 -0.30079,0 l -0.25519,0.2552 -0.25519,0.25519 a 0.21268269,0.21268269 0 0 0 0,0.30078 l 1.29869,1.2987 v 0.42233 a 0.21266144,0.21266144 0 0 0 0.21277,0.21263 0.21266144,0.21266144 0 0 0 0.21258,-0.21263 v -0.51038 a 0.21268269,0.21268269 0 0 0 -0.0623,-0.15033 l -1.21068,-1.21064 0.10487,-0.10487 0.10474,-0.10487 0.70029,0.70026 a 0.21268269,0.21268269 0 0 0 0.30078,0 l 0.85071,-0.85058 a 0.21268269,0.21268269 0 0 0 0.0621,-0.15033 v -0.68059 a 0.21268269,0.21268269 0 0 0 -0.21262,-0.21259 h -0.63799 v -0.46796 a 0.21266144,0.21266144 0 0 0 -0.21259,-0.21262 z m 1.36097,1.87138 a 0.21266144,0.21266144 0 0 0 -0.15033,0.0623 l -0.85071,0.85071 a 0.21266144,0.21266144 0 0 0 0,0.30065 0.21266144,0.21266144 0 0 0 0.30078,0 l 0.85071,-0.85058 a 0.21266144,0.21266144 0 0 0 0,-0.30078 0.21266144,0.21266144 0 0 0 -0.15045,-0.0623 z" /></g></svg>
